<svg id="Capa_1" data-name="Capa 1" xmlns="http://www.w3.org/2000/svg" xmlns:xlink="http://www.w3.org/1999/xlink" viewBox="0 0 428 428"><defs><style>.cls-1,.cls-25{fill:#d6d8e5;}.cls-1,.cls-15,.cls-19,.cls-7{isolation:isolate;}.cls-1{opacity:0.4;}.cls-2{fill:#b1b4c4;}.cls-3{fill:#616e84;}.cls-4{fill:#20232d;}.cls-5,.cls-7{fill:#fff;}.cls-6{fill:#2b303f;}.cls-19,.cls-7{opacity:0.1;}.cls-8{fill:#757b89;}.cls-9{fill:#d5d7e2;}.cls-10{fill:#4399ff;}.cls-11{fill:#70b6fc;}.cls-12{fill:#ffcea9;}.cls-13{fill:#efbd9c;}.cls-14{fill:#8c50ff;}.cls-15{opacity:0.2;}.cls-16{fill:#efda86;}.cls-17{fill:#d1b66b;}.cls-18{fill:#e2c979;}.cls-20{fill:#c65555;}.cls-21{fill:#ff6c6c;}.cls-22{fill:#dd6262;}.cls-23{fill:#2ab7ca;}.cls-24{fill:#259ca5;}.cls-26{fill:#c4c7d6;}.cls-27{fill:url(#Degradado_sin_nombre_4);}.cls-28{fill:#e8a30a;}.cls-29{fill:#f9cb07;}.cls-30{fill:none;stroke:#cc8b09;stroke-miterlimit:10;stroke-width:10.46px;}.cls-31{fill:#cc8b09;}.cls-32{fill:#edf0f9;}.cls-33{fill:#e2e5f2;}.cls-34{fill:#e5e5e5;}.cls-35{fill:#f4f4f4;}.cls-36{fill:#bfbfbf;}.cls-37{fill:#dceeff;}.cls-38{fill:#dbdbdb;}.cls-39{fill:#1e212d;}.cls-40{fill:#ededed;}.cls-41{fill:#38226d;}.cls-42{fill:#9c73ff;}.cls-43{fill:#3a2c6d;}.cls-44{fill:#f5f7fc;}.cls-45{fill:#dadce5;}</style><linearGradient id="Degradado_sin_nombre_4" x1="259.6" y1="377.22" x2="207.37" y2="407.37" gradientTransform="matrix(0.87, 0.5, 0.5, -0.87, -164.87, 289.21)" gradientUnits="userSpaceOnUse"><stop offset="0" stop-color="#fff" stop-opacity="0.4"/><stop offset="0.89" stop-color="#fff" stop-opacity="0"/></linearGradient></defs><path class="cls-1" d="M309.56,329.32,213.14,273.8a3.55,3.55,0,0,1,.14-6.24l12.13-6.26a3.59,3.59,0,0,1,3.41.08l99.66,57.39a3.56,3.56,0,0,1-.14,6.25l-8.8,4.53A10.4,10.4,0,0,1,309.56,329.32Z"/><path class="cls-2" d="M315.47,318.87l-82.18-47.44c-7-4-12.61-14.8-12.61-24.08V18.12c0-9.28,5.65-13.55,12.61-9.53l82.18,47.53c7,4,12.61,14.8,12.61,24.08V309.4C328.08,318.63,322.43,322.89,315.47,318.87Z"/><polygon class="cls-2" points="316.88 323 323.39 319.71 317.15 309.01 316.88 323"/><polygon class="cls-2" points="219.43 9.92 225.42 6.78 224.21 15.61 219.43 9.92"/><path class="cls-3" d="M310.29,321.49l-82.17-47.44c-7-4-12.6-14.8-12.6-24.08V20.78c0-9.28,5.64-13.55,12.6-9.53l82.17,47.44c7,4,12.6,14.8,12.6,24.08V312C322.84,321.25,317.2,325.51,310.29,321.49Z"/><path class="cls-4" d="M322,83.36V312.54c0,9.29-5.64,13.55-12.6,9.54l-32.22-18.61-10-5.78-39.95-23.05c-7-4-12.6-14.8-12.6-24.09V21.37c0-9.25,5.64-13.55,12.6-9.54l82.17,47.44C316.29,63.29,322,74.12,322,83.36Z"/><path class="cls-5" d="M316,81V304.25c0,5.62-4,7.91-8.82,5.09l-25.69-14.83-2.24-1.31-.76-.44L273,289.55l-16.07-9.26h0l-6.67-3.85-2.68-1.55-18.27-10.51c-4.87-2.81-8.81-9.66-8.81-15.28V25.88c0-5.63,3.94-7.91,8.81-5.1l32.08,18.53v.09a15.2,15.2,0,0,0,6.92,11.89c3.8,2.17,6.88.41,6.88-4v-.1l32.08,18.53C312.09,68.56,316,75.4,316,81Z"/><ellipse class="cls-6" cx="269.51" cy="45.95" rx="2.14" ry="3.69" transform="translate(12.94 140.4) rotate(-29.89)"/><path class="cls-7" d="M268.29,47.05a2.42,2.42,0,0,1-1.1-1.93c0-.7.49-1,1.09-.63a2.41,2.41,0,0,1,1.09,1.89C269.37,47.12,268.88,47.4,268.29,47.05Z"/><path class="cls-8" d="M325.29,113.51h0c-.67.39-1.22,0-1.22-.92v-9.77a2.94,2.94,0,0,1,1.22-2.32h0c.67-.38,1.21,0,1.21.92v9.77A2.9,2.9,0,0,1,325.29,113.51Z"/><path class="cls-8" d="M325.29,129.52h0c-.67.39-1.22,0-1.22-.91v-9.78a2.94,2.94,0,0,1,1.22-2.32h0c.67-.38,1.21,0,1.21.92v9.77A2.89,2.89,0,0,1,325.29,129.52Z"/><path class="cls-9" d="M294.29,211a8.8,8.8,0,0,1,4,6.88v6.81c0,2.53-1.8,3.55-4,2.27l-54.44-31.42a8.77,8.77,0,0,1-4-6.88v-6.81c0-2.53,1.81-3.55,4-2.28Z"/><ellipse class="cls-1" cx="305.72" cy="357.87" rx="21.49" ry="12.4"/><path class="cls-9" d="M295.71,240.56a5.58,5.58,0,0,1,2.58,4.36v7c0,1.6-1.15,2.25-2.54,1.45l-57.46-33.15a5.58,5.58,0,0,1-2.53-4.37v-7c0-1.61,1.15-2.25,2.54-1.44Z"/><polygon class="cls-10" points="357.28 284.52 366.97 290.12 366.97 265.16 357.28 259.57 357.28 284.52"/><polygon class="cls-11" points="366.97 265.19 357.28 259.59 365.13 255.06 375.2 260.69 366.97 265.19"/><path class="cls-12" d="M403.75,283a7,7,0,0,0-3.43-5.81L389,270.63l1.81-8.52v-.64a9.33,9.33,0,0,0-.38-2.68c-.34-1.12-1.55-3.78-2.33-3.24l-11.88,6.87c-.72.2-1.08,1-1.08,2.27v20.89a8,8,0,0,0,3.6,6.22l16.21,9.35c1.43.82,2.69.51,3.24-.62l5.4-11.65a3.15,3.15,0,0,0,.19-1.36Z"/><polygon class="cls-12" points="391.82 304.57 397.54 301.23 392.33 294.17 391.82 304.57"/><path class="cls-13" d="M398.3,286.17a7.1,7.1,0,0,0-3.43-5.81l-11.35-6.54,1.81-8.53v-.63A9.4,9.4,0,0,0,385,262c-.34-1.12-1.55-3.77-2.33-3.24l-11.88,6.87c-.72.2-1.08,1-1.08,2.29v20.8a8,8,0,0,0,3.6,6.23l16.21,9.34c1.43.84,2.69.53,3.24-.62l5.4-11.65a3.1,3.1,0,0,0,.19-1.35Z"/><path class="cls-14" d="M188.77,123.85,130.84,90.41A4.48,4.48,0,0,0,127,89.8h0a2.65,2.65,0,0,0-.69.4l-6.46,3.7,5,5.87v24.16a13.35,13.35,0,0,0,6,10.43l18,11.34,4.9,11.23-5.15,8.75,7.19-4.09,6.82-7.93,21.76,11.8,1.18,7,7.33-4.2.2-.11h.07a4.33,4.33,0,0,0,1.61-3.79v-30A13.29,13.29,0,0,0,188.77,123.85Z"/><path class="cls-15" d="M188.77,123.85,130.84,90.41A4.48,4.48,0,0,0,127,89.8h0a2.65,2.65,0,0,0-.69.4l-6.46,3.7,5,5.87v24.16a13.35,13.35,0,0,0,6,10.43l18,11.34,4.9,11.23-5.15,8.75,7.19-4.09,6.82-7.93,21.76,11.8,1.18,7,7.33-4.2.2-.11h.07a4.33,4.33,0,0,0,1.61-3.79v-30A13.29,13.29,0,0,0,188.77,123.85Z"/><path class="cls-14" d="M181.58,128,123.66,94.52c-3.32-1.92-6-.36-6,3.48v30a13.35,13.35,0,0,0,6,10.43l18.06,11.38,6.93,15.87,6.82-7.93,26.12,14.16c3.33,1.92,6,.37,6-3.47v-30A13.3,13.3,0,0,0,181.58,128Z"/><ellipse class="cls-5" cx="133.78" cy="121.52" rx="3.39" ry="5.87" transform="translate(-42.84 83.17) rotate(-30)"/><ellipse class="cls-5" cx="152.41" cy="131.61" rx="3.4" ry="5.89" transform="translate(-45.31 93.44) rotate(-29.89)"/><ellipse class="cls-5" cx="168.14" cy="141.37" rx="3.39" ry="5.87" transform="translate(-48.16 103.01) rotate(-30)"/><path class="cls-9" d="M300.74,103.86l-59.85-33A7.46,7.46,0,0,1,237.33,65V57.17c0-2.16,1.6-3,3.56-2l59.85,33a7.44,7.44,0,0,1,3.54,5.87v7.83C304.28,104.05,302.69,104.92,300.74,103.86ZM240.89,56.33c-1.4-.77-2.54-.15-2.54,1.39v7.83a5.31,5.31,0,0,0,2.54,4.2l59.85,33c1.4.77,2.53.15,2.53-1.39V93.52a5.33,5.33,0,0,0-2.53-4.19Z"/><polygon class="cls-1" points="202.74 286.56 178.08 272.4 204.53 257.13 229.19 271.29 202.74 286.56"/><polygon class="cls-16" points="205.5 254.77 179.05 239.5 205.5 224.22 231.95 239.5 205.5 254.77"/><polygon class="cls-17" points="230.16 270.71 205.5 284.96 205.5 256.47 230.16 242.24 230.16 270.71"/><polygon class="cls-18" points="205.5 284.96 180.84 270.71 180.84 242.24 205.5 256.47 205.5 284.96"/><polygon class="cls-19" points="180.84 242.24 180.84 249.69 205.5 263.76 205.5 256.51 180.84 242.24"/><polygon class="cls-19" points="230.16 242.24 230.16 250.22 205.5 263.76 205.5 256.51 230.16 242.24"/><polygon class="cls-18" points="179.05 239.5 179.05 247.39 205.5 262.46 205.5 254.77 179.05 239.5"/><polygon class="cls-17" points="205.5 262.46 231.95 248.01 231.95 239.5 205.5 254.77 205.5 262.46"/><polygon class="cls-1" points="161.38 287.49 146.15 278.75 163.25 268.88 178.47 277.63 161.38 287.49"/><polygon class="cls-16" points="163.85 267.43 147.52 258 163.85 248.58 180.18 258 163.85 267.43"/><polygon class="cls-17" points="179.07 277.27 163.85 286.06 163.85 268.48 179.07 259.69 179.07 277.27"/><polygon class="cls-18" points="163.85 286.06 148.62 277.27 148.62 259.69 163.85 268.48 163.85 286.06"/><polygon class="cls-19" points="148.62 259.69 148.62 264.29 163.85 272.98 163.85 268.5 148.62 259.69"/><polygon class="cls-19" points="179.07 259.69 179.07 264.62 163.85 272.98 163.85 268.5 179.07 259.69"/><polygon class="cls-18" points="147.52 258 147.52 262.88 163.85 272.17 163.85 267.43 147.52 258"/><polygon class="cls-17" points="163.85 272.17 180.18 263.26 180.18 258 163.85 267.43 163.85 272.17"/><polygon class="cls-20" points="209.64 304.56 180.26 287.6 183.94 254.1 205.97 266.83 209.64 304.56"/><polygon class="cls-21" points="202.01 308.8 172.63 291.84 176.3 258.35 198.33 271.06 202.01 308.8"/><polygon class="cls-22" points="202.01 308.8 209.64 304.56 205.97 266.83 198.33 271.06 202.01 308.8"/><polygon class="cls-20" points="176.3 258.35 183.94 254.1 183.05 262.23 176.3 258.35"/><path class="cls-4" d="M192.82,267.84l-1.35-.79c0-3.16-1.87-6.81-4.15-8.13s-4.15.18-4.15,3.34l-1.36-.78c0-4,2.47-5.88,5.51-4.12S192.82,263.78,192.82,267.84Z"/><path class="cls-4" d="M200,263.43l-1.36-.78c0-3.16-1.86-6.82-4.15-8.14s-4.14.18-4.14,3.34l-1.36-.78c0-4,2.47-5.87,5.5-4.12S200,259.4,200,263.43Z"/><path class="cls-23" d="M202.88,42.55,173.8,25.74l-.11-.07h0a3.28,3.28,0,0,0-3.16.35A10.07,10.07,0,0,0,166,33.9a3.12,3.12,0,0,0,1.43,3l29.48,17Z"/><ellipse class="cls-24" cx="199.92" cy="48.23" rx="6.42" ry="3.7" transform="translate(58.19 197.25) rotate(-60)"/><polygon class="cls-25" points="212.91 60.81 197.76 52.07 197.76 45.93 212.91 54.68 212.91 60.81"/><polygon class="cls-26" points="212.91 54.69 197.76 45.94 201.25 43.93 216.4 52.68 212.91 54.69"/><ellipse class="cls-27" cx="233.48" cy="66.22" rx="19.07" ry="33.02" transform="translate(-1.83 125.61) rotate(-30)"/><path class="cls-24" d="M236.67,97.12C221,88.09,208.29,66.06,208.29,48S221,22.6,236.67,31.63,265,62.69,265,80.74,252.31,106.14,236.67,97.12Zm0-55.15c-10.7-6.18-19.41-1.16-19.41,11.2S226,80.6,236.67,86.8s19.4,1.15,19.4-11.2S247.37,48.15,236.67,42Z"/><path class="cls-23" d="M233.48,99c-15.64-9-28.38-31.07-28.38-49.12s12.72-25.4,28.38-16.37,28.38,31.06,28.38,49.11S249.12,108,233.48,99Zm0-55.15c-10.7-6.18-19.4-1.16-19.4,11.2s8.7,27.43,19.4,33.63,19.4,1.15,19.4-11.2S244.18,50,233.48,43.81Z"/><path class="cls-28" d="M322.22,345l-23.14-13.35a7.46,7.46,0,0,1-3.1-5.93V310c0-2.28,1.39-3.31,3.1-2.34L322.22,321a7.46,7.46,0,0,1,3.1,5.93v15.72C325.32,345,323.93,346,322.22,345Z"/><polygon class="cls-28" points="314.04 351.29 324.37 345.11 318.11 330.89 308.38 335.7 314.04 351.29"/><polygon class="cls-28" points="287.08 313.5 297.28 307.41 299.83 326.35 287.08 313.5"/><path class="cls-29" d="M312.08,351.09l-23.16-13.36a7.39,7.39,0,0,1-3.1-5.92V316.08c0-2.28,1.38-3.31,3.1-2.34l23.16,13.36a7.43,7.43,0,0,1,3.1,5.92v15.72C315.18,351,313.79,352.08,312.08,351.09Z"/><path class="cls-30" d="M298.46,313.28V301.34c0-4.85,3.4-6.81,7.6-4.41h0a16.77,16.77,0,0,1,7.6,13.16V322"/><ellipse class="cls-31" cx="298.35" cy="313.36" rx="3.37" ry="1.95"/><ellipse class="cls-31" cx="313.66" cy="321.49" rx="3.37" ry="1.95"/><path class="cls-1" d="M73.55,419.19l-45.8-26.45c-5.2-3-4.55-8.23,1.45-11.69l23.25-13.43c6-3.46,15.07-3.84,20.26-.84l45.8,26.45c5.2,3,4.54,8.23-1.45,11.69L93.81,418.35C87.81,421.81,78.74,422.19,73.55,419.19Z"/><path class="cls-25" d="M142.34,386.19V322.25l-97.75-11v64.34h0c-.07,2,1.06,3.84,3.48,5.24l45.8,26.44c5.19,3,14.27,2.62,20.26-.84L137.38,393c3.38-2,5.06-4.46,5-6.82Z"/><path class="cls-32" d="M142.32,329.23v-7H134.8L93,298.13c-5.19-3-14.26-2.62-20.26.84L49.53,312.39q-.62.36-1.2.78l-3.74-1.92v7.62h0c-.05,2,1.08,3.83,3.49,5.22l45.8,26.44c5.19,3,14.27,2.63,20.26-.84l23.25-13.42c3.48-2,5.15-4.61,4.93-7Z"/><path class="cls-33" d="M93.87,342.91l-45.8-26.44c-5.19-3-4.54-8.23,1.46-11.7l23.25-13.42c6-3.46,15.07-3.84,20.26-.84L138.84,317c5.19,3,4.54,8.24-1.46,11.7l-23.25,13.44C108.14,345.56,99.06,345.91,93.87,342.91Z"/><g id="_Группа_" data-name=" Группа "><path id="_Контур_" data-name=" Контур " class="cls-34" d="M117.4,318.91h0a2.24,2.24,0,0,1-1.16,2l-21.1,12.18a2.26,2.26,0,0,1-2.25,0L63.37,316a2.23,2.23,0,0,1-1.13-2v-.12Z"/><path id="_Контур_2" data-name=" Контур 2" class="cls-34" d="M116.24,320.91l-21.1,12.18a2.21,2.21,0,0,1-1.12.3V318.91H117.4A2.24,2.24,0,0,1,116.24,320.91Z"/><g id="_Группа_2" data-name=" Группа 2"><path id="_Контур_3" data-name=" Контур 3" class="cls-35" d="M94.85,331.91a1.55,1.55,0,0,1-1.61,0L62.54,314.2a.43.43,0,0,1-.28-.53.45.45,0,0,1,.28-.29l22.63-13.07,32.23,18.6Z"/></g><g id="_Группа_3" data-name=" Группа 3"><polygon id="_Контур_4" data-name=" Контур 4" class="cls-36" points="75.16 318.93 75.32 319.01 85.17 324.7 90.57 321.58 90.72 321.5 80.72 315.71 75.16 318.93"/><polygon id="_Контур_5" data-name=" Контур 5" class="cls-34" points="75.32 319.01 85.17 324.7 90.57 321.58 80.72 315.89 75.32 319.01"/></g><path class="cls-6" d="M108.85,320l1.39.87a.45.45,0,0,0,.45,0l1.35-.78c.14-.08.15-.19,0-.26l-1.42-.82a.51.51,0,0,0-.45,0l-1.35.78C108.75,319.91,108.74,320,108.85,320Z"/><path class="cls-6" d="M106.84,318.91l1.42.82a.47.47,0,0,0,.46,0l1.35-.78c.14-.08.15-.2,0-.26l-1.42-.82a.51.51,0,0,0-.45,0l-1.35.78C106.74,318.7,106.73,318.81,106.84,318.91Z"/><path class="cls-6" d="M104.83,317.72l1.42.82a.47.47,0,0,0,.46,0l1.35-.78c.13-.08.15-.2,0-.26l-1.42-.82a.51.51,0,0,0-.45,0l-1.35.78C104.73,317.54,104.72,317.65,104.83,317.72Z"/><path class="cls-6" d="M102.82,316.56l1.42.82a.47.47,0,0,0,.46,0l1.35-.78c.13-.08.15-.2,0-.26l-1.42-.82a.51.51,0,0,0-.45,0l-1.35.78A.14.14,0,0,0,102.82,316.56Z"/><path class="cls-6" d="M100.81,315.4l1.42.82a.51.51,0,0,0,.45,0l1.36-.78c.13-.08.15-.2,0-.26l-1.42-.82a.51.51,0,0,0-.45,0l-1.36.79A.14.14,0,0,0,100.81,315.4Z"/><path class="cls-6" d="M98.8,314.24l1.42.82a.51.51,0,0,0,.45,0l1.36-.78c.13-.08.15-.2,0-.27l-1.42-.82a.58.58,0,0,0-.45,0L98.8,314A.15.15,0,0,0,98.8,314.24Z"/><path class="cls-6" d="M96.79,313.08l1.45.83a.51.51,0,0,0,.45,0l1.36-.79c.13-.07.15-.19,0-.26L98.63,312a.59.59,0,0,0-.45,0l-1.36.78C96.69,312.91,96.67,313,96.79,313.08Z"/><path class="cls-6" d="M94.78,311.91l1.42.82a.51.51,0,0,0,.45,0l1.36-.79c.13-.07.15-.19,0-.26l-1.42-.82a.51.51,0,0,0-.45,0l-1.36.78C94.68,311.73,94.66,311.85,94.78,311.91Z"/><path class="cls-6" d="M92.77,310.75l1.42.82a.51.51,0,0,0,.45,0l1.36-.79c.13-.07.15-.19,0-.26l-1.42-.82a.51.51,0,0,0-.45,0l-1.36.78C92.67,310.57,92.65,310.69,92.77,310.75Z"/><path class="cls-6" d="M90.76,309.59l1.42.82a.45.45,0,0,0,.45,0l1.36-.78c.13-.08.14-.19,0-.26l-1.42-.82a.51.51,0,0,0-.45,0l-1.36.78C90.66,309.41,90.64,309.53,90.76,309.59Z"/><path class="cls-6" d="M88.75,308.43l1.42.82a.45.45,0,0,0,.45,0l1.36-.78c.13-.08.14-.19,0-.26l-1.42-.82a.51.51,0,0,0-.45,0l-1.36.78C88.65,308.25,88.63,308.37,88.75,308.43Z"/><path class="cls-6" d="M86.74,307.27l1.42.82a.45.45,0,0,0,.45,0l1.35-.78c.14-.08.15-.19,0-.26l-1.42-.82a.53.53,0,0,0-.46,0l-1.35.78C86.64,307.09,86.62,307.2,86.74,307.27Z"/><path class="cls-6" d="M84.73,306.11l1.42.82a.45.45,0,0,0,.45,0l1.35-.78c.14-.08.15-.19,0-.26l-1.42-.82a.53.53,0,0,0-.46,0l-1.35.78A.15.15,0,0,0,84.73,306.11Z"/><path class="cls-6" d="M81.75,304.39l2.39,1.38a.45.45,0,0,0,.45,0l1.35-.78c.14-.08.15-.2,0-.26l-2.39-1.38a.51.51,0,0,0-.45,0l-1.36.78C81.65,304.21,81.63,304.32,81.75,304.39Z"/><path class="cls-6" d="M103.92,319.44l1.42.82a.53.53,0,0,0,.46,0l1.35-.79c.13-.07.15-.19,0-.26l-1.42-.82a.51.51,0,0,0-.45,0l-1.35.78C103.82,319.26,103.81,319.38,103.92,319.44Z"/><path class="cls-6" d="M101.91,318.28l1.42.82a.45.45,0,0,0,.45,0l1.36-.78c.13-.08.15-.19,0-.26l-1.42-.82a.51.51,0,0,0-.45,0l-1.36.78C101.81,318.1,101.79,318.21,101.91,318.28Z"/><path class="cls-6" d="M99.89,317.12l1.43.82a.45.45,0,0,0,.45,0l1.35-.78c.14-.08.15-.2,0-.26l-1.43-.82a.51.51,0,0,0-.45,0l-1.35.78A.15.15,0,0,0,99.89,317.12Z"/><path class="cls-6" d="M97.88,316l1.42.82a.51.51,0,0,0,.45,0l1.36-.79c.13-.07.15-.19,0-.26l-1.39-.82a.59.59,0,0,0-.45,0l-1.36.78C97.78,315.77,97.76,315.91,97.88,316Z"/><path class="cls-6" d="M95.88,314.8l1.42.82a.47.47,0,0,0,.46,0l1.35-.78c.13-.08.15-.19,0-.26l-1.42-.82a.51.51,0,0,0-.45,0l-1.35.78C95.78,314.62,95.77,314.74,95.88,314.8Z"/><path class="cls-6" d="M93.87,313.64l1.42.82a.45.45,0,0,0,.45,0l1.36-.78c.13-.08.14-.2,0-.26l-1.42-.82a.51.51,0,0,0-.45,0l-1.36.78C93.77,313.46,93.75,313.57,93.87,313.64Z"/><path class="cls-6" d="M91.85,312.48l1.42.82a.53.53,0,0,0,.46,0l1.35-.78c.14-.08.15-.2,0-.27l-1.42-.82a.59.59,0,0,0-.45,0l-1.35.79A.14.14,0,0,0,91.85,312.48Z"/><path class="cls-6" d="M89.84,311.31l1.42.82a.45.45,0,0,0,.45,0l1.36-.78c.13-.07.15-.19,0-.26l-1.42-.82a.51.51,0,0,0-.45,0l-1.36.78C89.74,311.13,89.72,311.25,89.84,311.31Z"/><path class="cls-6" d="M87.83,310.15l1.42.82a.45.45,0,0,0,.45,0l1.35-.78c.14-.08.15-.19,0-.26l-1.42-.82a.53.53,0,0,0-.46,0l-1.35.78C87.72,310,87.71,310.08,87.83,310.15Z"/><path class="cls-6" d="M85.81,309l1.42.82a.51.51,0,0,0,.45,0L89,309c.13-.08.15-.2,0-.26l-1.39-.86a.59.59,0,0,0-.45,0l-1.36.79C85.71,308.8,85.7,308.91,85.81,309Z"/><path class="cls-6" d="M83.8,307.82l1.42.82a.51.51,0,0,0,.45,0l1.36-.79c.13-.07.14-.19,0-.26l-1.42-.82a.59.59,0,0,0-.45,0l-1.36.78C83.7,307.64,83.68,307.76,83.8,307.82Z"/><path class="cls-6" d="M81.78,306.66l1.42.82a.47.47,0,0,0,.46,0L85,306.7c.14-.08.15-.19,0-.26l-1.42-.82a.51.51,0,0,0-.45,0l-1.35.78C81.68,306.48,81.67,306.6,81.78,306.66Z"/><path class="cls-6" d="M105.94,320.61l2.39,1.38a.51.51,0,0,0,.45,0l1.35-.78c.14-.08.15-.2,0-.27l-2.39-1.38a.59.59,0,0,0-.45,0l-1.36.79A.15.15,0,0,0,105.94,320.61Z"/><path class="cls-6" d="M81.62,304.45l1.42.82c.11.06.11.17,0,.24l-1.44.83a.45.45,0,0,1-.42,0l-.11-.07a.53.53,0,0,0-.39,0l-1.51.88a.45.45,0,0,1-.42,0l-.91-.52a.13.13,0,0,1-.06-.18s0-.05.06-.07l1.42-.81.29-.17.21-.13.22-.12,1.22-.7A.51.51,0,0,1,81.62,304.45Z"/><path class="cls-6" d="M101.05,324.54l1.42.82a.51.51,0,0,0,.45,0l1.36-.78c.13-.08.15-.2,0-.27l-1.42-.82a.58.58,0,0,0-.45,0l-1.36.79A.15.15,0,0,0,101.05,324.54Z"/><path class="cls-6" d="M99.05,323.38l1.42.82a.45.45,0,0,0,.45,0l1.35-.78c.14-.08.15-.2,0-.26l-1.42-.82a.53.53,0,0,0-.46,0l-1.35.78C98.94,323.2,98.93,323.31,99.05,323.38Z"/><path class="cls-6" d="M97,322.22l1.42.82a.45.45,0,0,0,.45,0l1.36-.78c.13-.08.15-.19,0-.26l-1.42-.82a.51.51,0,0,0-.45,0L97,322C96.94,322,96.93,322.16,97,322.22Z"/><path class="cls-6" d="M80,312.36l1.42.82a.51.51,0,0,0,.45,0l1.35-.79c.14-.07.15-.19,0-.26l-1.42-.82a.53.53,0,0,0-.46,0l-1.35.78C79.87,312.18,79.85,312.3,80,312.36Z"/><path class="cls-6" d="M78,311.21l1.42.82a.51.51,0,0,0,.45,0l1.36-.78c.13-.08.15-.2,0-.27l-1.42-.82a.59.59,0,0,0-.45,0L78,311A.15.15,0,0,0,78,311.21Z"/><path class="cls-6" d="M76,310.05l1.42.82a.45.45,0,0,0,.45,0l1.35-.78c.14-.08.15-.2,0-.26L77.76,309a.53.53,0,0,0-.46,0l-1.35.78C75.86,309.91,75.84,310,76,310.05Z"/><path class="cls-6" d="M74,308.91l1.42.82a.45.45,0,0,0,.45,0l1.36-.78c.13-.08.15-.19,0-.26l-1.42-.82a.51.51,0,0,0-.45,0l-1.36.78C73.85,308.71,73.84,308.82,74,308.91Z"/><path class="cls-6" d="M94.52,320.77l1.94,1.14a.51.51,0,0,0,.45,0l1.35-.79c.14-.07.15-.19,0-.26l-1.94-1.12a.58.58,0,0,0-.45,0l-1.36.79A.13.13,0,0,0,94.52,320.77Z"/><path class="cls-6" d="M82,313.52l1.94,1.12a.45.45,0,0,0,.45,0l1.36-.78c.13-.08.14-.2,0-.26l-1.94-1.12a.51.51,0,0,0-.45,0l-1.36.78C81.87,313.34,81.86,313.45,82,313.52Z"/><path class="cls-6" d="M84.49,315l9.45,5.45a.45.45,0,0,0,.45,0l1.35-.78c.14-.08.15-.2,0-.26l-9.41-5.48a.59.59,0,0,0-.45,0l-1.35.79C84.39,314.79,84.38,314.91,84.49,315Z"/><path class="cls-6" d="M101.43,320.25l1.42.82a.45.45,0,0,0,.45,0l1.36-.78c.13-.07.14-.19,0-.26l-1.42-.84a.51.51,0,0,0-.45,0l-1.36.78C101.33,320.07,101.31,320.19,101.43,320.25Z"/><path class="cls-6" d="M99.42,319.09l1.42.82a.51.51,0,0,0,.45,0l1.36-.79c.13-.07.15-.19,0-.26l-1.41-.83a.51.51,0,0,0-.45,0l-1.36.78C99.32,318.91,99.3,319,99.42,319.09Z"/><path class="cls-6" d="M97.41,317.91l1.42.82a.51.51,0,0,0,.45,0l1.36-.82c.13-.07.15-.19,0-.26l-1.4-.74a.58.58,0,0,0-.45,0l-1.36.78C97.31,317.75,97.29,317.91,97.41,317.91Z"/><path class="cls-6" d="M95.4,316.77l1.42.82a.51.51,0,0,0,.45,0l1.36-.79c.13-.07.15-.19,0-.26l-1.39-.83a.58.58,0,0,0-.45,0l-1.36.78C95.3,316.59,95.29,316.71,95.4,316.77Z"/><path class="cls-6" d="M93.39,315.62l1.42.82a.53.53,0,0,0,.46,0l1.35-.79c.14-.07.15-.19,0-.26l-1.38-.84a.58.58,0,0,0-.45,0l-1.35.78C93.29,315.43,93.24,315.55,93.39,315.62Z"/><path class="cls-6" d="M91.39,314.46l1.42.82a.51.51,0,0,0,.45,0l1.35-.79c.14-.07.15-.19,0-.26l-1.37-.84a.61.61,0,0,0-.46,0l-1.35.78C91.24,314.27,91.24,314.39,91.39,314.46Z"/><path class="cls-6" d="M89.38,313.3l1.42.82a.51.51,0,0,0,.45,0l1.35-.78c.14-.08.15-.2,0-.27l-1.36-.84a.61.61,0,0,0-.46,0l-1.35.79C89.24,313.11,89.24,313.23,89.38,313.3Z"/><path class="cls-6" d="M87.37,312.14l1.42.82a.51.51,0,0,0,.45,0l1.36-.78c.13-.08.14-.2,0-.27l-1.36-.84a.58.58,0,0,0-.45,0l-1.36.79C87.24,311.91,87.24,312.07,87.37,312.14Z"/><path class="cls-6" d="M85.36,311l1.42.82a.51.51,0,0,0,.45,0l1.36-.78c.13-.08.15-.2,0-.27l-1.35-.84a.59.59,0,0,0-.45,0l-1.36.79C85.24,310.79,85.24,310.91,85.36,311Z"/><path class="cls-6" d="M83.35,309.82l1.42.82a.51.51,0,0,0,.45,0l1.36-.78c.13-.08.15-.2,0-.26l-1.34-.84a.58.58,0,0,0-.45,0l-1.36.79C83.24,309.63,83.24,309.75,83.35,309.82Z"/><path class="cls-6" d="M81.34,308.66l1.42.82a.53.53,0,0,0,.46,0l1.35-.78c.13-.08.15-.2,0-.26l-1.42-.82a.58.58,0,0,0-.45,0l-1.35.79A.14.14,0,0,0,81.34,308.66Z"/><path class="cls-6" d="M79.33,307.5l1.42.82a.47.47,0,0,0,.46,0l1.35-.78c.14-.08.15-.2,0-.26l-1.42-.82a.59.59,0,0,0-.45,0l-1.35.79A.15.15,0,0,0,79.33,307.5Z"/><path class="cls-6" d="M103.44,321.41l2.93,1.7a.47.47,0,0,0,.46,0l1.35-.78c.13-.08.15-.2,0-.26l-2.94-1.72a.53.53,0,0,0-.46,0l-1.35.78C103.33,321.23,103.32,321.35,103.44,321.41Z"/><path class="cls-6" d="M100.48,321.91l1.42.82a.51.51,0,0,0,.45,0l1.35-.79c.14-.07.15-.19,0-.26l-1.38-.77a.53.53,0,0,0-.46,0l-1.35.78C100.37,321.77,100.36,321.91,100.48,321.91Z"/><path class="cls-6" d="M98.47,320.8l1.42.82a.51.51,0,0,0,.45,0l1.36-.79c.13-.07.14-.19,0-.26l-1.42-.82a.59.59,0,0,0-.45,0l-1.36.78C98.37,320.61,98.35,320.73,98.47,320.8Z"/><path class="cls-6" d="M96.46,319.64l1.42.82a.51.51,0,0,0,.45,0l1.36-.79c.13-.07.15-.19,0-.26l-1.42-.82a.58.58,0,0,0-.45,0l-1.36.78C96.36,319.45,96.34,319.57,96.46,319.64Z"/><path class="cls-6" d="M94.45,318.48l1.42.82a.51.51,0,0,0,.45,0l1.36-.78c.13-.08.15-.2,0-.27l-1.42-.82a.58.58,0,0,0-.45,0l-1.36.79A.15.15,0,0,0,94.45,318.48Z"/><path class="cls-6" d="M92.44,317.32l1.42.82a.53.53,0,0,0,.46,0l1.35-.78c.13-.08.15-.2,0-.27l-1.43-.84a.58.58,0,0,0-.45,0l-1.35.79C92.34,317.13,92.33,317.25,92.44,317.32Z"/><path class="cls-6" d="M90.43,316.16l1.43.82a.51.51,0,0,0,.45,0l1.35-.78c.14-.08.15-.2,0-.26l-1.42-.84a.59.59,0,0,0-.45,0l-1.35.79C90.33,316,90.32,316.09,90.43,316.16Z"/><path class="cls-6" d="M88.43,315l1.42.82a.45.45,0,0,0,.45,0l1.35-.78c.14-.08.15-.2,0-.26l-1.41-.87a.53.53,0,0,0-.46,0l-1.35.79C88.33,314.81,88.31,314.91,88.43,315Z"/><path class="cls-6" d="M86.42,313.84l1.42.82a.45.45,0,0,0,.45,0l1.36-.78c.13-.08.14-.2,0-.26l-1.41-.84a.51.51,0,0,0-.45,0l-1.36.78C86.32,313.66,86.3,313.77,86.42,313.84Z"/><path class="cls-6" d="M84.41,312.68l1.42.82a.45.45,0,0,0,.45,0l1.36-.78c.13-.08.15-.2,0-.26l-1.4-.84a.51.51,0,0,0-.45,0l-1.36.78C84.31,312.5,84.29,312.61,84.41,312.68Z"/><path class="cls-6" d="M82.4,311.52l1.42.82a.45.45,0,0,0,.45,0l1.36-.78c.13-.08.15-.2,0-.26l-1.39-.84a.51.51,0,0,0-.45,0l-1.35.78C82.3,311.34,82.29,311.45,82.4,311.52Z"/><path class="cls-6" d="M80.39,310.36l1.42.82a.47.47,0,0,0,.46,0l1.35-.78c.14-.08.15-.19,0-.26l-1.38-.84a.51.51,0,0,0-.45,0l-1.35.78C80.29,310.18,80.24,310.29,80.39,310.36Z"/><path class="cls-6" d="M75.9,307.77,79.81,310a.45.45,0,0,0,.45,0l1.35-.78c.14-.08.15-.19,0-.26l-3.91-2.26a.58.58,0,0,0-.45,0l-1.36.79A.15.15,0,0,0,75.9,307.77Z"/><path class="cls-6" d="M102.48,323.11l1.94,1.12a.45.45,0,0,0,.45,0l1.36-.78c.13-.08.15-.19,0-.26l-1.94-1.12a.51.51,0,0,0-.45,0l-1.35.78A.14.14,0,0,0,102.48,323.11Z"/></g><g id="_Группа_4" data-name=" Группа 4"><g id="_Группа_5" data-name=" Группа 5"><path id="_Контур_6" data-name=" Контур 6" class="cls-34" d="M117.4,318.91h0l-32.23-18.6V275l.25-.56.26-.14h0a2.27,2.27,0,0,1,2.23,0l29.49,17a2.23,2.23,0,0,1,1.11,1.93V317C118.31,318.23,118.09,318.52,117.4,318.91Z"/><path id="_Контур_7" data-name=" Контур 7" class="cls-34" d="M114.44,294.36,85.17,275.81V275l.25-.56.26-.14a2.27,2.27,0,0,1,2.23,0l29.49,17a2.25,2.25,0,0,1,.85.88Z"/><path id="_Контур_8" data-name=" Контур 8" class="cls-37" d="M85.91,274.39l31,17.87a1.09,1.09,0,0,1,.54.94v25.71l-32.28-18.6V274.82a.48.48,0,0,1,.48-.49A.48.48,0,0,1,85.91,274.39Z"/><path id="_Контур_9" data-name=" Контур 9" class="cls-35" d="M85.91,274.39l31,17.87a1.09,1.09,0,0,1,.54.94v25.71l-32.28-18.6V274.82a.48.48,0,0,1,.48-.49A.48.48,0,0,1,85.91,274.39Z"/><polygon id="_Контур_10" data-name=" Контур 10" class="cls-38" points="117.4 318.93 117.4 318 85.17 299.39 85.17 300.31 117.4 318.93"/></g><polygon id="_Контур_11" data-name=" Контур 11" class="cls-39" points="86.4 275.95 86.4 298.77 116.36 316.02 116.36 293.25 86.4 275.95"/></g><g id="Men_2" data-name="Men 2"><path id="_Контур_12" data-name=" Контур 12" class="cls-12" d="M32.9,296.55c-.27,2.4-3.13,12.72-2.51,16.25s10.36,9.45,10.36,9.45l1.35-6-5.4-5.34,1.46-10Z"/><path id="_Контур_13" data-name=" Контур 13" class="cls-40" d="M40.45,286.38A4.28,4.28,0,0,0,35,288c-1.44,2.38-2.93,10.53-3.06,11.89,0,0,2,2.78,5,2.32Z"/><path class="cls-41" d="M51.58,401.47a8.32,8.32,0,0,0,6.31-.77c1.52,0,9.78-3.48,10.9-.52,1,2.6-2.59,5-4.5,5.47-4.17,1-7.25,3.09-8.93,3.44-1.25.26-2.86.43-3.85-.55C50.31,407.37,50.42,403,51.58,401.47Z"/><path class="cls-42" d="M55.36,408.37c1.68-.35,4.76-2.43,8.93-3.44,1.6-.39,4.35-2.14,4.63-4.23.37,2.4-2.85,4.52-4.63,4.95-4.17,1-7.25,3.09-8.93,3.44-1.25.26-2.86.43-3.85-.55a2.34,2.34,0,0,1-.55-1A5,5,0,0,0,55.36,408.37Z"/><path class="cls-41" d="M38.24,395.46a8.32,8.32,0,0,0,6.31-.77c1.52.05,9.77-3.48,10.89-.52,1,2.6-2.59,5-4.5,5.47-4.16,1-7.25,3.09-8.92,3.44-1.25.26-2.86.43-3.86-.55C36.93,401.36,37,397,38.24,395.46Z"/><path class="cls-42" d="M42,402.36c1.67-.35,4.76-2.43,8.92-3.44,1.6-.39,4.36-2.14,4.64-4.23.37,2.4-2.85,4.52-4.64,5-4.16,1-7.25,3.09-8.92,3.44-1.25.26-2.86.43-3.86-.55a2.32,2.32,0,0,1-.54-1A5,5,0,0,0,42,402.36Z"/><path id="_Контур_14" data-name=" Контур 14" class="cls-14" d="M38,373a49.53,49.53,0,0,1,1.9-9s-.57-7.8-.85-15.2c-.33-8.39-3.24-15.77-.94-22.47L64,332.13s-1.56,33.45-1.91,37.5A75.89,75.89,0,0,1,61,379c-1.18,6.49-3.1,21.94-3.1,21.94-2.74,1.59-6.34.71-6.34.71s.2-19.54.38-24.22c.21-5.71.39-5.27.39-5.27l-.86-14.28-.56-7.08s-.72,5.2-1.18,9.84c-.41,4.05-1.39,7.71-2.48,15.24-.94,6.54-2.48,19.67-2.48,19.67-2.74,1.59-6.46.27-6.46.27S37.3,378.71,38,373Z"/><path id="_Контур_15" data-name=" Контур 15" class="cls-12" d="M41.82,286.52c2,.1,3.44.61,3.68,0a22.63,22.63,0,0,0,.45-3.08c-.22-.57-.42-1.18-.42-1.18-2.48-1.53-3.26-4.2-3.58-7.32-.56-5.33,2.32-10,7.65-10.55,5-.52,8.69,3,9.67,7.83.53,2.39,1.58,6.9.16,10.82-.8,2.2-1.82,3.94-2.85,4.28a23.36,23.36,0,0,1-3-.26h0s-.27,1.48-.45,2.43-.11,1.45,1.78,2.61-2.86,3.56-6,3.33-6.6-2.11-7.55-4.12C40.37,289.09,40.46,286.46,41.82,286.52Z"/><path id="_Контур_16" data-name=" Контур 16" class="cls-35" d="M44.67,286.81c-.55,1.37.84,3,4.55,4.2s4-.34,4-.34a76.42,76.42,0,0,1,7.2,3.71c2.22,1.56,3.21,6,3.51,13.64.34,8.79.37,21.82.08,24.07,0,0-4.15,4.14-9.47,3.7S40.28,330.65,38.11,327c.06-7.7,1-9-.28-13.4-2.86-10.15-4.36-14.31-3-21.06,1.14-5.57,2.74-6.26,4.94-6.2C41.41,286.43,43.05,286.58,44.67,286.81Z"/><path id="_Контур_17" data-name=" Контур 17" class="cls-12" d="M72.31,315.29c-4.36,1.1-5.38-1.66-6-3.93-1.38-5.52-2.13-10.5-3.17-13.63-1.21-3.69-2.49-4.28-4.29-5-2.1-.84-3.91.94-3.21,5.64a95.54,95.54,0,0,0,4,16c.55,1.72,1.77,4.77,3.59,6.25,2.25,1.82,5.64,1.74,10.77.46,2.18-.54,4.58-1.85,8.72-3.78,1.11-.52,2-.86,4.11-1.85a14.46,14.46,0,0,0,5.47-4.27c1.11-1.62,1.26-2.38,1-2.75s-.79-.36-1.38.32a11.92,11.92,0,0,1-3.14,2.91s1.37-1.43,2.12-2.35a11.85,11.85,0,0,0,1.65-2.7c.39-.94-.42-2.22-1-1.55s-.92,1.36-2,2.71a11.07,11.07,0,0,1-2,1.93,21.51,21.51,0,0,0,1.87-3A5,5,0,0,0,90.1,304c0-.49-.73-1.08-1.39-.14a17.38,17.38,0,0,1-2.34,3.58c-1,1-1.84,1.63-1.87,1.34s.61-.86,1-2.06,0-2.48-.66-2.61-.54-.11-1.08,1a38.32,38.32,0,0,0-2,3.6A7.24,7.24,0,0,1,80,311.79C78.83,313,76.46,314.24,72.31,315.29Z"/><path id="_Контур_18" data-name=" Контур 18" class="cls-40" d="M57.24,292c2.91-.43,5,.88,6.26,5.29s2.18,8,2.18,8a7.86,7.86,0,0,1-4.88,3.24c-3.48.85-4.74-.82-4.74-.82s-1-4.62-1.57-7.77S53.68,292.51,57.24,292Z"/><path class="cls-43" d="M59.1,271.54s4.6-7-5.37-8.43c-7.19-1-11.81,3.6-12.35,8.61-.51,4.79,2.44,9.77,4.57,11.74,1,.37,3.28.59,6.22-.75a34.16,34.16,0,0,0,.14-3.92S48.8,271.41,59.1,271.54Z"/></g><path class="cls-9" d="M297.35,196.6l-59.1-37.06a2.55,2.55,0,0,1-.92-1.95v-37c0-.75.42-1.09.92-.77l59.1,37.06a2.48,2.48,0,0,1,.92,2v37C298.28,196.58,297.87,196.92,297.35,196.6Z"/><path class="cls-25" d="M352.23,140.52l-61.66-35.6a2.45,2.45,0,0,0-2.18-.3h0a2,2,0,0,0-.47.27L286,106l.9,1.2V181c0,2.74,1.64,5.91,3.71,7.1l60.5,34.93.77,2.45,2.64-1.48a1.72,1.72,0,0,0,.37-.22h0a3.5,3.5,0,0,0,1.09-2.88V147.63C356,144.9,354.29,141.71,352.23,140.52Z"/><path class="cls-44" d="M349.66,225.2,288,189.59c-2-1.18-3.71-4.36-3.71-7.1v-73.3c0-2.74,1.64-4,3.71-2.81L349.66,142c2.06,1.19,3.72,4.36,3.72,7.1v73.31C353.38,225.09,351.72,226.38,349.66,225.2Z"/><polygon class="cls-45" points="293.94 185.31 295.42 186.17 295.42 120.96 293.94 120.1 293.94 185.31"/><path class="cls-29" d="M294.69,151.13h0a6.18,6.18,0,0,1-2.6-5v-7.65c0-1.91,1.16-2.79,2.6-2h0a6.22,6.22,0,0,1,2.59,5v7.66C297.28,151.08,296.12,152,294.69,151.13Z"/><polygon class="cls-45" points="309.85 194.26 311.34 195.12 311.34 129.92 309.85 129.06 309.85 194.26"/><path class="cls-29" d="M310.59,181.53h0a6.27,6.27,0,0,1-2.6-5v-7.65c0-1.92,1.17-2.79,2.6-2h0a6.2,6.2,0,0,1,2.61,5v7.65C313.2,181.48,312,182.36,310.59,181.53Z"/><polygon class="cls-45" points="325.76 203.45 327.25 204.31 327.25 139.1 325.76 138.24 325.76 203.45"/><path class="cls-29" d="M326.51,160.69h0a6.21,6.21,0,0,1-2.6-5v-7.65c0-1.92,1.16-2.8,2.6-2h0a6.24,6.24,0,0,1,2.6,5v7.65C329.11,160.65,327.94,161.52,326.51,160.69Z"/><polygon class="cls-45" points="341.68 212.63 343.16 213.49 343.16 148.29 341.68 147.43 341.68 212.63"/><path class="cls-29" d="M342.42,187h0a6.22,6.22,0,0,1-2.6-5v-7.65c0-1.92,1.16-2.79,2.6-2h0a6.22,6.22,0,0,1,2.6,5v7.65C345,187,343.85,187.87,342.42,187Z"/></svg>