<svg id="Capa_1" data-name="Capa 1" xmlns="http://www.w3.org/2000/svg" xmlns:xlink="http://www.w3.org/1999/xlink" viewBox="0 0 428 428"><defs><style>.cls-1,.cls-26{fill:#d6d8e5;}.cls-1,.cls-15,.cls-20,.cls-7{isolation:isolate;}.cls-1{opacity:0.4;}.cls-2{fill:#b1b4c4;}.cls-3{fill:#616e84;}.cls-4{fill:#20232d;}.cls-5,.cls-7{fill:#fff;}.cls-6{fill:#2b303f;}.cls-20,.cls-7{opacity:0.1;}.cls-8{fill:#757b89;}.cls-9{fill:#d5d7e2;}.cls-10{fill:#4399ff;}.cls-11{fill:#70b6fc;}.cls-12{fill:#ffcea9;}.cls-13{fill:#efbd9c;}.cls-14{fill:#8c50ff;}.cls-15{fill:#4b4b66;}.cls-16{fill:#7676b6;}.cls-17{fill:#efda86;}.cls-18{fill:#d1b66b;}.cls-19{fill:#e2c979;}.cls-21{fill:#c65555;}.cls-22{fill:#ea516f;}.cls-23{fill:#dd5072;}.cls-24{fill:#7abe7b;}.cls-25{fill:#5d8c5d;}.cls-27{fill:#c4c7d6;}.cls-28{fill:url(#Degradado_sin_nombre_4);}.cls-29{fill:#e8a30a;}.cls-30{fill:#f9cb07;}.cls-31{fill:none;stroke:#cc8b09;stroke-miterlimit:10;stroke-width:10.46px;}.cls-32{fill:#cc8b09;}.cls-33{fill:#f5f7fc;}.cls-34{fill:#dadce5;}</style><linearGradient id="Degradado_sin_nombre_4" x1="217.26" y1="-921.05" x2="162.65" y2="-889.53" gradientTransform="matrix(0.87, 0.5, 0.5, -0.87, 478.09, -772.61)" gradientUnits="userSpaceOnUse"><stop offset="0" stop-color="#fff" stop-opacity="0.4"/><stop offset="0.89" stop-color="#fff" stop-opacity="0"/></linearGradient></defs><path class="cls-1" d="M269.5,381.46l-100.81-58a3.71,3.71,0,0,1,.14-6.52l12.69-6.55a3.75,3.75,0,0,1,3.56.09l104.2,60a3.72,3.72,0,0,1,1.37,5.08,3.64,3.64,0,0,1-1.51,1.45l-9.21,4.74A10.88,10.88,0,0,1,269.5,381.46Z"/><path class="cls-2" d="M275.68,370.53l-85.92-49.6c-7.32-4.18-13.19-15.47-13.19-25.17V56.09c0-9.71,5.91-14.17,13.19-10l85.92,49.7C283,100,288.86,111.29,288.86,121V360.63C288.86,370.28,283,374.74,275.68,370.53Z"/><polygon class="cls-2" points="277.15 374.85 283.96 371.41 277.44 360.23 277.15 374.85"/><polygon class="cls-2" points="175.26 47.51 181.53 44.23 180.26 53.46 175.26 47.51"/><path class="cls-3" d="M270.26,373.27l-85.91-49.6c-7.32-4.18-13.17-15.47-13.17-25.17V58.87c0-9.7,5.89-14.17,13.17-10l85.91,49.6c7.32,4.19,13.18,15.48,13.18,25.18V363.32C283.38,373,277.49,377.48,270.26,373.27Z"/><path class="cls-4" d="M282.46,124.3V363.92c0,9.71-5.89,14.16-13.17,10L235.6,354.43l-10.45-6-41.77-24.1c-7.32-4.18-13.18-15.47-13.18-25.19V59.48c0-9.67,5.9-14.16,13.18-10l85.91,49.6C276.54,103.31,282.46,114.64,282.46,124.3Z"/><path class="cls-5" d="M276.28,121.86V355.25c0,5.87-4.13,8.27-9.23,5.32l-26.86-15.51-2.34-1.36-.79-.46-5.81-3.36-16.8-9.68h0l-7-4-2.8-1.62-19.11-11c-5.09-2.94-9.21-10.1-9.21-16V64.2c0-5.89,4.12-8.27,9.21-5.33l33.55,19.37v.1a15.91,15.91,0,0,0,7.23,12.43c4,2.27,7.19.43,7.19-4.18v-.11l33.54,19.37C272.15,108.82,276.28,116,276.28,121.86Z"/><ellipse class="cls-6" cx="227.62" cy="85.18" rx="2.23" ry="3.86" transform="translate(-12.17 124.75) rotate(-29.89)"/><path class="cls-7" d="M226.35,86.33a2.52,2.52,0,0,1-1.15-2c0-.74.51-1,1.14-.66a2.52,2.52,0,0,1,1.14,2C227.48,86.41,227,86.7,226.35,86.33Z"/><path class="cls-8" d="M286,155.82h0c-.7.41-1.28,0-1.28-1V144.64a3,3,0,0,1,1.28-2.42h0c.7-.4,1.26,0,1.26,1V153.4A3,3,0,0,1,286,155.82Z"/><path class="cls-8" d="M286,172.56h0c-.7.41-1.28,0-1.28-.95V161.38A3,3,0,0,1,286,159h0c.7-.4,1.26,0,1.26,1v10.21A3,3,0,0,1,286,172.56Z"/><path class="cls-9" d="M253.53,257.75a9.19,9.19,0,0,1,4.19,7.19v7.12c0,2.65-1.89,3.72-4.19,2.38l-56.91-32.85a9.19,9.19,0,0,1-4.19-7.2v-7.12c0-2.64,1.9-3.71,4.19-2.38Z"/><path class="cls-9" d="M255,288.66a5.83,5.83,0,0,1,2.7,4.56v7.32c0,1.67-1.21,2.35-2.66,1.51L195,267.39a5.84,5.84,0,0,1-2.64-4.57V255.5c0-1.68,1.2-2.35,2.65-1.5Z"/><polygon class="cls-10" points="309.74 163.64 319.87 169.5 319.87 143.4 309.74 137.55 309.74 163.64"/><polygon class="cls-11" points="319.87 143.43 309.74 137.57 317.95 132.83 328.48 138.72 319.87 143.43"/><path class="cls-12" d="M358.32,162a7.34,7.34,0,0,0-3.58-6.07l-11.87-6.86,1.89-8.9v-.67a9.47,9.47,0,0,0-.39-2.8c-.36-1.17-1.63-4-2.44-3.39l-12.42,7.18c-.75.21-1.13,1.08-1.13,2.38v21.83a8.41,8.41,0,0,0,3.76,6.52L349.09,181c1.5.87,2.82.54,3.39-.65l5.65-12.18a3.08,3.08,0,0,0,.19-1.41Z"/><polygon class="cls-12" points="345.85 184.61 351.83 181.11 346.39 173.73 345.85 184.61"/><path class="cls-13" d="M352.63,165.36a7.43,7.43,0,0,0-3.59-6.07l-11.86-6.84,1.88-8.92v-.65a9.6,9.6,0,0,0-.39-2.82c-.36-1.17-1.63-3.94-2.44-3.39l-12.42,7.18c-.75.22-1.13,1.09-1.13,2.4V168a8.35,8.35,0,0,0,3.77,6.51l16.94,9.77c1.5.88,2.82.55,3.39-.65l5.65-12.18a3.25,3.25,0,0,0,.2-1.42Z"/><path class="cls-14" d="M129.32,157.61l-60.57-35a4.69,4.69,0,0,0-4-.64h0a3,3,0,0,0-.72.42l-6.76,3.87,5.23,6.14V157.7a13.93,13.93,0,0,0,6.27,10.9l18.87,11.86,5.13,11.74-5.39,9.15,7.52-4.28,7.13-8.29,22.75,12.34,1.24,7.32,7.66-4.39.21-.12h.07a4.48,4.48,0,0,0,1.68-4V168.6A13.92,13.92,0,0,0,129.32,157.61Z"/><path class="cls-15" d="M129.32,157.61l-60.57-35a4.69,4.69,0,0,0-4-.64h0a3,3,0,0,0-.72.42l-6.76,3.87,5.23,6.14V157.7a13.93,13.93,0,0,0,6.27,10.9l18.87,11.86,5.13,11.74-5.39,9.15,7.52-4.28,7.13-8.29,22.75,12.34,1.24,7.32,7.66-4.39.21-.12h.07a4.48,4.48,0,0,0,1.68-4V168.6A13.92,13.92,0,0,0,129.32,157.61Z"/><path class="cls-16" d="M121.8,161.91,61.25,127c-3.48-2-6.28-.38-6.28,3.64V162a13.94,13.94,0,0,0,6.28,10.91l18.88,11.9,7.24,16.59,7.13-8.29,27.31,14.8c3.49,2,6.28.39,6.28-3.62V172.87A13.92,13.92,0,0,0,121.8,161.91Z"/><ellipse class="cls-5" cx="71.83" cy="155.18" rx="3.54" ry="6.14" transform="translate(-67.97 56.7) rotate(-30)"/><ellipse class="cls-5" cx="91.3" cy="165.73" rx="3.56" ry="6.16" transform="translate(-70.44 67.53) rotate(-29.89)"/><ellipse class="cls-5" cx="107.75" cy="175.93" rx="3.54" ry="6.14" transform="translate(-73.53 77.44) rotate(-30)"/><path class="cls-9" d="M260.28,145.73l-62.58-34.5a7.79,7.79,0,0,1-3.72-6.14V96.91c0-2.26,1.67-3.17,3.72-2l62.58,34.48a7.8,7.8,0,0,1,3.7,6.14v8.18C264,145.93,262.32,146.84,260.28,145.73ZM197.7,96c-1.46-.81-2.65-.16-2.65,1.45v8.19a5.55,5.55,0,0,0,2.65,4.38l62.58,34.48c1.46.81,2.64.16,2.64-1.45v-8.17a5.54,5.54,0,0,0-2.64-4.38Z"/><polygon class="cls-1" points="157.81 336.75 132.03 321.95 159.69 305.99 185.47 320.79 157.81 336.75"/><polygon class="cls-17" points="160.7 303.51 133.05 287.55 160.7 271.58 188.36 287.55 160.7 303.51"/><polygon class="cls-18" points="186.49 320.18 160.7 335.07 160.7 305.29 186.49 290.41 186.49 320.18"/><polygon class="cls-19" points="160.7 335.07 134.92 320.18 134.92 290.41 160.7 305.29 160.7 335.07"/><polygon class="cls-20" points="134.92 290.41 134.92 298.2 160.7 312.92 160.7 305.33 134.92 290.41"/><polygon class="cls-20" points="186.49 290.41 186.49 298.76 160.7 312.92 160.7 305.33 186.49 290.41"/><polygon class="cls-19" points="133.05 287.55 133.05 295.8 160.7 311.56 160.7 303.51 133.05 287.55"/><polygon class="cls-18" points="160.7 311.56 188.36 296.45 188.36 287.55 160.7 303.51 160.7 311.56"/><polygon class="cls-1" points="114.57 337.73 98.65 328.59 116.53 318.27 132.44 327.41 114.57 337.73"/><polygon class="cls-17" points="117.15 316.75 100.08 306.89 117.15 297.04 134.22 306.89 117.15 316.75"/><polygon class="cls-18" points="133.07 327.04 117.15 336.23 117.15 317.85 133.07 308.66 133.07 327.04"/><polygon class="cls-19" points="117.15 336.23 101.24 327.04 101.24 308.66 117.15 317.85 117.15 336.23"/><polygon class="cls-20" points="101.24 308.66 101.24 313.47 117.15 322.55 117.15 317.87 101.24 308.66"/><polygon class="cls-20" points="133.07 308.66 133.07 313.81 117.15 322.55 117.15 317.87 133.07 308.66"/><polygon class="cls-19" points="100.08 306.89 100.08 311.99 117.15 321.71 117.15 316.75 100.08 306.89"/><polygon class="cls-18" points="117.15 321.71 134.22 312.39 134.22 306.89 117.15 316.75 117.15 321.71"/><polygon class="cls-21" points="165.03 355.57 134.31 337.84 138.16 302.81 161.19 316.12 165.03 355.57"/><polygon class="cls-22" points="157.05 360.01 126.33 342.27 130.17 307.25 153.21 320.55 157.05 360.01"/><polygon class="cls-23" points="157.05 360.01 165.03 355.57 161.19 316.12 153.21 320.55 157.05 360.01"/><polygon class="cls-21" points="130.17 307.25 138.16 302.81 137.22 311.32 130.17 307.25"/><path class="cls-4" d="M147.45,317.18l-1.42-.82c0-3.32-1.95-7.13-4.34-8.5s-4.33.18-4.33,3.49l-1.42-.82c0-4.21,2.58-6.14,5.75-4.31S147.45,312.93,147.45,317.18Z"/><path class="cls-4" d="M154.94,312.57l-1.42-.82c0-3.31-2-7.13-4.34-8.5s-4.33.18-4.33,3.49l-1.42-.82c0-4.21,2.58-6.14,5.75-4.31S154.94,308.35,154.94,312.57Z"/><path class="cls-24" d="M158,81.63l-30.4-17.58-.12-.07h0a3.41,3.41,0,0,0-3.3.37,10.48,10.48,0,0,0-4.74,8.24,3.24,3.24,0,0,0,1.49,3.11l30.82,17.79Z"/><ellipse class="cls-25" cx="154.87" cy="87.57" rx="6.71" ry="3.87" transform="translate(1.6 177.9) rotate(-60)"/><polygon class="cls-26" points="168.45 100.72 152.61 91.58 152.61 85.16 168.45 94.31 168.45 100.72"/><polygon class="cls-27" points="168.45 94.32 152.61 85.18 156.26 83.07 172.1 92.22 168.45 94.32"/><ellipse class="cls-28" cx="189.95" cy="106.37" rx="19.93" ry="34.53" transform="translate(-27.74 109.23) rotate(-30)"/><path class="cls-25" d="M193.29,138.68c-16.35-9.44-29.67-32.48-29.67-51.35s13.3-26.56,29.67-17.12S223,102.69,223,121.56,209.64,148.12,193.29,138.68Zm0-57.66C182.1,74.56,173,79.81,173,92.73s9.1,28.68,20.29,35.17,20.28,1.2,20.28-11.71S204.47,87.48,193.29,81Z"/><path class="cls-24" d="M190,140.61c-16.35-9.44-29.67-32.48-29.67-51.36S173.58,62.69,190,72.13s29.67,32.48,29.67,51.35S206.3,150.05,190,140.61ZM190,83c-11.19-6.47-20.29-1.21-20.29,11.7s9.1,28.69,20.29,35.17,20.28,1.2,20.28-11.71S201.14,89.4,190,83Z"/><path class="cls-29" d="M336.52,394.87l-24.19-14a7.76,7.76,0,0,1-3.25-6.2V358.28c0-2.39,1.45-3.46,3.25-2.45l24.19,14a7.78,7.78,0,0,1,3.24,6.2v16.43C339.76,394.81,338.31,395.91,336.52,394.87Z"/><polygon class="cls-29" points="327.96 401.42 338.77 394.96 332.22 380.1 322.05 385.13 327.96 401.42"/><polygon class="cls-29" points="299.78 361.91 310.44 355.55 313.11 375.35 299.78 361.91"/><path class="cls-30" d="M325.92,401.22l-24.22-14a7.76,7.76,0,0,1-3.24-6.19V364.61c0-2.38,1.45-3.46,3.24-2.45l24.22,14a7.78,7.78,0,0,1,3.24,6.2v16.43C329.16,401.15,327.71,402.25,325.92,401.22Z"/><path class="cls-31" d="M311.68,361.68V349.2c0-5.07,3.55-7.12,7.94-4.61h0a17.55,17.55,0,0,1,7.95,13.76v12.48"/><ellipse class="cls-32" cx="311.57" cy="361.77" rx="3.52" ry="2.04"/><ellipse class="cls-32" cx="327.57" cy="370.27" rx="3.52" ry="2.04"/><path class="cls-9" d="M256.74,242.69,195,204a2.66,2.66,0,0,1-1-2V163.22c0-.78.44-1.14,1-.8l61.79,38.75a2.62,2.62,0,0,1,1,2v38.69C257.71,242.67,257.28,243,256.74,242.69Z"/><path class="cls-26" d="M310.71,210.29l-64.47-37.22a2.56,2.56,0,0,0-2.28-.32h0a2.39,2.39,0,0,0-.49.28l-2,1.17,1,1.26v77.19c0,2.86,1.71,6.18,3.88,7.42l63.25,36.52.8,2.57,2.76-1.55a2.3,2.3,0,0,0,.4-.23h0a3.67,3.67,0,0,0,1.13-3V217.71C314.6,214.87,312.86,211.53,310.71,210.29Z"/><path class="cls-33" d="M308,298.81l-64.48-37.22c-2.14-1.24-3.88-4.56-3.88-7.42V177.52c0-2.85,1.71-4.17,3.88-2.93L308,211.81c2.15,1.24,3.88,4.56,3.88,7.43v76.64C311.91,298.7,310.18,300.06,308,298.81Z"/><polygon class="cls-34" points="249.77 257.11 251.32 258.01 251.32 189.83 249.77 188.94 249.77 257.11"/><path class="cls-30" d="M250.55,221.38h0a6.5,6.5,0,0,1-2.72-5.2v-8c0-2,1.21-2.91,2.72-2.05h0a6.52,6.52,0,0,1,2.71,5.19v8C253.26,221.32,252.05,222.25,250.55,221.38Z"/><polygon class="cls-34" points="266.4 266.47 267.96 267.37 267.96 199.2 266.4 198.3 266.4 266.47"/><path class="cls-30" d="M267.18,253.17h0a6.54,6.54,0,0,1-2.72-5.21v-8c0-2,1.22-2.92,2.72-2.06h0a6.5,6.5,0,0,1,2.72,5.2v8C269.9,253.11,268.68,254,267.18,253.17Z"/><polygon class="cls-34" points="283.04 276.08 284.6 276.97 284.6 208.8 283.04 207.9 283.04 276.08"/><path class="cls-30" d="M283.82,231.38h0a6.52,6.52,0,0,1-2.72-5.2v-8c0-2,1.21-2.92,2.72-2.06h0a6.56,6.56,0,0,1,2.72,5.2v8C286.54,231.32,285.32,232.24,283.82,231.38Z"/><polygon class="cls-34" points="299.68 285.68 301.23 286.57 301.23 218.41 299.68 217.51 299.68 285.68"/><path class="cls-30" d="M300.46,258.91h0a6.49,6.49,0,0,1-2.72-5.19v-8c0-2,1.21-2.91,2.72-2.05h0a6.52,6.52,0,0,1,2.71,5.19v8C303.17,258.86,302,259.79,300.46,258.91Z"/></svg>