<svg id="Capa_1" data-name="Capa 1" xmlns="http://www.w3.org/2000/svg" viewBox="0 0 428 428"><defs><style>.cls-1,.cls-3{fill:#d6d8e5;}.cls-1{isolation:isolate;opacity:0.4;}.cls-2{fill:#b1b4c4;}.cls-4{fill:#9ea1af;}.cls-5{fill:#e4e7f2;}.cls-6{fill:#fff;}.cls-7{fill:#e9eaf2;}.cls-8{fill:#dadce5;}.cls-9{fill:#7676b6;}.cls-10{fill:#232733;}.cls-11{fill:#353c4c;}.cls-12{fill:#2b303f;}.cls-13{fill:#e7e9f2;}.cls-14{fill:#f7dc6b;}.cls-15{fill:#edf0f9;}.cls-16{fill:#e2e5f2;}.cls-17{fill:#6e48e5;}.cls-18{fill:#a298e2;}.cls-19{fill:#7abe7b;}.cls-20{fill:#ea516f;}</style></defs><path class="cls-1" d="M288.28,377.92l-44-25.47c-3.17-1.84-2.76-5,.92-7.16l28.56-16.48,55.54,32.12L300.7,377.41C297,379.52,291.49,379.75,288.28,377.92Z"/><path class="cls-2" d="M292.26,375.59l-44.07-25.43c-3.16-1.85-2.76-5,.93-7.16l28.55-16.48,55.56,32.08-28.55,16.48C301,377.19,295.44,377.42,292.26,375.59Z"/><polygon class="cls-2" points="333.19 358.6 333.19 356.92 330.62 358.4 333.19 358.6"/><polygon class="cls-2" points="246.07 347.13 246.07 345.41 248.7 346.51 246.07 347.13"/><path class="cls-3" d="M292.26,373.91l-44.07-25.44c-3.16-1.84-2.76-5,.93-7.15l28.55-16.5,55.56,32.07-28.55,16.48C301,375.48,295.44,375.74,292.26,373.91Z"/><polygon class="cls-4" points="277.79 324.92 270.91 302.11 327.07 334.32 333.19 356.92 277.79 324.92"/><path class="cls-4" d="M331.56,357.86l1.63-.93L330.77,355Z"/><polygon class="cls-2" points="276.01 325.77 269.14 302.97 325.3 335.18 331.56 357.86 276.01 325.77"/><path class="cls-2" d="M418.6,396.3,201.22,270.79c-3.05-1.75-5.53-6.44-5.53-10.55V92.08c0-4.06,2.47-5.93,5.53-4.17L418.6,213.42c3,1.76,5.52,6.45,5.52,10.55V392.13C424.12,396.19,421.63,398.06,418.6,396.3Z"/><polygon class="cls-2" points="419.69 398.03 422.11 396.64 421.06 389.5 419.69 398.03"/><path class="cls-2" d="M195.28,89l2.37-1.37,3.41,1.94s-3.63.56-3.68.54S195.28,89,195.28,89Z"/><path class="cls-5" d="M416.59,397.45,199.21,272c-3.05-1.76-5.53-6.45-5.53-10.56V93.24c0-4.07,2.48-5.94,5.53-4.18L416.59,214.57c3.05,1.76,5.52,6.45,5.52,10.55V393.28C422.11,397.34,419.64,399.21,416.59,397.45Z"/><path class="cls-3" d="M416.2,397.67,198.82,272.16c-3-1.76-5.52-6.45-5.52-10.55V93.46c0-4.07,2.47-5.94,5.52-4.18L416.2,214.79c3.05,1.76,5.53,6.45,5.53,10.55V393.49C421.73,397.58,419.25,399.42,416.2,397.67Z"/><path class="cls-6" d="M418.73,387.45,196.05,258.88l.12-164.75c0-1.69,1.19-2.37,2.64-1.53L416.19,218.11a5.85,5.85,0,0,1,2.65,4.6Z"/><path class="cls-7" d="M403.85,242.76,206.46,128.81a5.43,5.43,0,0,1-2.25-4.3V110.27c0-1.65,1-2.42,2.25-1.7l197.39,114a5.39,5.39,0,0,1,2.25,4.3v14.24C406.1,242.73,405.09,243.48,403.85,242.76Z"/><path class="cls-7" d="M333.5,292.09,217.11,224.85A2.66,2.66,0,0,1,216,222.7v-5.14c0-.83.5-1.22,1.13-.86L333.5,283.94a2.69,2.69,0,0,1,1.12,2.14v5.16C334.62,292.06,334.11,292.45,333.5,292.09Z"/><path class="cls-7" d="M322,297.67l-104.6-60.36a2.69,2.69,0,0,1-1.12-2.14V232.6c0-.83.5-1.21,1.12-.85L322,292.14a2.67,2.67,0,0,1,1.12,2.14v2.56C323.16,297.64,322.66,298,322,297.67Z"/><path class="cls-7" d="M322,307.4,217.44,247a2.69,2.69,0,0,1-1.12-2.14V242.3c0-.82.5-1.21,1.12-.85L322,301.84a2.67,2.67,0,0,1,1.12,2.14v2.57C323.16,307.38,322.66,307.76,322,307.4Z"/><path class="cls-7" d="M295.3,301.69l-77.86-44.95a2.69,2.69,0,0,1-1.12-2.15v-2.54c0-.83.5-1.21,1.12-.86l77.86,44.95a2.75,2.75,0,0,1,1.12,2.16v2.57C296.42,301.67,295.92,302.05,295.3,301.69Z"/><path class="cls-7" d="M395.75,333.08,347.11,305a2.65,2.65,0,0,1-1.12-2.15v-2.57c0-.82.49-1.2,1.12-.84l48.64,28.08a2.7,2.7,0,0,1,1.13,2.15v2.57C396.88,333.07,396.37,333.44,395.75,333.08Z"/><path class="cls-7" d="M395.75,342.82l-48.64-28.09a2.68,2.68,0,0,1-1.12-2.15V310c0-.83.49-1.22,1.12-.86l48.64,28.13a2.69,2.69,0,0,1,1.13,2.15V342C396.88,342.82,396.37,343.17,395.75,342.82Z"/><path class="cls-7" d="M383,345.19l-35.92-20.74a2.67,2.67,0,0,1-1.12-2.14v-2.52c0-.83.5-1.2,1.12-.84L383,339.67a2.7,2.7,0,0,1,1.13,2.15v2.57C384.14,345.17,383.61,345.58,383,345.19Z"/><path class="cls-7" d="M395.73,369.79l-48.64-28.08a2.69,2.69,0,0,1-1.12-2.15V337c0-.83.5-1.21,1.12-.85l48.64,28.08a2.76,2.76,0,0,1,1.13,2.16V369C396.86,369.77,396.35,370.15,395.73,369.79Z"/><ellipse class="cls-8" cx="214.35" cy="124.01" rx="3.53" ry="6.12" transform="translate(-33.28 123.79) rotate(-30)"/><path class="cls-8" d="M317,185.13l-17.08-9.85a1.38,1.38,0,0,1-.56-1.08v-2.28c0-.42.25-.61.56-.43L317,181.35a1.3,1.3,0,0,1,.56,1.07v2.26C317.54,185.12,317.28,185.32,317,185.13Z"/><path class="cls-8" d="M344.61,201.1l-17.07-9.84a1.32,1.32,0,0,1-.56-1.07v-2.27c0-.41.25-.6.56-.42l17.07,9.86a1.36,1.36,0,0,1,.57,1.07v2.27C345.18,201.08,344.91,201.27,344.61,201.1Z"/><path class="cls-8" d="M371.8,216.79l-17.07-9.87a1.32,1.32,0,0,1-.56-1.07v-2.27c0-.41.24-.6.56-.42L371.8,213a1.36,1.36,0,0,1,.57,1.08v2.27C372.37,216.78,372.12,217,371.8,216.79Z"/><path class="cls-8" d="M399.44,232.71l-17.07-9.86a1.33,1.33,0,0,1-.56-1.08v-2.26c0-.42.25-.6.56-.43L399.44,229a1.32,1.32,0,0,1,.56,1.07v2.27C400,232.71,399.75,232.93,399.44,232.71Z"/><path class="cls-7" d="M397.79,316.44l-46.4-26.79a5.36,5.36,0,0,1-2.24-4.29V255.42c0-1.65,1-2.42,2.24-1.7l46.4,26.79a5.39,5.39,0,0,1,2.21,4.33v29.94C400,316.39,399,317.16,397.79,316.44Z"/><polygon class="cls-9" points="363.45 280 360.45 272.28 354.99 280.05 360.99 283.51 365.91 286.35 376.89 292.69 368.94 272.2 363.45 280"/><ellipse class="cls-9" cx="387.96" cy="294.2" rx="3.18" ry="5.5" transform="translate(-95.12 233.39) rotate(-30)"/><polygon class="cls-10" points="252.5 211.83 248.19 229.09 248.19 214.31 252.5 211.83"/><polygon class="cls-10" points="202.3 182.56 197.99 199.83 197.99 185.06 202.3 182.56"/><path class="cls-7" d="M273.19,289.66,170.56,230.4a4.81,4.81,0,0,1-2-3.85v-52.5c0-1.48.92-2.16,2-1.52l102.63,59.26a4.77,4.77,0,0,1,2,3.84v52.55C275.21,289.62,274.31,290.3,273.19,289.66Z"/><polygon class="cls-11" points="246.31 208.24 246.3 188.55 240.72 184.36 240.72 208.24 234.51 211.83 243.51 217.02 252.5 211.83 246.31 208.24"/><polygon class="cls-10" points="243.51 217.02 248.19 229.09 248.19 215.15 248.19 214.31 243.51 217.02"/><polygon class="cls-12" points="234.51 211.83 238.5 223.41 248.19 229.09 243.51 217.02 234.51 211.83"/><polygon class="cls-11" points="196.09 178.99 196.09 155.1 190.51 155.1 190.51 178.98 184.3 182.56 193.3 187.77 202.3 182.56 196.09 178.99"/><polygon class="cls-10" points="193.3 187.77 197.99 199.83 197.99 185.9 197.99 185.06 193.3 187.77"/><polygon class="cls-12" points="184.3 182.56 188.29 194.15 197.99 199.83 193.3 187.77 184.3 182.56"/><polygon class="cls-1" points="134.69 290.5 79.09 258.24 12.1 296.92 72.03 331.68 139.04 293 139.04 287.99 134.69 290.5"/><polygon class="cls-2" points="141.74 286.15 79.09 249.98 16.44 286.15 12.1 283.64 12.1 288.65 79.09 327.34 146.08 288.65 146.08 283.64 141.74 286.15"/><polygon class="cls-13" points="79.09 322.32 12.1 283.64 79.09 244.97 146.08 283.64 79.09 322.32"/><polygon class="cls-2" points="78.88 269.32 83.25 266.8 83.25 79.99 78.88 82.51 78.88 269.32"/><polygon class="cls-2" points="79.23 158.73 109.82 207.15 114.19 205.36 83.25 156.47 79.23 158.73"/><polygon class="cls-3" points="79.05 167.35 109.65 216 109.65 206.9 79.05 158.42 79.05 167.35"/><polygon class="cls-3" points="74.67 266.8 79.05 269.32 79.05 82.51 74.67 79.99 74.67 266.8"/><polygon class="cls-3" points="109.65 287 114.03 289.52 114.03 102.71 109.65 100.19 109.65 287"/><polygon class="cls-2" points="113.86 289.52 118.24 287 118.24 100.19 113.86 102.71 113.86 289.52"/><polygon class="cls-3" points="79.05 255.85 109.65 219.2 109.65 210.42 79.05 247.12 79.05 255.85"/><polygon class="cls-2" points="79.05 255.85 83.25 253.55 109.65 221.73 109.65 218.52 79.05 255.85"/><polygon class="cls-3" points="79.05 158.73 109.65 122.08 109.65 113.3 79.05 150 79.05 158.73"/><polygon class="cls-2" points="79.05 158.73 83.25 156.42 109.65 124.61 109.65 121.4 79.05 158.73"/><polygon class="cls-2" points="44.15 289.49 48.53 286.97 48.53 100.16 44.15 102.69 44.15 289.49"/><polygon class="cls-2" points="44.5 178.91 75.09 227.31 79.47 225.53 48.53 176.64 44.5 178.91"/><polygon class="cls-3" points="44.32 187.52 74.93 236.16 74.93 227.07 44.32 178.58 44.32 187.52"/><polygon class="cls-3" points="39.95 286.97 44.32 289.49 44.32 102.69 39.95 100.16 39.95 286.97"/><polygon class="cls-3" points="74.93 307.16 79.3 309.68 79.3 122.89 74.93 120.35 74.93 307.16"/><polygon class="cls-2" points="79.14 309.68 83.51 307.16 83.51 120.35 79.14 122.89 79.14 309.68"/><polygon class="cls-3" points="44.32 276.03 74.93 239.38 74.93 230.58 44.32 267.29 44.32 276.03"/><polygon class="cls-2" points="44.32 276.03 48.53 273.71 74.93 241.9 74.93 238.69 44.32 276.03"/><polygon class="cls-3" points="44.32 178.91 74.93 142.26 74.93 133.46 44.32 170.16 44.32 178.91"/><polygon class="cls-2" points="44.32 178.91 48.53 176.59 74.93 144.77 74.93 141.56 44.32 178.91"/><polygon class="cls-14" points="79.3 132.34 34.14 106.27 79.3 80.2 124.46 106.27 79.3 132.34"/><polygon class="cls-11" points="75.94 57.62 22.4 88.53 7.07 79.68 60.61 48.77 75.94 57.62"/><polygon class="cls-12" points="7.07 92.08 7.07 79.68 22.4 88.53 22.4 100.93 7.07 92.08"/><polyline class="cls-10" points="22.4 100.93 75.94 70.02 75.94 57.62 22.4 88.53 22.4 99.72"/><polygon class="cls-11" points="75.94 43.71 22.4 74.62 7.07 65.77 60.61 34.86 75.94 43.71"/><polygon class="cls-12" points="7.07 78.18 7.07 65.77 22.4 74.62 22.4 87.03 7.07 78.18"/><polyline class="cls-10" points="22.4 87.03 75.94 56.12 75.94 43.71 22.4 74.62 22.4 85.82"/><polygon class="cls-3" points="35.47 82.16 2.26 63.11 2.26 56.16 35.47 75.09 35.47 82.16"/><polygon class="cls-13" points="83.51 102.67 2.26 56.16 8.28 52.69 89.53 99.19 83.51 102.67"/><polygon class="cls-3" points="72 71.17 30.28 47.04 30.28 40.09 72 62.44 72 71.17"/><polygon class="cls-13" points="103.64 81.73 30.28 40.1 36.3 36.63 109.65 78.26 103.64 81.73"/><polygon class="cls-3" points="52.51 52.91 52.51 59.85 55.36 79.85 59.6 82.49 52.51 52.91"/><polygon class="cls-13" points="65.06 85.45 59.57 56.99 52.51 52.91 56.79 80.96 65.06 85.45"/><polygon class="cls-2" points="52.51 59.85 30.59 65.63 19.34 59.13 51.55 52.34 52.51 52.91 52.51 59.85"/><polygon class="cls-13" points="52.51 52.91 21.99 60.67 15.43 56.88 46.19 49.02 52.51 52.91"/><polygon class="cls-13" points="79.3 74.85 34.14 48.77 79.3 22.7 124.46 48.77 79.3 74.85"/><polygon class="cls-3" points="34.14 129.3 34.14 48.77 79.3 74.85 79.3 155.37 34.14 129.3"/><polygon class="cls-2" points="124.46 48.77 124.46 129.3 79.3 155.37 79.3 74.84 124.46 48.77"/><polygon class="cls-9" points="79.3 102.9 53.37 87.93 45.04 61.4 79.3 81.19 79.3 102.9"/><polygon class="cls-9" points="124.46 55.11 124.46 76.82 79.3 102.91 79.3 81.2 124.46 55.11"/><polygon class="cls-3" points="280.68 224.67 85.27 111.84 85.27 104.9 280.68 217.72 280.68 224.67"/><polygon class="cls-13" points="280.68 217.72 85.27 104.91 91.29 101.43 286.7 214.25 280.68 217.72"/><polygon class="cls-3" points="308.7 208.6 113.29 95.78 113.29 88.83 308.7 201.66 308.7 208.6"/><polygon class="cls-13" points="308.7 201.66 113.29 88.83 119.31 85.36 314.71 198.19 308.7 201.66"/><polygon class="cls-2" points="314.71 205.15 280.68 224.67 280.68 217.71 314.71 198.2 314.71 205.15"/><polygon class="cls-13" points="314.71 198.2 280.7 217.72 275.61 214.78 309.62 195.26 314.71 198.2"/><polygon class="cls-2" points="284.21 194.44 262.29 200.22 251.03 193.72 283.24 186.93 284.21 187.5 284.21 194.44"/><polygon class="cls-13" points="284.21 187.5 253.69 195.26 247.13 191.46 277.88 183.61 284.21 187.5"/><polygon class="cls-3" points="234.75 158.98 234.75 165.93 237.61 185.93 241.85 188.55 234.75 158.98"/><polygon class="cls-13" points="247.31 191.53 241.82 163.06 234.75 158.98 239.05 187.03 247.31 191.53"/><polygon class="cls-2" points="234.75 165.93 212.84 171.7 201.59 165.2 233.8 158.41 234.75 158.98 234.75 165.93"/><polygon class="cls-13" points="234.75 158.98 204.25 166.74 197.69 162.95 228.44 155.1 234.75 158.98"/><polygon class="cls-3" points="185.14 130.31 185.14 137.25 187.98 157.25 192.23 159.89 185.14 130.31"/><polygon class="cls-13" points="197.69 162.85 192.2 134.39 185.14 130.31 189.42 158.36 197.69 162.85"/><polygon class="cls-2" points="185.14 137.25 163.22 143.03 151.97 136.53 184.18 129.74 185.14 130.31 185.14 137.25"/><polygon class="cls-13" points="185.14 130.31 154.62 138.06 148.06 134.28 178.82 126.42 185.14 130.31"/><polygon class="cls-3" points="135.52 101.65 135.52 108.6 138.36 128.6 142.61 131.22 135.52 101.65"/><polygon class="cls-13" points="148.06 134.2 142.58 105.73 135.52 101.65 139.8 129.7 148.06 134.2"/><polygon class="cls-2" points="135.52 108.6 113.6 114.38 102.35 107.87 134.56 101.08 135.52 101.65 135.52 108.6"/><polygon class="cls-13" points="135.52 101.65 105 109.41 98.44 105.62 129.19 97.77 135.52 101.65"/><path class="cls-1" d="M31.51,341.06,6.87,326.6c-2.77-1.64-2.45-4.5.78-6.39l12.53-7.37c3.23-1.84,8.11-2.09,10.91-.45l24.68,14.45c2.76,1.63,2.44,4.5-.78,6.4L42.46,340.6C39.19,342.49,34.3,342.69,31.51,341.06Z"/><path class="cls-3" d="M62.13,326.81V291.87l-52.7-6V321h0a3.23,3.23,0,0,0,1.84,2.87L36,338.33c2.77,1.64,7.7,1.44,10.92-.46l12.53-7.37c1.84-1.07,2.76-2.44,2.67-3.68Z"/><path class="cls-15" d="M62.08,295.68v-3.81H58l-22.5-13.19c-2.76-1.64-7.69-1.43-10.91.46l-12.53,7.37a7.22,7.22,0,0,0-.65.42l-2-1.08V290h0a3.25,3.25,0,0,0,1.84,2.85L36,307.32c2.77,1.64,7.7,1.42,10.92-.46l12.53-7.37c1.84-1.1,2.76-2.52,2.66-3.84Z"/><path class="cls-16" d="M36,303.17,11.31,288.72c-2.77-1.64-2.45-4.51.78-6.39L24.62,275c3.22-1.84,8.11-2.1,10.91-.46L60.21,289c2.76,1.64,2.44,4.5-.79,6.39l-12.53,7.37C43.71,304.6,38.77,304.81,36,303.17Z"/><path class="cls-17" d="M30.42,283.44v-1.39h-.84l-.26-.17a5.85,5.85,0,0,0-5.34,0,2.75,2.75,0,0,0-.44.32l-.65-.15v1.39A1.83,1.83,0,0,0,24,285a5.91,5.91,0,0,0,5.34,0A1.92,1.92,0,0,0,30.42,283.44Z"/><ellipse class="cls-9" cx="26.65" cy="282.05" rx="3.77" ry="2.21"/><path class="cls-17" d="M39.52,288.68v-1.39h-.84l-.26-.16a5.77,5.77,0,0,0-5.33,0,2.26,2.26,0,0,0-.45.31l-.65-.15v1.39a1.92,1.92,0,0,0,1.1,1.57,5.89,5.89,0,0,0,5.33,0A1.84,1.84,0,0,0,39.52,288.68Z"/><ellipse class="cls-9" cx="35.75" cy="287.29" rx="3.77" ry="2.21"/><path class="cls-17" d="M48.64,294.28v-1.39h-.85l-.26-.16a5.77,5.77,0,0,0-5.33,0,2.77,2.77,0,0,0-.45.31l-.65-.15v1.39a1.89,1.89,0,0,0,1.1,1.57,5.83,5.83,0,0,0,5.33,0A1.9,1.9,0,0,0,48.64,294.28Z"/><ellipse class="cls-9" cx="44.86" cy="292.89" rx="3.77" ry="2.21"/><polygon class="cls-18" points="195.2 208.09 178.63 198.53 178.63 192.55 195.2 202.11 195.2 208.09"/><polygon class="cls-19" points="209.96 216.75 198.3 209.88 198.3 203.91 209.96 210.78 209.96 216.75"/><polygon class="cls-18" points="195.2 217.65 178.63 208.09 178.63 202.11 195.2 211.67 195.2 217.65"/><polygon class="cls-19" points="217.97 230.79 198.3 219.44 198.3 213.46 217.97 224.82 217.97 230.79"/><polygon class="cls-18" points="195.2 227.21 178.63 217.65 178.63 211.67 195.2 221.24 195.2 227.21"/><polygon class="cls-20" points="250.17 258.88 198.3 229 198.3 223.03 250.17 252.91 250.17 258.88"/><polygon class="cls-18" points="195.2 236.77 178.63 227.21 178.63 221.23 195.2 230.79 195.2 236.77"/><polygon class="cls-9" points="254.19 271.44 198.3 238.57 198.3 232.59 254.19 265.46 254.19 271.44"/></svg>