<svg id="Capa_1" data-name="Capa 1" xmlns="http://www.w3.org/2000/svg" viewBox="0 0 428 428"><defs><style>.cls-1,.cls-3{fill:#d6d8e5;}.cls-1{isolation:isolate;opacity:0.4;}.cls-2{fill:#b1b4c4;}.cls-4{fill:#9ea1af;}.cls-5{fill:#e4e7f2;}.cls-6{fill:#fff;}.cls-7{fill:#e9eaf2;}.cls-8{fill:#dadce5;}.cls-9{fill:#8c50ff;}.cls-10{fill:#232733;}.cls-11{fill:#353c4c;}.cls-12{fill:#2b303f;}.cls-13{fill:#e7e9f2;}.cls-14{fill:#f7dc6b;}.cls-15{fill:#7c4cf2;}.cls-16{fill:#edf0f9;}.cls-17{fill:#e2e5f2;}.cls-18{fill:#6e48e5;}.cls-19{fill:#a298e2;}.cls-20{fill:#4d3bff;}.cls-21{fill:#ff8657;}.cls-22{fill:#c33afc;}.cls-23{fill:#2b2a30;}.cls-24{fill:#ffcea9;}.cls-25{fill:#f4f4f4;}.cls-26{fill:#bf4b4b;}.cls-27{fill:#e26161;}.cls-28{fill:#ededed;}.cls-29{fill:#3a2c6d;}.cls-30{fill:#bfbfbf;}.cls-31{fill:#e5e5e5;}</style></defs><path class="cls-1" d="M287.16,367,243.11,341.5c-3.18-1.85-2.76-5,.92-7.16l28.56-16.48L328.13,350l-28.56,16.48C295.89,368.57,290.36,368.8,287.16,367Z"/><path class="cls-2" d="M291.14,364.63,247.07,339.2c-3.17-1.84-2.76-5,.92-7.15l28.56-16.48,55.56,32.08-28.56,16.48C299.86,366.24,294.31,366.47,291.14,364.63Z"/><polygon class="cls-2" points="332.07 347.65 332.07 345.96 329.5 347.45 332.07 347.65"/><polygon class="cls-2" points="244.94 336.17 244.94 334.46 247.58 335.56 244.94 336.17"/><path class="cls-3" d="M291.14,363l-44.07-25.44c-3.17-1.84-2.76-5,.92-7.15l28.56-16.51,55.56,32.08-28.56,16.47C299.86,364.52,294.31,364.79,291.14,363Z"/><polygon class="cls-4" points="276.67 313.96 269.79 291.16 325.94 323.37 332.07 345.96 276.67 313.96"/><path class="cls-4" d="M330.44,346.9l1.63-.92-2.42-1.93Z"/><polygon class="cls-2" points="274.89 314.82 268.02 292.02 324.18 324.23 330.44 346.9 274.89 314.82"/><path class="cls-2" d="M417.47,385.35,200.1,259.84c-3-1.76-5.53-6.45-5.53-10.55V81.13c0-4.06,2.47-5.93,5.53-4.17L417.47,202.47c3,1.76,5.53,6.44,5.53,10.54V381.18C423,385.24,420.5,387.11,417.47,385.35Z"/><polygon class="cls-2" points="418.57 387.08 420.98 385.69 419.94 378.55 418.57 387.08"/><path class="cls-2" d="M194.15,78l2.38-1.37,3.41,1.94s-3.63.55-3.69.54Z"/><path class="cls-5" d="M415.47,386.5,198.09,261c-3.05-1.76-5.53-6.44-5.53-10.55V82.28c0-4.06,2.48-5.93,5.53-4.17L415.47,203.62c3,1.76,5.52,6.45,5.52,10.55V382.33C421,386.39,418.51,388.26,415.47,386.5Z"/><path class="cls-3" d="M415.08,386.71,197.7,261.21c-3-1.76-5.53-6.45-5.53-10.55V82.5c0-4.06,2.47-5.93,5.53-4.17L415.08,203.84c3.05,1.76,5.53,6.45,5.53,10.55V382.54C420.61,386.63,418.13,388.47,415.08,386.71Z"/><path class="cls-6" d="M417.61,376.5,194.93,247.93l.12-164.75c0-1.69,1.19-2.37,2.64-1.53L415.07,207.16a5.81,5.81,0,0,1,2.64,4.6Z"/><path class="cls-7" d="M402.73,231.81l-197.39-114a5.37,5.37,0,0,1-2.25-4.29V99.31c0-1.65,1-2.41,2.25-1.69l197.39,114a5.39,5.39,0,0,1,2.25,4.3v14.24C405,231.78,404,232.53,402.73,231.81Z"/><path class="cls-7" d="M332.37,281.14,216,213.9a2.69,2.69,0,0,1-1.12-2.15V206.6c0-.83.5-1.21,1.12-.85L332.37,273a2.68,2.68,0,0,1,1.13,2.14v5.16C333.5,281.11,333,281.5,332.37,281.14Z"/><path class="cls-7" d="M320.92,286.72l-104.6-60.36a2.7,2.7,0,0,1-1.13-2.15v-2.57c0-.82.51-1.2,1.13-.84l104.6,60.38a2.73,2.73,0,0,1,1.12,2.15v2.56C322,286.69,321.53,287.08,320.92,286.72Z"/><path class="cls-7" d="M320.92,296.45l-104.6-60.39a2.7,2.7,0,0,1-1.13-2.15v-2.57c0-.82.51-1.2,1.13-.84l104.6,60.38A2.73,2.73,0,0,1,322,293v2.57C322,296.43,321.53,296.81,320.92,296.45Z"/><path class="cls-7" d="M294.18,290.74l-77.86-45a2.71,2.71,0,0,1-1.13-2.15V241.1c0-.83.51-1.21,1.13-.86l77.86,44.95a2.78,2.78,0,0,1,1.12,2.16v2.57C295.3,290.72,294.79,291.09,294.18,290.74Z"/><path class="cls-7" d="M394.63,322.13,346,294.05a2.67,2.67,0,0,1-1.13-2.15v-2.57c0-.83.5-1.2,1.13-.85l48.64,28.09a2.69,2.69,0,0,1,1.12,2.14v2.57C395.75,322.11,395.25,322.49,394.63,322.13Z"/><path class="cls-7" d="M394.63,331.87,346,303.77a2.65,2.65,0,0,1-1.13-2.14v-2.56c0-.83.5-1.22,1.13-.86l48.64,28.13a2.66,2.66,0,0,1,1.12,2.15v2.56C395.75,331.87,395.25,332.22,394.63,331.87Z"/><path class="cls-7" d="M381.89,334.23,346,313.5a2.64,2.64,0,0,1-1.12-2.14v-2.52c0-.83.49-1.21,1.12-.85l35.92,20.73a2.68,2.68,0,0,1,1.13,2.14v2.57C383,334.22,382.49,334.63,381.89,334.23Z"/><path class="cls-7" d="M394.61,358.84,346,330.76a2.68,2.68,0,0,1-1.12-2.15v-2.56c0-.83.49-1.22,1.12-.86l48.64,28.09a2.77,2.77,0,0,1,1.13,2.15V358C395.74,358.82,395.23,359.2,394.61,358.84Z"/><ellipse class="cls-8" cx="213.23" cy="113.05" rx="3.53" ry="6.12" transform="translate(-27.96 121.76) rotate(-30)"/><path class="cls-8" d="M315.86,174.18l-17.08-9.86a1.34,1.34,0,0,1-.56-1.07V161c0-.41.25-.6.56-.42l17.08,9.85a1.32,1.32,0,0,1,.56,1.07v2.27C316.42,174.17,316.15,174.36,315.86,174.18Z"/><path class="cls-8" d="M343.49,190.14l-17.08-9.83a1.38,1.38,0,0,1-.56-1.07V177c0-.41.26-.61.56-.42l17.08,9.85a1.33,1.33,0,0,1,.56,1.08v2.27C344.05,190.12,343.79,190.32,343.49,190.14Z"/><path class="cls-8" d="M370.68,205.84,353.6,196a1.35,1.35,0,0,1-.56-1.06v-2.27c0-.41.25-.6.56-.42l17.08,9.85a1.33,1.33,0,0,1,.56,1.08v2.27C371.24,205.83,371,206,370.68,205.84Z"/><path class="cls-8" d="M398.31,221.75l-17.06-9.85a1.33,1.33,0,0,1-.56-1.08v-2.26c0-.42.24-.6.56-.43l17.06,9.94a1.33,1.33,0,0,1,.57,1.07v2.26C398.88,221.75,398.63,222,398.31,221.75Z"/><path class="cls-7" d="M396.67,305.49l-46.4-26.79a5.39,5.39,0,0,1-2.25-4.29v-30c0-1.64,1-2.41,2.25-1.69l46.4,26.78a5.41,5.41,0,0,1,2.21,4.33v29.95C398.88,305.44,397.87,306.2,396.67,305.49Z"/><polygon class="cls-9" points="362.32 269.05 359.33 261.33 353.87 269.1 359.87 272.55 364.79 275.39 375.77 281.74 367.82 261.24 362.32 269.05"/><ellipse class="cls-9" cx="386.84" cy="283.25" rx="3.18" ry="5.5" transform="translate(-89.8 231.37) rotate(-30)"/><polygon class="cls-10" points="251.38 200.87 247.07 218.13 247.07 203.36 251.38 200.87"/><polygon class="cls-10" points="201.17 171.61 196.86 188.88 196.86 174.11 201.17 171.61"/><path class="cls-7" d="M272.07,278.71,169.44,219.45a4.82,4.82,0,0,1-2-3.85V163.1c0-1.48.93-2.16,2-1.52l102.63,59.25a4.83,4.83,0,0,1,2,3.84v52.55C274.09,278.67,273.18,279.35,272.07,278.71Z"/><polygon class="cls-11" points="245.18 197.29 245.17 177.6 239.59 173.41 239.59 197.29 233.38 200.87 242.38 206.07 251.38 200.87 245.18 197.29"/><polygon class="cls-10" points="242.38 206.07 247.07 218.13 247.07 204.2 247.07 203.36 242.38 206.07"/><polygon class="cls-12" points="233.38 200.87 237.37 212.46 247.07 218.13 242.38 206.07 233.38 200.87"/><polygon class="cls-11" points="194.97 168.04 194.97 144.14 189.38 144.14 189.38 168.03 183.18 171.61 192.18 176.81 201.17 171.61 194.97 168.04"/><polygon class="cls-10" points="192.18 176.81 196.86 188.88 196.86 174.94 196.86 174.11 192.18 176.81"/><polygon class="cls-12" points="183.18 171.61 187.16 183.2 196.86 188.88 192.18 176.81 183.18 171.61"/><polygon class="cls-1" points="133.57 279.54 77.97 247.29 10.98 285.96 70.91 320.73 137.91 282.05 137.91 277.04 133.57 279.54"/><polygon class="cls-2" points="140.62 275.2 77.97 239.03 15.32 275.2 10.98 272.69 10.98 277.7 77.97 316.39 144.96 277.7 144.96 272.69 140.62 275.2"/><polygon class="cls-13" points="77.97 311.37 10.98 272.69 77.97 234.01 144.96 272.69 77.97 311.37"/><polygon class="cls-2" points="77.76 258.37 82.13 255.84 82.13 69.04 77.76 71.56 77.76 258.37"/><polygon class="cls-2" points="78.11 147.78 108.7 196.19 113.07 194.41 82.13 145.52 78.11 147.78"/><polygon class="cls-3" points="77.92 156.39 108.53 205.05 108.53 195.95 77.92 147.47 77.92 156.39"/><polygon class="cls-3" points="73.55 255.84 77.92 258.37 77.92 71.56 73.55 69.04 73.55 255.84"/><polygon class="cls-3" points="108.53 276.04 112.91 278.57 112.91 91.76 108.53 89.24 108.53 276.04"/><polygon class="cls-2" points="112.74 278.57 117.11 276.04 117.11 89.24 112.74 91.76 112.74 278.57"/><polygon class="cls-3" points="77.92 244.9 108.53 208.25 108.53 199.47 77.92 236.17 77.92 244.9"/><polygon class="cls-2" points="77.92 244.9 82.13 242.6 108.53 210.78 108.53 207.57 77.92 244.9"/><polygon class="cls-3" points="77.92 147.78 108.53 111.13 108.53 102.34 77.92 139.05 77.92 147.78"/><polygon class="cls-2" points="77.92 147.78 82.13 145.47 108.53 113.66 108.53 110.45 77.92 147.78"/><polygon class="cls-2" points="43.03 278.54 47.41 276.02 47.41 89.21 43.03 91.73 43.03 278.54"/><polygon class="cls-2" points="43.38 167.95 73.97 216.36 78.35 214.58 47.41 165.69 43.38 167.95"/><polygon class="cls-3" points="43.2 176.57 73.81 225.21 73.81 216.12 43.2 167.63 43.2 176.57"/><polygon class="cls-3" points="38.83 276.02 43.2 278.54 43.2 91.73 38.83 89.21 38.83 276.02"/><polygon class="cls-3" points="73.81 296.21 78.18 298.73 78.18 111.93 73.81 109.4 73.81 296.21"/><polygon class="cls-2" points="78.01 298.73 82.39 296.21 82.39 109.4 78.01 111.93 78.01 298.73"/><polygon class="cls-3" points="43.2 265.07 73.81 228.42 73.81 219.63 43.2 256.34 43.2 265.07"/><polygon class="cls-2" points="43.2 265.07 47.41 262.76 73.81 230.95 73.81 227.73 43.2 265.07"/><polygon class="cls-3" points="43.2 167.95 73.81 131.3 73.81 122.51 43.2 159.21 43.2 167.95"/><polygon class="cls-2" points="43.2 167.95 47.41 165.64 73.81 133.82 73.81 130.61 43.2 167.95"/><polygon class="cls-14" points="78.18 121.39 33.02 95.32 78.18 69.25 123.34 95.32 78.18 121.39"/><polygon class="cls-11" points="74.82 46.66 21.27 77.58 5.95 68.72 59.49 37.81 74.82 46.66"/><polygon class="cls-12" points="5.95 81.12 5.95 68.72 21.27 77.58 21.27 89.97 5.95 81.12"/><polyline class="cls-10" points="21.27 89.97 74.82 59.06 74.82 46.66 21.27 77.58 21.27 88.77"/><polygon class="cls-11" points="74.82 32.76 21.27 63.67 5.95 54.82 59.49 23.91 74.82 32.76"/><polygon class="cls-12" points="5.95 67.22 5.95 54.82 21.27 63.67 21.27 76.08 5.95 67.22"/><polyline class="cls-10" points="21.27 76.08 74.82 45.16 74.82 32.76 21.27 63.67 21.27 74.87"/><polygon class="cls-3" points="34.35 71.2 1.14 52.15 1.14 45.21 34.35 64.14 34.35 71.2"/><polygon class="cls-13" points="82.39 91.72 1.14 45.21 7.16 41.74 88.4 88.24 82.39 91.72"/><polygon class="cls-3" points="70.88 60.22 29.16 36.09 29.16 29.14 70.88 51.49 70.88 60.22"/><polygon class="cls-13" points="102.52 70.78 29.16 29.15 35.17 25.67 108.53 67.31 102.52 70.78"/><polygon class="cls-3" points="51.39 41.96 51.39 48.9 54.24 68.9 58.48 71.53 51.39 41.96"/><polygon class="cls-13" points="63.94 74.5 58.45 46.04 51.39 41.96 55.67 70 63.94 74.5"/><polygon class="cls-2" points="51.39 48.9 29.47 54.68 18.22 48.17 50.43 41.39 51.39 41.96 51.39 48.9"/><polygon class="cls-13" points="51.39 41.96 20.87 49.71 14.31 45.93 45.07 38.07 51.39 41.96"/><polygon class="cls-13" points="78.18 63.9 33.02 37.82 78.18 11.75 123.34 37.82 78.18 63.9"/><polygon class="cls-3" points="33.02 118.34 33.02 37.82 78.18 63.9 78.18 144.42 33.02 118.34"/><polygon class="cls-2" points="123.34 37.82 123.34 118.34 78.18 144.42 78.18 63.89 123.34 37.82"/><polygon class="cls-9" points="78.18 91.95 52.25 76.98 43.92 50.45 78.18 70.23 78.18 91.95"/><polygon class="cls-15" points="123.34 44.16 123.34 65.87 78.18 91.95 78.18 70.25 123.34 44.16"/><polygon class="cls-3" points="279.56 213.71 84.15 100.89 84.15 93.94 279.56 206.77 279.56 213.71"/><polygon class="cls-13" points="279.56 206.77 84.15 93.95 90.16 90.48 285.57 203.3 279.56 206.77"/><polygon class="cls-3" points="307.58 197.65 112.17 84.83 112.17 77.88 307.58 190.71 307.58 197.65"/><polygon class="cls-13" points="307.58 190.71 112.17 77.88 118.18 74.41 313.59 187.23 307.58 190.71"/><polygon class="cls-2" points="313.59 194.2 279.56 213.71 279.56 206.76 313.59 187.25 313.59 194.2"/><polygon class="cls-13" points="313.59 187.25 279.58 206.77 274.48 203.83 308.5 184.31 313.59 187.25"/><polygon class="cls-2" points="283.09 183.49 261.16 189.27 249.91 182.76 282.12 175.98 283.09 176.55 283.09 183.49"/><polygon class="cls-13" points="283.09 176.55 252.57 184.3 246.01 180.51 276.76 172.66 283.09 176.55"/><polygon class="cls-3" points="233.63 148.03 233.63 154.98 236.49 174.97 240.72 177.6 233.63 148.03"/><polygon class="cls-13" points="246.19 180.57 240.7 152.11 233.63 148.03 237.93 176.08 246.19 180.57"/><polygon class="cls-2" points="233.63 154.98 211.72 160.75 200.46 154.25 232.68 147.46 233.63 148.03 233.63 154.98"/><polygon class="cls-13" points="233.63 148.03 203.13 155.79 196.57 152 227.31 144.14 233.63 148.03"/><polygon class="cls-3" points="184.01 119.36 184.01 126.3 186.86 146.3 191.11 148.93 184.01 119.36"/><polygon class="cls-13" points="196.57 151.9 191.08 123.44 184.01 119.36 188.3 147.4 196.57 151.9"/><polygon class="cls-2" points="184.01 126.3 162.1 132.08 150.84 125.58 183.06 118.79 184.01 119.36 184.01 126.3"/><polygon class="cls-13" points="184.01 119.36 153.5 127.11 146.94 123.33 177.69 115.47 184.01 119.36"/><polygon class="cls-3" points="134.39 90.7 134.39 97.65 137.24 117.64 141.49 120.27 134.39 90.7"/><polygon class="cls-13" points="146.94 123.24 141.46 94.78 134.39 90.7 138.68 118.75 146.94 123.24"/><polygon class="cls-2" points="134.39 97.65 112.48 103.42 101.23 96.92 133.44 90.13 134.39 90.7 134.39 97.65"/><polygon class="cls-13" points="134.39 90.7 103.88 98.46 97.32 94.67 128.07 86.81 134.39 90.7"/><path class="cls-1" d="M30.38,330.1,5.75,315.65c-2.77-1.64-2.45-4.5.78-6.39l12.53-7.37c3.23-1.84,8.11-2.09,10.91-.45l24.68,14.45c2.76,1.63,2.44,4.5-.79,6.39l-12.52,7.37C38.07,331.54,33.18,331.74,30.38,330.1Z"/><path class="cls-3" d="M61,315.85V280.92l-52.7-6v35.16h0a3.21,3.21,0,0,0,1.84,2.86l24.7,14.46c2.77,1.64,7.69,1.43,10.92-.46l12.52-7.37c1.85-1.07,2.77-2.44,2.68-3.69Z"/><path class="cls-16" d="M61,284.73v-3.81H56.9L34.41,267.73c-2.76-1.64-7.69-1.43-10.91.46L11,275.56a5.67,5.67,0,0,0-.66.42l-2-1.08v4.17h0a3.23,3.23,0,0,0,1.84,2.85l24.7,14.44c2.77,1.64,7.69,1.43,10.92-.46l12.52-7.37c1.85-1.09,2.77-2.51,2.67-3.84Z"/><path class="cls-17" d="M34.85,292.22,10.19,277.77c-2.77-1.64-2.45-4.51.78-6.4L23.5,264c3.22-1.85,8.11-2.1,10.91-.47L59.09,278c2.76,1.64,2.44,4.5-.8,6.39l-12.52,7.37C42.59,293.65,37.65,293.86,34.85,292.22Z"/><path class="cls-18" d="M29.3,272.49V271.1h-.84l-.27-.17a5.83,5.83,0,0,0-5.33,0,2.36,2.36,0,0,0-.44.32l-.66-.15v1.39a1.84,1.84,0,0,0,1.1,1.56,5.83,5.83,0,0,0,5.33,0A1.9,1.9,0,0,0,29.3,272.49Z"/><ellipse class="cls-9" cx="25.53" cy="271.1" rx="3.77" ry="2.21"/><path class="cls-18" d="M38.4,277.73v-1.39h-.84l-.26-.17a5.83,5.83,0,0,0-5.33,0,2.83,2.83,0,0,0-.45.32l-.66-.15v1.39A2,2,0,0,0,32,279.3a5.89,5.89,0,0,0,5.33,0A1.86,1.86,0,0,0,38.4,277.73Z"/><ellipse class="cls-9" cx="34.63" cy="276.34" rx="3.77" ry="2.21"/><path class="cls-18" d="M47.52,283.33v-1.39h-.85l-.26-.17a5.83,5.83,0,0,0-5.33,0,2.83,2.83,0,0,0-.45.32l-.66-.15v1.39a1.91,1.91,0,0,0,1.11,1.57,5.83,5.83,0,0,0,5.33,0A1.91,1.91,0,0,0,47.52,283.33Z"/><ellipse class="cls-9" cx="43.74" cy="281.94" rx="3.77" ry="2.21"/><polygon class="cls-19" points="194.08 197.13 177.51 187.58 177.51 181.6 194.08 191.16 194.08 197.13"/><polygon class="cls-20" points="208.84 205.8 197.18 198.93 197.18 192.95 208.84 199.83 208.84 205.8"/><polygon class="cls-19" points="194.08 206.7 177.51 197.13 177.51 191.16 194.08 200.72 194.08 206.7"/><polygon class="cls-20" points="216.85 219.84 197.18 208.49 197.18 202.51 216.85 213.87 216.85 219.84"/><polygon class="cls-19" points="194.08 216.25 177.51 206.7 177.51 200.72 194.08 210.29 194.08 216.25"/><polygon class="cls-21" points="249.05 247.93 197.18 218.05 197.18 212.07 249.05 241.96 249.05 247.93"/><polygon class="cls-19" points="194.08 225.82 177.51 216.25 177.51 210.28 194.08 219.84 194.08 225.82"/><polygon class="cls-22" points="253.07 260.48 197.18 227.62 197.18 221.64 253.07 254.5 253.07 260.48"/><g id="Girl_12" data-name="Girl 12"><path id="_Контур_" data-name=" Контур " class="cls-23" d="M367,112.41c1-1.54,8.32-2.56,10.73,3.67.92,2.36.78,8.4,1.54,12.19s2.59,5.95,3.23,9-.41,8.24-7.87,9.15-13.08-1.66-14.83-4-1.78-7.39,0-10.11,3.2-4.88,3.16-8.4Z"/><path id="_Контур_2" data-name=" Контур 2" class="cls-23" d="M371.92,111.34s-5.62-1.55-8.93,1.4a8.19,8.19,0,0,0-2.36,8.2c.45,1.75,1.34,4.13,2.73,4.27S371.92,111.34,371.92,111.34Z"/><path id="_Контур_3" data-name=" Контур 3" class="cls-24" d="M374,126.43s-.36,6.18-.25,6.63,2.42.89,3.07,1.43-3.37,6.79-5.39,7.73-8.34-1.45-8.78-4.59c-.4-2.87,1.81-5.12,2.66-5.91a12.49,12.49,0,0,1,1.73,0l.2-3C370,127.77,374,126.43,374,126.43Z"/><path id="_Контур_4" data-name=" Контур 4" class="cls-24" d="M355.85,159.36a33,33,0,0,1-6.14,6.4,29,29,0,0,0-2.1,2.46,9.34,9.34,0,0,1-4.14,2.74c-1.39.36-2,.27-2.24,0s-.13-.65.48-.9a7.65,7.65,0,0,0,2.71-1.45s-1.3.6-2.12.88a8.57,8.57,0,0,1-2.24.45c-.78,0-1.58-.89-1-1.13s1.12-.29,2.36-.73a7.23,7.23,0,0,0,1.79-.92,16.85,16.85,0,0,1-2.54.53,3.89,3.89,0,0,1-2.13-.25c-.36-.16-.67-.81.14-1a12,12,0,0,0,3.06-.71c.94-.43,1.53-.88,1.32-1s-.74.21-1.68.14-1.84-.67-1.82-1.12.2-.23,1.12-.31a19.93,19.93,0,0,1,3-.5,9.75,9.75,0,0,0,2.94-.35c1-.3,3.26-3,5-5.5a36.63,36.63,0,0,0,4.43-9c1-3.37,2.24-9.81,3.15-12s2.41-3.22,3.86-3.27c1.69-.05,2.42,2.18,2,4.12C364.25,140.24,360.47,153.3,355.85,159.36Z"/><path id="_Контур_5" data-name=" Контур 5" class="cls-25" d="M374.85,133.66c1.73.27,3.71,1.19,4,2.14a20.4,20.4,0,0,1-.49,10.29c-1.5,4-3.21,11.14-4.06,12.86a20.23,20.23,0,0,1-12.92-2.53s-.36-6.9-.38-9.18c-5.62-4.87-.81-10.88,3.91-15.54a12.2,12.2,0,0,1,1.71,0s-4.22,5-1.3,7.87C371.6,137.6,372.84,134.78,374.85,133.66Z"/><path id="_Контур_6" data-name=" Контур 6" class="cls-24" d="M362.47,118.78h0c.63-4,3.5-7,7.59-6.74a7.86,7.86,0,0,1,7.4,8.3v0a7.86,7.86,0,0,1-3.46,6,7.71,7.71,0,0,1-.63,1.74c-1.45,1.68-5.29,2.75-6.56,2.76s-2.05-1-3.08-2.7C361.6,124.68,362.14,120.75,362.47,118.78Z"/><path class="cls-23" d="M371.31,112.15c2.87.55,5.23,1.36,6,4.18.54,1.93,1.24,5.62.58,7.19l-.42,1.13L374,126.43s-1.62-1.35-1.12-5.3a2.88,2.88,0,0,0-.49-1.5,3.9,3.9,0,0,1-.47-1.2,4.48,4.48,0,0,0-2.25-2.42,7.71,7.71,0,0,0-6.89.31A7.51,7.51,0,0,1,371.31,112.15Z"/><path class="cls-23" d="M355.53,207c-1.45,1.13-3.71.36-3.82.48a61.61,61.61,0,0,1-5.32,4.05c-.89.71-2.31,1.66-2.05,3,.46,2.44,4.37,1.69,5.85.95s2.68-2,4.08-2.86c1-.61,2-.94,2.12-2.24C356.49,209.71,355.79,207,355.53,207Z"/><path class="cls-26" d="M356.38,210c-.19,1.2-1.12,1.54-2.14,2.14-1.43.89-2.68,2.16-4.16,2.91s-4.76,1.37-5.72-.37c.52,2.36,4.36,1.62,5.83.88s2.68-2,4.08-2.86c1-.61,2-.94,2.12-2.24A1.76,1.76,0,0,0,356.38,210Z"/><path class="cls-23" d="M348.46,203.05c-1.32,1.12-3.37.47-3.44.57a58,58,0,0,1-4.85,3.7c-.83.65-2.12,1.52-1.89,2.77.42,2.25,4,1.55,5.36.87s2.45-1.82,3.73-2.61c.91-.57,1.81-.87,2-2A7.63,7.63,0,0,0,348.46,203.05Z"/><path class="cls-26" d="M349.32,205.88c-.18,1.12-1.07,1.4-2,2a41.39,41.39,0,0,1-3.8,2.67c-1.42.72-4.36,1.25-5.24-.34.48,2.16,4,1.48,5.34.8s2.45-1.82,3.73-2.61c.91-.57,1.81-.86,2-2A3.49,3.49,0,0,0,349.32,205.88Z"/><path class="cls-24" d="M368.55,160.46A21.34,21.34,0,0,1,357,158.79c.07,1.24.13,2.33.13,2.33-4.7,3.37-14.14,8.92-14.76,12.78.62,12.2,2.47,29.64,3,29.89,1.47.71,2.51.59,3.2-.11,0,0,3-10.34,2.1-25.51,0,0,16.46-7.29,17.54-11.23a12.47,12.47,0,0,0,.45-5C368.64,161.48,368.61,161,368.55,160.46Z"/><path class="cls-24" d="M374,158.88a17.63,17.63,0,0,1-9.95,1.34c0,1.63.23,4.69.23,4.69-4.73,3.31-14.13,8.92-14.74,12.79.61,12.21,1.75,29.89,2.25,30.11a4,4,0,0,0,3.9-.46s3-10.21,2.11-25.38c0-.28,14.11-7.24,15.9-9.07s2.13-4.57,2.09-7.17A17.58,17.58,0,0,0,374,158.88Z"/><path class="cls-27" d="M377.47,161.48s5.23,9.24-3.47,14c-9.18,5-14.76,6.18-14.76,6.18l-1.39.33a35.15,35.15,0,0,1,0,9.61s-6.55,2.24-14.89-5.07l-2.77-8.91-.32-2.36a4.92,4.92,0,0,1,1.39-4.49c2-1.82,8.35-6.48,12.29-9.13s7.14-5.21,7.14-5.21l.68-.64s4.69,3.73,13.24,2.48A13.31,13.31,0,0,1,377.47,161.48Z"/><path id="_Контур_7" data-name=" Контур 7" class="cls-24" d="M372.3,175.18a26.86,26.86,0,0,1,2.52-2,10.22,10.22,0,0,0,2.55-1.82c.8-.79,2-4.15,2.6-7.42a32.68,32.68,0,0,0-.18-11,78,78,0,0,0-4.37-12.69c-1.13-2.45-.51-3.94.55-5,1.24-1.27,2.54-1.24,4,2.18a69.59,69.59,0,0,1,4.58,14.94,32.84,32.84,0,0,1-.16,11.23,41,41,0,0,1-3,9.44c-.39.89-.45,1.63-1,3.37a11.32,11.32,0,0,1-2.7,4.73c-1.12,1.06-1.71,1.26-2,1.13s-.37-.59.09-1.13a9.38,9.38,0,0,0,1.9-2.76s-1,1.22-1.58,1.91a9.08,9.08,0,0,1-1.91,1.59c-.69.42-1.78-.07-1.33-.63s.95-.86,1.88-1.89a9.69,9.69,0,0,0,1.27-1.79,17.3,17.3,0,0,1-2.12,1.79,4.07,4.07,0,0,1-2,.84c-.38,0-.92-.45-.27-1.07a13.81,13.81,0,0,0,2.52-2.25c.69-.88,1-1.61.83-1.59s-.6.56-1.48,1-1.94.27-2.12-.23S371.48,175.72,372.3,175.18Z"/><path class="cls-28" d="M382.26,142s-3.16,2.81-6.68,2.25l-1.41-5.9s-.93-3.09,1.72-4.27S381.11,136,382.26,142Z"/><path class="cls-28" d="M364.89,131.7s-3.43-1-7.06,6.54l1.36.82A57.87,57.87,0,0,1,364.89,131.7Z"/><g id="_Группа_" data-name=" Группа "><g id="_Группа_2" data-name=" Группа 2"><path id="_Контур_8" data-name=" Контур 8" class="cls-25" d="M341.25,164.43l12.2-7a.68.68,0,0,1,.7,0l21.34,12.35L362.94,177Z"/><path class="cls-29" d="M363.31,174.19l.94.54c.08,0,.06.13,0,.18l-.89.51a.37.37,0,0,1-.29,0l-.93-.54c-.08,0-.07-.12,0-.18l.89-.51A.34.34,0,0,1,363.31,174.19Z"/><path class="cls-29" d="M362,173.44l.93.54c.07,0,.07.11,0,.17l-.88.52a.42.42,0,0,1-.31,0l-.93-.54c-.08,0-.07-.13,0-.18l.89-.51A.32.32,0,0,1,362,173.44Z"/><path class="cls-29" d="M360.69,172.71l.93.54c.08,0,.07.12,0,.17l-.89.52a.39.39,0,0,1-.3,0l-.94-.54c-.07,0-.06-.13,0-.17l.89-.52A.42.42,0,0,1,360.69,172.71Z"/><path class="cls-29" d="M359.36,171.91l.93.54c.07,0,0,.13,0,.17l-.9.52a.37.37,0,0,1-.29,0l-.93-.54c-.08,0-.07-.13,0-.17l.89-.52A.32.32,0,0,1,359.36,171.91Z"/><path class="cls-29" d="M358,171.15l.94.54c.08,0,.06.12,0,.17l-.89.51a.32.32,0,0,1-.3,0l-.94-.54c-.06,0-.06-.12,0-.16l.9-.52A.3.3,0,0,1,358,171.15Z"/><path class="cls-29" d="M356.71,170.38l.93.54c.08,0,.07.13,0,.17l-.9.52a.3.3,0,0,1-.29,0l-.93-.54c-.08,0-.07-.11,0-.17l.88-.52A.42.42,0,0,1,356.71,170.38Z"/><path class="cls-29" d="M355.39,169.62l.94.54c.07,0,.06.12,0,.17l-.89.52a.32.32,0,0,1-.3,0l-.94-.54c-.08,0-.06-.12,0-.17l.89-.52A.39.39,0,0,1,355.39,169.62Z"/><path class="cls-29" d="M354.07,168.86l.93.54c.08,0,.07.12,0,.18l-.89.5a.3.3,0,0,1-.29,0l-1-.52c-.08,0-.07-.12,0-.18l.89-.51A.34.34,0,0,1,354.07,168.86Z"/><path class="cls-29" d="M352.75,168.1l.94.53c.07,0,.06.13,0,.18l-.87.53a.39.39,0,0,1-.3,0l-.94-.54c-.07,0-.06-.12,0-.18l.89-.5A.34.34,0,0,1,352.75,168.1Z"/><path class="cls-29" d="M351.43,167.34l.93.54c.08,0,.07.11,0,.17l-.89.51a.3.3,0,0,1-.29,0l-.93-.53c-.08,0-.07-.13,0-.17l.89-.52A.3.3,0,0,1,351.43,167.34Z"/><path class="cls-29" d="M350.11,166.58l.94.54c.06,0,.06.11,0,.16l-.89.52a.34.34,0,0,1-.31,0l-.93-.54c-.08,0-.07-.12,0-.17l.89-.51A.32.32,0,0,1,350.11,166.58Z"/><path class="cls-29" d="M348.79,165.81l.93.54c.08,0,.07.12,0,.17l-.89.52a.37.37,0,0,1-.29,0l-.94-.54c-.07,0-.06-.13,0-.17l.9-.52A.37.37,0,0,1,348.79,165.81Z"/><path class="cls-29" d="M347.47,165.05l.94.54c.06,0,0,.12,0,.17l-.9.51a.32.32,0,0,1-.3,0l-.93-.54c-.08,0-.07-.12,0-.17l.89-.51A.32.32,0,0,1,347.47,165.05Z"/><path class="cls-29" d="M345.51,163.91l1.57.91c.08,0,.07.13,0,.17l-.89.52a.32.32,0,0,1-.3,0l-1.56-.9c-.08,0-.07-.12,0-.18l.88-.51A.39.39,0,0,1,345.51,163.91Z"/><path class="cls-29" d="M362.64,172.33l.93.54c.08,0,.07.12,0,.17l-.88.51a.34.34,0,0,1-.31,0l-.93-.54c-.08,0-.07-.12,0-.16l.89-.52A.32.32,0,0,1,362.64,172.33Z"/><path class="cls-29" d="M361.31,171.59l.94.54c.08,0,.06.12,0,.16l-.89.52a.32.32,0,0,1-.3,0l-.94-.54c-.06,0-.06-.12,0-.17l.9-.51A.3.3,0,0,1,361.31,171.59Z"/><path class="cls-29" d="M360,170.8l.93.54c.08,0,.07.12,0,.17L360,172a.3.3,0,0,1-.29,0l-.93-.54c-.08,0-.07-.13,0-.17l.89-.52A.37.37,0,0,1,360,170.8Z"/><path class="cls-29" d="M358.66,170l.95.54c.06,0,.05.12,0,.16l-.9.52a.3.3,0,0,1-.29,0l-.94-.54c-.08,0-.06-.12,0-.17l.89-.51A.3.3,0,0,1,358.66,170Z"/><path class="cls-29" d="M357.32,169.34l.93.54c.06,0,.06.11,0,.17l-.89.51a.32.32,0,0,1-.3,0l-.94-.53c-.07,0-.06-.13,0-.18l.89-.51A.34.34,0,0,1,357.32,169.34Z"/><path class="cls-29" d="M356,168.52l.94.54c.08,0,.06.11,0,.17l-.89.51a.32.32,0,0,1-.3,0l-.94-.53c-.06,0-.06-.13,0-.18l.89-.51A.32.32,0,0,1,356,168.52Z"/><path class="cls-29" d="M354.71,167.76l.93.53c.08,0,.07.12,0,.17l-.89.52a.37.37,0,0,1-.29,0l-.93-.54c-.08,0-.07-.12,0-.17l.9-.51A.28.28,0,0,1,354.71,167.76Z"/><path class="cls-29" d="M353.38,167l.94.54c.07,0,.06.11,0,.17l-.9.52a.39.39,0,0,1-.3,0l-.93-.54c-.08,0-.07-.13,0-.17l.89-.52A.32.32,0,0,1,353.38,167Z"/><path class="cls-29" d="M352.07,166.23l.93.54c.07,0,.07.11,0,.17l-.89.51a.32.32,0,0,1-.3,0l-.93-.54c-.08,0-.07-.12,0-.17l.88-.51A.34.34,0,0,1,352.07,166.23Z"/><path class="cls-29" d="M350.74,165.46l1,.51c.08,0,.06.11,0,.17l-.89.51a.32.32,0,0,1-.3,0l-.94-.53c-.06,0-.06-.13,0-.17l.89-.52A.34.34,0,0,1,350.74,165.46Z"/><path class="cls-29" d="M349.45,164.7l.93.54c.08,0,.07.11,0,.17l-.93.56a.37.37,0,0,1-.29,0l-.93-.54c-.08,0-.07-.12,0-.17l.89-.52A.33.33,0,0,1,349.45,164.7Z"/><path class="cls-29" d="M348.09,163.94l.93.53c.08,0,.07.12,0,.17l-.88.52a.39.39,0,0,1-.3,0l-.93-.54c-.08,0-.07-.12,0-.17l.89-.51A.3.3,0,0,1,348.09,163.94Z"/><path class="cls-29" d="M364,173.09l1.57.91c.08,0,.07.11,0,.17l-.89.52a.37.37,0,0,1-.29,0l-1.57-.91c-.08,0-.07-.13,0-.17l.88-.52A.39.39,0,0,1,364,173.09Z"/><path class="cls-29" d="M345.57,163.87l.94.54a.34.34,0,0,0,.28,0l.93-.54a.09.09,0,0,0,0-.12.12.12,0,0,0,0-.05h-.08a.08.08,0,0,1,0-.12s0,0,0,0l1-.57a.1.1,0,0,0,0-.12.08.08,0,0,0,0,0l-.59-.33a.3.3,0,0,0-.29,0l-.93.53-.19.11-.13.09-.15.07-.8.46C345.5,163.72,345.5,163.82,345.57,163.87Z"/><path class="cls-29" d="M368.43,171.24l.94.54c.07,0,.06.12,0,.17l-.9.51a.3.3,0,0,1-.29,0l-.93-.54c-.08,0-.07-.12,0-.16l.88-.52A.32.32,0,0,1,368.43,171.24Z"/><path class="cls-29" d="M367.11,170.46l.93.54c.08,0,.07.13,0,.18l-.88.51a.3.3,0,0,1-.29,0l-.94-.53c-.08,0-.06-.12,0-.18l.89-.51A.37.37,0,0,1,367.11,170.46Z"/><path class="cls-29" d="M365.8,169.72l.93.54c.08,0,.07.11,0,.17l-.89.52a.39.39,0,0,1-.3,0l-.93-.54c-.07,0-.06-.13,0-.17l.9-.52A.3.3,0,0,1,365.8,169.72Z"/><path class="cls-29" d="M354.58,163.24l.94.54c.08,0,.06.12,0,.18l-.89.5a.32.32,0,0,1-.3,0l-.94-.54c-.07,0-.06-.11,0-.16l.89-.52A.32.32,0,0,1,354.58,163.24Z"/><path class="cls-29" d="M353.27,162.49l.93.54c.07,0,.07.11,0,.16l-.9.52a.3.3,0,0,1-.29,0l-.93-.54c-.08,0-.07-.12,0-.17l.89-.51A.32.32,0,0,1,353.27,162.49Z"/><path class="cls-29" d="M351.94,161.72l.94.54c.08,0,.06.13,0,.17L352,163a.3.3,0,0,1-.29,0l-.94-.54c-.07,0-.06-.13,0-.17l.89-.52A.37.37,0,0,1,351.94,161.72Z"/><path class="cls-29" d="M350.63,161l.93.54c.08,0,.07.12,0,.18l-.89.5a.3.3,0,0,1-.29,0l-.93-.54c-.08,0-.07-.11,0-.16l.9-.52A.34.34,0,0,1,350.63,161Z"/><path class="cls-29" d="M364.15,168.77l1.27.73c.07,0,.06.12,0,.17l-.89.51a.34.34,0,0,1-.31,0l-1.29-.72c-.08,0-.06-.12,0-.18l.89-.5A.32.32,0,0,1,364.15,168.77Z"/><path class="cls-29" d="M355.9,164l1.27.73c.08,0,.07.13,0,.18l-.89.51a.37.37,0,0,1-.29,0l-1.28-.74c-.07,0-.07-.13,0-.17l.9-.52A.37.37,0,0,1,355.9,164Z"/><path class="cls-29" d="M357.55,165l6.2,3.58c.08,0,.07.13,0,.17l-.9.52a.37.37,0,0,1-.29,0l-6.2-3.59c-.08,0-.07-.11,0-.17l.89-.51A.32.32,0,0,1,357.55,165Z"/><path class="cls-29" d="M363.56,171.38l.93.54c.08,0,.07.12,0,.17l-.88.52a.42.42,0,0,1-.31,0l-.93-.54c-.08,0-.07-.12,0-.17l.89-.52A.32.32,0,0,1,363.56,171.38Z"/><path class="cls-29" d="M362.24,170.62l.93.54c.08,0,.07.12,0,.17l-.89.52a.37.37,0,0,1-.29,0l-.93-.54c-.08,0-.07-.13,0-.17l.88-.52A.39.39,0,0,1,362.24,170.62Z"/><path class="cls-29" d="M360.92,169.86l.93.54c.08,0,.07.12,0,.16l-.88.52a.34.34,0,0,1-.31,0l-.93-.54c-.08,0-.07-.11,0-.17l.89-.51A.32.32,0,0,1,360.92,169.86Z"/><path class="cls-29" d="M359.56,169.09l.93.54c.08,0,.07.13,0,.18l-.89.51a.32.32,0,0,1-.3,0l-.93-.53c-.08,0-.07-.12,0-.18l.89-.52A.32.32,0,0,1,359.56,169.09Z"/><path class="cls-29" d="M358.28,168.34l.93.54c.08,0,.07.11,0,.17l-.88.51a.34.34,0,0,1-.31,0l-.93-.53c-.07,0-.07-.13,0-.18l.9-.51A.3.3,0,0,1,358.28,168.34Z"/><path class="cls-29" d="M357,167.58l.93.54c.07,0,.07.12,0,.16l-.9.52a.37.37,0,0,1-.29,0l-.93-.54c-.08,0-.07-.12,0-.17l.88-.51A.34.34,0,0,1,357,167.58Z"/><path class="cls-29" d="M355.64,166.81l.93.54c.08,0,.07.12,0,.17l-.88.52a.39.39,0,0,1-.3,0l-.93-.54c-.08,0-.07-.13,0-.17l.9-.52A.34.34,0,0,1,355.64,166.81Z"/><path class="cls-29" d="M354.33,166.05l.93.54c.08,0,.07.12,0,.17l-.89.51a.32.32,0,0,1-.3,0l-.93-.54c-.08,0-.07-.11,0-.17l.88-.51A.34.34,0,0,1,354.33,166.05Z"/><path class="cls-29" d="M353,165.28l.93.54c.08,0,.07.13,0,.18l-.88.51a.32.32,0,0,1-.3,0l-.93-.53c-.08,0-.07-.12,0-.18l.89-.5A.33.33,0,0,1,353,165.28Z"/><path class="cls-29" d="M351.7,164.53l.93.54c.08,0,.07.11,0,.17l-.89.52a.39.39,0,0,1-.3,0l-.93-.54c-.07,0-.07-.13,0-.18l.88-.51A.34.34,0,0,1,351.7,164.53Z"/><path class="cls-29" d="M350.36,163.72l.93.54c.08,0,.07.13,0,.17l-.9.52a.37.37,0,0,1-.29,0l-.93-.54c-.08,0-.07-.13,0-.17l.89-.52A.32.32,0,0,1,350.36,163.72Z"/><path class="cls-29" d="M349.05,163l.93.54c.08,0,.07.13,0,.17l-.89.52a.32.32,0,0,1-.3,0l-.94-.54c-.06,0-.05-.13,0-.17l.9-.52A.39.39,0,0,1,349.05,163Z"/><path class="cls-29" d="M364.88,172.15l1.93,1.12c.08,0,.07.11,0,.17l-.89.52a.39.39,0,0,1-.3,0l-1.92-1.13c-.08,0-.07-.12,0-.18l.9-.5A.28.28,0,0,1,364.88,172.15Z"/><path class="cls-29" d="M365.49,171l.94.53c.08,0,.06.12,0,.17l-.89.52a.39.39,0,0,1-.3,0l-.94-.54c-.06,0-.06-.12,0-.17l.89-.51A.32.32,0,0,1,365.49,171Z"/><path class="cls-29" d="M364.18,170.26l.93.54c.07,0,.06.12,0,.17l-.9.52a.37.37,0,0,1-.29,0L363,171c-.08,0-.07-.13,0-.17l.89-.52A.32.32,0,0,1,364.18,170.26Z"/><path class="cls-29" d="M362.85,169.5l.94.54c.08,0,.06.12,0,.16l-.89.52a.3.3,0,0,1-.29,0l-.94-.54c-.07,0-.06-.12,0-.17l.9-.51A.34.34,0,0,1,362.85,169.5Z"/><path class="cls-29" d="M361.54,168.73l.93.54c.08,0,.07.13,0,.18l-.89.51a.32.32,0,0,1-.3,0l-.93-.54c-.08,0-.07-.11,0-.17l.89-.52A.39.39,0,0,1,361.54,168.73Z"/><path class="cls-29" d="M360.21,168l.94.53c.07,0,.06.12,0,.18l-.89.5a.3.3,0,0,1-.29,0l-.94-.54c-.07,0-.06-.12,0-.18l.89-.5A.3.3,0,0,1,360.21,168Z"/><path class="cls-29" d="M358.9,167.22l.93.54c.08,0,.07.11,0,.16l-.89.52a.32.32,0,0,1-.3,0l-.93-.54c-.07,0-.07-.12,0-.17l.89-.51A.32.32,0,0,1,358.9,167.22Z"/><path class="cls-29" d="M357.57,166.45l.95.54c.06,0,.05.13,0,.17l-.9.52a.37.37,0,0,1-.29,0l-.94-.54c-.07,0-.06-.13,0-.17l.89-.52A.37.37,0,0,1,357.57,166.45Z"/><path class="cls-29" d="M356.26,165.69l.93.54c.08,0,.07.12,0,.17l-.89.51a.3.3,0,0,1-.29,0l-.93-.54c-.08,0-.07-.11,0-.16l.9-.52A.34.34,0,0,1,356.26,165.69Z"/><path class="cls-29" d="M354.94,164.92l.94.54c.08,0,.06.13,0,.18l-.89.51a.32.32,0,0,1-.3,0l-.94-.54c-.08,0-.06-.11,0-.17l.89-.52A.39.39,0,0,1,354.94,164.92Z"/><path class="cls-29" d="M353.62,164.17l.93.54c.08,0,.07.11,0,.17l-.89.52a.37.37,0,0,1-.29,0l-.93-.54c-.08,0-.07-.13,0-.18l.89-.51A.3.3,0,0,1,353.62,164.17Z"/><path class="cls-29" d="M352.3,163.41l.94.54c.08,0,.06.12,0,.17l-.89.51a.32.32,0,0,1-.3,0l-.94-.54c-.06,0-.06-.12,0-.17l.89-.51A.32.32,0,0,1,352.3,163.41Z"/><path class="cls-29" d="M349.35,161.7l2.57,1.48c.07,0,.06.13,0,.17l-.9.52a.3.3,0,0,1-.29,0l-2.56-1.48c-.08,0-.07-.12,0-.17l.9-.52A.34.34,0,0,1,349.35,161.7Z"/><path class="cls-29" d="M366.81,171.78l1.28.74c.07,0,0,.12,0,.17l-.9.51a.3.3,0,0,1-.29,0l-1.27-.73c-.08,0-.07-.12,0-.18l.89-.5A.33.33,0,0,1,366.81,171.78Z"/><path class="cls-29" d="M344.18,164.69l18.75,10.81c.08,0,.07.12,0,.18l-.45.24a.3.3,0,0,1-.29,0l-18.74-10.8c-.07,0,0-.13,0-.17l.45-.26A.28.28,0,0,1,344.18,164.69Z"/><polygon id="_Контур_9" data-name=" Контур 9" class="cls-30" points="366.35 165.4 366.23 165.46 363 167.33 357.27 164.01 357.15 163.95 360.5 162.01 366.35 165.4"/><polygon id="_Контур_10" data-name=" Контур 10" class="cls-31" points="366.23 165.46 363 167.33 357.27 164.01 360.5 162.15 366.23 165.46"/><path id="_Контур_11" data-name=" Контур 11" class="cls-31" d="M375.55,169.74V170a1.18,1.18,0,0,1-.58,1l-11.39,6.56a1.12,1.12,0,0,1-1.12,0l-20.62-11.88a1.13,1.13,0,0,1-.59-1v-.28L363,177Z"/><path id="_Контур_12" data-name=" Контур 12" class="cls-31" d="M363,177v.79a1.29,1.29,0,0,1-.58-.16l-20.58-11.88a1.13,1.13,0,0,1-.59-1v-.28Z"/><path id="_Контур_13" data-name=" Контур 13" class="cls-25" d="M362.67,177.2a1.37,1.37,0,0,1-1.2-.09L341,165.24a1.41,1.41,0,0,1-.68-1l-2.24-13.37a.81.81,0,0,1,0-.22,1.39,1.39,0,0,1,.41-1L359.75,162a1,1,0,0,1,.51.72Z"/><path id="_Контур_14" data-name=" Контур 14" class="cls-31" d="M363,177l-.13.08-.2.09-2.42-14.47a1,1,0,0,0-.51-.72l-21.28-12.29a2,2,0,0,1,.28-.23l21.35,12.36a1.19,1.19,0,0,1,.51.73Z"/></g></g></g></svg>