<svg id="Capa_1" data-name="Capa 1" xmlns="http://www.w3.org/2000/svg" viewBox="0 0 428 428"><defs><style>.cls-1,.cls-3{fill:#d6d8e5;}.cls-1{isolation:isolate;opacity:0.4;}.cls-2{fill:#b1b4c4;}.cls-4{fill:#9ea1af;}.cls-5{fill:#e4e7f2;}.cls-6{fill:#fff;}.cls-7{fill:#e9eaf2;}.cls-8{fill:#dadce5;}.cls-9{fill:#7676b6;}.cls-10{fill:#232733;}.cls-11{fill:#353c4c;}.cls-12{fill:#2b303f;}.cls-13{fill:#e7e9f2;}.cls-14{fill:#f7dc6b;}.cls-15{fill:#edf0f9;}.cls-16{fill:#e2e5f2;}.cls-17{fill:#6e48e5;}.cls-18{fill:#a298e2;}.cls-19{fill:#7abe7b;}.cls-20{fill:#ea516f;}.cls-21{fill:#2b2a30;}.cls-22{fill:#ffcea9;}.cls-23{fill:#f4f4f4;}.cls-24{fill:#bf4b4b;}.cls-25{fill:#ededed;}.cls-26{fill:#3a2c6d;}.cls-27{fill:#bfbfbf;}.cls-28{fill:#e5e5e5;}</style></defs><path class="cls-1" d="M287.16,377,243.11,351.5c-3.18-1.85-2.76-5,.92-7.16l28.56-16.48L328.13,360l-28.56,16.48C295.89,378.57,290.36,378.8,287.16,377Z"/><path class="cls-2" d="M291.14,374.63,247.07,349.2c-3.17-1.84-2.76-5,.92-7.15l28.56-16.48,55.56,32.08-28.56,16.48C299.86,376.24,294.31,376.47,291.14,374.63Z"/><polygon class="cls-2" points="332.07 357.65 332.07 355.96 329.5 357.45 332.07 357.65"/><polygon class="cls-2" points="244.94 346.17 244.94 344.46 247.58 345.56 244.94 346.17"/><path class="cls-3" d="M291.14,373l-44.07-25.44c-3.17-1.84-2.76-5,.92-7.15l28.56-16.51,55.56,32.08-28.56,16.47C299.86,374.52,294.31,374.79,291.14,373Z"/><polygon class="cls-4" points="276.67 323.96 269.79 301.16 325.94 333.37 332.07 355.96 276.67 323.96"/><path class="cls-4" d="M330.44,356.9l1.63-.92-2.42-1.93Z"/><polygon class="cls-2" points="274.89 324.82 268.02 302.02 324.18 334.23 330.44 356.9 274.89 324.82"/><path class="cls-2" d="M417.47,395.35,200.1,269.84c-3-1.76-5.53-6.45-5.53-10.55V91.13c0-4.06,2.47-5.93,5.53-4.17L417.47,212.47c3,1.76,5.53,6.44,5.53,10.54V391.18C423,395.24,420.5,397.11,417.47,395.35Z"/><polygon class="cls-2" points="418.57 397.08 420.98 395.69 419.94 388.55 418.57 397.08"/><path class="cls-2" d="M194.15,88l2.38-1.37,3.41,1.94s-3.63.55-3.69.54Z"/><path class="cls-5" d="M415.47,396.5,198.09,271c-3.05-1.76-5.53-6.44-5.53-10.55V92.28c0-4.06,2.48-5.93,5.53-4.17L415.47,213.62c3,1.76,5.52,6.45,5.52,10.55V392.33C421,396.39,418.51,398.26,415.47,396.5Z"/><path class="cls-3" d="M415.08,396.71,197.7,271.21c-3-1.76-5.53-6.45-5.53-10.55V92.5c0-4.06,2.47-5.93,5.53-4.17L415.08,213.84c3.05,1.76,5.53,6.45,5.53,10.55V392.54C420.61,396.63,418.13,398.47,415.08,396.71Z"/><path class="cls-6" d="M417.61,386.5,194.93,257.93l.12-164.75c0-1.69,1.19-2.37,2.64-1.53L415.07,217.16a5.81,5.81,0,0,1,2.64,4.6Z"/><path class="cls-7" d="M402.73,241.81l-197.39-114a5.37,5.37,0,0,1-2.25-4.29V109.31c0-1.65,1-2.41,2.25-1.69l197.39,114a5.39,5.39,0,0,1,2.25,4.3v14.24C405,241.78,404,242.53,402.73,241.81Z"/><path class="cls-7" d="M332.37,291.14,216,223.9a2.69,2.69,0,0,1-1.12-2.15V216.6c0-.83.5-1.21,1.12-.85L332.37,283a2.68,2.68,0,0,1,1.13,2.14v5.16C333.5,291.11,333,291.5,332.37,291.14Z"/><path class="cls-7" d="M320.92,296.72l-104.6-60.36a2.7,2.7,0,0,1-1.13-2.15v-2.57c0-.82.51-1.2,1.13-.84l104.6,60.38a2.73,2.73,0,0,1,1.12,2.15v2.56C322,296.69,321.53,297.08,320.92,296.72Z"/><path class="cls-7" d="M320.92,306.45l-104.6-60.39a2.7,2.7,0,0,1-1.13-2.15v-2.57c0-.82.51-1.2,1.13-.84l104.6,60.38A2.73,2.73,0,0,1,322,303v2.57C322,306.43,321.53,306.81,320.92,306.45Z"/><path class="cls-7" d="M294.18,300.74l-77.86-45a2.71,2.71,0,0,1-1.13-2.15V251.1c0-.83.51-1.21,1.13-.86l77.86,44.95a2.78,2.78,0,0,1,1.12,2.16v2.57C295.3,300.72,294.79,301.09,294.18,300.74Z"/><path class="cls-7" d="M394.63,332.13,346,304.05a2.67,2.67,0,0,1-1.13-2.15v-2.57c0-.83.5-1.2,1.13-.85l48.64,28.09a2.69,2.69,0,0,1,1.12,2.14v2.57C395.75,332.11,395.25,332.49,394.63,332.13Z"/><path class="cls-7" d="M394.63,341.87,346,313.77a2.65,2.65,0,0,1-1.13-2.14v-2.56c0-.83.5-1.22,1.13-.86l48.64,28.13a2.66,2.66,0,0,1,1.12,2.15v2.56C395.75,341.87,395.25,342.22,394.63,341.87Z"/><path class="cls-7" d="M381.89,344.23,346,323.5a2.64,2.64,0,0,1-1.12-2.14v-2.52c0-.83.49-1.21,1.12-.85l35.92,20.73a2.68,2.68,0,0,1,1.13,2.14v2.57C383,344.22,382.49,344.63,381.89,344.23Z"/><path class="cls-7" d="M394.61,368.84,346,340.76a2.68,2.68,0,0,1-1.12-2.15v-2.56c0-.83.49-1.22,1.12-.86l48.64,28.09a2.77,2.77,0,0,1,1.13,2.15V368C395.74,368.82,395.23,369.2,394.61,368.84Z"/><ellipse class="cls-8" cx="213.23" cy="123.05" rx="3.53" ry="6.12" transform="translate(-32.96 123.1) rotate(-30)"/><path class="cls-8" d="M315.86,184.18l-17.08-9.86a1.34,1.34,0,0,1-.56-1.07V171c0-.41.25-.6.56-.42l17.08,9.85a1.32,1.32,0,0,1,.56,1.07v2.27C316.42,184.17,316.15,184.36,315.86,184.18Z"/><path class="cls-8" d="M343.49,200.14l-17.08-9.83a1.38,1.38,0,0,1-.56-1.07V187c0-.41.26-.61.56-.42l17.08,9.85a1.33,1.33,0,0,1,.56,1.08v2.27C344.05,200.12,343.79,200.32,343.49,200.14Z"/><path class="cls-8" d="M370.68,215.84,353.6,206a1.35,1.35,0,0,1-.56-1.06v-2.27c0-.41.25-.6.56-.42l17.08,9.85a1.33,1.33,0,0,1,.56,1.08v2.27C371.24,215.83,371,216,370.68,215.84Z"/><path class="cls-8" d="M398.31,231.75l-17.06-9.85a1.33,1.33,0,0,1-.56-1.08v-2.26c0-.42.24-.6.56-.43l17.06,9.94a1.33,1.33,0,0,1,.57,1.07v2.26C398.88,231.75,398.63,232,398.31,231.75Z"/><path class="cls-7" d="M396.67,315.49l-46.4-26.79a5.39,5.39,0,0,1-2.25-4.29v-30c0-1.64,1-2.41,2.25-1.69l46.4,26.78a5.41,5.41,0,0,1,2.21,4.33v29.95C398.88,315.44,397.87,316.2,396.67,315.49Z"/><polygon class="cls-9" points="362.32 279.05 359.33 271.33 353.87 279.1 359.87 282.55 364.79 285.39 375.77 291.74 367.82 271.24 362.32 279.05"/><ellipse class="cls-9" cx="386.84" cy="293.25" rx="3.18" ry="5.5" transform="translate(-94.8 232.71) rotate(-30)"/><polygon class="cls-10" points="251.38 210.87 247.07 228.13 247.07 213.36 251.38 210.87"/><polygon class="cls-10" points="201.17 181.61 196.86 198.88 196.86 184.11 201.17 181.61"/><path class="cls-7" d="M272.07,288.71,169.44,229.45a4.82,4.82,0,0,1-2-3.85V173.1c0-1.48.93-2.16,2-1.52l102.63,59.25a4.83,4.83,0,0,1,2,3.84v52.55C274.09,288.67,273.18,289.35,272.07,288.71Z"/><polygon class="cls-11" points="245.18 207.29 245.17 187.6 239.59 183.41 239.59 207.29 233.38 210.87 242.38 216.07 251.38 210.87 245.18 207.29"/><polygon class="cls-10" points="242.38 216.07 247.07 228.13 247.07 214.2 247.07 213.36 242.38 216.07"/><polygon class="cls-12" points="233.38 210.87 237.37 222.46 247.07 228.13 242.38 216.07 233.38 210.87"/><polygon class="cls-11" points="194.97 178.04 194.97 154.14 189.38 154.14 189.38 178.03 183.18 181.61 192.18 186.81 201.17 181.61 194.97 178.04"/><polygon class="cls-10" points="192.18 186.81 196.86 198.88 196.86 184.94 196.86 184.11 192.18 186.81"/><polygon class="cls-12" points="183.18 181.61 187.16 193.2 196.86 198.88 192.18 186.81 183.18 181.61"/><polygon class="cls-1" points="133.57 289.54 77.97 257.29 10.98 295.96 70.91 330.73 137.91 292.05 137.91 287.04 133.57 289.54"/><polygon class="cls-2" points="140.62 285.2 77.97 249.03 15.32 285.2 10.98 282.69 10.98 287.7 77.97 326.39 144.96 287.7 144.96 282.69 140.62 285.2"/><polygon class="cls-13" points="77.97 321.37 10.98 282.69 77.97 244.01 144.96 282.69 77.97 321.37"/><polygon class="cls-2" points="77.76 268.37 82.13 265.85 82.13 79.04 77.76 81.56 77.76 268.37"/><polygon class="cls-2" points="78.11 157.78 108.7 206.19 113.07 204.41 82.13 155.52 78.11 157.78"/><polygon class="cls-3" points="77.92 166.39 108.53 215.05 108.53 205.95 77.92 157.47 77.92 166.39"/><polygon class="cls-3" points="73.55 265.85 77.92 268.37 77.92 81.56 73.55 79.04 73.55 265.85"/><polygon class="cls-3" points="108.53 286.04 112.91 288.57 112.91 101.76 108.53 99.24 108.53 286.04"/><polygon class="cls-2" points="112.74 288.57 117.11 286.04 117.11 99.24 112.74 101.76 112.74 288.57"/><polygon class="cls-3" points="77.92 254.9 108.53 218.25 108.53 209.47 77.92 246.17 77.92 254.9"/><polygon class="cls-2" points="77.92 254.9 82.13 252.6 108.53 220.78 108.53 217.57 77.92 254.9"/><polygon class="cls-3" points="77.92 157.78 108.53 121.13 108.53 112.34 77.92 149.05 77.92 157.78"/><polygon class="cls-2" points="77.92 157.78 82.13 155.47 108.53 123.66 108.53 120.45 77.92 157.78"/><polygon class="cls-2" points="43.03 288.54 47.41 286.02 47.41 99.21 43.03 101.73 43.03 288.54"/><polygon class="cls-2" points="43.38 177.95 73.97 226.36 78.35 224.58 47.41 175.69 43.38 177.95"/><polygon class="cls-3" points="43.2 186.57 73.81 235.21 73.81 226.12 43.2 177.63 43.2 186.57"/><polygon class="cls-3" points="38.83 286.02 43.2 288.54 43.2 101.73 38.83 99.21 38.83 286.02"/><polygon class="cls-3" points="73.81 306.21 78.18 308.73 78.18 121.93 73.81 119.4 73.81 306.21"/><polygon class="cls-2" points="78.01 308.73 82.39 306.21 82.39 119.4 78.01 121.93 78.01 308.73"/><polygon class="cls-3" points="43.2 275.07 73.81 238.42 73.81 229.63 43.2 266.34 43.2 275.07"/><polygon class="cls-2" points="43.2 275.07 47.41 272.76 73.81 240.95 73.81 237.73 43.2 275.07"/><polygon class="cls-3" points="43.2 177.95 73.81 141.3 73.81 132.51 43.2 169.21 43.2 177.95"/><polygon class="cls-2" points="43.2 177.95 47.41 175.64 73.81 143.82 73.81 140.61 43.2 177.95"/><polygon class="cls-14" points="78.18 131.39 33.02 105.32 78.18 79.25 123.34 105.32 78.18 131.39"/><polygon class="cls-11" points="74.82 56.66 21.27 87.58 5.95 78.72 59.49 47.81 74.82 56.66"/><polygon class="cls-12" points="5.95 91.12 5.95 78.72 21.27 87.58 21.27 99.97 5.95 91.12"/><polyline class="cls-10" points="21.27 99.97 74.82 69.06 74.82 56.66 21.27 87.58 21.27 98.77"/><polygon class="cls-11" points="74.82 42.76 21.27 73.67 5.95 64.82 59.49 33.91 74.82 42.76"/><polygon class="cls-12" points="5.95 77.22 5.95 64.82 21.27 73.67 21.27 86.08 5.95 77.22"/><polyline class="cls-10" points="21.27 86.08 74.82 55.16 74.82 42.76 21.27 73.67 21.27 84.87"/><polygon class="cls-3" points="34.35 81.2 1.14 62.15 1.14 55.21 34.35 74.14 34.35 81.2"/><polygon class="cls-13" points="82.39 101.72 1.14 55.21 7.16 51.74 88.4 98.24 82.39 101.72"/><polygon class="cls-3" points="70.88 70.22 29.16 46.09 29.16 39.14 70.88 61.49 70.88 70.22"/><polygon class="cls-13" points="102.52 80.78 29.16 39.15 35.17 35.67 108.53 77.31 102.52 80.78"/><polygon class="cls-3" points="51.39 51.96 51.39 58.9 54.24 78.9 58.48 81.53 51.39 51.96"/><polygon class="cls-13" points="63.94 84.5 58.45 56.04 51.39 51.96 55.67 80 63.94 84.5"/><polygon class="cls-2" points="51.39 58.9 29.47 64.68 18.22 58.17 50.43 51.39 51.39 51.96 51.39 58.9"/><polygon class="cls-13" points="51.39 51.96 20.87 59.71 14.31 55.93 45.07 48.07 51.39 51.96"/><polygon class="cls-13" points="78.18 73.9 33.02 47.82 78.18 21.75 123.34 47.82 78.18 73.9"/><polygon class="cls-3" points="33.02 128.34 33.02 47.82 78.18 73.9 78.18 154.42 33.02 128.34"/><polygon class="cls-2" points="123.34 47.82 123.34 128.34 78.18 154.42 78.18 73.89 123.34 47.82"/><polygon class="cls-9" points="78.18 101.95 52.25 86.98 43.92 60.45 78.18 80.23 78.18 101.95"/><polygon class="cls-9" points="123.34 54.16 123.34 75.87 78.18 101.95 78.18 80.25 123.34 54.16"/><polygon class="cls-3" points="279.56 223.71 84.15 110.89 84.15 103.94 279.56 216.77 279.56 223.71"/><polygon class="cls-13" points="279.56 216.77 84.15 103.95 90.16 100.48 285.57 213.3 279.56 216.77"/><polygon class="cls-3" points="307.58 207.65 112.17 94.83 112.17 87.88 307.58 200.71 307.58 207.65"/><polygon class="cls-13" points="307.58 200.71 112.17 87.88 118.18 84.41 313.59 197.23 307.58 200.71"/><polygon class="cls-2" points="313.59 204.2 279.56 223.71 279.56 216.76 313.59 197.25 313.59 204.2"/><polygon class="cls-13" points="313.59 197.25 279.58 216.77 274.48 213.83 308.5 194.31 313.59 197.25"/><polygon class="cls-2" points="283.09 193.49 261.16 199.27 249.91 192.76 282.12 185.98 283.09 186.55 283.09 193.49"/><polygon class="cls-13" points="283.09 186.55 252.57 194.3 246.01 190.51 276.76 182.66 283.09 186.55"/><polygon class="cls-3" points="233.63 158.03 233.63 164.98 236.49 184.97 240.72 187.6 233.63 158.03"/><polygon class="cls-13" points="246.19 190.57 240.7 162.11 233.63 158.03 237.93 186.08 246.19 190.57"/><polygon class="cls-2" points="233.63 164.98 211.72 170.75 200.46 164.25 232.68 157.46 233.63 158.03 233.63 164.98"/><polygon class="cls-13" points="233.63 158.03 203.13 165.79 196.57 162 227.31 154.14 233.63 158.03"/><polygon class="cls-3" points="184.01 129.36 184.01 136.3 186.86 156.3 191.11 158.93 184.01 129.36"/><polygon class="cls-13" points="196.57 161.9 191.08 133.44 184.01 129.36 188.3 157.4 196.57 161.9"/><polygon class="cls-2" points="184.01 136.3 162.1 142.08 150.84 135.57 183.06 128.79 184.01 129.36 184.01 136.3"/><polygon class="cls-13" points="184.01 129.36 153.5 137.11 146.94 133.33 177.69 125.47 184.01 129.36"/><polygon class="cls-3" points="134.39 100.7 134.39 107.65 137.24 127.64 141.49 130.27 134.39 100.7"/><polygon class="cls-13" points="146.94 133.24 141.46 104.78 134.39 100.7 138.68 128.75 146.94 133.24"/><polygon class="cls-2" points="134.39 107.65 112.48 113.42 101.23 106.92 133.44 100.13 134.39 100.7 134.39 107.65"/><polygon class="cls-13" points="134.39 100.7 103.88 108.46 97.32 104.67 128.07 96.81 134.39 100.7"/><path class="cls-1" d="M30.38,340.1,5.75,325.65c-2.77-1.64-2.45-4.5.78-6.39l12.53-7.37c3.23-1.84,8.11-2.09,10.91-.45l24.68,14.45c2.76,1.63,2.44,4.5-.79,6.39l-12.52,7.37C38.07,341.54,33.18,341.74,30.38,340.1Z"/><path class="cls-3" d="M61,325.85V290.92l-52.7-6v35.16h0a3.21,3.21,0,0,0,1.84,2.86l24.7,14.46c2.77,1.64,7.69,1.43,10.92-.46l12.52-7.37c1.85-1.07,2.77-2.44,2.68-3.69Z"/><path class="cls-15" d="M61,294.73v-3.81H56.9L34.41,277.73c-2.76-1.64-7.69-1.43-10.91.46L11,285.56a5.67,5.67,0,0,0-.66.42l-2-1.08v4.17h0a3.23,3.23,0,0,0,1.84,2.85l24.7,14.44c2.77,1.64,7.69,1.43,10.92-.46l12.52-7.37c1.85-1.09,2.77-2.51,2.67-3.84Z"/><path class="cls-16" d="M34.85,302.22,10.19,287.77c-2.77-1.64-2.45-4.51.78-6.4L23.5,274c3.22-1.85,8.11-2.1,10.91-.47L59.09,288c2.76,1.64,2.44,4.5-.8,6.39l-12.52,7.37C42.59,303.65,37.65,303.86,34.85,302.22Z"/><path class="cls-17" d="M29.3,282.49V281.1h-.84l-.27-.17a5.83,5.83,0,0,0-5.33,0,2.36,2.36,0,0,0-.44.32l-.66-.15v1.39a1.84,1.84,0,0,0,1.1,1.56,5.83,5.83,0,0,0,5.33,0A1.9,1.9,0,0,0,29.3,282.49Z"/><ellipse class="cls-9" cx="25.53" cy="281.1" rx="3.77" ry="2.21"/><path class="cls-17" d="M38.4,287.73v-1.39h-.84l-.26-.17a5.83,5.83,0,0,0-5.33,0,2.83,2.83,0,0,0-.45.32l-.66-.15v1.39A2,2,0,0,0,32,289.3a5.89,5.89,0,0,0,5.33,0A1.86,1.86,0,0,0,38.4,287.73Z"/><ellipse class="cls-9" cx="34.63" cy="286.34" rx="3.77" ry="2.21"/><path class="cls-17" d="M47.52,293.33v-1.39h-.85l-.26-.17a5.83,5.83,0,0,0-5.33,0,2.83,2.83,0,0,0-.45.32l-.66-.15v1.39a1.91,1.91,0,0,0,1.11,1.57,5.83,5.83,0,0,0,5.33,0A1.91,1.91,0,0,0,47.52,293.33Z"/><ellipse class="cls-9" cx="43.74" cy="291.94" rx="3.77" ry="2.21"/><polygon class="cls-18" points="194.08 207.13 177.51 197.58 177.51 191.6 194.08 201.16 194.08 207.13"/><polygon class="cls-19" points="208.84 215.8 197.18 208.93 197.18 202.95 208.84 209.83 208.84 215.8"/><polygon class="cls-18" points="194.08 216.7 177.51 207.13 177.51 201.16 194.08 210.72 194.08 216.7"/><polygon class="cls-19" points="216.85 229.84 197.18 218.49 197.18 212.51 216.85 223.87 216.85 229.84"/><polygon class="cls-18" points="194.08 226.25 177.51 216.7 177.51 210.72 194.08 220.29 194.08 226.25"/><polygon class="cls-20" points="249.05 257.93 197.18 228.05 197.18 222.07 249.05 251.96 249.05 257.93"/><polygon class="cls-18" points="194.08 235.82 177.51 226.25 177.51 220.28 194.08 229.84 194.08 235.82"/><polygon class="cls-9" points="253.07 270.48 197.18 237.62 197.18 231.64 253.07 264.5 253.07 270.48"/><g id="Girl_12" data-name="Girl 12"><path id="_Контур_" data-name=" Контур " class="cls-21" d="M367,122.41c1-1.54,8.32-2.56,10.73,3.67.92,2.36.78,8.4,1.54,12.19s2.59,5.95,3.23,9-.41,8.24-7.87,9.15-13.08-1.66-14.83-4-1.78-7.39,0-10.11,3.2-4.88,3.16-8.4Z"/><path id="_Контур_2" data-name=" Контур 2" class="cls-21" d="M371.92,121.34s-5.62-1.55-8.93,1.4a8.19,8.19,0,0,0-2.36,8.2c.45,1.75,1.34,4.13,2.73,4.27S371.92,121.34,371.92,121.34Z"/><path id="_Контур_3" data-name=" Контур 3" class="cls-22" d="M374,136.43s-.36,6.18-.25,6.63,2.42.89,3.07,1.43-3.37,6.79-5.39,7.73-8.34-1.45-8.78-4.59c-.4-2.87,1.81-5.12,2.66-5.91a12.49,12.49,0,0,1,1.73,0l.2-3C370,137.77,374,136.43,374,136.43Z"/><path id="_Контур_4" data-name=" Контур 4" class="cls-22" d="M355.85,169.36a33,33,0,0,1-6.14,6.4,29,29,0,0,0-2.1,2.46,9.34,9.34,0,0,1-4.14,2.74c-1.39.36-2,.27-2.24,0s-.13-.65.48-.9a7.65,7.65,0,0,0,2.71-1.45s-1.3.6-2.12.88a8.57,8.57,0,0,1-2.24.45c-.78,0-1.58-.89-1-1.13s1.12-.29,2.36-.73a7.23,7.23,0,0,0,1.79-.92,16.85,16.85,0,0,1-2.54.53,3.89,3.89,0,0,1-2.13-.25c-.36-.16-.67-.81.14-1a12,12,0,0,0,3.06-.71c.94-.43,1.53-.88,1.32-1s-.74.21-1.68.14-1.84-.67-1.82-1.12.2-.23,1.12-.31a19.93,19.93,0,0,1,3-.5,9.75,9.75,0,0,0,2.94-.35c1-.3,3.26-3,5-5.5a36.63,36.63,0,0,0,4.43-9c1-3.37,2.24-9.81,3.15-12s2.41-3.22,3.86-3.27c1.69-.05,2.42,2.18,2,4.12C364.25,150.24,360.47,163.3,355.85,169.36Z"/><path id="_Контур_5" data-name=" Контур 5" class="cls-23" d="M374.85,143.66c1.73.27,3.71,1.19,4,2.14a20.4,20.4,0,0,1-.49,10.29c-1.5,4-3.21,11.14-4.06,12.86a20.23,20.23,0,0,1-12.92-2.53s-.36-6.9-.38-9.18c-5.62-4.87-.81-10.88,3.91-15.54a12.2,12.2,0,0,1,1.71,0s-4.22,5-1.3,7.87C371.6,147.6,372.84,144.78,374.85,143.66Z"/><path id="_Контур_6" data-name=" Контур 6" class="cls-22" d="M362.47,128.78h0c.63-4,3.5-7,7.59-6.74a7.86,7.86,0,0,1,7.4,8.3v0a7.86,7.86,0,0,1-3.46,6,7.71,7.71,0,0,1-.63,1.74c-1.45,1.68-5.29,2.75-6.56,2.76s-2.05-1-3.08-2.7C361.6,134.68,362.14,130.75,362.47,128.78Z"/><path class="cls-21" d="M371.31,122.15c2.87.55,5.23,1.36,6,4.18.54,1.93,1.24,5.62.58,7.19l-.42,1.13L374,136.43s-1.62-1.35-1.12-5.3a2.88,2.88,0,0,0-.49-1.5,3.9,3.9,0,0,1-.47-1.2,4.48,4.48,0,0,0-2.25-2.42,7.71,7.71,0,0,0-6.89.31A7.51,7.51,0,0,1,371.31,122.15Z"/><path class="cls-21" d="M355.53,217c-1.45,1.13-3.71.36-3.82.48a61.61,61.61,0,0,1-5.32,4.05c-.89.71-2.31,1.66-2.05,3,.46,2.44,4.37,1.69,5.85.95s2.68-2,4.08-2.86c1-.61,2-.94,2.12-2.24C356.49,219.71,355.79,217,355.53,217Z"/><path class="cls-24" d="M356.38,220c-.19,1.2-1.12,1.54-2.14,2.14-1.43.89-2.68,2.16-4.16,2.91s-4.76,1.37-5.72-.37c.52,2.36,4.36,1.62,5.83.88s2.68-2,4.08-2.86c1-.61,2-.94,2.12-2.24A1.76,1.76,0,0,0,356.38,220Z"/><path class="cls-21" d="M348.46,213.05c-1.32,1.12-3.37.47-3.44.57a58,58,0,0,1-4.85,3.7c-.83.65-2.12,1.52-1.89,2.77.42,2.25,4,1.55,5.36.87s2.45-1.82,3.73-2.61c.91-.57,1.81-.87,2-2A7.63,7.63,0,0,0,348.46,213.05Z"/><path class="cls-24" d="M349.32,215.88c-.18,1.12-1.07,1.4-2,2a41.39,41.39,0,0,1-3.8,2.67c-1.42.72-4.36,1.25-5.24-.34.48,2.16,4,1.48,5.34.8s2.45-1.82,3.73-2.61c.91-.57,1.81-.86,2-2A3.49,3.49,0,0,0,349.32,215.88Z"/><path class="cls-22" d="M368.55,170.46A21.34,21.34,0,0,1,357,168.79c.07,1.24.13,2.33.13,2.33-4.7,3.37-14.14,8.92-14.76,12.78.62,12.2,2.47,29.64,3,29.89,1.47.71,2.51.59,3.2-.11,0,0,3-10.34,2.1-25.51,0,0,16.46-7.29,17.54-11.23a12.47,12.47,0,0,0,.45-5C368.64,171.48,368.61,171,368.55,170.46Z"/><path class="cls-22" d="M374,168.88a17.63,17.63,0,0,1-9.95,1.34c0,1.63.23,4.69.23,4.69-4.73,3.31-14.13,8.92-14.74,12.79.61,12.21,1.75,29.89,2.25,30.11a4,4,0,0,0,3.9-.46s3-10.21,2.11-25.38c0-.28,14.11-7.24,15.9-9.07s2.13-4.57,2.09-7.17A17.58,17.58,0,0,0,374,168.88Z"/><path class="cls-20" d="M377.47,171.48s5.23,9.24-3.47,14c-9.18,5-14.76,6.18-14.76,6.18l-1.39.33a35.15,35.15,0,0,1,0,9.61s-6.55,2.24-14.89-5.07l-2.77-8.91-.32-2.36a4.92,4.92,0,0,1,1.39-4.49c2-1.82,8.35-6.48,12.29-9.13s7.14-5.21,7.14-5.21l.68-.64s4.69,3.73,13.24,2.48A13.31,13.31,0,0,1,377.47,171.48Z"/><path id="_Контур_7" data-name=" Контур 7" class="cls-22" d="M372.3,185.18a26.86,26.86,0,0,1,2.52-2,10.22,10.22,0,0,0,2.55-1.82c.8-.79,2-4.15,2.6-7.42a32.68,32.68,0,0,0-.18-11,78,78,0,0,0-4.37-12.69c-1.13-2.45-.51-3.94.55-5,1.24-1.27,2.54-1.24,4,2.18a69.59,69.59,0,0,1,4.58,14.94,32.84,32.84,0,0,1-.16,11.23,41,41,0,0,1-3,9.44c-.39.89-.45,1.63-1,3.37a11.32,11.32,0,0,1-2.7,4.73c-1.12,1.06-1.71,1.26-2,1.13s-.37-.59.09-1.13a9.38,9.38,0,0,0,1.9-2.76s-1,1.22-1.58,1.91a9.08,9.08,0,0,1-1.91,1.59c-.69.42-1.78-.07-1.33-.63s.95-.86,1.88-1.89a9.69,9.69,0,0,0,1.27-1.79,17.3,17.3,0,0,1-2.12,1.79,4.07,4.07,0,0,1-2,.84c-.38,0-.92-.45-.27-1.07a13.81,13.81,0,0,0,2.52-2.25c.69-.88,1-1.61.83-1.59s-.6.56-1.48,1-1.94.27-2.12-.23S371.48,185.72,372.3,185.18Z"/><path class="cls-25" d="M382.26,152s-3.16,2.81-6.68,2.25l-1.41-5.9s-.93-3.09,1.72-4.27S381.11,146,382.26,152Z"/><path class="cls-25" d="M364.89,141.7s-3.43-1-7.06,6.54l1.36.82A57.87,57.87,0,0,1,364.89,141.7Z"/><g id="_Группа_" data-name=" Группа "><g id="_Группа_2" data-name=" Группа 2"><path id="_Контур_8" data-name=" Контур 8" class="cls-23" d="M341.25,174.43l12.2-7a.68.68,0,0,1,.7,0l21.34,12.35L362.94,187Z"/><path class="cls-26" d="M363.31,184.19l.94.54c.08,0,.06.13,0,.18l-.89.51a.37.37,0,0,1-.29,0l-.93-.54c-.08,0-.07-.12,0-.18l.89-.51A.34.34,0,0,1,363.31,184.19Z"/><path class="cls-26" d="M362,183.44l.93.54c.07,0,.07.11,0,.17l-.88.52a.42.42,0,0,1-.31,0l-.93-.54c-.08,0-.07-.13,0-.18l.89-.51A.32.32,0,0,1,362,183.44Z"/><path class="cls-26" d="M360.69,182.71l.93.54c.08,0,.07.12,0,.17l-.89.52a.39.39,0,0,1-.3,0l-.94-.54c-.07,0-.06-.13,0-.17l.89-.52A.42.42,0,0,1,360.69,182.71Z"/><path class="cls-26" d="M359.36,181.91l.93.54c.07,0,0,.13,0,.17l-.9.52a.37.37,0,0,1-.29,0l-.93-.54c-.08,0-.07-.13,0-.17l.89-.52A.32.32,0,0,1,359.36,181.91Z"/><path class="cls-26" d="M358,181.15l.94.54c.08,0,.06.12,0,.17l-.89.51a.32.32,0,0,1-.3,0l-.94-.54c-.06,0-.06-.12,0-.16l.9-.52A.3.3,0,0,1,358,181.15Z"/><path class="cls-26" d="M356.71,180.38l.93.54c.08,0,.07.13,0,.17l-.9.52a.3.3,0,0,1-.29,0l-.93-.54c-.08,0-.07-.11,0-.17l.88-.52A.42.42,0,0,1,356.71,180.38Z"/><path class="cls-26" d="M355.39,179.62l.94.54c.07,0,.06.12,0,.17l-.89.52a.32.32,0,0,1-.3,0l-.94-.54c-.08,0-.06-.12,0-.17l.89-.52A.39.39,0,0,1,355.39,179.62Z"/><path class="cls-26" d="M354.07,178.86l.93.54c.08,0,.07.12,0,.18l-.89.5a.3.3,0,0,1-.29,0l-1-.52c-.08,0-.07-.12,0-.18l.89-.51A.34.34,0,0,1,354.07,178.86Z"/><path class="cls-26" d="M352.75,178.1l.94.53c.07,0,.06.13,0,.18l-.87.53a.39.39,0,0,1-.3,0l-.94-.54c-.07,0-.06-.12,0-.18l.89-.5A.34.34,0,0,1,352.75,178.1Z"/><path class="cls-26" d="M351.43,177.34l.93.54c.08,0,.07.11,0,.17l-.89.51a.3.3,0,0,1-.29,0l-.93-.53c-.08,0-.07-.13,0-.17l.89-.52A.3.3,0,0,1,351.43,177.34Z"/><path class="cls-26" d="M350.11,176.58l.94.54c.06,0,.06.11,0,.16l-.89.52a.34.34,0,0,1-.31,0l-.93-.54c-.08,0-.07-.12,0-.17l.89-.51A.32.32,0,0,1,350.11,176.58Z"/><path class="cls-26" d="M348.79,175.81l.93.54c.08,0,.07.12,0,.17l-.89.52a.37.37,0,0,1-.29,0l-.94-.54c-.07,0-.06-.13,0-.17l.9-.52A.37.37,0,0,1,348.79,175.81Z"/><path class="cls-26" d="M347.47,175.05l.94.54c.06,0,0,.12,0,.17l-.9.51a.32.32,0,0,1-.3,0l-.93-.54c-.08,0-.07-.12,0-.17l.89-.51A.32.32,0,0,1,347.47,175.05Z"/><path class="cls-26" d="M345.51,173.91l1.57.91c.08,0,.07.13,0,.17l-.89.52a.32.32,0,0,1-.3,0l-1.56-.9c-.08,0-.07-.12,0-.18l.88-.51A.39.39,0,0,1,345.51,173.91Z"/><path class="cls-26" d="M362.64,182.33l.93.54c.08,0,.07.12,0,.17l-.88.51a.34.34,0,0,1-.31,0l-.93-.54c-.08,0-.07-.12,0-.16l.89-.52A.32.32,0,0,1,362.64,182.33Z"/><path class="cls-26" d="M361.31,181.59l.94.54c.08,0,.06.12,0,.16l-.89.52a.32.32,0,0,1-.3,0l-.94-.54c-.06,0-.06-.12,0-.17l.9-.51A.3.3,0,0,1,361.31,181.59Z"/><path class="cls-26" d="M360,180.8l.93.54c.08,0,.07.12,0,.17L360,182a.3.3,0,0,1-.29,0l-.93-.54c-.08,0-.07-.13,0-.17l.89-.52A.37.37,0,0,1,360,180.8Z"/><path class="cls-26" d="M358.66,180l.95.54c.06,0,.05.12,0,.16l-.9.52a.3.3,0,0,1-.29,0l-.94-.54c-.08,0-.06-.12,0-.17l.89-.51A.3.3,0,0,1,358.66,180Z"/><path class="cls-26" d="M357.32,179.34l.93.54c.06,0,.06.11,0,.17l-.89.51a.32.32,0,0,1-.3,0l-.94-.53c-.07,0-.06-.13,0-.18l.89-.51A.34.34,0,0,1,357.32,179.34Z"/><path class="cls-26" d="M356,178.52l.94.54c.08,0,.06.11,0,.17l-.89.51a.32.32,0,0,1-.3,0l-.94-.53c-.06,0-.06-.13,0-.18l.89-.51A.32.32,0,0,1,356,178.52Z"/><path class="cls-26" d="M354.71,177.76l.93.53c.08,0,.07.12,0,.17l-.89.52a.37.37,0,0,1-.29,0l-.93-.54c-.08,0-.07-.12,0-.17l.9-.51A.28.28,0,0,1,354.71,177.76Z"/><path class="cls-26" d="M353.38,177l.94.54c.07,0,.06.11,0,.17l-.9.52a.39.39,0,0,1-.3,0l-.93-.54c-.08,0-.07-.13,0-.17l.89-.52A.32.32,0,0,1,353.38,177Z"/><path class="cls-26" d="M352.07,176.23l.93.54c.07,0,.07.11,0,.17l-.89.51a.32.32,0,0,1-.3,0l-.93-.54c-.08,0-.07-.12,0-.17l.88-.51A.34.34,0,0,1,352.07,176.23Z"/><path class="cls-26" d="M350.74,175.46l1,.51c.08,0,.06.11,0,.17l-.89.51a.32.32,0,0,1-.3,0l-.94-.53c-.06,0-.06-.13,0-.17l.89-.52A.34.34,0,0,1,350.74,175.46Z"/><path class="cls-26" d="M349.45,174.7l.93.54c.08,0,.07.11,0,.17l-.93.56a.37.37,0,0,1-.29,0l-.93-.54c-.08,0-.07-.12,0-.17l.89-.52A.33.33,0,0,1,349.45,174.7Z"/><path class="cls-26" d="M348.09,173.94l.93.53c.08,0,.07.12,0,.17l-.88.52a.39.39,0,0,1-.3,0l-.93-.54c-.08,0-.07-.12,0-.17l.89-.51A.3.3,0,0,1,348.09,173.94Z"/><path class="cls-26" d="M364,183.09l1.57.91c.08,0,.07.11,0,.17l-.89.52a.37.37,0,0,1-.29,0l-1.57-.91c-.08,0-.07-.13,0-.17l.88-.52A.39.39,0,0,1,364,183.09Z"/><path class="cls-26" d="M345.57,173.87l.94.54a.34.34,0,0,0,.28,0l.93-.54a.09.09,0,0,0,0-.12.12.12,0,0,0,0-.05h-.08a.08.08,0,0,1,0-.12s0,0,0,0l1-.57a.1.1,0,0,0,0-.12.08.08,0,0,0,0,0l-.59-.33a.3.3,0,0,0-.29,0l-.93.53-.19.11-.13.09-.15.07-.8.46C345.5,173.72,345.5,173.82,345.57,173.87Z"/><path class="cls-26" d="M368.43,181.24l.94.54c.07,0,.06.12,0,.17l-.9.51a.3.3,0,0,1-.29,0l-.93-.54c-.08,0-.07-.12,0-.16l.88-.52A.32.32,0,0,1,368.43,181.24Z"/><path class="cls-26" d="M367.11,180.46l.93.54c.08,0,.07.13,0,.18l-.88.51a.3.3,0,0,1-.29,0l-.94-.53c-.08,0-.06-.12,0-.18l.89-.51A.37.37,0,0,1,367.11,180.46Z"/><path class="cls-26" d="M365.8,179.72l.93.54c.08,0,.07.11,0,.17l-.89.52a.39.39,0,0,1-.3,0l-.93-.54c-.07,0-.06-.13,0-.17l.9-.52A.3.3,0,0,1,365.8,179.72Z"/><path class="cls-26" d="M354.58,173.24l.94.54c.08,0,.06.12,0,.18l-.89.5a.32.32,0,0,1-.3,0l-.94-.54c-.07,0-.06-.11,0-.16l.89-.52A.32.32,0,0,1,354.58,173.24Z"/><path class="cls-26" d="M353.27,172.49l.93.54c.07,0,.07.11,0,.16l-.9.52a.3.3,0,0,1-.29,0l-.93-.54c-.08,0-.07-.12,0-.17l.89-.51A.32.32,0,0,1,353.27,172.49Z"/><path class="cls-26" d="M351.94,171.72l.94.54c.08,0,.06.13,0,.17L352,173a.3.3,0,0,1-.29,0l-.94-.54c-.07,0-.06-.13,0-.17l.89-.52A.37.37,0,0,1,351.94,171.72Z"/><path class="cls-26" d="M350.63,171l.93.54c.08,0,.07.12,0,.18l-.89.5a.3.3,0,0,1-.29,0l-.93-.54c-.08,0-.07-.11,0-.16l.9-.52A.34.34,0,0,1,350.63,171Z"/><path class="cls-26" d="M364.15,178.77l1.27.73c.07,0,.06.12,0,.17l-.89.51a.34.34,0,0,1-.31,0l-1.29-.72c-.08,0-.06-.12,0-.18l.89-.5A.32.32,0,0,1,364.15,178.77Z"/><path class="cls-26" d="M355.9,174l1.27.73c.08,0,.07.13,0,.18l-.89.51a.37.37,0,0,1-.29,0l-1.28-.74c-.07,0-.07-.13,0-.17l.9-.52A.37.37,0,0,1,355.9,174Z"/><path class="cls-26" d="M357.55,175l6.2,3.58c.08,0,.07.13,0,.17l-.9.52a.37.37,0,0,1-.29,0l-6.2-3.59c-.08,0-.07-.11,0-.17l.89-.51A.32.32,0,0,1,357.55,175Z"/><path class="cls-26" d="M363.56,181.38l.93.54c.08,0,.07.12,0,.17l-.88.52a.42.42,0,0,1-.31,0l-.93-.54c-.08,0-.07-.12,0-.17l.89-.52A.32.32,0,0,1,363.56,181.38Z"/><path class="cls-26" d="M362.24,180.62l.93.54c.08,0,.07.12,0,.17l-.89.52a.37.37,0,0,1-.29,0l-.93-.54c-.08,0-.07-.13,0-.17l.88-.52A.39.39,0,0,1,362.24,180.62Z"/><path class="cls-26" d="M360.92,179.86l.93.54c.08,0,.07.12,0,.16l-.88.52a.34.34,0,0,1-.31,0l-.93-.54c-.08,0-.07-.11,0-.17l.89-.51A.32.32,0,0,1,360.92,179.86Z"/><path class="cls-26" d="M359.56,179.09l.93.54c.08,0,.07.13,0,.18l-.89.51a.32.32,0,0,1-.3,0l-.93-.53c-.08,0-.07-.12,0-.18l.89-.52A.32.32,0,0,1,359.56,179.09Z"/><path class="cls-26" d="M358.28,178.34l.93.54c.08,0,.07.11,0,.17l-.88.51a.34.34,0,0,1-.31,0l-.93-.53c-.07,0-.07-.13,0-.18l.9-.51A.3.3,0,0,1,358.28,178.34Z"/><path class="cls-26" d="M357,177.58l.93.54c.07,0,.07.12,0,.16l-.9.52a.37.37,0,0,1-.29,0l-.93-.54c-.08,0-.07-.12,0-.17l.88-.51A.34.34,0,0,1,357,177.58Z"/><path class="cls-26" d="M355.64,176.81l.93.54c.08,0,.07.12,0,.17l-.88.52a.39.39,0,0,1-.3,0l-.93-.54c-.08,0-.07-.13,0-.17l.9-.52A.34.34,0,0,1,355.64,176.81Z"/><path class="cls-26" d="M354.33,176.05l.93.54c.08,0,.07.12,0,.17l-.89.51a.32.32,0,0,1-.3,0l-.93-.54c-.08,0-.07-.11,0-.17l.88-.51A.34.34,0,0,1,354.33,176.05Z"/><path class="cls-26" d="M353,175.28l.93.54c.08,0,.07.13,0,.18l-.88.51a.32.32,0,0,1-.3,0l-.93-.53c-.08,0-.07-.12,0-.18l.89-.5A.33.33,0,0,1,353,175.28Z"/><path class="cls-26" d="M351.7,174.53l.93.54c.08,0,.07.11,0,.17l-.89.52a.39.39,0,0,1-.3,0l-.93-.54c-.07,0-.07-.13,0-.18l.88-.51A.34.34,0,0,1,351.7,174.53Z"/><path class="cls-26" d="M350.36,173.72l.93.54c.08,0,.07.13,0,.17l-.9.52a.37.37,0,0,1-.29,0l-.93-.54c-.08,0-.07-.13,0-.17l.89-.52A.32.32,0,0,1,350.36,173.72Z"/><path class="cls-26" d="M349.05,173l.93.54c.08,0,.07.13,0,.17l-.89.52a.32.32,0,0,1-.3,0l-.94-.54c-.06,0-.05-.13,0-.17l.9-.52A.39.39,0,0,1,349.05,173Z"/><path class="cls-26" d="M364.88,182.15l1.93,1.12c.08,0,.07.11,0,.17l-.89.52a.39.39,0,0,1-.3,0l-1.92-1.13c-.08,0-.07-.12,0-.18l.9-.5A.28.28,0,0,1,364.88,182.15Z"/><path class="cls-26" d="M365.49,181l.94.53c.08,0,.06.12,0,.17l-.89.52a.39.39,0,0,1-.3,0l-.94-.54c-.06,0-.06-.12,0-.17l.89-.51A.32.32,0,0,1,365.49,181Z"/><path class="cls-26" d="M364.18,180.26l.93.54c.07,0,.06.12,0,.17l-.9.52a.37.37,0,0,1-.29,0L363,181c-.08,0-.07-.13,0-.17l.89-.52A.32.32,0,0,1,364.18,180.26Z"/><path class="cls-26" d="M362.85,179.5l.94.54c.08,0,.06.12,0,.16l-.89.52a.3.3,0,0,1-.29,0l-.94-.54c-.07,0-.06-.12,0-.17l.9-.51A.34.34,0,0,1,362.85,179.5Z"/><path class="cls-26" d="M361.54,178.73l.93.54c.08,0,.07.13,0,.18l-.89.51a.32.32,0,0,1-.3,0l-.93-.54c-.08,0-.07-.11,0-.17l.89-.52A.39.39,0,0,1,361.54,178.73Z"/><path class="cls-26" d="M360.21,178l.94.53c.07,0,.06.12,0,.18l-.89.5a.3.3,0,0,1-.29,0l-.94-.54c-.07,0-.06-.12,0-.18l.89-.5A.3.3,0,0,1,360.21,178Z"/><path class="cls-26" d="M358.9,177.22l.93.54c.08,0,.07.11,0,.16l-.89.52a.32.32,0,0,1-.3,0l-.93-.54c-.07,0-.07-.12,0-.17l.89-.51A.32.32,0,0,1,358.9,177.22Z"/><path class="cls-26" d="M357.57,176.45l.95.54c.06,0,.05.13,0,.17l-.9.52a.37.37,0,0,1-.29,0l-.94-.54c-.07,0-.06-.13,0-.17l.89-.52A.37.37,0,0,1,357.57,176.45Z"/><path class="cls-26" d="M356.26,175.69l.93.54c.08,0,.07.12,0,.17l-.89.51a.3.3,0,0,1-.29,0l-.93-.54c-.08,0-.07-.11,0-.16l.9-.52A.34.34,0,0,1,356.26,175.69Z"/><path class="cls-26" d="M354.94,174.92l.94.54c.08,0,.06.13,0,.18l-.89.51a.32.32,0,0,1-.3,0l-.94-.54c-.08,0-.06-.11,0-.17l.89-.52A.39.39,0,0,1,354.94,174.92Z"/><path class="cls-26" d="M353.62,174.17l.93.54c.08,0,.07.11,0,.17l-.89.52a.37.37,0,0,1-.29,0l-.93-.54c-.08,0-.07-.13,0-.18l.89-.51A.3.3,0,0,1,353.62,174.17Z"/><path class="cls-26" d="M352.3,173.41l.94.54c.08,0,.06.12,0,.17l-.89.51a.32.32,0,0,1-.3,0l-.94-.54c-.06,0-.06-.12,0-.17l.89-.51A.32.32,0,0,1,352.3,173.41Z"/><path class="cls-26" d="M349.35,171.7l2.57,1.48c.07,0,.06.13,0,.17l-.9.52a.3.3,0,0,1-.29,0l-2.56-1.48c-.08,0-.07-.12,0-.17l.9-.52A.34.34,0,0,1,349.35,171.7Z"/><path class="cls-26" d="M366.81,181.78l1.28.74c.07,0,0,.12,0,.17l-.9.51a.3.3,0,0,1-.29,0l-1.27-.73c-.08,0-.07-.12,0-.18l.89-.5A.33.33,0,0,1,366.81,181.78Z"/><path class="cls-26" d="M344.18,174.69l18.75,10.81c.08,0,.07.12,0,.18l-.45.24a.3.3,0,0,1-.29,0l-18.74-10.8c-.07,0,0-.13,0-.17l.45-.26A.28.28,0,0,1,344.18,174.69Z"/><polygon id="_Контур_9" data-name=" Контур 9" class="cls-27" points="366.35 175.4 366.23 175.46 363 177.33 357.27 174.01 357.15 173.95 360.5 172.01 366.35 175.4"/><polygon id="_Контур_10" data-name=" Контур 10" class="cls-28" points="366.23 175.46 363 177.33 357.27 174.01 360.5 172.15 366.23 175.46"/><path id="_Контур_11" data-name=" Контур 11" class="cls-28" d="M375.55,179.74V180a1.18,1.18,0,0,1-.58,1l-11.39,6.56a1.12,1.12,0,0,1-1.12,0l-20.62-11.88a1.13,1.13,0,0,1-.59-1v-.28L363,187Z"/><path id="_Контур_12" data-name=" Контур 12" class="cls-28" d="M363,187v.79a1.29,1.29,0,0,1-.58-.16l-20.58-11.88a1.13,1.13,0,0,1-.59-1v-.28Z"/><path id="_Контур_13" data-name=" Контур 13" class="cls-23" d="M362.67,187.2a1.37,1.37,0,0,1-1.2-.09L341,175.24a1.41,1.41,0,0,1-.68-1l-2.24-13.37a.81.81,0,0,1,0-.22,1.39,1.39,0,0,1,.41-1L359.75,172a1,1,0,0,1,.51.72Z"/><path id="_Контур_14" data-name=" Контур 14" class="cls-28" d="M363,187l-.13.08-.2.09-2.42-14.47a1,1,0,0,0-.51-.72l-21.28-12.29a2,2,0,0,1,.28-.23l21.35,12.36a1.19,1.19,0,0,1,.51.73Z"/></g></g></g></svg>