<svg id="Capa_1" data-name="Capa 1" xmlns="http://www.w3.org/2000/svg" viewBox="0 0 290.91 290.91"><defs><style>.cls-1{fill:#0e0e0e;}</style></defs><path class="cls-1" d="M272.73,4.55H27.27A22.72,22.72,0,0,0,4.55,27.27V272.73a22.72,22.72,0,0,0,22.72,22.72H272.73a22.72,22.72,0,0,0,22.72-22.72V27.27A22.72,22.72,0,0,0,272.73,4.55ZM27.27,13.64H272.73a13.63,13.63,0,0,1,13.63,13.63V50H13.64V27.27A13.63,13.63,0,0,1,27.27,13.64ZM272.73,286.36H27.27a13.63,13.63,0,0,1-13.63-13.63V59.09H286.36V272.73A13.63,13.63,0,0,1,272.73,286.36Z" transform="translate(-4.55 -4.55)"/><path class="cls-1" d="M245.45,36.36h13.64a4.55,4.55,0,1,0,0-9.09H245.45a4.55,4.55,0,0,0,0,9.09Z" transform="translate(-4.55 -4.55)"/><path class="cls-1" d="M77.27,36.36H90.91a4.55,4.55,0,0,0,0-9.09H77.27a4.55,4.55,0,0,0,0,9.09Z" transform="translate(-4.55 -4.55)"/><path class="cls-1" d="M40.91,36.36H54.55a4.55,4.55,0,0,0,0-9.09H40.91a4.55,4.55,0,1,0,0,9.09Z" transform="translate(-4.55 -4.55)"/><path class="cls-1" d="M263.64,190.91h-11a49.22,49.22,0,0,0-4.55-10.73l7.77-7.77a9.09,9.09,0,0,0,0-12.86h0l-6.31-6.41a9.09,9.09,0,0,0-12.86,0h0l-7.77,7.77a49,49,0,0,0-10.73-4.55V145.45a9.09,9.09,0,0,0-9.09-9.09H200a9.09,9.09,0,0,0-9.09,9.09v11A49.22,49.22,0,0,0,180.18,161l-7.77-7.77a9.1,9.1,0,0,0-12.86,0h0l-6.41,6.32a9.07,9.07,0,0,0,0,12.85h0l7.77,7.77a49.22,49.22,0,0,0-4.55,10.73H145.45a9.09,9.09,0,0,0-9.09,9.09v9.09a9.09,9.09,0,0,0,9.09,9.09h11A49,49,0,0,0,161,228.91l-7.77,7.77a9.1,9.1,0,0,0,0,12.86h0l6.41,6.4a9.07,9.07,0,0,0,12.85,0h0l7.77-7.77A49.43,49.43,0,0,0,191,252.73v10.91a9.09,9.09,0,0,0,9.09,9.09h9.09a9.09,9.09,0,0,0,9.09-9.09v-11A49,49,0,0,0,229,248.09l7.77,7.77a9.09,9.09,0,0,0,12.86,0h0l6.41-6.41a9.08,9.08,0,0,0,0-12.85h0l-7.87-7.68a49,49,0,0,0,4.55-10.73h10.91a9.09,9.09,0,0,0,9.09-9.09V200A9.09,9.09,0,0,0,263.64,190.91Zm0,18.18H249.09a4.54,4.54,0,0,0-4.54,3.64,40.8,40.8,0,0,1-5.87,14.54,4.55,4.55,0,0,0,.55,5.73l10.32,10.32-6.41,6.23-10.32-10.32a4.55,4.55,0,0,0-5.55-.55,40.85,40.85,0,0,1-14.36,6,4.54,4.54,0,0,0-3.64,4.54v14.46H200V249.09a4.54,4.54,0,0,0-3.64-4.54,40.8,40.8,0,0,1-14.54-5.87,4.55,4.55,0,0,0-5.73.55L166,249.55l-6.4-6.41,10.31-10.32a4.55,4.55,0,0,0,.55-5.55,40.85,40.85,0,0,1-6-14.36,4.54,4.54,0,0,0-4.54-3.64H145.45V200H160a4.56,4.56,0,0,0,4.55-3.64,40.59,40.59,0,0,1,5.86-14.54,4.55,4.55,0,0,0-.55-5.73L159.55,166l6.4-6.4,10.32,10.31a4.55,4.55,0,0,0,5.73.55,40.85,40.85,0,0,1,14.36-6,4.54,4.54,0,0,0,3.64-4.54V145.45h9.09V160a4.56,4.56,0,0,0,3.64,4.55,40.59,40.59,0,0,1,14.54,5.86,4.55,4.55,0,0,0,5.73-.55l10.32-10.31,6.41,6.4-10.32,10.32a4.54,4.54,0,0,0-.73,5.55,40.85,40.85,0,0,1,6,14.36,4.54,4.54,0,0,0,4.54,3.64h14.46Z" transform="translate(-4.55 -4.55)"/><path class="cls-1" d="M204.55,181.82a22.73,22.73,0,1,0,22.72,22.73A22.72,22.72,0,0,0,204.55,181.82Zm0,36.36a13.64,13.64,0,1,1,13.63-13.63A13.63,13.63,0,0,1,204.55,218.18Z" transform="translate(-4.55 -4.55)"/><path class="cls-1" d="M153.23,115,126,87.68a4.56,4.56,0,1,0-6.45,6.46l24.09,24-24.09,24a4.56,4.56,0,0,0,0,6.43l0,0a4.55,4.55,0,0,0,6.43,0l0,0,27.28-27.27a4.55,4.55,0,0,0,0-6.43Z" transform="translate(-4.55 -4.55)"/><path class="cls-1" d="M71.41,87.68a4.55,4.55,0,0,0-6.43,0l0,0L37.68,115a4.55,4.55,0,0,0,0,6.43l0,0L65,148.68a4.55,4.55,0,0,0,6.43,0l0,0a4.56,4.56,0,0,0,0-6.43l0,0-24.09-24,24.09-24a4.56,4.56,0,0,0,0-6.43Z" transform="translate(-4.55 -4.55)"/></svg>