<svg height='300px' width='300px'  fill="#0e0e0e" xmlns="http://www.w3.org/2000/svg" viewBox="0 0 100 100" x="0px" y="0px"><title>Community</title><g data-name="Layer 5"><path d="M72,39.72a23.9,23.9,0,0,0-8.19,1.45c0-.15,0-.29,0-.45a13.63,13.63,0,0,0-1.42-6A14.52,14.52,0,1,0,59,30.3,13.75,13.75,0,0,0,41,30.3a14.54,14.54,0,1,0-3.36,4.38,13.63,13.63,0,0,0-1.42,6c0,.16,0,.3,0,.45A24,24,0,0,0,4,63.74v4.17a1,1,0,0,0,.41.8,39.84,39.84,0,0,0,22.87,7.63c-.07.75-.12,1.49-.12,2.27v4a1,1,0,0,0,.41.8,38.15,38.15,0,0,0,44.86,0,1,1,0,0,0,.41-.81V78.61a21.75,21.75,0,0,0-.13-2.27,39.83,39.83,0,0,0,22.87-7.65,1,1,0,0,0,.42-.81V63.74h0A24.06,24.06,0,0,0,72,39.72Zm0-28.37A12.5,12.5,0,1,1,59.5,23.85,12.51,12.51,0,0,1,72,11.35ZM50,28.91A11.83,11.83,0,0,1,61.69,42.42a.31.31,0,0,0,0,.13,11.78,11.78,0,0,1-10.34,9.9l-.13,0a11.23,11.23,0,0,1-2.39,0l-.13,0a11.78,11.78,0,0,1-10.35-9.9.31.31,0,0,0,0-.13A11.83,11.83,0,0,1,50,28.91ZM28,36.34a12.5,12.5,0,1,1,12.5-12.49A12.51,12.51,0,0,1,28,36.34ZM6,63.74a22,22,0,0,1,22-22,21.74,21.74,0,0,1,8.44,1.69l.09.38.12.49c.05.19.11.38.17.57l.15.48.21.55.19.46c.08.18.17.36.26.53s.14.3.22.44.2.34.3.51.16.28.25.42l.34.49.27.38c.13.17.27.33.41.49s.18.23.28.33.37.4.56.59l.33.31c.21.2.42.39.64.57l.34.26.51.38.4.26.5.32.43.24.52.27.46.2.53.23.48.17.55.19.5.14.56.14.52.1.37.07c.22.48.43,1,.62,1.43l-.37,0-.86.1q-.57.06-1.11.15l-.86.17-1.07.25-.84.24c-.35.11-.69.22-1,.35s-.54.19-.81.3-.67.28-1,.44-.52.23-.77.36-.65.35-1,.53l-.72.41c-.32.2-.63.41-.94.62s-.45.3-.66.46-.62.48-.93.73-.39.31-.58.48-.64.59-1,.89c-.15.15-.31.28-.45.43-.45.47-.88.94-1.29,1.44a1,1,0,0,1-.08.11q-.57.7-1.08,1.44c-.12.18-.23.37-.35.56-.24.36-.47.71-.68,1.08s-.24.46-.36.7-.36.68-.53,1-.22.51-.32.77-.29.69-.42,1-.18.55-.27.82-.22.71-.32,1.08-.13.57-.2.86-.11.43-.15.65A37.75,37.75,0,0,1,6,67.39ZM70.84,82a36.16,36.16,0,0,1-41.68,0V78.61a21.42,21.42,0,0,1,.22-3.12c.1-.62.22-1.24.37-1.84.05-.21.12-.4.17-.6.11-.4.22-.8.35-1.18s.18-.46.27-.69.26-.69.41-1,.23-.47.35-.7.3-.63.47-.93.27-.46.41-.68.35-.58.54-.86.32-.44.48-.66.39-.54.6-.79.36-.42.54-.62.43-.5.65-.73.4-.39.6-.58.46-.45.71-.66.43-.36.65-.54.49-.4.75-.59.47-.32.7-.48l.8-.53.74-.42c.28-.15.55-.31.84-.45s.52-.24.78-.36l.87-.38.82-.29.9-.3.85-.22c.31-.08.62-.16.93-.22s.59-.1.88-.15.63-.1.95-.13.6,0,.9-.07l.71,0h0a2,2,0,0,0,.25.14l0,0A.84.84,0,0,0,50,58h.06a.88.88,0,0,0,.32-.07l.09,0,.16-.1.72,0c.3,0,.59,0,.88.07s.65.08,1,.13.58.09.86.15.63.14.94.22l.85.22.9.3c.27.1.55.19.82.3s.58.25.87.38.53.23.78.36.56.29.83.45.51.27.76.42l.78.52c.24.16.48.32.71.49s.49.38.74.58.45.35.67.54l.68.65c.21.2.42.39.62.6s.43.47.64.71.38.42.56.64.38.51.58.77.34.44.49.68.35.55.53.84.29.46.43.7.31.61.46.91.24.47.35.72.27.66.4,1,.2.46.28.7.23.78.34,1.17c.06.2.13.4.18.61.15.61.27,1.22.37,1.84a21,21,0,0,1,.23,3.12ZM94,67.37a37.89,37.89,0,0,1-21.56,7c0-.22-.1-.44-.15-.66s-.13-.57-.2-.85-.21-.73-.32-1.09-.17-.54-.27-.8-.27-.72-.42-1.07-.21-.51-.32-.75-.35-.72-.54-1.07-.22-.45-.35-.67c-.22-.38-.46-.75-.7-1.12-.11-.17-.21-.35-.33-.52-.36-.52-.74-1-1.14-1.52l0,0q-.62-.75-1.29-1.44c-.13-.14-.27-.26-.4-.39-.33-.32-.66-.64-1-.94-.18-.16-.37-.3-.56-.45s-.62-.52-1-.76l-.64-.44-1-.63c-.23-.15-.47-.28-.71-.41s-.65-.37-1-.54-.49-.24-.75-.35-.67-.31-1-.45l-.79-.3-1-.35-.82-.23c-.36-.1-.72-.18-1.08-.26l-.86-.16c-.36-.07-.73-.12-1.11-.16l-.86-.1-.37,0c.19-.48.4-1,.62-1.43l.39-.08L53,54.2l.6-.15.47-.13.58-.19.45-.16.56-.24.43-.2.54-.29.41-.22c.18-.1.36-.22.54-.34l.36-.23c.19-.14.38-.28.56-.43a3.15,3.15,0,0,0,.29-.22c.27-.22.54-.46.8-.7h0c.26-.24.5-.5.74-.76l.22-.26.46-.56.24-.33c.13-.18.26-.36.38-.55l.22-.37.32-.55c.08-.14.14-.27.21-.41s.19-.37.27-.56l.18-.43c.07-.2.15-.39.22-.59s.1-.3.15-.45.12-.39.17-.6.08-.31.11-.47.07-.25.1-.39A21.77,21.77,0,0,1,72,41.72a22,22,0,0,1,22,22Z"></path></g></svg>