<svg height='300px' width='300px'  fill="#0e0e0e" xmlns="http://www.w3.org/2000/svg" viewBox="0 0 100 100" x="0px" y="0px"><title>Customer</title><g data-name="Layer 7"><path d="M32.64,21A15.84,15.84,0,1,0,48.48,5.17,15.85,15.85,0,0,0,32.64,21Zm29.68,0A13.84,13.84,0,1,1,48.48,7.17,13.85,13.85,0,0,1,62.32,21Z"></path><path d="M94.8,65.64H84.15A46.41,46.41,0,0,0,74,58.46a26.29,26.29,0,0,0-51.78,6.41v.86l-9.45-3.66a6.19,6.19,0,0,0-5.59,11C17.93,79.71,42,92.74,47.68,94.39a15.93,15.93,0,0,0,4.22.43C62,94.82,82,90.55,83.85,90.15h11a1,1,0,0,0,1-1V66.64A1,1,0,0,0,94.8,65.64ZM48.48,40.58A24.15,24.15,0,0,1,71.61,57.45,12,12,0,0,0,64,56.81l-.42.12C56.06,59.18,50.1,61,46,61H28.81a6.28,6.28,0,0,0-4.47,1.84l-.06.07A24.32,24.32,0,0,1,48.48,40.58ZM82.75,88.33c-4.66,1-28.59,5.88-34.5,4.14-5.42-1.58-29.61-14.68-40-21.1a4.23,4.23,0,0,1-2-3.58,4.28,4.28,0,0,1,.39-1.74,4.2,4.2,0,0,1,3.82-2.44,4.12,4.12,0,0,1,1.6.32L22.53,68A6.3,6.3,0,0,0,27.8,73.5a44,44,0,0,0,20.66,5.16c.41,0,.8,0,1.15,0A36.34,36.34,0,0,0,54,78.31l.08,0h.07l.11-.06a1.51,1.51,0,0,0,.18-.09l.14-.13a.81.81,0,0,0,.12-.14,1.4,1.4,0,0,0,.09-.17,1.21,1.21,0,0,0,0-.18.68.68,0,0,0,0-.2s0-.08,0-.12l0-.07V77c0-.06-.06-.11-.08-.17a.25.25,0,0,0,0-.07c-.66-1.56-3.22-2.75-7.53-3.45L28.81,71.59a2.94,2.94,0,0,1-.56,0,4.18,4.18,0,0,1-2.49-1.22,4.31,4.31,0,0,1,3-7.37H46c4.41,0,10.5-1.82,18.2-4.11l.42-.13c2.14-.64,4.87-.19,8.1,1.34a44.6,44.6,0,0,1,10,7ZM49.51,76.63c-.36,0-.68,0-1,0A42.22,42.22,0,0,1,34.1,74.11l4.69.45,8.1.77a18.64,18.64,0,0,1,4.54,1.21Q50.47,76.62,49.51,76.63ZM93.8,88.15h-9V67.64h9Z"></path></g></svg>