<svg height='300px' width='300px'  fill="#0e0e0e" xmlns="http://www.w3.org/2000/svg" viewBox="0 0 100 100" x="0px" y="0px"><title>Strategy</title><g data-name="Layer 4"><path d="M15,86H39.06A11,11,0,0,0,61,86H85a1,1,0,0,0,1-1V25.91A6,6,0,0,0,85,14H56V5a1,1,0,0,0-1-1H44.12a1,1,0,0,0-1,1v9H15a6,6,0,0,0-1,11.91V85A1,1,0,0,0,15,86Zm35,8a9,9,0,0,1-8.94-8H45A5.13,5.13,0,0,0,55,86H59A9,9,0,0,1,50,94Zm-3-8H53a3.11,3.11,0,0,1-5.9,0Zm13-2H16V26H84V84ZM45.12,6H54v8H45.12ZM11,20a4,4,0,0,1,4-4H85a4,4,0,0,1,0,8H15A4,4,0,0,1,11,20Z"></path><path d="M32.07,41.42l5.35,5.34a1,1,0,0,0,1.41,0,1,1,0,0,0,0-1.41L33.49,40l5.34-5.34a1,1,0,0,0,0-1.42,1,1,0,0,0-1.41,0l-5.35,5.35-5.35-5.35a1,1,0,0,0-1.41,0,1,1,0,0,0,0,1.42L30.66,40l-5.35,5.35A1,1,0,0,0,26,47.06a1,1,0,0,0,.7-.3Z"></path><path d="M68.55,59a8.57,8.57,0,1,0,8.58,8.57A8.58,8.58,0,0,0,68.55,59Zm0,15.14a6.57,6.57,0,1,1,6.58-6.57A6.58,6.58,0,0,1,68.55,74.13Z"></path><path d="M65.73,42.56a1,1,0,0,0,.84.45,1,1,0,0,0,.84-1.54l-5.64-8.62a1,1,0,0,0-1.49-.21L52,39.77a1,1,0,1,0,1.3,1.51l6.55-5.66C58,56.88,47.28,66.88,27.25,66.21a1,1,0,0,0-1,1,1,1,0,0,0,1,1l1.93,0c19.57,0,30.55-10.65,32.7-31.68Z"></path></g></svg>