<svg id="Capa_1" data-name="Capa 1" xmlns="http://www.w3.org/2000/svg" xmlns:xlink="http://www.w3.org/1999/xlink" viewBox="0 0 351.78 475.71"><defs><style>.cls-1,.cls-2{fill:#d6d8e5;}.cls-1,.cls-22{isolation:isolate;}.cls-1{opacity:0.4;}.cls-3{fill:#b1b6c4;}.cls-4{fill:#c4c7d6;}.cls-5{fill:#38226d;}.cls-6{fill:#9c73ff;}.cls-7{fill:#7676b6;}.cls-8{fill:#ffcea9;}.cls-9{fill:#ededed;}.cls-10{fill:#e5e5e5;}.cls-11{fill:#f4f4f4;}.cls-12{fill:#bfbfbf;}.cls-13{fill:#3a2c6d;}.cls-14{fill:#dceeff;}.cls-15{fill:#dbdbdb;}.cls-16{fill:#1e3779;}.cls-17{fill:#031f60;}.cls-18{fill:#b1b4c4;}.cls-19{fill:#9ea1af;}.cls-20{fill:#e4e7f2;}.cls-21{fill:#201d38;}.cls-22{opacity:0.3;fill:url(#Degradado_sin_nombre);}.cls-23{fill:#a298e2;}.cls-24{fill:#e3b23c;}.cls-25{fill:#7abe7b;}.cls-26{fill:#ea516f;}.cls-27{fill:#c33afc;}.cls-28{fill:#ff8657;}.cls-29{fill:#2b2a30;}.cls-30{fill:#bf4b4b;}</style><linearGradient id="Degradado_sin_nombre" x1="46.84" y1="298.89" x2="334.74" y2="298.89" gradientTransform="matrix(1, 0, 0, -1, 0, 502)" gradientUnits="userSpaceOnUse"><stop offset="0.21" stop-color="#fff" stop-opacity="0"/><stop offset="1" stop-color="#fff" stop-opacity="0.2"/></linearGradient></defs><polygon class="cls-1" points="35.38 469.77 0 449.53 52.93 419.24 88.29 439.46 35.38 469.77"/><polygon class="cls-2" points="36.1 428.98 6.81 412.07 36.1 395.16 65.39 412.07 36.1 428.98"/><polygon class="cls-3" points="36.1 462.8 6.81 445.89 6.81 412.07 36.1 428.98 36.1 462.8"/><polygon class="cls-4" points="65.4 445.89 36.1 462.8 36.1 428.98 65.4 412.07 65.4 445.89"/><g id="Men_5" data-name="Men 5"><path class="cls-5" d="M75.47,435.32a10,10,0,0,0,7.54-.91c1.82,0,11.69-4.16,13-.61,1.18,3.09-3.09,6-5.38,6.52-5,1.21-8.68,3.69-10.68,4.12a5,5,0,0,1-4.61-.66C74,442.29,74.08,437.09,75.47,435.32Z"/><path class="cls-6" d="M80,443.5c2-.43,5.7-2.91,10.68-4.12,1.91-.47,5.2-2.55,5.53-5.05.45,2.86-3.41,5.39-5.53,5.91-5,1.21-8.68,3.69-10.68,4.12a5,5,0,0,1-4.61-.66,2.71,2.71,0,0,1-.64-1.19A5.94,5.94,0,0,0,80,443.5Z"/><path class="cls-5" d="M57.69,425.76a9.9,9.9,0,0,0,7.53-.91c1.82,0,11.59-4.16,13-.61,1.18,3.1-3.1,6-5.37,6.52-5,1.21-8.68,3.7-10.68,4.13a5,5,0,0,1-4.6-.66C56.16,432.82,56.31,427.62,57.69,425.76Z"/><path class="cls-6" d="M62.19,434c2-.43,5.7-2.92,10.68-4.13,1.91-.46,5.2-2.55,5.53-5,.45,2.87-3.41,5.4-5.53,5.91-5,1.21-8.68,3.7-10.68,4.13a5,5,0,0,1-4.6-.66,2.6,2.6,0,0,1-.65-1.18A6,6,0,0,0,62.19,434Z"/><path class="cls-7" d="M30,413.49c7.7,3.31,14.9,3.91,20.88.73L57,410.67c.36,7.92.71,15.52.71,15.52s4.71,3.56,8.28.38c0,0,.77-11.09,1.54-22L74,400.84a7.16,7.16,0,0,0-.25,1.79c0,2.07,1.49,32.92,1.49,32.92s4.74,2.82,8.4-.35c0,0,2.47-35.75,3-41.4.63-6.43-6.49-9.59-11-7.95l-6.89,2.57.33-4c.64-6.43-6.5-9.59-11-7.95C53.94,378,26.18,388.4,26.18,388.4a71.37,71.37,0,0,0,1,8l-11-.93C15.62,405.69,22.29,410.11,30,413.49Zm19.14-17.77,7.34-4.22a9.14,9.14,0,0,0-.23,1.57Z"/><path class="cls-8" d="M10.27,364.1s.89,13.63,2.68,15.6S20.8,383,20.8,383l4.66,7.58s-4.26-24.31-5.19-24.84S10.27,364.1,10.27,364.1Z"/><path id="_Контур_" data-name=" Контур " class="cls-9" d="M19.23,349a5.11,5.11,0,0,0-6.49,1.9c-1.66,2.83-3.5,12.59-3.66,14.25a6.85,6.85,0,0,0,6,2.76Z"/><path id="_Контур_2" data-name=" Контур 2" class="cls-8" d="M20.87,349.2c2.35.11,4.11.71,4.4,0a28.61,28.61,0,0,0,.53-3.68c-.26-.7-.49-1.42-.49-1.42-3-1.83-3.9-5-4.29-8.75-.67-6.38,2.78-11.94,9.14-12.6,6-.63,10.4,3.57,11.59,9.35.63,2.85,1.89,8.29.19,12.94-.95,2.62-2.17,4.7-3.32,5.1a26.28,26.28,0,0,1-3.54-.3h0s-.32,1.77-.53,2.9-.15,1.74,2.12,3.13-3.41,4.26-7.12,4-7.89-2.52-9-5C19.15,352.19,19.25,349.05,20.87,349.2Z"/><g id="_Группа_" data-name=" Группа "><g id="_Группа_2" data-name=" Группа 2"><g id="_Группа_3" data-name=" Группа 3"><path id="_Контур_3" data-name=" Контур 3" class="cls-10" d="M80.59,390.85h0a1.94,1.94,0,0,1-1,1.66l-18,10.36a1.89,1.89,0,0,1-1.92,0L34.57,388.33a1.89,1.89,0,0,1-1-1.65v-.14Z"/><path id="_Контур_4" data-name=" Контур 4" class="cls-10" d="M79.63,392.51l-18,10.36a1.81,1.81,0,0,1-1,.27V390.85H80.57A1.9,1.9,0,0,1,79.63,392.51Z"/><g id="_Группа_4" data-name=" Группа 4"><path id="_Контур_5" data-name=" Контур 5" class="cls-11" d="M61.38,401.93a1.29,1.29,0,0,1-1.34,0l-26.19-15.1c-.33-.2-.33-.52,0-.7L53.13,375l27.46,15.87Z"/></g><g id="_Группа_5" data-name=" Группа 5"><polygon id="_Контур_6" data-name=" Контур 6" class="cls-12" points="44.6 390.85 44.73 390.92 53.13 395.77 57.73 393.1 57.87 393.04 49.34 388.12 44.6 390.85"/><polygon id="_Контур_7" data-name=" Контур 7" class="cls-10" points="44.73 390.92 53.13 395.77 57.73 393.1 49.34 388.27 44.73 390.92"/></g><path class="cls-13" d="M73.47,391.63l1.21.69a.37.37,0,0,0,.38,0l1.16-.66c.11,0,.13-.16,0-.21L75,390.73a.5.5,0,0,0-.38,0l-1.16.68C73.39,391.48,73.37,391.58,73.47,391.63Z"/><path class="cls-13" d="M71.76,390.6l1.21.7a.42.42,0,0,0,.38,0l1.16-.67c.12,0,.12-.16,0-.21l-1.21-.7a.42.42,0,0,0-.38,0l-1.16.67C71.68,390.49,71.66,390.6,71.76,390.6Z"/><path class="cls-13" d="M70,389.66l1.21.69a.47.47,0,0,0,.4,0l1.14-.66c.12,0,.13-.16,0-.23l-1.21-.7a.42.42,0,0,0-.38,0l-1.16.67A.13.13,0,0,0,70,389.66Z"/><path class="cls-13" d="M68.34,388.66l1.2.7a.44.44,0,0,0,.39,0l1.15-.66c.12,0,.14-.17,0-.23l-1.2-.7a.47.47,0,0,0-.4,0l-1.14.66C68.25,388.5,68.24,388.6,68.34,388.66Z"/><path class="cls-13" d="M66.61,387.67l1.23.7a.42.42,0,0,0,.38,0l1.14-.67c.12,0,.13-.16,0-.21l-1.21-.71a.42.42,0,0,0-.38,0l-1.16.67C66.53,387.52,66.51,387.62,66.61,387.67Z"/><path class="cls-13" d="M64.91,386.68l1.21.71a.42.42,0,0,0,.38,0l1.16-.68c.11,0,.13-.17,0-.22l-1.21-.69a.41.41,0,0,0-.4,0l-1.14.66C64.82,386.53,64.81,386.63,64.91,386.68Z"/><path class="cls-13" d="M63.2,385.63l1.21.7a.42.42,0,0,0,.38,0l1.16-.66c.12,0,.12-.17,0-.24l-1.21-.69a.42.42,0,0,0-.38,0l-1.16.66C63.1,385.53,63.1,385.63,63.2,385.63Z"/><path class="cls-13" d="M61.48,384.71l1.21.69a.37.37,0,0,0,.38,0l1.16-.66c.11,0,.13-.17,0-.22L63,383.81a.42.42,0,0,0-.38,0l-1.16.68C61.4,384.56,61.38,384.66,61.48,384.71Z"/><path class="cls-13" d="M59.77,383.71l1.21.7a.42.42,0,0,0,.38,0l1.16-.67c.12,0,.12-.16,0-.21l-1.24-.71a.37.37,0,0,0-.38,0l-1.16.66C59.62,383.56,59.62,383.66,59.77,383.71Z"/><path class="cls-13" d="M58.05,382.73l1.21.7a.47.47,0,0,0,.4,0l1.14-.66c.12,0,.13-.17,0-.23l-1.18-.72a.42.42,0,0,0-.38,0l-1.16.67C58,382.57,58,382.67,58.05,382.73Z"/><path class="cls-13" d="M56.31,381.74l1.21.7a.5.5,0,0,0,.38,0l1.16-.67c.12,0,.13-.16,0-.23L58,380.83a.47.47,0,0,0-.4,0l-1.14.66A.27.27,0,0,0,56.31,381.74Z"/><path class="cls-13" d="M54.65,380.75l1.23.69a.37.37,0,0,0,.38,0l1.16-.66c.1,0,.12-.17,0-.22l-1.21-.71a.5.5,0,0,0-.38,0l-1.16.68C54.54,380.66,54.54,380.66,54.65,380.75Z"/><path class="cls-13" d="M53,379.75l1.21.72a.5.5,0,0,0,.38,0l1.16-.68c.11,0,.13-.17,0-.22l-1.21-.69a.41.41,0,0,0-.4,0l-1.14.66C52.83,379.6,52.82,379.7,53,379.75Z"/><path class="cls-13" d="M50.38,378.3l2,1.17a.42.42,0,0,0,.38,0l1.16-.66c.12,0,.12-.17,0-.23l-2-1.23a.5.5,0,0,0-.38,0L50.4,378a.13.13,0,0,0-.14.13.13.13,0,0,0,.12.14Z"/><path class="cls-13" d="M69.26,391.11l1.23.7a.37.37,0,0,0,.38,0l1.16-.66c.1,0,.11-.17,0-.22l-1.21-.69a.37.37,0,0,0-.38,0l-1.16.66C69.18,391,69.18,391.07,69.26,391.11Z"/><path class="cls-13" d="M67.56,390.12l1.21.71a.42.42,0,0,0,.38,0l1.16-.68c.11,0,.13-.16,0-.21l-1.21-.7a.47.47,0,0,0-.4,0l-1.14.67C67.47,390,67.46,390.07,67.56,390.12Z"/><path class="cls-13" d="M65.83,389.14l1.21.7a.47.47,0,0,0,.4,0l1.14-.66c.12,0,.14-.17,0-.23l-1.21-.7a.42.42,0,0,0-.38,0l-1.16.66A.13.13,0,0,0,65.83,389.14Z"/><path class="cls-13" d="M64.13,388.15l1.21.7a.5.5,0,0,0,.38,0l1.16-.67c.11,0,.11-.16,0-.23l-1.21-.69a.42.42,0,0,0-.38,0l-1.16.66C64,388,64,388.08,64.13,388.15Z"/><path class="cls-13" d="M62.42,387.16l1.21.71a.42.42,0,0,0,.38,0l1.16-.68c.12,0,.13-.17,0-.22L64,386.28a.39.39,0,0,0-.39,0l-1.15.66C62.34,387,62.32,387.11,62.42,387.16Z"/><path class="cls-13" d="M60.7,386.18l1.21.7a.55.55,0,0,0,.4,0l1.14-.67c.12,0,.13-.16,0-.23l-1.21-.69a.42.42,0,0,0-.38,0L60.7,386A.13.13,0,0,0,60.7,386.18Z"/><path class="cls-13" d="M59,385.19l1.21.69a.42.42,0,0,0,.38,0l1.16-.66c.12,0,.12-.17,0-.23l-1.21-.7a.42.42,0,0,0-.38,0L59,385A.13.13,0,0,0,59,385.19Z"/><path class="cls-13" d="M57.27,384.19l1.21.7a.42.42,0,0,0,.38,0l1.16-.66c.12,0,.13-.17,0-.22l-1.21-.71a.47.47,0,0,0-.4,0l-1.14.68C57.19,384,57.17,384.14,57.27,384.19Z"/><path class="cls-13" d="M55.55,383.2l1.22.69a.39.39,0,0,0,.39,0l1.16-.66c.09,0,.11-.16,0-.21l-1.21-.7a.42.42,0,0,0-.38,0l-1.16.66C55.47,383.05,55.47,383.15,55.55,383.2Z"/><path class="cls-13" d="M53.84,382.2l1.21.72a.5.5,0,0,0,.38,0l1.16-.68c.12,0,.14-.17,0-.22l-1.21-.69a.39.39,0,0,0-.39,0l-1.15.66C53.76,382.06,53.74,382.15,53.84,382.2Z"/><path class="cls-13" d="M52.12,381.23l1.21.69a.47.47,0,0,0,.4,0l1.14-.66c.12,0,.13-.17,0-.23l-1.21-.7a.5.5,0,0,0-.38,0l-1.16.67A.13.13,0,0,0,52.12,381.23Z"/><path class="cls-13" d="M50.41,380.23l1.21.7a.42.42,0,0,0,.38,0l1.16-.66c.12,0,.12-.17,0-.24l-1.2-.69a.44.44,0,0,0-.39,0l-1.16.66A.13.13,0,0,0,50.41,380.23Z"/><path class="cls-13" d="M71,392.11l2,1.17a.42.42,0,0,0,.38,0l1.16-.66c.12,0,.13-.16,0-.23l-2-1.18a.55.55,0,0,0-.4,0l-1.15.68C70.9,392,70.89,392.06,71,392.11Z"/><path class="cls-13" d="M50.27,378.35l1.2.69c.1,0,.1.15,0,.22l-1.22.69a.32.32,0,0,1-.35,0h-.1a.38.38,0,0,0-.33,0l-1.29.75a.48.48,0,0,1-.37,0l-.76-.45c-.1,0-.1-.15,0-.21l1.21-.7.25-.13.18-.12.18-.1,1-.59A.36.36,0,0,1,50.27,378.35Z"/><path class="cls-13" d="M66.83,395.45l1.21.7a.42.42,0,0,0,.38,0l1.16-.66c.11,0,.11-.17,0-.22l-1.21-.69a.37.37,0,0,0-.38,0l-1.16.66C66.75,395.31,66.73,395.4,66.83,395.45Z"/><path class="cls-13" d="M65.12,394.48l1.21.69a.42.42,0,0,0,.38,0l1.16-.66c.12,0,.12-.17,0-.23l-1.21-.7a.5.5,0,0,0-.38,0l-1.16.67C65,394.31,65,394.41,65.12,394.48Z"/><path class="cls-13" d="M63.4,393.48l1.23.7a.42.42,0,0,0,.38,0l1.16-.66c.09,0,.11-.17,0-.22L65,392.61a.37.37,0,0,0-.38,0l-1.16.67A.11.11,0,0,0,63.4,393.48Z"/><path class="cls-13" d="M48.86,385.09l1.21.69a.39.39,0,0,0,.39,0l1.15-.66c.11,0,.13-.17,0-.22l-1.21-.71a.5.5,0,0,0-.38,0l-1.16.68C48.78,384.94,48.76,385,48.86,385.09Z"/><path class="cls-13" d="M47.15,384.11l1.21.69a.42.42,0,0,0,.38,0l1.16-.67c.12,0,.13-.15,0-.22l-1.21-.7a.47.47,0,0,0-.4,0l-1.14.67C47.07,384,47.05,384,47.15,384.11Z"/><path class="cls-13" d="M45.45,383.12l1.21.69a.37.37,0,0,0,.38,0l1.16-.66c.11,0,.13-.17,0-.22L47,382.22a.47.47,0,0,0-.4,0l-1.14.68C45.36,383,45.35,383.07,45.45,383.12Z"/><path class="cls-13" d="M43.74,382.12l1.21.71a.42.42,0,0,0,.38,0l1.16-.68c.12,0,.12-.16,0-.21l-1.23-.7a.42.42,0,0,0-.38,0l-1.16.67A.12.12,0,0,0,43.74,382.12Z"/><path class="cls-13" d="M61.28,392.26l1.66,1a.44.44,0,0,0,.39,0l1.15-.66c.11,0,.13-.17,0-.24l-1.66-.94a.42.42,0,0,0-.38,0l-1.16.66C61.18,392.09,61.16,392.26,61.28,392.26Z"/><path class="cls-13" d="M50.56,386.08l1.66.94a.37.37,0,0,0,.38,0l1.16-.66c.12,0,.13-.16,0-.23l-1.66-.94a.42.42,0,0,0-.38,0l-1.16.66A.13.13,0,0,0,50.56,386.08Z"/><path class="cls-13" d="M52.72,387.29l8.05,4.65a.42.42,0,0,0,.38,0l1.16-.66c.11,0,.11-.17,0-.23l-8-4.64a.45.45,0,0,0-.39,0l-1.15.66C52.63,387.16,52.62,387.29,52.72,387.29Z"/><path class="cls-13" d="M67.14,391.81l1.21.7a.42.42,0,0,0,.38,0l1.16-.67c.12,0,.13-.16,0-.23l-1.21-.69a.44.44,0,0,0-.39,0l-1.15.66A.13.13,0,0,0,67.14,391.81Z"/><path class="cls-13" d="M65.44,390.82l1.21.69a.37.37,0,0,0,.38,0l1.16-.66c.11,0,.11-.17,0-.22L67,389.94a.37.37,0,0,0-.38,0l-1.16.66C65.35,390.6,65.34,390.77,65.44,390.82Z"/><path class="cls-13" d="M63.71,389.84l1.23.7a.5.5,0,0,0,.38,0l1.16-.67c.1,0,.12-.16,0-.23L65.27,389a.42.42,0,0,0-.38,0l-1.16.66A.13.13,0,0,0,63.71,389.84Z"/><path class="cls-13" d="M62,388.85l1.21.69a.37.37,0,0,0,.38,0l1.16-.66c.11,0,.13-.17,0-.23l-1.21-.7a.42.42,0,0,0-.38,0l-1.16.68C61.93,388.7,61.91,388.8,62,388.85Z"/><path class="cls-13" d="M60.3,387.85l1.21.7a.42.42,0,0,0,.38,0l1.16-.68c.12,0,.13-.17,0-.22L61.84,387a.39.39,0,0,0-.39,0l-1.15.66C60.22,387.7,60.2,387.8,60.3,387.85Z"/><path class="cls-13" d="M58.6,386.88l1.21.69a.42.42,0,0,0,.38,0l1.16-.66c.1,0,.11-.17,0-.23l-1.21-.7a.42.42,0,0,0-.38,0l-1.16.66A.13.13,0,0,0,58.6,386.88Z"/><path class="cls-13" d="M56.87,385.88l1.21.7a.47.47,0,0,0,.4,0l1.14-.67c.12,0,.14-.16,0-.21L58.41,385a.42.42,0,0,0-.38,0l-1.16.68C56.79,385.73,56.77,385.83,56.87,385.88Z"/><path class="cls-13" d="M55.17,384.89l1.14.74a.42.42,0,0,0,.38,0l1.16-.68c.12,0,.13-.16,0-.21l-1.21-.7a.47.47,0,0,0-.4,0l-1.14.67A.14.14,0,0,0,55.17,384.89Z"/><path class="cls-13" d="M53.46,384l1.21.69a.42.42,0,0,0,.38,0l1.16-.66c.12,0,.12-.17,0-.23l-1.21-.7a.5.5,0,0,0-.38,0l-1.16.66C53.36,383.74,53.36,383.84,53.46,384Z"/><path class="cls-13" d="M51.74,382.92l1.21.69a.41.41,0,0,0,.4,0l1.14-.66c.12,0,.13-.17,0-.22L53.28,382a.5.5,0,0,0-.38,0l-1.16.68C51.66,382.77,51.64,382.87,51.74,382.92Z"/><path class="cls-13" d="M50,381.92l1.21.72a.5.5,0,0,0,.38,0l1.16-.68c.12,0,.14-.17,0-.22l-1.21-.69a.39.39,0,0,0-.39,0l-1.15.66C50,381.77,49.93,381.87,50,381.92Z"/><path class="cls-13" d="M48.33,381l1.21.69a.42.42,0,0,0,.38,0l1.16-.66c.11,0,.11-.17,0-.23l-1.21-.7a.42.42,0,0,0-.38,0l-1.16.66A.13.13,0,0,0,48.33,381Z"/><path class="cls-13" d="M68.85,392.8l2.52,1.45a.5.5,0,0,0,.38,0l1.14-.67c.12,0,.13-.16,0-.23l-2.5-1.44a.42.42,0,0,0-.38,0l-1.16.66C68.77,392.64,68.75,392.74,68.85,392.8Z"/><path class="cls-13" d="M66.33,393.25l1.21.71a.42.42,0,0,0,.38,0l1.16-.68c.12,0,.13-.16,0-.21l-1.21-.7a.42.42,0,0,0-.38,0l-1.16.67A.12.12,0,0,0,66.33,393.25Z"/><path class="cls-13" d="M64.59,392.26l1.21.69a.42.42,0,0,0,.38,0l1.16-.66c.12,0,.13-.16,0-.23l-1.22-.7a.53.53,0,0,0-.39,0l-1.14.67Z"/><path class="cls-13" d="M62.94,391.28l1.2.7a.45.45,0,0,0,.39,0l1.16-.67c.09,0,.11-.16,0-.21l-1.21-.71a.42.42,0,0,0-.38,0l-1.16.68C62.82,391.13,62.82,391.23,62.94,391.28Z"/><path class="cls-13" d="M61.28,390.29l1.21.71a.47.47,0,0,0,.4,0l1.14-.68c.11,0,.13-.17,0-.22l-1.21-.69a.37.37,0,0,0-.38,0l-1.16.66C61.11,390.14,61.1,390.24,61.28,390.29Z"/><path class="cls-13" d="M59.49,389.31l1.21.7a.5.5,0,0,0,.38,0l1.16-.67c.12,0,.13-.16,0-.23L61,388.42a.47.47,0,0,0-.4,0l-1.14.66A.13.13,0,0,0,59.49,389.31Z"/><path class="cls-13" d="M57.79,388.32,59,389a.37.37,0,0,0,.38,0l1.16-.66c.12,0,.12-.17,0-.22l-1.2-.69a.39.39,0,0,0-.39,0l-1.15.66C57.69,388.17,57.69,388.27,57.79,388.32Z"/><path class="cls-13" d="M56.06,387.29l1.21.69a.47.47,0,0,0,.4,0l1.14-.66c.12,0,.13-.16,0-.23l-1.21-.7a.42.42,0,0,0-.38,0l-1.16.67C56,387.17,56,387.29,56.06,387.29Z"/><path class="cls-13" d="M54.36,386.35l1.21.69a.37.37,0,0,0,.38,0l1.16-.66c.11,0,.13-.17,0-.23l-1.21-.7a.47.47,0,0,0-.4,0l-1.14.68C54.27,386.18,54.26,386.28,54.36,386.35Z"/><path class="cls-13" d="M52.65,385.35l1.21.7a.42.42,0,0,0,.38,0l1.16-.68c.12,0,.12-.17,0-.22l-1.23-.69a.37.37,0,0,0-.38,0l-1.16.66C52.57,385.2,52.55,385.3,52.65,385.35Z"/><path class="cls-13" d="M50.94,384.37l1.21.7a.42.42,0,0,0,.38,0l1.16-.66c.1,0,.12-.17,0-.23l-1.2-.7a.44.44,0,0,0-.39,0l-1.16.66A.13.13,0,0,0,50.94,384.37Z"/><path class="cls-13" d="M49.22,383.38l1.21.7a.47.47,0,0,0,.4,0l1.14-.67c.12,0,.13-.16,0-.21l-1.21-.71a.42.42,0,0,0-.38,0l-1.16.68C49.14,383.23,49.12,383.33,49.22,383.38Z"/><path class="cls-13" d="M45.4,381.18l3.31,1.92a.42.42,0,0,0,.38,0l1.16-.68c.12,0,.13-.17,0-.22l-3.31-1.92a.47.47,0,0,0-.4,0L45.4,381A.13.13,0,0,0,45.4,381.18Z"/><path class="cls-13" d="M68,394.25l1.65,1a.5.5,0,0,0,.38,0l1.16-.68c.12,0,.14-.17,0-.22l-1.65-1a.42.42,0,0,0-.38,0L68,394C67.9,394.1,67.9,394.2,68,394.25Z"/></g><g id="_Группа_6" data-name=" Группа 6"><g id="_Группа_7" data-name=" Группа 7"><g id="_Группа_8" data-name=" Группа 8"><path id="_Контур_8" data-name=" Контур 8" class="cls-10" d="M80.59,390.85h0L53.13,375V353.45l.22-.49.21-.1h0a1.87,1.87,0,0,1,1.91,0l25.12,14.49a2,2,0,0,1,1,1.65v20.28C81.35,390.25,81.15,390.5,80.59,390.85Z"/><path id="_Контур_9" data-name=" Контур 9" class="cls-10" d="M78.07,369.92,53.13,354.17v-.72l.22-.49.21-.1a1.87,1.87,0,0,1,1.91,0l25.12,14.49a1.69,1.69,0,0,1,.71.76Z"/><path id="_Контур_10" data-name=" Контур 10" class="cls-14" d="M53.76,352.91l26.37,15.22a.93.93,0,0,1,.46.79v21.93L53.13,375V353.27a.41.41,0,0,1,.4-.42A.32.32,0,0,1,53.76,352.91Z"/><path id="_Контур_11" data-name=" Контур 11" class="cls-11" d="M53.76,352.91l26.37,15.22a.93.93,0,0,1,.46.79v21.93L53.13,375V353.27a.41.41,0,0,1,.4-.42A.32.32,0,0,1,53.76,352.91Z"/><polygon id="_Контур_12" data-name=" Контур 12" class="cls-15" points="80.59 390.85 80.59 390.06 53.13 374.2 53.13 374.98 80.59 390.85"/></g><polygon id="_Контур_13" data-name=" Контур 13" class="cls-16" points="53.84 373.84 53.84 354.05 54.17 354.23 54.17 373.68 53.84 373.84"/><polygon id="_Контур_14" data-name=" Контур 14" class="cls-13" points="54.17 354.23 54.17 373.68 79.71 388.37 79.71 368.97 54.17 354.23"/><polygon id="_Контур_15" data-name=" Контур 15" class="cls-17" points="53.84 373.84 79.71 388.76 79.71 388.37 54.17 373.68 53.84 373.84"/></g></g></g></g><path id="_Контур_16" data-name=" Контур 16" class="cls-11" d="M24.28,349.48c-.66,1.65,1,3.61,5.43,5s4.82-.4,4.82-.4a86.4,86.4,0,0,1,8.61,4.44c2.65,1.85,3.83,7.24,4.19,16.31.42,10.5.45,26.07.1,28.77,0,0-5,5-11.31,4.42s-17.06-6.14-19.64-10.48c0-9.21,1.14-10.72-.35-16-3.41-12.14-5.22-17.11-3.54-25.19,1.36-6.62,3.31-7.47,5.91-7.4A53.36,53.36,0,0,1,24.28,349.48Z"/><path id="_Контур_17" data-name=" Контур 17" class="cls-8" d="M57.79,386.08c-5.22,1.33-6.45-2-7.13-4.69-1.65-6.62-2.55-12.55-3.79-16.29-1.46-4.41-3-5.12-5.13-6-2.5-1-4.67,1.12-3.85,6.74A114,114,0,0,0,42.68,385,17,17,0,0,0,47,392.49c2.7,2.19,6.76,2.09,12.89.56a69.76,69.76,0,0,0,10.43-4.52c1.33-.61,2.35-1,5-2.22a17.28,17.28,0,0,0,6.63-5.1c1.32-1.94,1.5-2.85,1.24-3.31s-1-.43-1.66.38a14.17,14.17,0,0,1-3.74,3.46,36.77,36.77,0,0,0,2.53-2.8,13.86,13.86,0,0,0,2-3.31c.48-1.13-.49-2.65-1.24-1.86s-1.07,1.66-2.43,3.32a13.88,13.88,0,0,1-2.42,2.3,26.5,26.5,0,0,0,2.24-3.58,6.08,6.08,0,0,0,.81-3.31c0-.58-.88-1.28-1.66-.17a21.22,21.22,0,0,1-3,4.39c-1.19,1.24-2.2,2-2.24,1.66s.73-1,1.15-2.45,0-3-.8-3.13-.64-.14-1.27,1.22A35.37,35.37,0,0,0,69,378.33,8.9,8.9,0,0,1,66.84,382C65.59,383.33,62.75,384.84,57.79,386.08Z"/><path id="_Контур_18" data-name=" Контур 18" class="cls-9" d="M39.75,358.22c3.48-.51,5.94,1.06,7.48,6.33s2.61,9.61,2.61,9.61A9.49,9.49,0,0,1,44,378c-4.16,1-5.67-1-5.67-1s-1.16-5.53-1.87-9.29S35.51,358.85,39.75,358.22Z"/><path class="cls-13" d="M41.54,331.21s5.5-8.36-6.43-10.07c-8.59-1.23-14.13,4.29-14.76,10.29-.61,5.73,2.92,11.67,5.45,14a10.39,10.39,0,0,0,7.44-.89,43.62,43.62,0,0,0,.17-4.71S29.22,331.06,41.54,331.21Z"/></g><polygon class="cls-4" points="65.4 437.06 65.4 411.93 45.45 423.58 53.13 439.46 65.4 437.06"/><polygon class="cls-2" points="52.32 413.37 59.97 408.94 65.39 412.07 57.45 416.57 52.32 413.37"/><g id="monitor"><path class="cls-1" d="M167,380.93l-56.92-32.86c-4.11-2.37-3.59-6.51,1.15-9.25l36.88-21.29L219.9,359,183,380.3C178.28,383,171.11,383.33,167,380.93Z"/><path class="cls-18" d="M171.16,378.52l-56.93-32.87c-4.1-2.37-3.58-6.5,1.15-9.24l36.88-21.29,71.79,41.44-36.88,21.3C182.43,380.59,175.26,380.93,171.16,378.52Z"/><polygon class="cls-18" points="224.05 356.56 224.05 354.39 220.74 356.3 224.05 356.56"/><polygon class="cls-18" points="111.46 341.74 111.46 339.53 114.87 340.94 111.46 341.74"/><path class="cls-2" d="M171.16,376.35l-56.93-32.87c-4.1-2.37-3.58-6.51,1.15-9.24l36.88-21.31,71.79,41.45-36.88,21.29C182.43,378.42,175.26,378.71,171.16,376.35Z"/><polygon class="cls-19" points="152.46 313.04 143.57 283.56 216.14 325.19 224.05 354.39 152.46 313.04"/><path class="cls-19" d="M222,355.6l2.1-1.21-3.15-2.46Z"/><polygon class="cls-18" points="150.17 314.15 141.28 284.67 213.85 326.3 221.95 355.6 150.17 314.15"/><path class="cls-4" d="M334.39,405.28,53.48,243.1c-3.94-2.28-7.13-8.38-7.13-13.63V12.18c0-5.25,3.19-7.67,7.13-5.39L334.39,168.93c3.94,2.27,7.13,8.37,7.13,13.63V399.93C341.52,405.14,338.33,407.56,334.39,405.28Z"/><polygon class="cls-4" points="335.83 407.52 338.95 405.73 337.6 396.5 335.83 407.52"/><path class="cls-18" d="M45.84,8.12,48.9,6.36l4.4,2.51s-4.69.71-4.8.68S45.84,8.12,45.84,8.12Z"/><path class="cls-20" d="M331.81,406.77,50.9,244.59c-3.94-2.28-7.14-8.38-7.14-13.63V13.67c0-5.26,3.2-7.67,7.14-5.4L331.8,170.45c3.94,2.28,7.14,8.38,7.14,13.64V401.37C339,406.63,335.75,409,331.81,406.77Z"/><path class="cls-21" d="M331.32,407.05,50.41,244.87c-3.94-2.28-7.13-8.38-7.13-13.63V13.93c0-5.25,3.19-7.67,7.13-5.39l280.91,162.2c3.94,2.27,7.13,8.37,7.13,13.63V401.66C338.45,406.93,335.26,409.33,331.32,407.05Z"/><path class="cls-22" d="M334.59,393.84,46.84,227.71,47,14.82c0-2.18,1.53-3.06,3.42-2L331.32,175a7.54,7.54,0,0,1,3.42,5.92Z"/><polygon class="cls-23" points="221.52 148.01 202.45 137 202.45 130.12 221.52 141.13 221.52 148.01"/><polygon class="cls-24" points="265.6 173.48 225.09 150.07 225.09 143.19 265.6 166.6 265.6 173.48"/><polygon class="cls-23" points="221.52 170.02 202.45 159.02 202.45 152.14 221.52 163.14 221.52 170.02"/><polygon class="cls-25" points="238.51 180 225.09 172.09 225.09 165.21 238.51 173.12 238.51 180"/><polygon class="cls-23" points="221.52 181.03 202.45 170.02 202.45 163.14 221.52 174.15 221.52 181.03"/><polygon class="cls-25" points="247.73 196.16 225.09 183.09 225.09 176.21 247.73 189.28 247.73 196.16"/><polygon class="cls-23" points="221.52 192.03 202.45 181.03 202.45 174.15 221.52 185.16 221.52 192.03"/><polygon class="cls-26" points="284.8 228.49 225.09 194.1 225.09 187.22 284.8 221.62 284.8 228.49"/><polygon class="cls-23" points="221.52 159.02 202.45 148.01 202.45 141.13 221.52 152.14 221.52 159.02"/><polygon class="cls-23" points="299.47 204.07 225.09 161.08 225.09 154.2 299.47 197.19 299.47 204.07"/><polygon class="cls-23" points="221.52 203.04 202.45 192.03 202.45 185.15 221.52 196.16 221.52 203.04"/><polygon class="cls-27" points="289.43 242.94 225.09 205.11 225.09 198.23 289.43 236.06 289.43 242.94"/><polygon class="cls-23" points="221.52 225.06 202.45 214.05 202.45 207.17 221.52 218.18 221.52 225.06"/><polygon class="cls-23" points="300.16 270.46 225.09 227.12 225.09 220.24 300.16 263.58 300.16 270.46"/><polygon class="cls-23" points="221.52 236.06 202.45 225.06 202.45 218.18 221.52 229.18 221.52 236.06"/><polygon class="cls-27" points="247.73 251.2 225.09 238.12 225.09 231.25 247.73 244.32 247.73 251.2"/><polygon class="cls-23" points="221.52 247.07 202.45 236.06 202.45 229.18 221.52 240.19 221.52 247.07"/><polygon class="cls-25" points="271.35 275.96 225.09 249.13 225.09 242.25 271.35 269.08 271.35 275.96"/><polygon class="cls-23" points="221.52 214.05 202.45 203.04 202.45 196.16 221.52 207.17 221.52 214.05"/><polygon class="cls-25" points="233.43 220.93 225.09 216.11 225.09 209.23 233.43 214.05 233.43 220.93"/><polygon class="cls-23" points="221.52 258.08 202.45 247.07 202.45 240.19 221.52 251.2 221.52 258.08"/><polygon class="cls-27" points="254.95 277.34 225.09 260.14 225.09 253.26 254.95 270.46 254.95 277.34"/><polygon class="cls-23" points="221.52 280.09 202.45 269.08 202.45 262.2 221.52 273.21 221.52 280.09"/><polygon class="cls-26" points="268.66 306.99 225.09 282.15 225.09 275.27 268.66 300.11 268.66 306.99"/><polygon class="cls-23" points="221.52 291.1 202.45 280.09 202.45 273.21 221.52 284.22 221.52 291.1"/><polygon class="cls-23" points="230.53 296.6 225.09 293.16 225.09 286.28 230.53 289.72 230.53 296.6"/><polygon class="cls-23" points="221.52 302.1 202.45 291.1 202.45 284.22 221.52 295.22 221.52 302.1"/><polygon class="cls-24" points="250.08 318.56 225.09 304.17 225.09 297.29 250.08 311.68 250.08 318.56"/><polygon class="cls-23" points="221.52 269.08 202.45 258.08 202.45 251.19 221.52 262.2 221.52 269.08"/><polygon class="cls-25" points="259.86 291.1 225.09 271.14 225.09 264.27 259.86 284.22 259.86 291.1"/><polygon class="cls-23" points="98.18 79.22 79.11 68.21 79.11 61.33 98.18 72.34 98.18 79.22"/><polygon class="cls-27" points="182.78 128.06 101.75 81.28 101.75 74.4 182.78 121.18 182.78 128.06"/><polygon class="cls-23" points="98.18 101.23 79.11 90.22 79.11 83.34 98.18 94.35 98.18 101.23"/><polygon class="cls-24" points="155.37 134.25 101.75 103.29 101.75 96.41 155.37 127.37 155.37 134.25"/><polygon class="cls-23" points="98.18 112.24 79.11 101.23 79.11 94.35 98.18 105.36 98.18 112.24"/><polygon class="cls-26" points="168.48 152.82 101.75 114.3 101.75 107.42 168.48 145.94 168.48 152.82"/><polygon class="cls-23" points="98.18 123.24 79.11 112.24 79.11 105.36 98.18 116.36 98.18 123.24"/><polygon class="cls-23" points="148.22 152.14 101.75 125.31 101.75 118.43 148.22 145.26 148.22 152.14"/><polygon class="cls-23" points="98.18 90.22 79.11 79.21 79.11 72.34 98.18 83.34 98.18 90.22"/><polygon class="cls-25" points="142.26 115.68 101.75 92.29 101.75 85.41 142.26 108.8 142.26 115.68"/><polygon class="cls-23" points="98.18 134.25 79.11 123.24 79.11 116.36 98.18 127.37 98.18 134.25"/><polygon class="cls-27" points="125.58 150.07 101.75 136.31 101.75 129.43 125.58 143.19 125.58 150.07"/><polygon class="cls-23" points="98.18 156.26 79.11 145.25 79.11 138.38 98.18 149.38 98.18 156.26"/><polygon class="cls-24" points="176.82 201.67 101.75 158.33 101.75 151.45 176.82 194.79 176.82 201.67"/><polygon class="cls-23" points="98.18 167.27 79.11 156.26 79.11 149.38 98.18 160.39 98.18 167.27"/><polygon class="cls-28" points="124.39 182.4 101.75 169.33 101.75 162.45 124.39 175.52 124.39 182.4"/><polygon class="cls-23" points="98.18 178.28 79.11 167.27 79.11 160.39 98.18 171.4 98.18 178.28"/><polygon class="cls-23" points="168.48 218.86 101.75 180.34 101.75 173.46 168.48 211.99 168.48 218.86"/><polygon class="cls-23" points="98.18 145.26 79.11 134.25 79.11 127.37 98.18 138.38 98.18 145.26"/><polygon class="cls-25" points="164.9 183.78 101.75 147.32 101.75 140.44 164.9 176.9 164.9 183.78"/><polygon class="cls-23" points="98.18 189.28 79.11 178.27 79.11 171.4 98.18 182.4 98.18 189.28"/><polygon class="cls-27" points="110.09 196.16 101.75 191.35 101.75 184.47 110.09 189.28 110.09 196.16"/><polygon class="cls-23" points="98.18 211.3 79.11 200.29 79.11 193.41 98.18 204.42 98.18 211.3"/><polygon class="cls-24" points="117.24 222.3 101.75 213.36 101.75 206.48 117.24 215.42 117.24 222.3"/><polygon class="cls-23" points="98.18 222.3 79.11 211.3 79.11 204.42 98.18 215.42 98.18 222.3"/><polygon class="cls-26" points="142.26 247.76 101.75 224.37 101.75 217.49 142.26 240.88 142.26 247.76"/><polygon class="cls-23" points="98.18 233.31 79.11 222.3 79.11 215.42 98.18 226.43 98.18 233.31"/><polygon class="cls-23" points="166.09 272.52 101.75 235.37 101.75 228.49 166.09 265.64 166.09 272.52"/><polygon class="cls-23" points="98.18 200.29 79.11 189.28 79.11 182.4 98.18 193.41 98.18 200.29"/><polygon class="cls-25" points="182.78 249.13 101.75 202.35 101.75 195.47 182.78 242.25 182.78 249.13"/></g><g id="Girl_12" data-name="Girl 12"><path id="_Контур_2-2" data-name=" Контур " class="cls-29" d="M323.14,92.12c1.17-1.87,10.08-3.11,13,4.45,1.11,2.86.94,10.17,1.86,14.78s3.13,7.2,3.91,10.89-.49,10-9.53,11.08-15.85-2-18-4.89-2.16-9,0-12.25,3.88-5.92,3.83-10.19Z"/><path id="_Контур_2-3" data-name=" Контур 2" class="cls-29" d="M329.07,90.82s-6.81-1.87-10.83,1.69a9.94,9.94,0,0,0-2.86,9.94c.55,2.13,1.62,5,3.31,5.18S329.07,90.82,329.07,90.82Z"/><path id="_Контур_3-2" data-name=" Контур 3" class="cls-8" d="M331.59,109.11s-.44,7.49-.3,8,2.92,1.07,3.71,1.73-4.08,8.23-6.53,9.36-10.11-1.75-10.64-5.55c-.49-3.49,2.19-6.21,3.23-7.16a14.72,14.72,0,0,1,2.1,0l.23-3.63C326.72,110.73,331.59,109.11,331.59,109.11Z"/><path id="_Контур_4-2" data-name=" Контур 4" class="cls-8" d="M309.59,149a39.37,39.37,0,0,1-7.45,7.75,37.71,37.71,0,0,0-2.54,3,11.19,11.19,0,0,1-5,3.33c-1.69.43-2.4.32-2.73,0s-.15-.79.59-1.09a9.31,9.31,0,0,0,3.28-1.76s-1.56.72-2.56,1.06a10.12,10.12,0,0,1-2.72.55c-.94,0-1.91-1.08-1.17-1.36s1.36-.36,2.86-.89a9.05,9.05,0,0,0,2.16-1.12,18.93,18.93,0,0,1-3.08.64,4.62,4.62,0,0,1-2.57-.3c-.44-.19-.82-1,.16-1.23a15.17,15.17,0,0,0,3.71-.86c1.14-.52,1.86-1.06,1.6-1.17s-.89.24-2,.16-2.22-.82-2.2-1.36.24-.27,1.36-.37a24.3,24.3,0,0,1,3.61-.61,11.89,11.89,0,0,0,3.56-.42c1.22-.37,3.95-3.65,6-6.66a44,44,0,0,0,5.36-10.9c1.26-4.08,2.73-11.88,3.83-14.58s2.92-3.91,4.67-4c2.06-.07,2.94,2.64,2.4,5C319.77,125.85,315.19,141.67,309.59,149Z"/><path id="_Контур_5-2" data-name=" Контур 5" class="cls-11" d="M332.62,117.87c2.1.32,4.49,1.44,4.82,2.6a24.54,24.54,0,0,1-.6,12.47c-1.81,4.82-3.88,13.5-4.91,15.58a24.52,24.52,0,0,1-15.66-3.06s-.44-8.36-.47-11.13c-6.81-5.9-1-13.18,4.74-18.83a11.92,11.92,0,0,1,2.07,0s-5.1,6-1.56,9.53C328.67,122.65,330.18,119.23,332.62,117.87Z"/><path id="_Контур_6-2" data-name=" Контур 6" class="cls-8" d="M317.61,99.84h0c.77-4.81,4.24-8.43,9.2-8.17a9.53,9.53,0,0,1,9,10.06v0a9.55,9.55,0,0,1-4.19,7.3,9.87,9.87,0,0,1-.77,2.11c-1.75,2-6.41,3.34-7.95,3.35-1.36,0-2.48-1.22-3.73-3.28C316.55,107,317.21,102.22,317.61,99.84Z"/><path class="cls-29" d="M328.33,91.8c3.47.67,6.33,1.65,7.27,5.07.66,2.34,1.5,6.81.7,8.72l-.51,1.36-4.2,2.16s-2-1.63-1.37-6.42a3.38,3.38,0,0,0-.58-1.82,4.77,4.77,0,0,1-.57-1.45,5.42,5.42,0,0,0-2.73-2.94,9.39,9.39,0,0,0-8.36.38A9.13,9.13,0,0,1,328.33,91.8Z"/><path class="cls-29" d="M309.2,206.79c-1.76,1.36-4.5.43-4.63.57a74.54,74.54,0,0,1-6.44,4.92c-1.09.85-2.81,2-2.49,3.67.55,3,5.29,2,7.09,1.15s3.24-2.41,4.94-3.46c1.2-.75,2.4-1.15,2.58-2.73C310.37,210,309.51,206.75,309.2,206.79Z"/><path class="cls-30" d="M310.23,210.36c-.23,1.45-1.36,1.86-2.6,2.6-1.73,1.07-3.24,2.61-5,3.52s-5.77,1.66-6.93-.45c.63,2.86,5.29,2,7.07,1.07s3.24-2.41,4.94-3.46c1.2-.75,2.4-1.15,2.58-2.73A2.53,2.53,0,0,0,310.23,210.36Z"/><path class="cls-29" d="M300.63,202c-1.6,1.36-4.08.57-4.16.69a65.71,65.71,0,0,1-5.89,4.48c-1,.79-2.57,1.85-2.28,3.37.5,2.72,4.84,1.87,6.49,1s3-2.2,4.52-3.16c1.11-.69,2.19-1,2.37-2.45A9.07,9.07,0,0,0,300.63,202Z"/><path class="cls-30" d="M301.67,205.4c-.22,1.36-1.3,1.7-2.4,2.38a48.89,48.89,0,0,1-4.6,3.23c-1.72.87-5.28,1.52-6.35-.41.58,2.61,4.84,1.8,6.47,1s3-2.21,4.52-3.16c1.11-.7,2.19-1,2.37-2.45A2.61,2.61,0,0,0,301.67,205.4Z"/><path class="cls-8" d="M325,150.36a26,26,0,0,1-14-2c.08,1.5.16,2.82.16,2.82-5.7,4.08-17.14,10.81-17.89,15.49.75,14.79,3,35.93,3.64,36.23,1.78.85,3,.72,3.88-.14,0,0,3.59-12.53,2.54-30.91,0,0,19.95-8.84,21.26-13.62a15.11,15.11,0,0,0,.54-6A18.13,18.13,0,0,0,325,150.36Z"/><path class="cls-8" d="M331.6,148.44a21.37,21.37,0,0,1-12.07,1.62c0,2,.29,5.69.29,5.69-5.73,4-17.13,10.81-17.87,15.5.74,14.8,2.13,36.22,2.73,36.49a4.82,4.82,0,0,0,4.72-.56S313,194.8,312,176.42c0-.34,17.11-8.77,19.27-11s2.59-5.54,2.53-8.69A21.24,21.24,0,0,0,331.6,148.44Z"/><path class="cls-26" d="M335.79,151.58s6.33,11.21-4.2,17c-11.13,6.07-17.9,7.49-17.9,7.49l-1.67.4a43.62,43.62,0,0,1,0,11.64s-7.94,2.72-18.06-6.14l-3.35-10.8-.39-2.86a6,6,0,0,1,1.68-5.45c2.43-2.2,10.12-7.84,14.9-11.06s8.65-6.31,8.65-6.31l.83-.78s5.68,4.52,16,3A16.29,16.29,0,0,1,335.79,151.58Z"/><path id="_Контур_7-2" data-name=" Контур 7" class="cls-8" d="M329.53,168.2a28.32,28.32,0,0,1,3.05-2.41,12.73,12.73,0,0,0,3.09-2.21c1-1,2.4-5,3.15-9a39.43,39.43,0,0,0-.22-13.36,94.21,94.21,0,0,0-5.3-15.39c-1.36-3-.61-4.78.67-6.1,1.51-1.54,3.08-1.49,4.87,2.65a84.88,84.88,0,0,1,5.56,18.11,40.13,40.13,0,0,1-.19,13.61,49.78,49.78,0,0,1-3.62,11.44c-.47,1.08-.55,2-1.19,4.09a13.82,13.82,0,0,1-3.27,5.73c-1.36,1.28-2.07,1.52-2.43,1.36s-.45-.71.1-1.36a11.53,11.53,0,0,0,2.31-3.35s-1.16,1.48-1.92,2.31a10.78,10.78,0,0,1-2.32,1.94c-.83.5-2.15-.1-1.61-.76s1.16-1.05,2.28-2.31a11,11,0,0,0,1.54-2.16,21.05,21.05,0,0,1-2.56,2.16,4.89,4.89,0,0,1-2.47,1c-.46,0-1.11-.55-.32-1.3a17.12,17.12,0,0,0,3-2.72c.84-1.08,1.28-2,1-1.94s-.72.69-1.79,1.19-2.35.33-2.56-.27S328.53,168.85,329.53,168.2Z"/><path class="cls-9" d="M341.59,128s-3.82,3.41-8.08,2.73l-1.72-7.15s-1.13-3.75,2.08-5.18S340.2,120.69,341.59,128Z"/><path class="cls-9" d="M320.54,115.5s-4.15-1.27-8.55,7.92l1.65,1A69.36,69.36,0,0,1,320.54,115.5Z"/><g id="_Группа_2-2" data-name=" Группа "><g id="_Группа_2-3" data-name=" Группа 2"><path id="_Контур_8-2" data-name=" Контур 8" class="cls-11" d="M291.89,155.17l14.79-8.54a.84.84,0,0,1,.84,0l25.88,15-15.21,8.78Z"/><path class="cls-13" d="M318.64,167l1.13.65c.09,0,.08.15,0,.22l-1.08.61a.36.36,0,0,1-.35,0l-1.13-.65c-.1,0-.09-.15,0-.22l1.08-.61A.43.43,0,0,1,318.64,167Z"/><path class="cls-13" d="M317,166.09l1.13.65c.08,0,.08.14,0,.2l-1.07.63a.48.48,0,0,1-.37,0l-1.13-.65c-.1,0-.08-.15,0-.22l1.07-.61A.4.4,0,0,1,317,166.09Z"/><path class="cls-13" d="M315.45,165.2l1.13.65c.09,0,.08.15,0,.21l-1.08.63a.45.45,0,0,1-.36,0L314,166c-.1,0-.09-.15,0-.2l1.07-.63A.48.48,0,0,1,315.45,165.2Z"/><path class="cls-13" d="M313.84,164.23l1.13.66c.08,0,0,.15,0,.2l-1.09.63a.43.43,0,0,1-.35,0l-1.13-.66c-.1,0-.08-.14,0-.2l1.07-.63A.4.4,0,0,1,313.84,164.23Z"/><path class="cls-13" d="M312.24,163.31l1.13.65c.09,0,.08.15,0,.21l-1.08.62a.4.4,0,0,1-.37,0l-1.13-.65c-.08,0-.08-.15,0-.21l1.09-.62A.38.38,0,0,1,312.24,163.31Z"/><path class="cls-13" d="M310.63,162.38l1.13.66c.09,0,.08.15,0,.2l-1.09.63a.36.36,0,0,1-.35,0l-1.13-.66c-.1,0-.09-.13,0-.2l1.07-.63A.4.4,0,0,1,310.63,162.38Z"/><path class="cls-13" d="M309,161.46l1.13.65c.09,0,.08.15,0,.2l-1.08.63a.4.4,0,0,1-.37,0l-1.13-.65c-.09,0-.08-.14,0-.21l1.08-.62A.4.4,0,0,1,309,161.46Z"/><path class="cls-13" d="M307.43,160.53l1.13.65c.09,0,.08.15,0,.22l-1.08.61a.32.32,0,0,1-.35,0l-1.21-.62c-.1,0-.08-.15,0-.22l1.07-.63A.43.43,0,0,1,307.43,160.53Z"/><path class="cls-13" d="M305.84,159.62l1.13.64c.09,0,.08.15,0,.22l-1.05.64a.48.48,0,0,1-.37,0l-1.13-.66c-.1,0-.08-.15,0-.22l1.07-.61A.43.43,0,0,1,305.84,159.62Z"/><path class="cls-13" d="M304.23,158.69l1.13.66c.09,0,.08.13,0,.2l-1.08.63a.43.43,0,0,1-.35,0l-1.13-.66c-.1,0-.08-.15,0-.2l1.07-.63A.38.38,0,0,1,304.23,158.69Z"/><path class="cls-13" d="M302.64,157.77l1.13.65c.08,0,.08.14,0,.2l-1.08.63a.48.48,0,0,1-.37,0l-1.13-.65c-.09,0-.08-.15,0-.21l1.08-.62A.4.4,0,0,1,302.64,157.77Z"/><path class="cls-13" d="M301,156.84l1.13.65c.09,0,.08.15,0,.21l-1.08.62a.36.36,0,0,1-.35,0l-1.15-.65c-.08,0-.06-.15,0-.2l1.09-.63A.45.45,0,0,1,301,156.84Z"/><path class="cls-13" d="M299.44,155.91l1.13.66c.08,0,.06.15,0,.2l-1.09.63a.38.38,0,0,1-.36,0l-1.13-.66c-.09,0-.08-.14,0-.2l1.08-.63A.47.47,0,0,1,299.44,155.91Z"/><path class="cls-13" d="M297.05,154.54l1.91,1.1c.09,0,.08.15,0,.21l-1.08.62a.38.38,0,0,1-.36,0l-1.9-1.09c-.09,0-.08-.15,0-.21l1.08-.62A.39.39,0,0,1,297.05,154.54Z"/><path class="cls-13" d="M317.82,164.74l1.13.65c.09,0,.08.15,0,.21l-1.08.62a.38.38,0,0,1-.36,0l-1.14-.65c-.09,0-.08-.15,0-.21l1.08-.62A.4.4,0,0,1,317.82,164.74Z"/><path class="cls-13" d="M316.21,163.84l1.13.65c.1,0,.08.15,0,.21l-1.07.62a.4.4,0,0,1-.37,0l-1.13-.65c-.08,0-.08-.15,0-.2l1.09-.63A.43.43,0,0,1,316.21,163.84Z"/><path class="cls-13" d="M314.6,162.89l1.13.65c.1,0,.09.15,0,.2l-1.07.63a.36.36,0,0,1-.35,0l-1.14-.65c-.09,0-.08-.15,0-.21l1.08-.62A.36.36,0,0,1,314.6,162.89Z"/><path class="cls-13" d="M313,162l1.14.65c.08,0,.07.15,0,.21l-1.09.62a.32.32,0,0,1-.35,0l-1.13-.65c-.1,0-.08-.15,0-.2l1.07-.63A.45.45,0,0,1,313,162Z"/><path class="cls-13" d="M311.36,161.12l1.13.65c.09,0,.09.14,0,.2l-1.07.63a.48.48,0,0,1-.37,0l-1.13-.65c-.1,0-.08-.15,0-.22l1.08-.61A.38.38,0,0,1,311.36,161.12Z"/><path class="cls-13" d="M309.81,160.12l1.13.66c.1,0,.08.13,0,.2l-1.07.63a.47.47,0,0,1-.37,0l-1.13-.66c-.08,0-.08-.15,0-.22l1.07-.61A.4.4,0,0,1,309.81,160.12Z"/><path class="cls-13" d="M308.2,159.2l1.13.65c.1,0,.09.14,0,.2l-1.07.63a.45.45,0,0,1-.36,0l-1.13-.65c-.09,0-.08-.15,0-.21l1.09-.62A.34.34,0,0,1,308.2,159.2Z"/><path class="cls-13" d="M306.6,158.27l1.13.65c.09,0,.08.14,0,.21l-1.09.62a.38.38,0,0,1-.36,0l-1.13-.65c-.09,0-.08-.15,0-.2l1.08-.63A.35.35,0,0,1,306.6,158.27Z"/><path class="cls-13" d="M305,157.34l1.13.66c.09,0,.09.13,0,.2l-1.07.63a.48.48,0,0,1-.37,0l-1.13-.66c-.09,0-.08-.15,0-.2l1.08-.63A.38.38,0,0,1,305,157.34Z"/><path class="cls-13" d="M303.4,156.42l1.16.61c.09,0,.08.14,0,.21l-1.08.62a.4.4,0,0,1-.37,0l-1.13-.65c-.08,0-.08-.15,0-.21l1.08-.62A.37.37,0,0,1,303.4,156.42Z"/><path class="cls-13" d="M301.83,155.49l1.13.66c.1,0,.08.13,0,.2l-1.13.68a.43.43,0,0,1-.35,0l-1.13-.65c-.1,0-.08-.15,0-.21l1.09-.62A.35.35,0,0,1,301.83,155.49Z"/><path class="cls-13" d="M300.18,154.57l1.13.65c.1,0,.09.14,0,.2l-1.07.63a.45.45,0,0,1-.36,0l-1.13-.65c-.09,0-.08-.15,0-.21l1.08-.62A.36.36,0,0,1,300.18,154.57Z"/><path class="cls-13" d="M319.41,165.66l1.91,1.11c.09,0,.08.13,0,.2l-1.08.63a.43.43,0,0,1-.35,0L318,166.49c-.09,0-.08-.15,0-.2l1.08-.63A.43.43,0,0,1,319.41,165.66Z"/><path class="cls-13" d="M297.13,154.48l1.13.66a.4.4,0,0,0,.34,0l1.13-.66a.11.11,0,0,0,.07-.14.11.11,0,0,0-.07-.06h-.09a.11.11,0,0,1,0-.15.08.08,0,0,1,0,0l1.21-.69a.11.11,0,0,0,0-.15.1.1,0,0,0,0-.05l-.72-.4a.34.34,0,0,0-.34,0l-1.13.65-.23.12-.17.11-.17.1-1,.55C297,154.31,297,154.43,297.13,154.48Z"/><path class="cls-13" d="M324.83,163.42l1.14.65c.09,0,.07.15,0,.21l-1.08.62a.38.38,0,0,1-.36,0l-1.13-.65c-.09,0-.08-.15,0-.21l1.08-.62A.36.36,0,0,1,324.83,163.42Z"/><path class="cls-13" d="M323.24,162.48l1.13.65c.09,0,.08.15,0,.22l-1.08.61a.36.36,0,0,1-.35,0l-1.13-.64c-.1,0-.08-.15,0-.22l1.07-.61A.41.41,0,0,1,323.24,162.48Z"/><path class="cls-13" d="M321.64,161.58l1.13.65c.1,0,.09.14,0,.21l-1.07.62a.4.4,0,0,1-.37,0l-1.13-.65c-.08,0-.07-.15,0-.2l1.09-.63A.36.36,0,0,1,321.64,161.58Z"/><path class="cls-13" d="M308.05,153.72l1.14.66c.09,0,.08.15,0,.21l-1.08.62a.4.4,0,0,1-.37,0l-1.13-.66c-.09,0-.08-.13,0-.2l1.08-.63A.45.45,0,0,1,308.05,153.72Z"/><path class="cls-13" d="M306.46,152.81l1.13.65c.08,0,.08.14,0,.21l-1.09.62a.36.36,0,0,1-.35,0l-1.13-.65c-.1,0-.08-.15,0-.2l1.07-.63A.4.4,0,0,1,306.46,152.81Z"/><path class="cls-13" d="M304.85,151.88l1.13.66c.1,0,.09.15,0,.2l-1.07.63a.36.36,0,0,1-.35,0l-1.14-.66c-.09,0-.08-.15,0-.2l1.08-.63A.43.43,0,0,1,304.85,151.88Z"/><path class="cls-13" d="M303.26,151l1.13.65c.1,0,.08.15,0,.22l-1.07.61a.38.38,0,0,1-.36,0l-1.13-.65c-.09,0-.08-.14,0-.21l1.09-.62A.4.4,0,0,1,303.26,151Z"/><path class="cls-13" d="M319.64,160.42l1.54.89c.1,0,.08.15,0,.2l-1.07.63a.4.4,0,0,1-.37,0l-1.57-.87c-.09,0-.08-.15,0-.22l1.08-.61A.39.39,0,0,1,319.64,160.42Z"/><path class="cls-13" d="M309.65,154.65l1.54.88c.09,0,.08.15,0,.22l-1.08.61a.36.36,0,0,1-.35,0l-1.56-.9c-.08,0-.08-.14,0-.2l1.09-.63A.41.41,0,0,1,309.65,154.65Z"/><path class="cls-13" d="M311.65,155.81l7.52,4.34c.09,0,.08.15,0,.2l-1.09.63a.45.45,0,0,1-.36,0l-7.51-4.34c-.1,0-.09-.14,0-.21l1.07-.62A.4.4,0,0,1,311.65,155.81Z"/><path class="cls-13" d="M318.93,163.59l1.14.66c.09,0,.08.13,0,.2l-1.08.63a.48.48,0,0,1-.37,0l-1.13-.66c-.09,0-.08-.14,0-.2l1.08-.63A.38.38,0,0,1,318.93,163.59Z"/><path class="cls-13" d="M317.33,162.67l1.13.65c.09,0,.08.15,0,.21l-1.08.62a.36.36,0,0,1-.35,0l-1.13-.65c-.1,0-.08-.15,0-.21l1.07-.62A.38.38,0,0,1,317.33,162.67Z"/><path class="cls-13" d="M315.73,161.74l1.14.66c.09,0,.08.15,0,.2l-1.08.63a.4.4,0,0,1-.37,0l-1.13-.66c-.09,0-.08-.13,0-.2l1.08-.63A.45.45,0,0,1,315.73,161.74Z"/><path class="cls-13" d="M314.09,160.82l1.13.65c.09,0,.08.15,0,.22l-1.09.61a.38.38,0,0,1-.36,0l-1.13-.64c-.09,0-.08-.15,0-.22l1.08-.62A.4.4,0,0,1,314.09,160.82Z"/><path class="cls-13" d="M312.53,159.9l1.14.66c.09,0,.08.13,0,.2l-1.08.63a.48.48,0,0,1-.37,0l-1.13-.66c-.08,0-.08-.15,0-.21l1.09-.62A.36.36,0,0,1,312.53,159.9Z"/><path class="cls-13" d="M310.94,159l1.13.65c.08,0,.08.15,0,.21l-1.09.62a.36.36,0,0,1-.35,0l-1.13-.65c-.1,0-.08-.15,0-.21l1.07-.62A.4.4,0,0,1,310.94,159Z"/><path class="cls-13" d="M309.33,158.05l1.13.66c.1,0,.09.15,0,.2l-1.07.63a.43.43,0,0,1-.35,0l-1.14-.66c-.09,0-.08-.15,0-.2l1.09-.63A.4.4,0,0,1,309.33,158.05Z"/><path class="cls-13" d="M307.74,157.13l1.13.65c.1,0,.08.15,0,.2l-1.07.63a.4.4,0,0,1-.37,0L306.3,158c-.1,0-.08-.14,0-.21l1.07-.62A.4.4,0,0,1,307.74,157.13Z"/><path class="cls-13" d="M306.13,156.2l1.13.65c.1,0,.09.15,0,.22l-1.07.61a.32.32,0,0,1-.35,0L304.7,157c-.09,0-.08-.15,0-.21l1.08-.62A.43.43,0,0,1,306.13,156.2Z"/><path class="cls-13" d="M304.56,155.29l1.13.65c.09,0,.08.14,0,.21l-1.08.62a.4.4,0,0,1-.37,0l-1.13-.65c-.08,0-.08-.15,0-.22l1.08-.61A.4.4,0,0,1,304.56,155.29Z"/><path class="cls-13" d="M302.93,154.31l1.13.65c.1,0,.09.15,0,.21l-1.08.62a.38.38,0,0,1-.36,0l-1.13-.65c-.09,0-.08-.15,0-.21l1.08-.62A.33.33,0,0,1,302.93,154.31Z"/><path class="cls-13" d="M301.34,153.44l1.13.65c.1,0,.08.15,0,.2l-1.07.63a.4.4,0,0,1-.37,0l-1.13-.65c-.08,0-.07-.15,0-.21l1.09-.62A.36.36,0,0,1,301.34,153.44Z"/><path class="cls-13" d="M320.53,164.52l2.34,1.36c.1,0,.08.14,0,.21l-1.08.62a.38.38,0,0,1-.36,0l-2.33-1.36c-.1,0-.08-.15,0-.22l1.09-.61A.34.34,0,0,1,320.53,164.52Z"/><path class="cls-13" d="M321.28,163.16l1.13.65c.09,0,.08.14,0,.21l-1.08.62a.4.4,0,0,1-.37,0l-1.13-.65c-.08,0-.08-.15,0-.21l1.08-.62A.4.4,0,0,1,321.28,163.16Z"/><path class="cls-13" d="M319.68,162.23l1.13.66c.09,0,.07.15,0,.2l-1.09.63a.43.43,0,0,1-.35,0l-1.13-.66c-.09,0-.08-.15,0-.2l1.08-.63A.38.38,0,0,1,319.68,162.23Z"/><path class="cls-13" d="M318.08,161.31l1.13.65c.09,0,.08.15,0,.2l-1.08.63a.36.36,0,0,1-.35,0l-1.13-.65c-.1,0-.08-.15,0-.21l1.09-.62A.4.4,0,0,1,318.08,161.31Z"/><path class="cls-13" d="M316.48,160.38l1.13.65c.1,0,.09.15,0,.22l-1.07.61a.35.35,0,0,1-.37,0l-1.13-.65c-.09,0-.08-.13,0-.2l1.08-.63A.45.45,0,0,1,316.48,160.38Z"/><path class="cls-13" d="M314.88,159.47l1.13.64c.09,0,.08.15,0,.22l-1.08.61a.43.43,0,0,1-.35,0l-1.13-.65c-.1,0-.08-.15,0-.22l1.07-.62A.38.38,0,0,1,314.88,159.47Z"/><path class="cls-13" d="M313.28,158.54l1.13.66c.1,0,.09.13,0,.2l-1.07.63a.48.48,0,0,1-.37,0l-1.13-.66c-.08,0-.08-.15,0-.2l1.08-.63A.38.38,0,0,1,313.28,158.54Z"/><path class="cls-13" d="M311.68,157.62l1.14.65c.08,0,.07.15,0,.2l-1.09.63a.43.43,0,0,1-.35,0l-1.13-.65c-.1,0-.08-.15,0-.21l1.07-.62A.38.38,0,0,1,311.68,157.62Z"/><path class="cls-13" d="M310.08,156.69l1.13.65c.1,0,.09.15,0,.21l-1.07.62a.33.33,0,0,1-.36,0l-1.13-.65c-.09,0-.08-.14,0-.2l1.09-.63A.4.4,0,0,1,310.08,156.69Z"/><path class="cls-13" d="M308.49,155.76l1.13.66c.1,0,.08.15,0,.22l-1.07.61a.4.4,0,0,1-.37,0l-1.13-.65c-.1,0-.08-.14,0-.21l1.07-.63A.48.48,0,0,1,308.49,155.76Z"/><path class="cls-13" d="M306.88,154.85l1.13.66c.1,0,.09.13,0,.2l-1.07.63a.45.45,0,0,1-.36,0l-1.13-.66c-.09,0-.08-.15,0-.22l1.08-.61A.36.36,0,0,1,306.88,154.85Z"/><path class="cls-13" d="M305.29,153.93l1.13.65c.1,0,.08.15,0,.2l-1.08.63a.45.45,0,0,1-.36,0l-1.13-.65c-.08,0-.08-.15,0-.21l1.07-.62A.4.4,0,0,1,305.29,153.93Z"/><path class="cls-13" d="M301.71,151.86l3.12,1.79c.08,0,.07.15,0,.21l-1.09.62a.33.33,0,0,1-.36,0l-3.1-1.79c-.1,0-.08-.14,0-.21l1.09-.62A.4.4,0,0,1,301.71,151.86Z"/><path class="cls-13" d="M322.87,164.07l1.55.9c.08,0,0,.15,0,.2l-1.09.63a.43.43,0,0,1-.35,0l-1.54-.88c-.09,0-.08-.15,0-.22l1.08-.62A.43.43,0,0,1,322.87,164.07Z"/><path class="cls-13" d="M295.45,155.48l22.72,13.1c.1,0,.08.15,0,.22l-.54.3a.38.38,0,0,1-.36,0L294.56,156c-.08,0,0-.15,0-.21l.54-.31A.36.36,0,0,1,295.45,155.48Z"/><polygon id="_Контур_9-2" data-name=" Контур 9" class="cls-12" points="322.31 156.34 322.16 156.42 318.25 158.68 311.31 154.66 311.16 154.58 315.22 152.24 322.31 156.34"/><polygon id="_Контур_10-2" data-name=" Контур 10" class="cls-10" points="322.16 156.42 318.25 158.68 311.31 154.66 315.22 152.4 322.16 156.42"/><path id="_Контур_11-2" data-name=" Контур 11" class="cls-10" d="M333.46,161.61V162a1.41,1.41,0,0,1-.7,1.24L319,171.14a1.37,1.37,0,0,1-1.36,0l-25-14.4a1.37,1.37,0,0,1-.72-1.23v-.34l26.36,15.21Z"/><path id="_Контур_12-2" data-name=" Контур 12" class="cls-10" d="M318.25,170.38v1a1.44,1.44,0,0,1-.7-.19l-24.94-14.4a1.37,1.37,0,0,1-.72-1.23v-.34Z"/><path id="_Контур_13-2" data-name=" Контур 13" class="cls-11" d="M317.86,170.65a1.74,1.74,0,0,1-1.46-.11l-24.84-14.39a1.69,1.69,0,0,1-.81-1.19L288,138.76v-.28a1.63,1.63,0,0,1,.51-1.19l25.79,14.89a1.27,1.27,0,0,1,.61.87Z"/><path id="_Контур_14-2" data-name=" Контур 14" class="cls-10" d="M318.25,170.39l-.16.09-.23.11-2.94-17.54a1.27,1.27,0,0,0-.61-.87l-25.8-14.89a2.2,2.2,0,0,1,.34-.28l25.88,15a1.37,1.37,0,0,1,.61.89Z"/></g></g></g></svg>