<svg id="Capa_1" data-name="Capa 1" xmlns="http://www.w3.org/2000/svg" xmlns:xlink="http://www.w3.org/1999/xlink" viewBox="0 0 428 428"><defs><style>.cls-1{fill:#211b49;}.cls-2{fill:#b1b4c4;}.cls-3{fill:#e4e7f2;}.cls-4,.cls-7{fill:#d6d8e5;}.cls-5{fill:#fff;}.cls-6,.cls-7{isolation:isolate;}.cls-6{opacity:0.5;fill:url(#Degradado_sin_nombre);}.cls-7{opacity:0.4;}.cls-8{fill:#2b303f;}.cls-9{fill:#c3c6d1;}.cls-10{fill:#e9eaf2;}.cls-11{fill:#8c50ff;}.cls-12{fill:url(#Degradado_sin_nombre_2);}.cls-13{fill:none;stroke:#cccedd;stroke-miterlimit:10;stroke-width:1.06px;}.cls-14{fill:#2e245b;}.cls-15{fill:#a298e2;}.cls-16{fill:#c33afc;}.cls-17{fill:#f4ce2c;}.cls-18{fill:#ff8657;}.cls-19{fill:#4d3bff;}.cls-20{fill:#b1b6c4;}.cls-21{fill:#c4c7d6;}.cls-22{fill:#38226d;}.cls-23{fill:#9c73ff;}.cls-24{fill:#ffcea9;}.cls-25{fill:#ededed;}.cls-26{fill:#e5e5e5;}.cls-27{fill:#f4f4f4;}.cls-28{fill:#bfbfbf;}.cls-29{fill:#3a2c6d;}.cls-30{fill:#dceeff;}.cls-31{fill:#dbdbdb;}.cls-32{fill:#1e3779;}.cls-33{fill:#031f60;}</style><linearGradient id="Degradado_sin_nombre" x1="-258.74" y1="-1893.55" x2="-258.74" y2="-1746.04" gradientTransform="matrix(0.87, 0.5, 0, -1.15, 516.41, -1811.81)" gradientUnits="userSpaceOnUse"><stop offset="0.21" stop-color="#fff" stop-opacity="0"/><stop offset="1" stop-color="#fff" stop-opacity="0.2"/></linearGradient><linearGradient id="Degradado_sin_nombre_2" x1="238.82" y1="8.46" x2="238.82" y2="-31.4" gradientTransform="matrix(0.87, 0.5, 0, -1.15, 100.77, 81.89)" gradientUnits="userSpaceOnUse"><stop offset="0" stop-color="#e9eaf2" stop-opacity="0.8"/><stop offset="1" stop-color="#e9eaf2" stop-opacity="0"/></linearGradient></defs><polygon class="cls-1" points="415.33 256.73 417.85 255.49 416.15 252.14 415.33 256.73"/><g id="Laptop"><path class="cls-2" d="M404.1,319.83,183.57,192.5c-3.09-1.77-5.6-6.58-5.6-10.7V11.19c0-4.13,2.51-6,5.6-4.23L404.1,134.29c3.09,1.77,5.6,6.58,5.6,10.7V315.6C409.73,319.73,407.23,321.62,404.1,319.83Z"/><polygon class="cls-2" points="405.27 321.6 407.71 320.19 406.65 312.95 405.27 321.6"/><path class="cls-2" d="M177.58,8l2.4-1.4,3.46,2s-3.69.55-3.77.54S177.58,8,177.58,8Z"/><path class="cls-3" d="M402.11,321,181.55,193.67c-3.09-1.77-5.6-6.58-5.6-10.71V12.4c0-4.13,2.51-6,5.6-4.24L402.11,135.5c3.1,1.77,5.6,6.58,5.6,10.71V316.77C407.71,320.89,405.21,322.81,402.11,321Z"/><path class="cls-4" d="M401.72,321.23,181.17,193.89c-3.1-1.76-5.61-6.58-5.61-10.71V12.57c0-4.12,2.51-6,5.61-4.23L401.72,135.68c3.09,1.76,5.6,6.58,5.6,10.7V317C407.32,321.12,404.81,323,401.72,321.23Z"/><path class="cls-5" d="M404.29,310.85,178.34,180.41l.14-167.13c0-1.71,1.2-2.41,2.64-1.55L401.68,139.06a6,6,0,0,1,2.65,4.65Z"/><path class="cls-6" d="M404.22,310.86,178.34,180.42l.07-167.14c0-1.71,1.2-2.41,2.65-1.55L401.62,139.06a5.93,5.93,0,0,1,2.64,4.65Z"/><path class="cls-7" d="M235.37,420.37,14.81,293c-3.09-1.77-2.7-4.91.89-7l147.75-85.31c3.53-2.05,9-2.28,12.06-.49L396.08,327.59c3.09,1.77,2.7,4.91-.88,7L247.44,419.87C243.87,421.93,238.46,422.16,235.37,420.37Z"/><path class="cls-2" d="M240.19,417.47,19.61,290.18c-3.09-1.77-2.71-4.91.88-7l147.76-85.3c3.52-2.06,9-2.29,12.07-.5L400.88,324.75c3.09,1.76,2.71,4.9-.88,7L252.26,417C248.69,419,243.28,419.26,240.19,417.47Z"/><polygon class="cls-2" points="17.54 287.26 17.54 283.1 22.21 285.05 17.54 287.26"/><polygon class="cls-2" points="402.97 327.81 402.97 323.75 399.51 324.94 401.8 328.31 402.97 327.81"/><path class="cls-3" d="M240.19,414,19.61,286.65c-3.09-1.76-2.71-4.9.88-7l147.76-85.31c3.52-2.06,9-2.28,12.07-.49L400.88,321.22c3.09,1.76,2.71,4.9-.88,7L252.26,413.47C248.69,415.53,243.28,415.76,240.19,414Z"/><path class="cls-4" d="M240.19,413.43,19.61,286.1c-3.09-1.77-2.71-4.92.88-7l147.76-85.31c3.52-2.06,9-2.29,12.07-.5L400.88,320.66c3.09,1.77,2.71,4.91-.88,7l-147.74,85.3C248.69,415,243.28,415.22,240.19,413.43Z"/><path class="cls-8" d="M164.15,222.59l-10.26-5.92c-.88-.49-.73-1.33.23-1.89l9.81-5.66a3.6,3.6,0,0,1,3.26-.13l10.27,5.92c.84.49.73,1.33-.24,1.89l-9.79,5.66A3.65,3.65,0,0,1,164.15,222.59Z"/><path class="cls-8" d="M178.7,231l-10.28-5.94c-.83-.47-.73-1.32.24-1.88l9.8-5.66a3.66,3.66,0,0,1,3.27-.13L192,223.31c.89.48.74,1.33-.22,1.88L182,230.85A3.61,3.61,0,0,1,178.7,231Z"/><path class="cls-8" d="M193.4,239.48l-10.27-5.93c-.88-.49-.73-1.34.23-1.89l9.81-5.65a3.6,3.6,0,0,1,3.26-.15l10.27,5.94c.89.48.74,1.32-.23,1.89l-9.8,5.65A3.66,3.66,0,0,1,193.4,239.48Z"/><path class="cls-8" d="M207.77,247.77l-10.27-5.93c-.84-.48-.73-1.33.24-1.88l9.79-5.66a3.66,3.66,0,0,1,3.27-.14l10.28,5.93c.84.48.73,1.33-.24,1.89l-9.8,5.66A3.63,3.63,0,0,1,207.77,247.77Z"/><path class="cls-8" d="M222.31,256.17,212,250.24c-.88-.49-.73-1.33.24-1.89l9.79-5.66a3.65,3.65,0,0,1,3.28-.13l10.26,5.92c.84.49.73,1.34-.24,1.89L225.58,256A3.66,3.66,0,0,1,222.31,256.17Z"/><path class="cls-8" d="M236.85,264.6l-10.27-5.92c-.84-.49-.74-1.33.23-1.89l9.8-5.66a3.63,3.63,0,0,1,3.27-.13l10.27,5.92c.84.49.73,1.34-.24,1.89l-9.79,5.66A3.63,3.63,0,0,1,236.85,264.6Z"/><path class="cls-8" d="M251.39,273,241.11,267c-.83-.49-.73-1.33.24-1.89l9.8-5.66a3.63,3.63,0,0,1,3.27-.13l10.27,5.92c.83.49.73,1.34-.23,1.89l-9.81,5.65A3.61,3.61,0,0,1,251.39,273Z"/><path class="cls-8" d="M265.92,281.36l-10.26-5.94c-.84-.48-.74-1.32.22-1.88l9.81-5.66a3.64,3.64,0,0,1,3.26-.14l10.28,5.94c.88.48.73,1.32-.24,1.89l-9.82,5.64A3.61,3.61,0,0,1,265.92,281.36Z"/><path class="cls-8" d="M280.46,289.74l-10.27-5.93c-.84-.48-.73-1.33.24-1.89l9.79-5.65a3.61,3.61,0,0,1,3.28-.14l10.26,5.93c.84.48.73,1.33-.23,1.89l-9.8,5.65A3.66,3.66,0,0,1,280.46,289.74Z"/><path class="cls-8" d="M295,298.11l-10.26-5.92c-.84-.49-.73-1.33.23-1.89l9.79-5.64a3.6,3.6,0,0,1,3.26-.13l10.27,5.92c.84.49.74,1.33-.23,1.89L298.28,298A3.64,3.64,0,0,1,295,298.11Z"/><path class="cls-8" d="M309.54,306.53l-10.28-5.93c-.84-.48-.73-1.33.24-1.89l9.8-5.66a3.63,3.63,0,0,1,3.27-.13l10.27,5.93c.84.48.74,1.33-.23,1.88l-9.8,5.67A3.69,3.69,0,0,1,309.54,306.53Z"/><path class="cls-8" d="M324.08,314.92,313.8,309c-.83-.49-.73-1.34.24-1.89l9.81-5.66a3.63,3.63,0,0,1,3.27-.13l10.26,5.92c.89.49.74,1.33-.23,1.89l-9.77,5.66A3.63,3.63,0,0,1,324.08,314.92Z"/><path class="cls-8" d="M338.61,323.32l-10.26-5.94c-.89-.48-.74-1.32.23-1.88l9.79-5.66a3.66,3.66,0,0,1,3.27-.14l10.28,5.94c.84.48.73,1.32-.24,1.88l-9.8,5.66A3.62,3.62,0,0,1,338.61,323.32Z"/><path class="cls-8" d="M360.15,335.75l-17.27-10c-.84-.49-.73-1.33.24-1.89l9.83-5.65a3.6,3.6,0,0,1,3.27-.14l17.23,10c.84.48.73,1.33-.23,1.88l-9.8,5.67A3.62,3.62,0,0,1,360.15,335.75Z"/><path class="cls-8" d="M171.63,243.18l-10.27-5.91c-.88-.49-.73-1.33.24-1.89l9.79-5.66a3.65,3.65,0,0,1,3.28-.13l10.26,5.91c.84.49.73,1.34-.23,1.89l-9.8,5.66A3.66,3.66,0,0,1,171.63,243.18Z"/><path class="cls-8" d="M186.19,251.59l-10.26-5.93c-.84-.48-.73-1.33.23-1.88l9.8-5.63a3.63,3.63,0,0,1,3.27-.13l10.28,5.89c.84.48.73,1.33-.24,1.88l-9.8,5.67A3.65,3.65,0,0,1,186.19,251.59Z"/><path class="cls-8" d="M200.76,260l-10.27-5.92c-.88-.49-.74-1.34.24-1.89l9.79-5.66a3.63,3.63,0,0,1,3.27-.13l10.27,5.92c.84.49.73,1.33-.23,1.89L204,259.86A3.6,3.6,0,0,1,200.76,260Z"/><path class="cls-8" d="M215.32,268.41l-10.27-5.94c-.84-.48-.74-1.32.23-1.89l9.8-5.68a3.66,3.66,0,0,1,3.27-.14l10.26,6c.84.49.73,1.33-.24,1.89l-9.8,5.65A3.61,3.61,0,0,1,215.32,268.41Z"/><path class="cls-8" d="M229.76,276.75l-10.26-6c-.84-.49-.73-1.33.23-1.89l9.81-5.65a3.57,3.57,0,0,1,3.26-.14L243.07,269c.88.48.73,1.32-.24,1.89L233,276.61A3.67,3.67,0,0,1,229.76,276.75Z"/><path class="cls-8" d="M244.33,285.15l-10.27-5.92c-.84-.49-.73-1.34.24-1.89l9.79-5.68a3.65,3.65,0,0,1,3.28-.13l10.26,5.92c.84.49.73,1.33-.23,1.89L247.6,285A3.63,3.63,0,0,1,244.33,285.15Z"/><path class="cls-8" d="M258.89,293.56l-10.27-5.93c-.84-.49-.73-1.33.24-1.89l9.79-5.65a3.61,3.61,0,0,1,3.28-.14l10.27,5.93c.84.48.73,1.33-.24,1.89l-9.8,5.65A3.66,3.66,0,0,1,258.89,293.56Z"/><path class="cls-8" d="M273.45,302,263.19,296c-.84-.48-.74-1.33.23-1.88l9.8-5.67a3.64,3.64,0,0,1,3.26-.13l10.28,5.93c.84.48.73,1.33-.24,1.88l-9.8,5.67A3.66,3.66,0,0,1,273.45,302Z"/><path class="cls-8" d="M288,310.37l-10.27-5.92c-.89-.49-.74-1.34.23-1.89l9.8-5.66a3.63,3.63,0,0,1,3.27-.13l10.27,5.92c.84.49.74,1.33-.23,1.89l-9.8,5.66A3.63,3.63,0,0,1,288,310.37Z"/><path class="cls-8" d="M302.58,318.79l-10.27-5.94c-.83-.48-.73-1.32.23-1.89l9.81-5.65a3.64,3.64,0,0,1,3.26-.14l10.3,5.93c.84.49.73,1.34-.24,1.89l-9.79,5.65A3.63,3.63,0,0,1,302.58,318.79Z"/><path class="cls-8" d="M317.15,327.22l-10.28-5.93c-.83-.49-.73-1.33.24-1.89l9.8-5.66a3.63,3.63,0,0,1,3.27-.13l10.26,5.92c.84.49.74,1.34-.22,1.89l-9.81,5.66A3.64,3.64,0,0,1,317.15,327.22Z"/><path class="cls-8" d="M331.71,335.6l-10.27-5.93c-.84-.49-.74-1.33.23-1.89l9.8-5.65a3.59,3.59,0,0,1,3.27-.14L345,327.92c.84.49.73,1.32-.24,1.89L335,335.46A3.6,3.6,0,0,1,331.71,335.6Z"/><path class="cls-8" d="M157.06,234.77l-17.26-10c-.84-.49-.73-1.32.23-1.89l9.8-5.65a3.6,3.6,0,0,1,3.27-.14l17.31,10c.84.49.73,1.33-.24,1.89l-9.83,5.64A3.65,3.65,0,0,1,157.06,234.77Z"/><path class="cls-8" d="M359.45,336.29l-10.27-5.93a3.35,3.35,0,0,0-3.05,0l-10.35,6c-.88.49-.88,1.27,0,1.77l.82.47a.86.86,0,0,1,0,1.63l-11,6.31c-.88.49-.88,1.28,0,1.76l6.54,3.78a3.39,3.39,0,0,0,3,0l10.25-5.91,2.11-1.23,1.53-.88,1.53-.88,8.82-5.09C360.29,337.56,360.29,336.77,359.45,336.29Z"/><path class="cls-8" d="M107.85,255.17l-10.27-5.93c-.88-.48-.73-1.33.23-1.88l9.81-5.68a3.64,3.64,0,0,1,3.26-.14l10.28,5.93c.83.49.73,1.33-.24,1.89l-9.8,5.66A3.66,3.66,0,0,1,107.85,255.17Z"/><path class="cls-8" d="M122.35,263.54l-10.27-5.93c-.88-.48-.73-1.33.23-1.89l9.81-5.66a3.6,3.6,0,0,1,3.26-.13l10.27,5.93c.84.48.74,1.33-.23,1.88l-9.8,5.67A3.69,3.69,0,0,1,122.35,263.54Z"/><path class="cls-8" d="M136.84,271.91,126.58,266c-.88-.48-.74-1.33.23-1.89l9.8-5.66a3.62,3.62,0,0,1,3.27-.13l10.24,5.93c.84.48.74,1.33-.23,1.88l-9.8,5.66A3.68,3.68,0,0,1,136.84,271.91Z"/><path class="cls-8" d="M260.3,343.19,250,337.25c-.88-.48-.73-1.32.24-1.89l9.79-5.65a3.68,3.68,0,0,1,3.28-.14l10.24,5.93c.89.49.74,1.33-.23,1.89l-9.78,5.7A3.62,3.62,0,0,1,260.3,343.19Z"/><path class="cls-8" d="M274.79,351.55l-10.26-5.92c-.89-.49-.74-1.33.23-1.89l9.8-5.66a3.63,3.63,0,0,1,3.27-.13l10.27,5.92c.88.49.73,1.34-.24,1.89l-9.8,5.66A3.62,3.62,0,0,1,274.79,351.55Z"/><path class="cls-8" d="M289.29,359.92,279,354c-.83-.49-.73-1.33.23-1.89l9.81-5.66a3.6,3.6,0,0,1,3.26-.13l10.28,5.92c.88.49.73,1.33-.24,1.89l-9.8,5.66A3.63,3.63,0,0,1,289.29,359.92Z"/><path class="cls-8" d="M303.79,368.29l-10.27-5.92c-.84-.49-.73-1.34.23-1.89l9.82-5.66a3.6,3.6,0,0,1,3.26-.13l10.27,5.92c.88.49.73,1.33-.24,1.89l-9.77,5.66A3.63,3.63,0,0,1,303.79,368.29Z"/><path class="cls-8" d="M155.07,282.44l-14-8.09c-.84-.49-.73-1.33.24-1.89l9.79-5.66a3.65,3.65,0,0,1,3.28-.13l14,8.08c.88.49.73,1.33-.24,1.89l-9.8,5.65A3.63,3.63,0,0,1,155.07,282.44Z"/><path class="cls-8" d="M245.81,334.82l-14-8.09c-.88-.48-.73-1.33.23-1.89l9.81-5.66a3.6,3.6,0,0,1,3.26-.13l14,8.09c.84.48.74,1.32-.23,1.88l-9.8,5.66A3.64,3.64,0,0,1,245.81,334.82Z"/><path class="cls-8" d="M227.57,324.29l-68.27-39.4c-.83-.49-.73-1.33.23-1.89l9.81-5.66a3.61,3.61,0,0,1,3.26-.13l68.28,39.42c.83.49.73,1.33-.24,1.89l-9.8,5.66A3.66,3.66,0,0,1,227.57,324.29Z"/><path class="cls-8" d="M161.49,253.6l-10.26-5.93c-.84-.48-.73-1.33.24-1.88l9.79-5.67a3.66,3.66,0,0,1,3.27-.13l10.29,5.93c.88.48.73,1.33-.24,1.89l-9.8,5.66A3.67,3.67,0,0,1,161.49,253.6Z"/><path class="cls-8" d="M176,262,165.75,256c-.84-.48-.73-1.32.23-1.88l9.81-5.66a3.64,3.64,0,0,1,3.26-.14l10.27,5.94c.88.48.73,1.32-.24,1.89l-9.79,5.65A3.63,3.63,0,0,1,176,262Z"/><path class="cls-8" d="M190.54,270.36l-10.27-5.92c-.89-.49-.74-1.33.23-1.89l9.8-5.66a3.63,3.63,0,0,1,3.27-.13l10.27,5.92c.88.49.74,1.33-.23,1.89l-9.8,5.66A3.63,3.63,0,0,1,190.54,270.36Z"/><path class="cls-8" d="M205.06,278.71l-10.27-5.92c-.88-.49-.73-1.33.24-1.89l9.77-5.63a3.69,3.69,0,0,1,3.27-.13l10.27,5.93c.88.48.73,1.33-.23,1.89l-9.78,5.66A3.65,3.65,0,0,1,205.06,278.71Z"/><path class="cls-8" d="M219.58,287.14l-10.27-5.93c-.88-.49-.73-1.33.23-1.89l9.81-5.66a3.6,3.6,0,0,1,3.26-.13l10.28,5.92c.88.49.73,1.34-.24,1.89l-9.8,5.66A3.66,3.66,0,0,1,219.58,287.14Z"/><path class="cls-8" d="M234.1,295.52l-10.26-5.93c-.88-.49-.74-1.33.23-1.89l9.83-5.65a3.6,3.6,0,0,1,3.27-.14l10.28,5.93c.83.49.73,1.32-.24,1.89l-9.8,5.65A3.62,3.62,0,0,1,234.1,295.52Z"/><path class="cls-8" d="M248.63,303.9,238.35,298c-.83-.48-.73-1.33.24-1.88l9.8-5.67a3.69,3.69,0,0,1,3.27-.13l10.27,5.93c.88.48.73,1.33-.23,1.89l-9.81,5.66A3.61,3.61,0,0,1,248.63,303.9Z"/><path class="cls-8" d="M263.15,312.29l-10.27-5.93c-.84-.49-.73-1.33.24-1.89l9.79-5.66a3.63,3.63,0,0,1,3.27-.13l10.27,5.92c.84.49.73,1.34-.24,1.89l-9.8,5.66A3.64,3.64,0,0,1,263.15,312.29Z"/><path class="cls-8" d="M277.67,320.67l-10.26-5.92c-.84-.49-.73-1.34.23-1.89l9.81-5.66a3.6,3.6,0,0,1,3.26-.13L291,313c.84.49.73,1.33-.24,1.89L281,320.54A3.65,3.65,0,0,1,277.67,320.67Z"/><path class="cls-8" d="M292.19,329.06l-10.27-5.94c-.84-.48-.74-1.32.23-1.88l9.8-5.66a3.66,3.66,0,0,1,3.27-.14l10.28,5.94c.84.47.73,1.32-.24,1.88l-9.8,5.66A3.66,3.66,0,0,1,292.19,329.06Z"/><path class="cls-8" d="M306.71,337.44l-10.27-5.93c-.84-.48-.73-1.33.24-1.89l9.8-5.66a3.62,3.62,0,0,1,3.27-.13L320,329.76c.88.48.73,1.33-.23,1.88L310,337.3A3.66,3.66,0,0,1,306.71,337.44Z"/><path class="cls-8" d="M321.2,345.82l-10.26-5.92c-.84-.49-.73-1.34.24-1.89l9.79-5.66a3.63,3.63,0,0,1,3.27-.13l10.27,5.92c.84.49.73,1.33-.24,1.89l-9.77,5.7A3.62,3.62,0,0,1,321.2,345.82Z"/><path class="cls-8" d="M147,245.2,125.73,233c-.88-.49-.73-1.34.24-1.89l9.8-5.66a3.63,3.63,0,0,1,3.27-.13l21.23,12.25c.89.49.74,1.33-.22,1.89l-9.81,5.66A3.61,3.61,0,0,1,147,245.2Z"/><path class="cls-8" d="M140.2,257.55l-10.27-5.91c-.84-.48-.74-1.32.23-1.89l9.8-5.65a3.59,3.59,0,0,1,3.27-.14l10.27,5.94c.84.47.73,1.32-.24,1.88l-9.79,5.65A3.63,3.63,0,0,1,140.2,257.55Z"/><path class="cls-8" d="M154.72,266,144.45,260c-.84-.49-.74-1.33.23-1.89l9.8-5.66a3.63,3.63,0,0,1,3.27-.13L168,258.27c.88.49.73,1.33-.23,1.89L158,265.82A3.6,3.6,0,0,1,154.72,266Z"/><path class="cls-8" d="M169.23,274.3l-10.29-5.89c-.88-.49-.73-1.33.24-1.89l9.8-5.65a3.63,3.63,0,0,1,3.27-.15l10.27,5.94c.89.48.74,1.32-.23,1.89l-9.8,5.65A3.6,3.6,0,0,1,169.23,274.3Z"/><path class="cls-8" d="M183.75,282.72l-10.27-5.93c-.88-.48-.73-1.33.24-1.89l9.8-5.66a3.61,3.61,0,0,1,3.26-.13L197.06,275c.83.48.73,1.33-.24,1.88l-9.8,5.67A3.69,3.69,0,0,1,183.75,282.72Z"/><path class="cls-8" d="M198.27,291.1,188,285.18c-.83-.49-.73-1.33.24-1.89l9.8-5.66a3.63,3.63,0,0,1,3.27-.13l10.27,5.92c.83.49.74,1.33-.23,1.89l-9.8,5.65A3.61,3.61,0,0,1,198.27,291.1Z"/><path class="cls-8" d="M212.79,299.48l-10.27-5.92c-.83-.49-.73-1.34.23-1.89l9.81-5.66a3.64,3.64,0,0,1,3.26-.14l10.28,5.93c.83.49.73,1.33-.24,1.89l-9.8,5.66A3.63,3.63,0,0,1,212.79,299.48Z"/><path class="cls-8" d="M227.31,307.87,217,301.94c-.84-.48-.73-1.33.24-1.89l9.79-5.66a3.65,3.65,0,0,1,3.28-.13l10.26,5.93c.84.48.73,1.33-.23,1.88l-9.8,5.67A3.66,3.66,0,0,1,227.31,307.87Z"/><path class="cls-8" d="M241.84,316.25l-10.27-5.93c-.84-.49-.73-1.32.23-1.89l9.81-5.65a3.57,3.57,0,0,1,3.26-.14l10.27,5.93c.84.48.74,1.33-.23,1.89l-9.8,5.65A3.6,3.6,0,0,1,241.84,316.25Z"/><path class="cls-8" d="M256.35,324.63l-10.27-5.92c-.84-.49-.73-1.34.24-1.89l9.79-5.66a3.68,3.68,0,0,1,3.28-.14L269.65,317c.84.49.73,1.33-.23,1.89l-9.81,5.66A3.6,3.6,0,0,1,256.35,324.63Z"/><path class="cls-8" d="M270.87,333l-10.27-5.94c-.84-.47-.73-1.32.23-1.88l9.81-5.66a3.64,3.64,0,0,1,3.26-.14l10.27,5.94c.83.48.73,1.32-.24,1.88l-9.8,5.66A3.64,3.64,0,0,1,270.87,333Z"/><path class="cls-8" d="M285.39,341.4l-10.27-5.93c-.84-.49-.73-1.33.24-1.89l9.79-5.66a3.63,3.63,0,0,1,3.27-.13l10.27,5.92c.84.49.73,1.34-.23,1.89l-9.81,5.66A3.64,3.64,0,0,1,285.39,341.4Z"/><path class="cls-8" d="M317.88,360.16l-28.22-16.3c-.84-.49-.74-1.34.23-1.89l9.8-5.66a3.62,3.62,0,0,1,3.27-.13l28.22,16.3c.83.48.73,1.32-.24,1.89l-9.8,5.65A3.64,3.64,0,0,1,317.88,360.16Z"/><path class="cls-8" d="M125.68,249.19l-14-8.09c-.89-.48-.74-1.33.23-1.88l9.8-5.66a3.61,3.61,0,0,1,3.26-.14l14,8.09c.84.48.73,1.33-.23,1.89L129,249.06A3.65,3.65,0,0,1,125.68,249.19Z"/><path class="cls-8" d="M374.74,327.33l-206.21-119c-.88-.48-.73-1.32.24-1.89l4.9-2.82a3.64,3.64,0,0,1,3.26-.14L383.14,322.48c.84.49.74,1.32-.23,1.89l-4.9,2.85A3.66,3.66,0,0,1,374.74,327.33Z"/><path class="cls-2" d="M247,340.87a3.16,3.16,0,0,1-1.43,1.48l-56.74,32.76a7,7,0,0,1-6.29.25l-97-56a2.15,2.15,0,0,1-1-1c-.36-.88.14-1.86,1.42-2.6L142.76,283a7,7,0,0,1,6.29-.26l97,56A1.73,1.73,0,0,1,247,340.87Z"/><path class="cls-9" d="M247,340.87a3.16,3.16,0,0,1-1.43,1.48l-56.74,32.76a7,7,0,0,1-6.29.25l-97-56a2.15,2.15,0,0,1-1-1A3.18,3.18,0,0,1,86,316.92l56.75-32.76a7,7,0,0,1,6.29-.26l97,56A2.12,2.12,0,0,1,247,340.87Z"/><path class="cls-8" d="M390.44,318.3l-206.21-119a3.66,3.66,0,0,1-1.48-2.9v-2.43c0-1.12.68-1.63,1.52-1.14l206.21,119a3.62,3.62,0,0,1,1.52,2.89v2.42C392,318.27,391.27,318.79,390.44,318.3Z"/><path class="cls-10" d="M215.38,187.5,195,175.76c-2.55-1.47-4.62-5.43-4.62-8.82V145.1c0-3.41,2.07-5,4.62-3.53l20.37,11.77c2.56,1.47,4.62,5.43,4.62,8.82V184C220,187.41,217.9,189,215.38,187.5Z"/><path class="cls-10" d="M215.3,137.47,195,125.73c-2.55-1.47-4.62-7.49-4.62-10.44V89.79c0-3.41,2.07-5,4.62-3.53L215.3,98c2.56,1.47,4.62,5.43,4.62,8.82v25.5C219.92,135.32,217.86,138.94,215.3,137.47Z"/><path class="cls-11" d="M205.25,120.43a16.63,16.63,0,0,1-7.51-13c0-4.78,3.37-6.72,7.51-4.33a16.64,16.64,0,0,1,7.51,13C212.76,120.87,209.39,122.82,205.25,120.43Zm0-15.12c-3.08-1.77-5.58-.33-5.58,3.23a12.36,12.36,0,0,0,5.58,9.7c3.09,1.76,5.59.33,5.59-3.22A12.32,12.32,0,0,0,205.25,105.31Z"/><polygon class="cls-11" points="207.31 116.89 203.91 111.48 203.91 106.97 205.83 108.08 205.83 111.59 208.58 115.95 207.31 116.89"/><path class="cls-10" d="M215.28,83.53,194.94,71.79c-2.55-1.48-4.62-8.11-4.62-11.07V37.25c0-3,2.07-4.15,4.62-2.65l20.34,11.75a10.21,10.21,0,0,1,4.62,8V77.83C219.9,80.75,217.83,85,215.28,83.53Z"/><path class="cls-11" d="M205.11,55.39c-1.23-.71-2.22-.14-2.22,1.28a4.91,4.91,0,0,0,2.22,3.84c1.22.71,2.22.13,2.22-1.28A4.91,4.91,0,0,0,205.11,55.39Zm5.92.88-1.77-1a1.49,1.49,0,0,1-.58-.83l-.46-1.86a1.52,1.52,0,0,0-.59-.82l-5-2.9A.37.37,0,0,0,202,49l-.46,1.33a.37.37,0,0,1-.49.2l-.09-.05-1.76-1c-.81-.47-1.48-.09-1.48.88V58a3.29,3.29,0,0,0,1.48,2.56l11.83,6.84c.81.46,1.48.08,1.48-.89V58.81a3.28,3.28,0,0,0-1.5-2.57Zm-5.92,6a8.23,8.23,0,0,1-3.7-6.41c0-2.36,1.66-3.31,3.7-2.13a8.13,8.13,0,0,1,3.69,6.4c0,2.33-1.65,3.29-3.69,2.11Zm5.39-3.38A1.13,1.13,0,0,1,210,58c0-.34.23-.47.51-.3a1.14,1.14,0,0,1,.53.88c0,.31-.23.44-.53.27Z"/><path class="cls-11" d="M211.53,166.15c0,4-6.24,9.14-6.24,9.14s-6.24-12.34-6.24-16.35,2.8-5.59,6.24-3.61A13.8,13.8,0,0,1,211.53,166.15Z"/><ellipse class="cls-10" cx="205.29" cy="162.27" rx="3.33" ry="5.77" transform="translate(-53.63 124.39) rotate(-30)"/><path class="cls-10" d="M359.24,219.63,236.12,148.54c-2.08-1.19-3.75-4.4-3.75-7.16V58.63c0-2.76,1.67-4,3.75-2.83l123.12,71.08c2.07,1.2,3.75,4.41,3.75,7.18v82.73C363,219.56,361.31,220.83,359.24,219.63Z"/><path class="cls-5" d="M345,159.48l-95.42-55.09c-2.31-1.34-4.19-4.92-4.19-8V90.16c0-3.09,1.88-4.5,4.19-3.17L345,142.08c2.31,1.33,4.18,4.91,4.18,8v6.23C349.19,159.4,347.32,160.81,345,159.48Z"/><path class="cls-11" d="M293.12,157.55l-43.53-25.13c-2.31-1.34-4.19-4.92-4.19-8v-6.2c0-3.09,1.88-4.5,4.19-3.17l43.53,25.13c2.31,1.34,4.18,4.92,4.18,8v6.19C297.3,157.46,295.43,158.88,293.12,157.55Z"/><path class="cls-12" d="M384.57,237.83s-46.41,10.23-83.93-31.45-68.13-36.33-68.13-36.33v26l152.06,87.79Z"/><path class="cls-13" d="M384.57,237.83s-46.41,10.23-83.93-31.45-68.13-36.33-68.13-36.33"/></g><path class="cls-1" d="M412.39,255l-73.66-42.53c-4.63-2.64-8.37-9.83-8.37-16V80.63c0-6.17,3.74-9,8.37-6.33l73.66,42.53c4.62,2.65,8.36,9.84,8.36,16v115.9C420.75,254.9,417,257.71,412.39,255Z"/><path class="cls-1" d="M331.73,74.63a14.26,14.26,0,0,1,2.33-1.12l1.87,3.69Z"/><path class="cls-14" d="M410.45,256l-73.66-42.55c-4.62-2.65-8.36-9.84-8.36-16V81.6c0-6.17,3.74-9,8.36-6.33l73.66,42.53c4.63,2.65,8.37,9.83,8.37,16V249.67C418.82,255.84,415.08,258.68,410.45,256Z"/><polygon class="cls-15" points="350.19 99.43 336.79 91.7 336.79 86.87 350.19 94.6 350.19 99.43"/><polygon class="cls-16" points="409.62 133.75 352.7 100.88 352.7 96.06 409.62 128.91 409.62 133.75"/><polygon class="cls-15" points="350.19 114.9 336.79 107.17 336.79 102.34 350.19 110.07 350.19 114.9"/><polygon class="cls-17" points="390.37 138.09 352.7 116.35 352.7 111.52 390.37 133.26 390.37 138.09"/><polygon class="cls-15" points="350.19 122.63 336.79 114.9 336.79 110.07 350.19 117.8 350.19 122.63"/><polygon class="cls-18" points="399.57 151.15 352.7 124.08 352.7 119.25 399.57 146.31 399.57 151.15"/><polygon class="cls-15" points="350.19 130.36 336.79 122.63 336.79 117.8 350.19 125.53 350.19 130.36"/><polygon class="cls-15" points="385.35 150.66 352.7 131.82 352.7 126.98 385.35 145.83 385.35 150.66"/><polygon class="cls-15" points="350.19 107.17 336.79 99.43 336.79 94.6 350.19 102.34 350.19 107.17"/><polygon class="cls-19" points="381.16 125.05 352.7 108.61 352.7 103.78 381.16 120.21 381.16 125.05"/><polygon class="cls-15" points="350.19 138.09 336.79 130.36 336.79 125.53 350.19 133.26 350.19 138.09"/><polygon class="cls-16" points="369.44 149.21 352.7 139.54 352.7 134.71 369.44 144.37 369.44 149.21"/><polygon class="cls-15" points="350.19 153.55 336.79 145.83 336.79 141 350.19 148.73 350.19 153.55"/><polygon class="cls-17" points="405.44 185.45 352.7 155.01 352.7 150.18 405.44 180.62 405.44 185.45"/><polygon class="cls-15" points="350.19 161.29 336.79 153.55 336.79 148.72 350.19 156.46 350.19 161.29"/><polygon class="cls-18" points="368.6 171.92 352.7 162.74 352.7 157.91 368.6 167.09 368.6 171.92"/><polygon class="cls-15" points="350.19 169.02 336.79 161.29 336.79 156.46 350.19 164.19 350.19 169.02"/><polygon class="cls-15" points="399.57 197.53 352.7 170.47 352.7 165.64 399.57 192.7 399.57 197.53"/><polygon class="cls-15" points="350.19 145.83 336.79 138.09 336.79 133.26 350.19 141 350.19 145.83"/><polygon class="cls-19" points="397.06 172.89 352.7 147.28 352.7 142.44 397.06 168.06 397.06 172.89"/><polygon class="cls-15" points="350.19 176.75 336.79 169.02 336.79 164.19 350.19 171.92 350.19 176.75"/><polygon class="cls-16" points="358.56 181.59 352.7 178.2 352.7 173.37 358.56 176.75 358.56 181.59"/><polygon class="cls-15" points="350.19 192.21 336.79 184.49 336.79 179.66 350.19 187.39 350.19 192.21"/><polygon class="cls-17" points="363.58 199.95 352.7 193.67 352.7 188.84 363.58 195.12 363.58 199.95"/><polygon class="cls-15" points="350.19 199.95 336.79 192.21 336.79 187.38 350.19 195.12 350.19 199.95"/><polygon class="cls-18" points="381.16 217.83 352.7 201.4 352.7 196.57 381.16 213 381.16 217.83"/><polygon class="cls-15" points="350.19 207.68 336.79 199.95 336.79 195.12 350.19 202.85 350.19 207.68"/><polygon class="cls-15" points="397.9 235.23 352.7 209.13 352.7 204.29 397.9 230.4 397.9 235.23"/><polygon class="cls-15" points="350.19 184.49 336.79 176.75 336.79 171.92 350.19 179.66 350.19 184.49"/><polygon class="cls-19" points="409.62 218.8 352.7 185.94 352.7 181.1 409.62 213.96 409.62 218.8"/><path class="cls-2" d="M39.12,167.55l-8-4.13-16.86,9.7c-3.82,2.21-6.92.42-6.92-4V150.77a15.35,15.35,0,0,1,6.92-12l100.37-58c3.81-2.2,6.92-.41,6.92,4v18.43a15.35,15.35,0,0,1-6.92,12L47.11,154.14"/><polygon class="cls-2" points="119 80.1 122.79 81.63 119.58 84.93 117.3 81.29 119 80.1"/><polygon class="cls-2" points="39.12 167.55 43.11 169.15 43.12 165.71 39.59 165.01 39.12 167.55"/><path class="cls-2" d="M14,175.54c.15.32-4.33-1.52-4.49-1.77s5.43-3.52,5.43-3.52Z"/><path class="cls-10" d="M51.1,155.74l67.48-38.95a15.32,15.32,0,0,0,6.92-12V86.41c0-4.41-3.1-6.17-6.92-4l-100.4,58a15.35,15.35,0,0,0-6.92,12v18.39c0,4.41,3.1,6.17,6.92,4L35,165l8.08,4.14Z"/><polygon class="cls-11" points="116.5 98.4 20.26 153.96 20.26 147.57 116.5 92 116.5 98.4"/><polygon class="cls-11" points="83.27 128.78 20.26 165.16 20.26 158.76 83.27 122.38 83.27 128.78"/><polygon class="cls-7" points="41.6 420.18 13.39 404.04 55.6 379.89 83.79 396.01 41.6 420.18"/><polygon class="cls-4" points="42.18 387.65 18.82 374.17 42.18 360.68 65.53 374.17 42.18 387.65"/><polygon class="cls-20" points="42.18 414.62 18.82 401.13 18.82 374.17 42.18 387.65 42.18 414.62"/><polygon class="cls-21" points="65.54 401.13 42.18 414.62 42.18 387.65 65.54 374.17 65.54 401.13"/><g id="Men_5" data-name="Men 5"><path class="cls-22" d="M73.57,392.71a7.93,7.93,0,0,0,6-.73c1.45,0,9.32-3.31,10.39-.49.94,2.47-2.47,4.77-4.29,5.21-4,1-6.92,2.94-8.52,3.29a4,4,0,0,1-3.67-.53C72.36,398.27,72.46,394.12,73.57,392.71Z"/><path class="cls-23" d="M77.16,399.23c1.6-.34,4.55-2.32,8.52-3.28,1.52-.37,4.15-2,4.41-4,.36,2.28-2.72,4.3-4.41,4.71-4,1-6.92,2.95-8.52,3.29a4,4,0,0,1-3.67-.53,2,2,0,0,1-.51-.95A4.71,4.71,0,0,0,77.16,399.23Z"/><path class="cls-22" d="M59.39,385.09a7.93,7.93,0,0,0,6-.73c1.45,0,9.24-3.31,10.38-.49.93,2.47-2.47,4.77-4.28,5.21-4,1-6.92,2.94-8.52,3.29a4,4,0,0,1-3.67-.53C58.17,390.72,58.29,386.57,59.39,385.09Z"/><path class="cls-23" d="M63,391.68c1.6-.34,4.54-2.32,8.52-3.29,1.52-.37,4.14-2,4.41-4,.36,2.29-2.72,4.31-4.41,4.72-4,1-6.92,2.94-8.52,3.29a4,4,0,0,1-3.67-.53,2.19,2.19,0,0,1-.52-.94A4.8,4.8,0,0,0,63,391.68Z"/><path class="cls-11" d="M37.29,375.3c6.14,2.64,11.89,3.12,16.66.58l4.88-2.82c.29,6.31.57,12.37.57,12.37s3.75,2.84,6.6.31c0,0,.61-8.85,1.23-17.57l5.13-3a5.8,5.8,0,0,0-.2,1.43c0,1.65,1.19,26.25,1.19,26.25s3.77,2.25,6.69-.27c0,0,2-28.52,2.42-33,.5-5.12-5.18-7.65-8.78-6.34l-5.5,2.05.27-3.17c.51-5.12-5.18-7.65-8.77-6.34-3.28,1.2-25.41,9.5-25.41,9.5a56.45,56.45,0,0,0,.78,6.35l-8.74-.74C25.84,369.08,31.17,372.61,37.29,375.3Zm15.27-14.17,5.85-3.36a6.61,6.61,0,0,0-.18,1.25Z"/><path class="cls-24" d="M21.58,335.92s.71,10.87,2.14,12.44S30,351,30,351l3.71,6.05s-3.4-19.38-4.14-19.81S21.58,335.92,21.58,335.92Z"/><path id="_Контур_" data-name=" Контур " class="cls-25" d="M28.72,323.84a4.07,4.07,0,0,0-5.17,1.52c-1.33,2.26-2.79,10-2.92,11.35a5.47,5.47,0,0,0,4.79,2.21Z"/><path id="_Контур_2" data-name=" Контур 2" class="cls-24" d="M30,324c1.88.09,3.27.56,3.51,0A24.22,24.22,0,0,0,34,321.1c-.22-.55-.4-1.13-.4-1.13-2.36-1.45-3.1-4-3.42-7-.53-5.09,2.22-9.53,7.29-10.05,4.78-.51,8.29,2.85,9.24,7.46.5,2.27,1.51,6.6.15,10.31-.75,2.09-1.73,3.75-2.64,4.07a22.35,22.35,0,0,1-2.83-.24h0s-.25,1.41-.42,2.31-.12,1.39,1.69,2.5-2.72,3.39-5.68,3.17-6.29-2-7.2-4C28.66,326.43,28.74,323.92,30,324Z"/><g id="_Группа_" data-name=" Группа "><g id="_Группа_2" data-name=" Группа 2"><g id="_Группа_3" data-name=" Группа 3"><path id="_Контур_3" data-name=" Контур 3" class="cls-26" d="M77.65,357.25h0a1.52,1.52,0,0,1-.76,1.32l-14.33,8.27a1.55,1.55,0,0,1-1.53,0L41,355.24a1.5,1.5,0,0,1-.76-1.32v-.1Z"/><path id="_Контур_4" data-name=" Контур 4" class="cls-26" d="M76.89,358.57l-14.33,8.27a1.49,1.49,0,0,1-.77.21v-9.8H77.64A1.54,1.54,0,0,1,76.89,358.57Z"/><g id="_Группа_4" data-name=" Группа 4"><path id="_Контур_5" data-name=" Контур 5" class="cls-27" d="M62.33,366.09a1.08,1.08,0,0,1-1.07,0L40.38,354c-.26-.16-.26-.41,0-.55l15.38-8.89,21.89,12.65Z"/></g><g id="_Группа_5" data-name=" Группа 5"><polygon id="_Контур_6" data-name=" Контур 6" class="cls-28" points="48.95 357.25 49.06 357.3 55.76 361.17 59.43 359.05 59.53 358.99 52.73 355.07 48.95 357.25"/><polygon id="_Контур_7" data-name=" Контур 7" class="cls-26" points="49.06 357.3 55.76 361.17 59.43 359.05 52.73 355.19 49.06 357.3"/></g><path class="cls-29" d="M72,357.87l1,.56a.32.32,0,0,0,.3,0l.93-.53c.09,0,.1-.13,0-.17l-1-.57a.32.32,0,0,0-.3,0l-.93.54C71.91,357.75,71.89,357.83,72,357.87Z"/><path class="cls-29" d="M70.61,357.05l1,.56a.32.32,0,0,0,.3,0l.93-.53c.09,0,.09-.13,0-.17l-1-.56a.32.32,0,0,0-.3,0l-.93.53C70.55,357,70.53,357.05,70.61,357.05Z"/><path class="cls-29" d="M69.24,356.3l1,.55a.36.36,0,0,0,.32,0l.91-.52c.09,0,.11-.14,0-.19l-1-.55a.29.29,0,0,0-.31,0l-.92.52C69.17,356.17,69.16,356.25,69.24,356.3Z"/><path class="cls-29" d="M67.88,355.51l1,.55a.34.34,0,0,0,.31,0l.92-.53c.09,0,.11-.13,0-.18l-1-.56a.44.44,0,0,0-.32,0l-.91.53C67.81,355.38,67.8,355.45,67.88,355.51Z"/><path class="cls-29" d="M66.51,354.71l1,.56a.34.34,0,0,0,.31,0l.91-.53c.09,0,.1-.13,0-.17l-1-.57a.39.39,0,0,0-.3,0l-.92.54C66.44,354.6,66.43,354.68,66.51,354.71Z"/><path class="cls-29" d="M65.15,353.92l1,.57a.32.32,0,0,0,.3,0l.93-.54c.09,0,.1-.13,0-.17l-1-.56a.34.34,0,0,0-.31,0l-.91.53C65.08,353.8,65.07,353.88,65.15,353.92Z"/><path class="cls-29" d="M63.79,353.09l1,.56a.39.39,0,0,0,.3,0l.93-.53c.09,0,.09-.14,0-.19l-1-.55a.32.32,0,0,0-.3,0l-.92.53C63.71,353,63.71,353.09,63.79,353.09Z"/><path class="cls-29" d="M62.41,352.35l1,.56a.32.32,0,0,0,.3,0l.92-.53c.1,0,.11-.13,0-.17l-1-.57a.32.32,0,0,0-.3,0l-.93.54C62.35,352.23,62.33,352.31,62.41,352.35Z"/><path class="cls-29" d="M61.05,351.56l1,.55a.32.32,0,0,0,.3,0l.92-.53c.1,0,.1-.13,0-.17l-1-.56a.27.27,0,0,0-.3,0l-.92.52C60.93,351.44,60.93,351.52,61.05,351.56Z"/><path class="cls-29" d="M59.68,350.78l1,.55a.36.36,0,0,0,.32,0l.91-.52c.09,0,.11-.14,0-.19l-.94-.57a.32.32,0,0,0-.3,0l-.93.53C59.61,350.65,59.61,350.73,59.68,350.78Z"/><path class="cls-29" d="M58.29,350l1,.55a.32.32,0,0,0,.3,0l.92-.53c.1,0,.11-.13,0-.18l-.87-.57a.34.34,0,0,0-.31,0l-.92.53A.21.21,0,0,0,58.29,350Z"/><path class="cls-29" d="M57,349.19l1,.56a.32.32,0,0,0,.3,0l.93-.53c.08,0,.09-.13,0-.17l-1-.57a.39.39,0,0,0-.3,0L57,349C56.88,349.13,56.88,349.13,57,349.19Z"/><path class="cls-29" d="M55.65,348.4l1,.57a.34.34,0,0,0,.31,0l.92-.54c.09,0,.11-.13,0-.17l-1-.56a.36.36,0,0,0-.32,0l-.91.53C55.52,348.28,55.5,348.36,55.65,348.4Z"/><path class="cls-29" d="M53.56,347.24l1.63.94a.39.39,0,0,0,.3,0l.93-.53c.09,0,.09-.13,0-.19l-1.62-1a.32.32,0,0,0-.3,0l-.92.54a.12.12,0,0,0-.12.1.11.11,0,0,0,.1.11Z"/><path class="cls-29" d="M68.62,357.46l1,.56a.32.32,0,0,0,.3,0l.92-.53c.08,0,.1-.13,0-.17l-1-.56a.32.32,0,0,0-.3,0l-.93.53C68.55,357.34,68.55,357.42,68.62,357.46Z"/><path class="cls-29" d="M67.26,356.67l1,.57a.42.42,0,0,0,.31,0l.92-.54c.09,0,.11-.14,0-.18l-1-.55a.36.36,0,0,0-.32,0l-.91.53C67.19,356.55,67.18,356.63,67.26,356.67Z"/><path class="cls-29" d="M65.89,355.89l1,.55a.36.36,0,0,0,.32,0l.91-.52c.09,0,.1-.14,0-.19l-1-.55a.32.32,0,0,0-.3,0l-.92.53A.1.1,0,0,0,65.89,355.89Z"/><path class="cls-29" d="M64.52,355.1l1,.55a.32.32,0,0,0,.3,0l.93-.53c.09,0,.09-.13,0-.18l-1-.56a.39.39,0,0,0-.3,0l-.93.53A.11.11,0,0,0,64.52,355.1Z"/><path class="cls-29" d="M63.16,354.31l1,.56a.32.32,0,0,0,.3,0l.93-.54c.09,0,.1-.13,0-.17l-1-.55a.29.29,0,0,0-.31,0l-.92.52C63.1,354.19,63.09,354.27,63.16,354.31Z"/><path class="cls-29" d="M61.79,353.53l1,.55a.34.34,0,0,0,.31,0l.91-.53c.1,0,.11-.13,0-.18l-1-.56a.39.39,0,0,0-.3,0l-.93.53A.11.11,0,0,0,61.79,353.53Z"/><path class="cls-29" d="M60.43,352.73l1,.56a.42.42,0,0,0,.31,0l.92-.53c.1,0,.1-.13,0-.18l-1-.56a.39.39,0,0,0-.3,0l-.93.53A.1.1,0,0,0,60.43,352.73Z"/><path class="cls-29" d="M59.06,351.94l1,.56a.34.34,0,0,0,.31,0l.92-.53c.09,0,.11-.13,0-.17l-1-.57a.36.36,0,0,0-.32,0l-.91.54C59,351.77,59,351.9,59.06,351.94Z"/><path class="cls-29" d="M57.68,351.15l1,.55a.29.29,0,0,0,.31,0l.92-.52c.08,0,.09-.14,0-.18l-1-.55a.34.34,0,0,0-.31,0l-.92.53C57.62,351,57.62,351.11,57.68,351.15Z"/><path class="cls-29" d="M56.32,350.36l1,.56a.32.32,0,0,0,.3,0l.93-.54c.09,0,.1-.13,0-.17l-1-.55a.31.31,0,0,0-.32,0l-.91.52C56.26,350.24,56.24,350.32,56.32,350.36Z"/><path class="cls-29" d="M55,349.58l1,.55a.36.36,0,0,0,.32,0l.91-.53c.09,0,.11-.13,0-.18l-1-.56a.42.42,0,0,0-.31,0l-.92.53C54.88,349.45,54.87,349.52,55,349.58Z"/><path class="cls-29" d="M53.59,348.79l1,.55a.34.34,0,0,0,.31,0l.92-.53c.09,0,.09-.13,0-.18l-1-.56a.42.42,0,0,0-.31,0l-.92.53C53.51,348.65,53.51,348.73,53.59,348.79Z"/><path class="cls-29" d="M70,358.25l1.63.94a.32.32,0,0,0,.3,0l.92-.53c.1,0,.11-.13,0-.18l-1.62-.94a.44.44,0,0,0-.32,0l-.91.54C69.93,358.14,69.91,358.21,70,358.25Z"/><path class="cls-29" d="M53.47,347.28l1,.55c.07,0,.07.12,0,.18l-1,.55a.28.28,0,0,1-.28,0H53.1a.3.3,0,0,0-.26,0l-1,.59a.37.37,0,0,1-.29,0l-.61-.35c-.08,0-.08-.12,0-.17l1-.56.2-.1.15-.1.14-.08.82-.47A.28.28,0,0,1,53.47,347.28Z"/><path class="cls-29" d="M66.68,360.92l1,.56a.34.34,0,0,0,.31,0l.92-.53c.09,0,.09-.13,0-.17l-1-.56a.34.34,0,0,0-.31,0l-.92.53C66.61,360.8,66.6,360.88,66.68,360.92Z"/><path class="cls-29" d="M65.32,360.14l1,.56a.42.42,0,0,0,.31,0l.92-.53c.09,0,.09-.13,0-.19l-1-.55a.34.34,0,0,0-.31,0l-.92.53A.1.1,0,0,0,65.32,360.14Z"/><path class="cls-29" d="M63.94,359.35l1,.55a.27.27,0,0,0,.3,0l.93-.52c.08,0,.09-.14,0-.18l-1-.55a.34.34,0,0,0-.31,0l-.92.54A.09.09,0,0,0,63.94,359.35Z"/><path class="cls-29" d="M52.35,352.65l1,.56a.36.36,0,0,0,.32,0l.91-.53c.09,0,.11-.13,0-.17l-1-.57a.42.42,0,0,0-.31,0l-.92.54C52.28,352.54,52.27,352.61,52.35,352.65Z"/><path class="cls-29" d="M51,351.88l1,.55a.34.34,0,0,0,.31,0l.92-.54c.09,0,.11-.12,0-.17l-1-.56a.36.36,0,0,0-.32,0l-.91.53C50.92,351.77,50.91,351.77,51,351.88Z"/><path class="cls-29" d="M49.63,351.08l1,.56a.34.34,0,0,0,.31,0l.92-.53c.09,0,.11-.13,0-.17l-1-.57a.36.36,0,0,0-.32,0l-.91.54C49.56,351,49.55,351,49.63,351.08Z"/><path class="cls-29" d="M48.27,350.29l1,.57a.42.42,0,0,0,.31,0l.92-.54c.09,0,.09-.14,0-.17l-1-.56a.32.32,0,0,0-.3,0l-.93.53A.1.1,0,0,0,48.27,350.29Z"/><path class="cls-29" d="M62.25,358.37l1.32.77a.44.44,0,0,0,.32,0l.91-.53c.09,0,.11-.13,0-.18l-1.32-.76a.32.32,0,0,0-.3,0l-.93.53C62.17,358.24,62.16,358.37,62.25,358.37Z"/><path class="cls-29" d="M53.71,353.45l1.32.75a.32.32,0,0,0,.3,0l.93-.53c.09,0,.1-.13,0-.18l-1.32-.76a.42.42,0,0,0-.31,0l-.92.53A.11.11,0,0,0,53.71,353.45Z"/><path class="cls-29" d="M55.43,354.41l6.41,3.71a.34.34,0,0,0,.31,0l.92-.53c.09,0,.09-.13,0-.18l-6.4-3.7a.36.36,0,0,0-.32,0l-.91.53C55.36,354.31,55.35,354.41,55.43,354.41Z"/><path class="cls-29" d="M66.93,358l1,.55a.34.34,0,0,0,.31,0l.92-.53c.09,0,.11-.13,0-.18l-1-.56a.44.44,0,0,0-.32,0l-.91.53A.11.11,0,0,0,66.93,358Z"/><path class="cls-29" d="M65.57,357.22l1,.56a.34.34,0,0,0,.31,0l.92-.53c.09,0,.09-.13,0-.17l-1-.56a.34.34,0,0,0-.31,0l-.92.53C65.5,357.05,65.49,357.18,65.57,357.22Z"/><path class="cls-29" d="M64.19,356.44l1,.56a.42.42,0,0,0,.31,0l.92-.53c.08,0,.09-.13,0-.18l-1-.56a.42.42,0,0,0-.31,0l-.92.53A.1.1,0,0,0,64.19,356.44Z"/><path class="cls-29" d="M62.83,355.65l1,.56a.32.32,0,0,0,.3,0l.93-.53c.09,0,.1-.13,0-.19l-1-.55a.32.32,0,0,0-.3,0l-.93.54C62.77,355.53,62.76,355.61,62.83,355.65Z"/><path class="cls-29" d="M61.47,354.86l1,.55a.27.27,0,0,0,.3,0l.93-.54c.09,0,.1-.13,0-.17l-1-.55a.34.34,0,0,0-.31,0l-.92.53C61.41,354.74,61.39,354.82,61.47,354.86Z"/><path class="cls-29" d="M60.11,354.08l1,.56a.39.39,0,0,0,.3,0l.93-.53c.08,0,.09-.13,0-.19l-1-.55a.32.32,0,0,0-.3,0l-.93.53A.1.1,0,0,0,60.11,354.08Z"/><path class="cls-29" d="M58.74,353.29l1,.55a.36.36,0,0,0,.32,0l.91-.53c.1,0,.11-.13,0-.17l-1-.56a.34.34,0,0,0-.31,0l-.92.54C58.67,353.17,58.66,353.25,58.74,353.29Z"/><path class="cls-29" d="M57.38,352.5l.91.59a.34.34,0,0,0,.31,0l.92-.54c.09,0,.11-.13,0-.17l-1-.56a.36.36,0,0,0-.32,0l-.91.53A.11.11,0,0,0,57.38,352.5Z"/><path class="cls-29" d="M56,351.77l1,.55a.34.34,0,0,0,.31,0l.92-.52c.09,0,.09-.14,0-.19l-1-.55a.34.34,0,0,0-.31,0l-.92.52C55.94,351.58,55.94,351.66,56,351.77Z"/><path class="cls-29" d="M54.65,350.92l1,.56a.36.36,0,0,0,.32,0l.91-.53c.09,0,.1-.13,0-.17l-1-.57a.39.39,0,0,0-.3,0l-.92.54C54.58,350.81,54.57,350.88,54.65,350.92Z"/><path class="cls-29" d="M53.29,350.13l1,.57a.32.32,0,0,0,.3,0l.93-.54c.09,0,.1-.13,0-.17l-1-.56a.34.34,0,0,0-.31,0l-.91.53C53.22,350,53.21,350.09,53.29,350.13Z"/><path class="cls-29" d="M51.93,349.35l1,.56a.39.39,0,0,0,.3,0l.93-.53c.09,0,.09-.13,0-.19l-1-.55a.32.32,0,0,0-.3,0l-.92.53A.1.1,0,0,0,51.93,349.35Z"/><path class="cls-29" d="M68.29,358.81l2,1.15a.39.39,0,0,0,.3,0l.91-.53c.09,0,.11-.13,0-.19l-2-1.14a.29.29,0,0,0-.31,0l-.92.52C68.22,358.68,68.21,358.76,68.29,358.81Z"/><path class="cls-29" d="M66.28,359.17l1,.56a.32.32,0,0,0,.3,0l.92-.54c.1,0,.11-.13,0-.17l-1-.55a.27.27,0,0,0-.3,0l-.93.52A.11.11,0,0,0,66.28,359.17Z"/><path class="cls-29" d="M64.89,358.37l1,.56a.39.39,0,0,0,.3,0l.93-.53c.09,0,.1-.13,0-.19l-1-.55a.32.32,0,0,0-.3,0l-.92.53Z"/><path class="cls-29" d="M63.57,357.59l1,.56a.32.32,0,0,0,.3,0l.93-.53c.08,0,.09-.13,0-.17l-1-.57a.39.39,0,0,0-.3,0l-.93.54C63.48,357.47,63.48,357.55,63.57,357.59Z"/><path class="cls-29" d="M62.25,356.8l1,.57a.34.34,0,0,0,.31,0l.92-.54c.09,0,.1-.13,0-.17l-1-.56a.32.32,0,0,0-.3,0l-.93.53C62.12,356.68,62.11,356.76,62.25,356.8Z"/><path class="cls-29" d="M60.83,356l1,.56a.39.39,0,0,0,.3,0l.93-.53c.09,0,.11-.13,0-.19l-1-.55a.36.36,0,0,0-.32,0l-.91.53A.1.1,0,0,0,60.83,356Z"/><path class="cls-29" d="M59.47,355.23l1,.55a.27.27,0,0,0,.3,0l.93-.52c.09,0,.09-.14,0-.18l-1-.55a.34.34,0,0,0-.31,0l-.92.53C59.39,355.11,59.39,355.19,59.47,355.23Z"/><path class="cls-29" d="M58.09,354.41l1,.56a.42.42,0,0,0,.31,0l.92-.53c.09,0,.1-.13,0-.19l-1-.55a.32.32,0,0,0-.3,0l-.93.53C58,354.32,58,354.41,58.09,354.41Z"/><path class="cls-29" d="M56.73,353.66l1,.55a.32.32,0,0,0,.3,0l.93-.53c.09,0,.1-.13,0-.18L58,353a.36.36,0,0,0-.32,0l-.91.54A.09.09,0,0,0,56.73,353.66Z"/><path class="cls-29" d="M55.37,352.87l1,.55a.32.32,0,0,0,.3,0l.93-.54c.09,0,.09-.13,0-.17l-1-.56a.34.34,0,0,0-.31,0l-.92.53C55.31,352.75,55.29,352.83,55.37,352.87Z"/><path class="cls-29" d="M54,352.09l1,.55a.32.32,0,0,0,.3,0l.92-.53c.08,0,.1-.13,0-.18l-1-.56a.39.39,0,0,0-.3,0l-.93.53C53.93,352,53.93,352,54,352.09Z"/><path class="cls-29" d="M52.64,351.29l1,.56a.36.36,0,0,0,.32,0l.91-.53c.09,0,.11-.13,0-.17l-1-.57a.42.42,0,0,0-.31,0l-.92.54C52.57,351.18,52.56,351.25,52.64,351.29Z"/><path class="cls-29" d="M49.59,349.54l2.64,1.53a.32.32,0,0,0,.3,0l.93-.54c.09,0,.1-.13,0-.17l-2.64-1.54a.36.36,0,0,0-.32,0l-.91.53C49.52,349.41,49.51,349.49,49.59,349.54Z"/><path class="cls-29" d="M67.64,360l1.32.76a.34.34,0,0,0,.31,0l.92-.54c.09,0,.11-.13,0-.17l-1.32-.77a.39.39,0,0,0-.3,0l-.93.55C67.54,359.84,67.54,359.92,67.64,360Z"/></g><g id="_Группа_6" data-name=" Группа 6"><g id="_Группа_7" data-name=" Группа 7"><g id="_Группа_8" data-name=" Группа 8"><path id="_Контур_8" data-name=" Контур 8" class="cls-26" d="M77.65,357.25h0L55.76,344.6V327.43l.17-.4.17-.08h0a1.53,1.53,0,0,1,1.52,0l20,11.56a1.53,1.53,0,0,1,.75,1.32V356C78.26,356.77,78.1,357,77.65,357.25Z"/><path id="_Контур_9" data-name=" Контур 9" class="cls-26" d="M75.64,340.56,55.76,328v-.57l.17-.4.17-.08a1.53,1.53,0,0,1,1.52,0l20,11.56a1.35,1.35,0,0,1,.57.61Z"/><path id="_Контур_10" data-name=" Контур 10" class="cls-30" d="M56.26,327l21,12.14a.73.73,0,0,1,.37.64v17.48L55.76,344.6V327.29a.32.32,0,0,1,.32-.34A.3.3,0,0,1,56.26,327Z"/><path id="_Контур_11" data-name=" Контур 11" class="cls-27" d="M56.26,327l21,12.14a.73.73,0,0,1,.37.64v17.48L55.76,344.6V327.29a.32.32,0,0,1,.32-.34A.3.3,0,0,1,56.26,327Z"/><polygon id="_Контур_12" data-name=" Контур 12" class="cls-31" points="77.65 357.25 77.65 356.62 55.76 343.98 55.76 344.6 77.65 357.25"/></g><polygon id="_Контур_13" data-name=" Контур 13" class="cls-32" points="56.32 343.69 56.32 327.91 56.59 328.05 56.59 343.56 56.32 343.69"/><polygon id="_Контур_14" data-name=" Контур 14" class="cls-29" points="56.59 328.05 56.59 343.56 76.95 355.27 76.95 339.81 56.59 328.05"/><polygon id="_Контур_15" data-name=" Контур 15" class="cls-33" points="56.32 343.69 76.95 355.59 76.95 355.27 56.59 343.56 56.32 343.69"/></g></g></g></g><path id="_Контур_16" data-name=" Контур 16" class="cls-27" d="M32.75,324.26c-.53,1.32.81,2.88,4.33,4s3.85-.31,3.85-.31a68.39,68.39,0,0,1,6.86,3.54c2.12,1.47,3.05,5.77,3.34,13,.33,8.38.36,20.79.08,22.94,0,0-4,4-9,3.53s-13.6-4.9-15.66-8.36c0-7.34.91-8.55-.28-12.77-2.72-9.68-4.16-13.64-2.82-20.09,1.08-5.28,2.64-5.95,4.71-5.9A44.69,44.69,0,0,1,32.75,324.26Z"/><path id="_Контур_17" data-name=" Контур 17" class="cls-24" d="M59.47,353.45c-4.16,1.05-5.14-1.57-5.68-3.74-1.32-5.28-2-10-3-13-1.16-3.51-2.37-4.08-4.09-4.76-2-.81-3.72.89-3.06,5.37a90.21,90.21,0,0,0,3.81,15.29,13.53,13.53,0,0,0,3.41,5.95c2.15,1.74,5.39,1.66,10.27.45a55.77,55.77,0,0,0,8.32-3.61c1.06-.49,1.88-.82,4-1.77a13.77,13.77,0,0,0,5.28-4.07c1.06-1.54,1.2-2.27,1-2.64s-.77-.34-1.32.31a11.24,11.24,0,0,1-3,2.76s1.32-1.32,2-2.23A11.47,11.47,0,0,0,79,345.11c.38-.89-.4-2.11-1-1.48S77.1,345,76,346.28a11.1,11.1,0,0,1-1.92,1.83,20.92,20.92,0,0,0,1.78-2.85,4.89,4.89,0,0,0,.65-2.64c0-.46-.7-1-1.32-.13a17.71,17.71,0,0,1-2.38,3.5c-.95,1-1.76,1.55-1.78,1.32s.58-.82.91-2,0-2.36-.64-2.49-.51-.11-1,1a28,28,0,0,0-1.89,3.44,7.24,7.24,0,0,1-1.72,2.94C65.69,351.25,63.43,352.46,59.47,353.45Z"/><path id="_Контур_18" data-name=" Контур 18" class="cls-25" d="M45.09,331.23c2.77-.41,4.74.85,6,5s2.08,7.66,2.08,7.66A7.54,7.54,0,0,1,48.48,347c-3.32.8-4.52-.78-4.52-.78s-.92-4.41-1.49-7.41S41.7,331.74,45.09,331.23Z"/><path class="cls-29" d="M46.51,309.69s4.39-6.67-5.12-8c-6.86-1-11.27,3.43-11.77,8.21-.49,4.57,2.32,9.31,4.35,11.19a8.23,8.23,0,0,0,5.92-.71A33.58,33.58,0,0,0,40,316.6S36.69,309.58,46.51,309.69Z"/></g><polygon class="cls-21" points="65.54 394.1 65.54 374.06 49.63 383.35 55.76 396.01 65.54 394.1"/><polygon class="cls-4" points="19.11 373.21 25.21 369.67 29.53 372.17 23.2 375.76 19.11 373.21"/></svg>