<svg id="Capa_1" data-name="Capa 1" xmlns="http://www.w3.org/2000/svg" xmlns:xlink="http://www.w3.org/1999/xlink" viewBox="0 0 428 428"><defs><style>.cls-1{fill:#211b49;}.cls-2{fill:#b1b4c4;}.cls-3{fill:#e4e7f2;}.cls-4,.cls-7{fill:#d6d8e5;}.cls-5{fill:#fff;}.cls-6,.cls-7{isolation:isolate;}.cls-6{opacity:0.5;fill:url(#Degradado_sin_nombre);}.cls-7{opacity:0.4;}.cls-8{fill:#2b303f;}.cls-9{fill:#c3c6d1;}.cls-10{fill:#e9eaf2;}.cls-11{fill:#7676b6;}.cls-12{fill:url(#Degradado_sin_nombre_2);}.cls-13{fill:none;stroke:#cccedd;stroke-miterlimit:10;stroke-width:1.06px;}.cls-14{fill:#2e245b;}.cls-15{fill:#a298e2;}.cls-16{fill:#c33afc;}.cls-17{fill:#e3b23c;}.cls-18{fill:#ea516f;}.cls-19{fill:#7abe7b;}</style><linearGradient id="Degradado_sin_nombre" x1="-258.07" y1="-3058.15" x2="-258.07" y2="-2921.56" gradientTransform="matrix(0.87, 0.5, 0, -1.15, 516.41, -3149.72)" gradientUnits="userSpaceOnUse"><stop offset="0.21" stop-color="#fff" stop-opacity="0"/><stop offset="1" stop-color="#fff" stop-opacity="0.2"/></linearGradient><linearGradient id="Degradado_sin_nombre_2" x1="238.02" y1="-1159.66" x2="238.02" y2="-1196.57" gradientTransform="matrix(0.87, 0.5, 0, -1.15, 100.77, -1256.02)" gradientUnits="userSpaceOnUse"><stop offset="0" stop-color="#e9eaf2" stop-opacity="0.8"/><stop offset="1" stop-color="#e9eaf2" stop-opacity="0"/></linearGradient></defs><polygon class="cls-1" points="406.73 256.94 409.07 255.78 407.49 252.69 406.73 256.94"/><path class="cls-2" d="M396.33,315.37,192.14,197.46c-2.87-1.63-5.19-6.09-5.19-9.91v-158c0-3.83,2.32-5.58,5.19-3.92L396.33,143.57c2.87,1.63,5.19,6.09,5.19,9.9v158C401.55,315.27,399.23,317,396.33,315.37Z"/><polygon class="cls-2" points="397.42 317 399.68 315.69 398.7 308.99 397.42 317"/><path class="cls-2" d="M186.58,26.61l2.23-1.29,3.2,1.83s-3.41.52-3.49.5S186.58,26.61,186.58,26.61Z"/><path class="cls-3" d="M394.49,316.49l-204.22-118c-2.87-1.63-5.2-6.09-5.2-9.91V30.69c0-3.82,2.33-5.57,5.2-3.91l204.22,117.9c2.87,1.64,5.19,6.1,5.19,9.92V312.53C399.68,316.35,397.36,318.12,394.49,316.49Z"/><path class="cls-4" d="M394.13,316.66,189.91,198.75c-2.87-1.63-5.2-6.09-5.2-9.91v-158c0-3.82,2.33-5.57,5.2-3.92L394.13,144.85c2.86,1.63,5.19,6.09,5.19,9.91v158C399.32,316.56,397,318.32,394.13,316.66Z"/><path class="cls-5" d="M396.51,307.05,187.29,186.27l.13-154.76c0-1.58,1.11-2.23,2.45-1.44L394.09,148a5.47,5.47,0,0,1,2.45,4.31Z"/><path class="cls-6" d="M396.44,307.06,187.29,186.28l.07-154.77c0-1.58,1.11-2.23,2.45-1.44L394,148a5.52,5.52,0,0,1,2.45,4.31Z"/><path class="cls-7" d="M240.1,408.45,35.87,290.54c-2.86-1.63-2.5-4.54.82-6.45l136.81-79c3.27-1.9,8.31-2.11,11.17-.46L388.91,322.55c2.86,1.64,2.5,4.54-.82,6.45L251.27,408C248,409.9,243,410.11,240.1,408.45Z"/><path class="cls-2" d="M244.56,405.78,40.31,287.91c-2.86-1.64-2.5-4.54.82-6.45l136.81-79c3.27-1.91,8.32-2.12,11.18-.46L393.35,319.92c2.87,1.63,2.51,4.54-.82,6.45L255.74,405.32C252.43,407.22,247.42,407.43,244.56,405.78Z"/><polygon class="cls-2" points="38.4 285.2 38.4 281.35 42.72 283.16 38.4 285.2"/><polygon class="cls-2" points="395.29 322.76 395.29 318.99 392.08 320.1 394.21 323.21 395.29 322.76"/><path class="cls-3" d="M244.56,402.53,40.31,284.64c-2.86-1.63-2.5-4.54.82-6.45l136.81-79c3.27-1.91,8.32-2.12,11.18-.46L393.35,316.65c2.87,1.63,2.51,4.54-.82,6.45l-136.79,79C252.43,404,247.42,404.19,244.56,402.53Z"/><path class="cls-4" d="M244.56,402,40.31,284.13c-2.86-1.64-2.5-4.55.82-6.45l136.81-79c3.27-1.91,8.32-2.11,11.18-.46L393.35,316.14c2.87,1.63,2.51,4.54-.82,6.45l-136.79,79C252.43,403.48,247.42,403.69,244.56,402Z"/><path class="cls-8" d="M174.16,225.33l-9.51-5.49c-.82-.45-.68-1.23.21-1.75l9.08-5.24a3.35,3.35,0,0,1,3-.12l9.52,5.48c.77.45.67,1.24-.22,1.75l-9.08,5.24A3.35,3.35,0,0,1,174.16,225.33Z"/><path class="cls-8" d="M187.62,233.1l-9.51-5.49c-.78-.45-.68-1.23.22-1.75l9.07-5.24a3.4,3.4,0,0,1,3-.12l9.5,5.49c.82.45.68,1.23-.21,1.75L190.64,233A3.35,3.35,0,0,1,187.62,233.1Z"/><path class="cls-8" d="M201.23,241l-9.5-5.49c-.82-.45-.68-1.23.21-1.75l9.08-5.23a3.29,3.29,0,0,1,3-.13l9.51,5.49c.82.44.68,1.23-.22,1.75l-9.07,5.23A3.37,3.37,0,0,1,201.23,241Z"/><path class="cls-8" d="M214.54,248.64,205,243.15c-.78-.45-.68-1.23.22-1.75l9.07-5.24a3.37,3.37,0,0,1,3-.12l9.51,5.49c.78.45.68,1.23-.22,1.74l-9.07,5.25A3.37,3.37,0,0,1,214.54,248.64Z"/><path class="cls-8" d="M228,256.41l-9.52-5.48c-.81-.45-.67-1.24.22-1.75l9.08-5.24a3.37,3.37,0,0,1,3-.13l9.5,5.49c.78.45.68,1.23-.22,1.75L231,256.29A3.35,3.35,0,0,1,228,256.41Z"/><path class="cls-8" d="M241.46,264.23l-9.5-5.49c-.78-.45-.69-1.23.21-1.75l9.07-5.24a3.37,3.37,0,0,1,3-.12l9.52,5.49c.77.44.67,1.23-.23,1.74l-9.07,5.24A3.37,3.37,0,0,1,241.46,264.23Z"/><path class="cls-8" d="M254.93,272l-9.51-5.49c-.78-.45-.68-1.23.22-1.74l9.07-5.25a3.4,3.4,0,0,1,3-.12l9.5,5.49c.78.45.68,1.23-.21,1.75L258,271.83A3.35,3.35,0,0,1,254.93,272Z"/><path class="cls-8" d="M268.39,279.74l-9.51-5.49c-.78-.45-.68-1.23.21-1.75l9.08-5.23a3.32,3.32,0,0,1,3-.14l9.52,5.5c.81.45.67,1.22-.22,1.75l-9.09,5.22A3.33,3.33,0,0,1,268.39,279.74Z"/><path class="cls-8" d="M281.85,287.5,272.34,282c-.78-.45-.68-1.23.22-1.75l9.07-5.23a3.37,3.37,0,0,1,3-.13l9.5,5.5c.78.44.68,1.22-.21,1.74l-9.07,5.24A3.4,3.4,0,0,1,281.85,287.5Z"/><path class="cls-8" d="M295.31,295.26l-9.51-5.49c-.77-.45-.68-1.23.21-1.75l9.07-5.22a3.35,3.35,0,0,1,3-.13l9.51,5.49c.78.45.68,1.23-.22,1.75l-9.05,5.24A3.34,3.34,0,0,1,295.31,295.26Z"/><path class="cls-8" d="M308.77,303.05l-9.51-5.49c-.78-.45-.68-1.23.22-1.75l9.07-5.24a3.37,3.37,0,0,1,3-.12l9.51,5.48c.78.45.68,1.24-.22,1.75l-9.07,5.24A3.37,3.37,0,0,1,308.77,303.05Z"/><path class="cls-8" d="M322.24,310.82l-9.52-5.49c-.77-.45-.67-1.23.22-1.74l9.08-5.25a3.37,3.37,0,0,1,3-.12l9.51,5.49c.81.45.68,1.23-.22,1.75l-9,5.24A3.35,3.35,0,0,1,322.24,310.82Z"/><path class="cls-8" d="M335.69,318.59l-9.5-5.49c-.82-.45-.69-1.23.21-1.75l9.07-5.23a3.37,3.37,0,0,1,3-.13l9.51,5.49c.78.45.68,1.23-.22,1.75l-9.07,5.23A3.31,3.31,0,0,1,335.69,318.59Z"/><path class="cls-8" d="M355.64,330.11l-16-9.24c-.78-.45-.68-1.23.22-1.75l9.1-5.23a3.37,3.37,0,0,1,3-.13L368,323c.77.45.67,1.23-.22,1.75L358.66,330A3.35,3.35,0,0,1,355.64,330.11Z"/><path class="cls-8" d="M181.08,244.39l-9.51-5.48c-.82-.44-.68-1.23.22-1.74l9.07-5.25a3.4,3.4,0,0,1,3-.12l9.5,5.48c.78.45.68,1.23-.21,1.75l-9.08,5.24A3.35,3.35,0,0,1,181.08,244.39Z"/><path class="cls-8" d="M194.56,252.18l-9.5-5.49c-.78-.45-.68-1.23.21-1.75l9.08-5.21a3.35,3.35,0,0,1,3-.12l9.52,5.45c.78.45.68,1.24-.22,1.75l-9.07,5.24A3.39,3.39,0,0,1,194.56,252.18Z"/><path class="cls-8" d="M208.05,260l-9.51-5.49c-.82-.45-.68-1.23.22-1.75l9.07-5.24a3.37,3.37,0,0,1,3-.12l9.5,5.48c.78.45.68,1.24-.21,1.75l-9.08,5.24A3.35,3.35,0,0,1,208.05,260Z"/><path class="cls-8" d="M221.53,267.75l-9.51-5.5c-.78-.44-.68-1.22.22-1.75l9.07-5.25a3.37,3.37,0,0,1,3-.14l9.5,5.52c.77.45.67,1.23-.22,1.75l-9.08,5.24A3.36,3.36,0,0,1,221.53,267.75Z"/><path class="cls-8" d="M234.91,275.47l-9.51-5.53c-.77-.45-.68-1.22.21-1.74l9.08-5.24a3.37,3.37,0,0,1,3-.13l9.51,5.5c.81.44.68,1.22-.22,1.74l-9.09,5.27A3.36,3.36,0,0,1,234.91,275.47Z"/><path class="cls-8" d="M248.4,283.25l-9.52-5.48c-.77-.45-.67-1.24.22-1.75l9.08-5.26a3.35,3.35,0,0,1,3-.12l9.51,5.48c.78.45.68,1.24-.21,1.75l-9.08,5.24A3.32,3.32,0,0,1,248.4,283.25Z"/><path class="cls-8" d="M261.88,291l-9.52-5.48c-.77-.45-.67-1.24.22-1.75l9.08-5.23a3.31,3.31,0,0,1,3-.13l9.51,5.49c.77.44.68,1.23-.22,1.75l-9.07,5.23A3.34,3.34,0,0,1,261.88,291Z"/><path class="cls-8" d="M275.36,298.82l-9.51-5.48c-.77-.45-.67-1.24.22-1.75l9.08-5.24a3.32,3.32,0,0,1,3-.12l9.51,5.48c.78.45.68,1.24-.22,1.75l-9.07,5.24A3.34,3.34,0,0,1,275.36,298.82Z"/><path class="cls-8" d="M288.85,306.61l-9.51-5.49c-.82-.45-.68-1.23.22-1.75l9.07-5.24a3.37,3.37,0,0,1,3-.12l9.5,5.48c.78.45.69,1.24-.21,1.75l-9.07,5.24A3.37,3.37,0,0,1,288.85,306.61Z"/><path class="cls-8" d="M302.33,314.4l-9.51-5.5c-.77-.44-.67-1.22.22-1.75l9.08-5.23a3.35,3.35,0,0,1,3-.13l9.54,5.49c.77.45.67,1.24-.23,1.75l-9.07,5.24A3.35,3.35,0,0,1,302.33,314.4Z"/><path class="cls-8" d="M315.82,322.2l-9.51-5.48c-.78-.45-.68-1.24.22-1.75l9.07-5.24a3.37,3.37,0,0,1,3-.13l9.5,5.49c.78.45.68,1.23-.21,1.75l-9.08,5.24A3.35,3.35,0,0,1,315.82,322.2Z"/><path class="cls-8" d="M329.3,330l-9.5-5.5c-.78-.45-.69-1.22.21-1.74l9.07-5.24a3.37,3.37,0,0,1,3-.13l9.51,5.5c.78.44.68,1.22-.22,1.74l-9.07,5.24A3.37,3.37,0,0,1,329.3,330Z"/><path class="cls-8" d="M167.59,236.6l-16-9.23c-.77-.45-.68-1.23.21-1.75l9.08-5.23a3.31,3.31,0,0,1,3-.13l16,9.23c.78.45.68,1.23-.22,1.75l-9.1,5.22A3.34,3.34,0,0,1,167.59,236.6Z"/><path class="cls-8" d="M355,330.6l-9.51-5.48a3.05,3.05,0,0,0-2.82,0l-9.59,5.53c-.81.45-.81,1.18,0,1.64l.76.44c.72.41.71,1.08,0,1.5l-10.17,5.85c-.82.45-.82,1.18,0,1.63l6,3.49a3.11,3.11,0,0,0,2.82,0l9.48-5.47,2-1.13,1.42-.82,1.42-.81,8.16-4.72C355.76,331.78,355.76,331.05,355,330.6Z"/><path class="cls-8" d="M122,255.49,112.51,250c-.81-.45-.67-1.23.22-1.74l9.08-5.26a3.35,3.35,0,0,1,3-.13l9.51,5.49c.78.45.68,1.23-.22,1.75l-9.07,5.24A3.37,3.37,0,0,1,122,255.49Z"/><path class="cls-8" d="M135.44,263.24l-9.5-5.49c-.82-.45-.68-1.23.21-1.75l9.08-5.24a3.35,3.35,0,0,1,3-.12l9.51,5.49c.78.45.68,1.23-.22,1.74l-9.07,5.25A3.37,3.37,0,0,1,135.44,263.24Z"/><path class="cls-8" d="M148.87,271l-9.51-5.49c-.81-.45-.68-1.23.21-1.75l9.08-5.24a3.37,3.37,0,0,1,3-.12l9.48,5.49c.78.45.68,1.23-.22,1.74l-9.07,5.25A3.37,3.37,0,0,1,148.87,271Z"/><path class="cls-8" d="M262.89,337l-9.87-5.7c-.85-.46-.71-1.27.23-1.82l9.41-5.43a3.48,3.48,0,0,1,3.14-.13l9.84,5.7c.85.46.71,1.27-.22,1.81l-9.4,5.47A3.46,3.46,0,0,1,262.89,337Z"/><path class="cls-8" d="M276.33,344.81l-9.86-5.69c-.84-.46-.7-1.28.22-1.81l9.42-5.44a3.51,3.51,0,0,1,3.14-.13l9.87,5.7c.84.46.7,1.27-.23,1.81l-9.41,5.44A3.53,3.53,0,0,1,276.33,344.81Z"/><path class="cls-8" d="M290,352.49l-9.5-5.49c-.78-.45-.68-1.23.21-1.75l9.08-5.24a3.35,3.35,0,0,1,3-.12l9.52,5.49c.81.45.67,1.23-.23,1.74l-9.07,5.25A3.4,3.4,0,0,1,290,352.49Z"/><path class="cls-8" d="M303.45,360.24l-9.51-5.49c-.77-.45-.67-1.23.22-1.75l9.08-5.24a3.35,3.35,0,0,1,3-.12l9.52,5.49c.81.44.68,1.23-.22,1.74l-9.05,5.24A3.37,3.37,0,0,1,303.45,360.24Z"/><path class="cls-8" d="M165.75,280.74l-13-7.49c-.78-.45-.68-1.23.22-1.75l9.07-5.24a3.37,3.37,0,0,1,3-.12l13,7.49c.81.45.67,1.22-.22,1.74l-9.08,5.24A3.35,3.35,0,0,1,165.75,280.74Z"/><path class="cls-8" d="M249.76,329.24l-13-7.49c-.81-.45-.67-1.23.22-1.74l9.08-5.25a3.38,3.38,0,0,1,3-.12l13,7.49c.78.45.68,1.22-.21,1.75l-9.08,5.23A3.35,3.35,0,0,1,249.76,329.24Z"/><path class="cls-8" d="M232.87,319.49,169.66,283c-.77-.45-.67-1.23.22-1.75L179,276a3.35,3.35,0,0,1,3-.12l63.22,36.5c.77.45.67,1.24-.23,1.75l-9.07,5.24A3.37,3.37,0,0,1,232.87,319.49Z"/><path class="cls-8" d="M171.69,254l-9.51-5.49c-.77-.45-.67-1.23.23-1.75l9.07-5.24a3.35,3.35,0,0,1,3-.12l9.53,5.48c.81.45.68,1.24-.22,1.75l-9.07,5.24A3.38,3.38,0,0,1,171.69,254Z"/><path class="cls-8" d="M185.14,261.78l-9.51-5.5c-.77-.45-.67-1.22.22-1.74l9.08-5.24a3.35,3.35,0,0,1,3-.13l9.51,5.5c.82.44.68,1.22-.22,1.74l-9.07,5.24A3.37,3.37,0,0,1,185.14,261.78Z"/><path class="cls-8" d="M198.59,269.56l-9.52-5.49c-.81-.45-.67-1.23.22-1.75l9.08-5.24a3.37,3.37,0,0,1,3-.12l9.5,5.49c.82.45.69,1.23-.21,1.74l-9.07,5.25A3.37,3.37,0,0,1,198.59,269.56Z"/><path class="cls-8" d="M212,277.29l-9.52-5.48c-.81-.45-.68-1.24.22-1.75l9-5.21a3.34,3.34,0,0,1,3-.12l9.5,5.48c.82.45.68,1.24-.21,1.75l-9.05,5.24A3.35,3.35,0,0,1,212,277.29Z"/><path class="cls-8" d="M225.48,285.09,216,279.6c-.82-.45-.68-1.23.21-1.74l9.08-5.25a3.38,3.38,0,0,1,3-.12L237.8,278c.81.45.67,1.23-.22,1.75L228.5,285A3.35,3.35,0,0,1,225.48,285.09Z"/><path class="cls-8" d="M238.92,292.86l-9.5-5.5c-.82-.45-.69-1.22.21-1.75l9.11-5.23a3.34,3.34,0,0,1,3-.13l9.51,5.49c.77.45.68,1.23-.22,1.75L242,292.73A3.39,3.39,0,0,1,238.92,292.86Z"/><path class="cls-8" d="M252.37,300.61l-9.51-5.48c-.78-.45-.68-1.24.22-1.75l9.07-5.24a3.37,3.37,0,0,1,3-.13l9.51,5.49c.81.45.67,1.23-.22,1.75l-9.08,5.24A3.35,3.35,0,0,1,252.37,300.61Z"/><path class="cls-8" d="M265.82,308.38l-9.51-5.49c-.78-.45-.68-1.23.22-1.75l9.07-5.24a3.37,3.37,0,0,1,3-.12l9.5,5.49c.78.45.68,1.23-.22,1.74l-9.07,5.25A3.38,3.38,0,0,1,265.82,308.38Z"/><path class="cls-8" d="M279.26,316.14l-9.49-5.48c-.78-.45-.68-1.24.21-1.75l9.08-5.24a3.35,3.35,0,0,1,3-.13l9.51,5.49c.78.45.68,1.23-.22,1.75L282.3,316A3.36,3.36,0,0,1,279.26,316.14Z"/><path class="cls-8" d="M292.71,323.91l-9.51-5.5c-.78-.45-.68-1.22.22-1.74l9.07-5.24a3.37,3.37,0,0,1,3-.13l9.51,5.5c.78.44.68,1.22-.22,1.74l-9.07,5.24A3.37,3.37,0,0,1,292.71,323.91Z"/><path class="cls-8" d="M306.16,331.67l-9.51-5.49c-.78-.45-.68-1.23.22-1.75l9.07-5.24a3.37,3.37,0,0,1,3-.12l9.5,5.48c.82.45.68,1.24-.21,1.75l-9.08,5.24A3.35,3.35,0,0,1,306.16,331.67Z"/><path class="cls-8" d="M319.57,339.43l-9.5-5.49c-.78-.44-.68-1.23.22-1.74l9.07-5.25a3.38,3.38,0,0,1,3-.12l9.52,5.49c.77.45.67,1.23-.22,1.75l-9.05,5.28A3.4,3.4,0,0,1,319.57,339.43Z"/><path class="cls-8" d="M158.25,246.26l-19.67-11.35c-.82-.45-.68-1.23.22-1.74l9.07-5.25a3.4,3.4,0,0,1,3-.12l19.66,11.35c.82.45.68,1.23-.21,1.75l-9.08,5.24A3.35,3.35,0,0,1,158.25,246.26Z"/><path class="cls-8" d="M152,257.7l-9.5-5.48c-.78-.44-.69-1.22.21-1.74l9.07-5.24a3.37,3.37,0,0,1,3-.13l9.51,5.5c.78.44.68,1.22-.22,1.74L155,257.59A3.4,3.4,0,0,1,152,257.7Z"/><path class="cls-8" d="M165.42,265.48,155.91,260c-.78-.45-.68-1.23.22-1.75L165.2,253a3.37,3.37,0,0,1,3-.12l9.5,5.48c.82.45.68,1.24-.21,1.75l-9.08,5.24A3.35,3.35,0,0,1,165.42,265.48Z"/><path class="cls-8" d="M178.86,273.21l-9.53-5.46c-.82-.45-.68-1.23.22-1.75l9.07-5.23a3.37,3.37,0,0,1,3-.14l9.51,5.5c.82.45.68,1.22-.22,1.75l-9.07,5.23A3.33,3.33,0,0,1,178.86,273.21Z"/><path class="cls-8" d="M192.3,281l-9.51-5.49c-.81-.45-.67-1.23.23-1.75l9.07-5.24a3.35,3.35,0,0,1,3-.12l9.51,5.49c.78.45.68,1.23-.22,1.74l-9.07,5.25A3.4,3.4,0,0,1,192.3,281Z"/><path class="cls-8" d="M205.75,288.76l-9.47-5.48c-.78-.45-.68-1.24.22-1.75l9.07-5.24a3.34,3.34,0,0,1,3-.12l9.5,5.48c.78.45.69,1.24-.21,1.75l-9.07,5.23A3.33,3.33,0,0,1,205.75,288.76Z"/><path class="cls-8" d="M219.43,296.68,209.57,291c-.81-.47-.71-1.28.22-1.81l9.42-5.44a3.46,3.46,0,0,1,3.13-.13l9.87,5.69c.8.47.7,1.28-.23,1.82l-9.41,5.43A3.48,3.48,0,0,1,219.43,296.68Z"/><path class="cls-8" d="M232.64,304.29l-9.52-5.49c-.77-.45-.67-1.23.22-1.75l9.08-5.24a3.37,3.37,0,0,1,3-.12l9.5,5.49c.78.44.68,1.23-.21,1.74l-9.07,5.24A3.37,3.37,0,0,1,232.64,304.29Z"/><path class="cls-8" d="M246.09,312.05l-9.51-5.49c-.78-.45-.68-1.23.21-1.75l9.08-5.23a3.29,3.29,0,0,1,3-.13l9.52,5.49c.77.44.67,1.23-.22,1.75l-9.08,5.23A3.35,3.35,0,0,1,246.09,312.05Z"/><path class="cls-8" d="M259.53,319.81,250,314.32c-.77-.45-.67-1.23.22-1.74l9.08-5.25a3.38,3.38,0,0,1,3-.12l9.51,5.49c.77.45.68,1.23-.21,1.75l-9.08,5.24A3.35,3.35,0,0,1,259.53,319.81Z"/><path class="cls-8" d="M273,327.58l-9.51-5.5c-.77-.44-.68-1.22.21-1.75l9.08-5.23a3.35,3.35,0,0,1,3-.13l9.51,5.49c.78.45.68,1.23-.22,1.75L276,327.44A3.32,3.32,0,0,1,273,327.58Z"/><path class="cls-8" d="M286.41,335.33l-9.51-5.48c-.77-.45-.68-1.24.22-1.75l9.07-5.24a3.37,3.37,0,0,1,3-.13l9.51,5.49c.77.45.68,1.23-.21,1.75l-9.08,5.24A3.37,3.37,0,0,1,286.41,335.33Z"/><path class="cls-8" d="M316.5,352.71l-26.13-15.1c-.78-.45-.69-1.23.21-1.75l9.07-5.24a3.37,3.37,0,0,1,3-.12l26.13,15.1c.78.44.68,1.22-.22,1.74l-9.07,5.24A3.38,3.38,0,0,1,316.5,352.71Z"/><path class="cls-8" d="M138.53,250l-13-7.48c-.81-.45-.68-1.24.21-1.75l9.08-5.24a3.37,3.37,0,0,1,3-.13l13,7.49c.78.45.68,1.24-.21,1.75l-9.06,5.24A3.33,3.33,0,0,1,138.53,250Z"/><path class="cls-8" d="M369.15,322.31,178.21,212.07c-.82-.44-.68-1.22.22-1.74l4.54-2.62a3.38,3.38,0,0,1,3-.13L376.93,317.82c.77.45.68,1.22-.22,1.74l-4.53,2.64A3.37,3.37,0,0,1,369.15,322.31Z"/><path class="cls-2" d="M250.86,334.84a2.83,2.83,0,0,1-1.32,1.37L197,366.55a6.49,6.49,0,0,1-5.82.24l-89.82-51.85a2,2,0,0,1-.88-.9c-.33-.82.13-1.73,1.32-2.41l52.55-30.34a6.46,6.46,0,0,1,5.82-.24L250,332.89A1.58,1.58,0,0,1,250.86,334.84Z"/><path class="cls-9" d="M250.86,334.84a2.83,2.83,0,0,1-1.32,1.37L197,366.55a6.49,6.49,0,0,1-5.82.24l-89.82-51.85a2,2,0,0,1-.88-.9,3,3,0,0,1,1.32-1.37l52.55-30.33a6.49,6.49,0,0,1,5.82-.25L250,333.94A2,2,0,0,1,250.86,334.84Z"/><path class="cls-8" d="M383.68,314,192.74,203.71a3.34,3.34,0,0,1-1.36-2.68v-2.25c0-1,.63-1.51,1.4-1.06L383.72,308a3.37,3.37,0,0,1,1.41,2.68v2.25C385.09,313.92,384.46,314.4,383.68,314Z"/><path class="cls-10" d="M221.59,192.83,202.73,182c-2.36-1.36-4.28-5-4.28-8.17V153.57c0-3.15,1.92-4.6,4.28-3.27l18.86,10.9c2.37,1.37,4.28,5,4.28,8.17v20.22C225.83,192.75,223.92,194.19,221.59,192.83Z"/><path class="cls-10" d="M221.52,146.51l-18.83-10.87c-2.36-1.37-4.28-6.94-4.28-9.67V102.35c0-3.15,1.92-4.59,4.28-3.26L221.52,110c2.36,1.36,4.27,5,4.27,8.16v23.62C225.79,144.51,223.88,147.87,221.52,146.51Z"/><path class="cls-11" d="M212.21,130.73a15.4,15.4,0,0,1-7-12c0-4.43,3.12-6.23,7-4a15.4,15.4,0,0,1,6.95,12C219.16,131.14,216,132.94,212.21,130.73Zm0-14c-2.85-1.64-5.17-.31-5.17,3a11.45,11.45,0,0,0,5.17,9c2.85,1.63,5.17.31,5.17-3A11.39,11.39,0,0,0,212.21,116.73Z"/><polygon class="cls-11" points="214.12 127.46 210.97 122.44 210.97 118.27 212.75 119.3 212.75 122.54 215.29 126.58 214.12 127.46"/><path class="cls-10" d="M221.49,96.56,202.66,85.69c-2.36-1.37-4.28-7.51-4.28-10.25V53.7c0-2.72,1.92-3.83,4.28-2.44l18.83,10.87a9.45,9.45,0,0,1,4.28,7.41V91.28C225.77,94,223.86,97.92,221.49,96.56Z"/><path class="cls-11" d="M212.08,70.5c-1.14-.65-2.05-.12-2.05,1.19a4.49,4.49,0,0,0,2.05,3.56c1.13.65,2,.12,2-1.19A4.56,4.56,0,0,0,212.08,70.5Zm5.48.82-1.64-.95a1.39,1.39,0,0,1-.54-.76L215,67.89a1.36,1.36,0,0,0-.55-.76l-4.65-2.69c-.23-.13-.47-.07-.54.14l-.43,1.23a.35.35,0,0,1-.46.18l-.08,0L206.62,65c-.75-.44-1.36-.08-1.36.81v7.12a3,3,0,0,0,1.36,2.37l11,6.33c.75.43,1.37.08,1.37-.82V73.67a3.08,3.08,0,0,0-1.39-2.38Zm-5.48,5.53a7.6,7.6,0,0,1-3.43-5.92c0-2.19,1.54-3.07,3.43-2a7.57,7.57,0,0,1,3.42,5.93c0,2.15-1.53,3-3.42,2Zm5-3.12a1,1,0,0,1-.47-.82c0-.31.21-.43.47-.28a1.07,1.07,0,0,1,.49.82c0,.28-.22.41-.49.25Z"/><path class="cls-11" d="M218,173.06c0,3.68-5.77,8.47-5.77,8.47s-5.78-11.43-5.78-15.14,2.58-5.18,5.78-3.34A12.77,12.77,0,0,1,218,173.06Z"/><ellipse class="cls-10" cx="212.25" cy="169.47" rx="3.09" ry="5.34" transform="translate(-56.3 128.83) rotate(-30)"/><path class="cls-10" d="M354.79,222.58l-114-65.82c-1.92-1.1-3.47-4.08-3.47-6.64V73.51c0-2.56,1.55-3.74,3.47-2.62l114,65.81c1.92,1.11,3.47,4.08,3.47,6.65V220C358.26,222.52,356.71,223.69,354.79,222.58Z"/><path class="cls-5" d="M341.62,166.89l-88.36-51c-2.14-1.24-3.88-4.56-3.88-7.41V102.7c0-2.86,1.74-4.17,3.88-2.93l88.36,51c2.14,1.23,3.87,4.54,3.87,7.4V164C345.49,166.81,343.76,168.12,341.62,166.89Z"/><path class="cls-11" d="M293.57,165.1l-40.31-23.27c-2.14-1.24-3.88-4.55-3.88-7.41v-5.74c0-2.86,1.74-4.16,3.88-2.93L293.57,149c2.14,1.23,3.87,4.55,3.87,7.41v5.73C297.44,165,295.71,166.33,293.57,165.1Z"/><path class="cls-12" d="M378.25,239.44s-43,9.47-77.72-29.12-63.08-33.64-63.08-33.64v24.09l140.8,81.28Z"/><path class="cls-13" d="M378.25,239.44s-43,9.47-77.72-29.12-63.08-33.64-63.08-33.64"/><path class="cls-1" d="M404,255.37,335.81,216c-4.29-2.45-7.76-9.1-7.76-14.81V93.88c0-5.72,3.47-8.33,7.76-5.86L404,127.4c4.27,2.45,7.74,9.1,7.74,14.81V249.53C411.75,255.25,408.28,257.84,404,255.37Z"/><path class="cls-1" d="M329.32,88.32a13.41,13.41,0,0,1,2.16-1l1.73,3.42Z"/><path class="cls-14" d="M402.22,256.27,334,216.87c-4.28-2.45-7.75-9.11-7.75-14.81V94.78c0-5.72,3.47-8.34,7.75-5.87l68.21,39.39c4.28,2.45,7.75,9.09,7.75,14.8V250.4C410,256.11,406.5,258.74,402.22,256.27Z"/><polygon class="cls-15" points="346.42 111.29 334.01 104.13 334.01 99.65 346.42 106.81 346.42 111.29"/><polygon class="cls-16" points="401.44 143.06 348.74 112.63 348.74 108.16 401.44 138.59 401.44 143.06"/><polygon class="cls-15" points="346.42 125.61 334.01 118.45 334.01 113.97 346.42 121.14 346.42 125.61"/><polygon class="cls-17" points="383.62 147.09 348.74 126.95 348.74 122.47 383.62 142.61 383.62 147.09"/><polygon class="cls-15" points="346.42 132.76 334.01 125.61 334.01 121.14 346.42 128.29 346.42 132.76"/><polygon class="cls-18" points="392.14 159.17 348.74 134.11 348.74 129.64 392.14 154.7 392.14 159.17"/><polygon class="cls-15" points="346.42 139.92 334.01 132.76 334.01 128.29 346.42 135.45 346.42 139.92"/><polygon class="cls-15" points="378.97 158.72 348.74 141.27 348.74 136.8 378.97 154.25 378.97 158.72"/><polygon class="cls-15" points="346.42 118.45 334.01 111.29 334.01 106.81 346.42 113.97 346.42 118.45"/><polygon class="cls-19" points="375.09 135.01 348.74 119.79 348.74 115.31 375.09 130.53 375.09 135.01"/><polygon class="cls-15" points="346.42 147.09 334.01 139.92 334.01 135.45 346.42 142.61 346.42 147.09"/><polygon class="cls-16" points="364.24 157.37 348.74 148.43 348.74 143.95 364.24 152.9 364.24 157.37"/><polygon class="cls-15" points="346.42 161.4 334.01 154.25 334.01 149.77 346.42 156.93 346.42 161.4"/><polygon class="cls-17" points="397.57 190.93 348.74 162.75 348.74 158.27 397.57 186.46 397.57 190.93"/><polygon class="cls-15" points="346.42 168.56 334.01 161.4 334.01 156.93 346.42 164.09 346.42 168.56"/><polygon class="cls-18" points="363.46 178.41 348.74 169.91 348.74 165.43 363.46 173.93 363.46 178.41"/><polygon class="cls-15" points="346.42 175.72 334.01 168.56 334.01 164.09 346.42 171.25 346.42 175.72"/><polygon class="cls-15" points="392.14 202.12 348.74 177.06 348.74 172.59 392.14 197.65 392.14 202.12"/><polygon class="cls-15" points="346.42 154.25 334.01 147.09 334.01 142.61 346.42 149.77 346.42 154.25"/><polygon class="cls-19" points="389.81 179.31 348.74 155.59 348.74 151.11 389.81 174.83 389.81 179.31"/><polygon class="cls-15" points="346.42 182.88 334.01 175.72 334.01 171.25 346.42 178.41 346.42 182.88"/><polygon class="cls-16" points="354.16 187.36 348.74 184.22 348.74 179.75 354.16 182.88 354.16 187.36"/><polygon class="cls-15" points="346.42 197.2 334.01 190.04 334.01 185.57 346.42 192.73 346.42 197.2"/><polygon class="cls-17" points="358.82 204.36 348.74 198.54 348.74 194.07 358.82 199.88 358.82 204.36"/><polygon class="cls-15" points="346.42 204.36 334.01 197.2 334.01 192.72 346.42 199.88 346.42 204.36"/><polygon class="cls-18" points="375.09 220.92 348.74 205.71 348.74 201.23 375.09 216.44 375.09 220.92"/><polygon class="cls-15" points="346.42 211.52 334.01 204.36 334.01 199.88 346.42 207.04 346.42 211.52"/><polygon class="cls-15" points="390.59 237.03 348.74 212.86 348.74 208.38 390.59 232.55 390.59 237.03"/><polygon class="cls-15" points="346.42 190.04 334.01 182.88 334.01 178.41 346.42 185.57 346.42 190.04"/><polygon class="cls-19" points="401.44 221.82 348.74 191.38 348.74 186.91 401.44 217.33 401.44 221.82"/><path class="cls-2" d="M58.38,174.36l-7.45-3.82-15.6,9c-3.54,2-6.41.39-6.41-3.7v-17a14.16,14.16,0,0,1,6.41-11.11L128.26,94c3.53-2,6.41-.38,6.41,3.7V114.8a14.18,14.18,0,0,1-6.41,11.1L65.77,162"/><polygon class="cls-2" points="132.34 93.38 135.85 94.8 132.88 97.86 130.77 94.48 132.34 93.38"/><polygon class="cls-2" points="58.38 174.36 62.08 175.84 62.08 172.66 58.81 172.01 58.38 174.36"/><path class="cls-2" d="M35.1,181.76c.14.29-4-1.41-4.16-1.64s5-3.26,5-3.26Z"/><path class="cls-10" d="M69.47,163.42,132,127.36a14.22,14.22,0,0,0,6.41-11.11v-17c0-4.09-2.88-5.72-6.41-3.71L39,149.19a14.22,14.22,0,0,0-6.41,11.11v17c0,4.08,2.88,5.72,6.41,3.7l15.61-9,7.48,3.83Z"/><polygon class="cls-11" points="130.03 110.33 40.92 161.78 40.92 155.85 130.03 104.4 130.03 110.33"/><polygon class="cls-11" points="99.26 138.46 40.92 172.15 40.92 166.22 99.26 132.53 99.26 138.46"/></svg>