<svg id="Capa_1" data-name="Capa 1" xmlns="http://www.w3.org/2000/svg" xmlns:xlink="http://www.w3.org/1999/xlink" viewBox="0 0 428 428"><defs><style>.cls-1{fill:#211b49;}.cls-2{fill:#b1b4c4;}.cls-3{fill:#e4e7f2;}.cls-4,.cls-7{fill:#d6d8e5;}.cls-5{fill:#fff;}.cls-6,.cls-7{isolation:isolate;}.cls-6{opacity:0.5;fill:url(#Degradado_sin_nombre);}.cls-7{opacity:0.4;}.cls-8{fill:#2b303f;}.cls-9{fill:#c3c6d1;}.cls-10{fill:#e9eaf2;}.cls-11{fill:#7676b6;}.cls-12{fill:url(#Degradado_sin_nombre_2);}.cls-13{fill:none;stroke:#cccedd;stroke-miterlimit:10;stroke-width:1.06px;}.cls-14{fill:#2e245b;}.cls-15{fill:#a298e2;}.cls-16{fill:#c33afc;}.cls-17{fill:#e3b23c;}.cls-18{fill:#ea516f;}.cls-19{fill:#7abe7b;}.cls-20{fill:#b1b6c4;}.cls-21{fill:#c4c7d6;}.cls-22{fill:#38226d;}.cls-23{fill:#9c73ff;}.cls-24{fill:#ffcea9;}.cls-25{fill:#ededed;}.cls-26{fill:#e5e5e5;}.cls-27{fill:#f4f4f4;}.cls-28{fill:#bfbfbf;}.cls-29{fill:#3a2c6d;}.cls-30{fill:#dceeff;}.cls-31{fill:#dbdbdb;}.cls-32{fill:#1e3779;}.cls-33{fill:#031f60;}</style><linearGradient id="Degradado_sin_nombre" x1="-263.72" y1="-1891.09" x2="-263.72" y2="-1748.9" gradientTransform="matrix(0.87, 0.5, 0, -1.15, 516.41, -1811.81)" gradientUnits="userSpaceOnUse"><stop offset="0.21" stop-color="#fff" stop-opacity="0"/><stop offset="1" stop-color="#fff" stop-opacity="0.2"/></linearGradient><linearGradient id="Degradado_sin_nombre_2" x1="233.12" y1="9.21" x2="233.12" y2="-29.21" gradientTransform="matrix(0.87, 0.5, 0, -1.15, 100.77, 81.89)" gradientUnits="userSpaceOnUse"><stop offset="0" stop-color="#e9eaf2" stop-opacity="0.8"/><stop offset="1" stop-color="#e9eaf2" stop-opacity="0"/></linearGradient></defs><polygon class="cls-1" points="406.53 250.68 408.96 249.48 407.32 246.25 406.53 250.68"/><path class="cls-2" d="M395.7,311.5,183.13,188.76c-3-1.7-5.4-6.34-5.4-10.31V14c0-4,2.41-5.81,5.4-4.08L395.7,132.66c3,1.7,5.4,6.34,5.4,10.31V307.42C401.13,311.4,398.72,313.23,395.7,311.5Z"/><polygon class="cls-2" points="396.83 313.2 399.18 311.84 398.16 304.87 396.83 313.2"/><path class="cls-2" d="M177.35,10.9l2.32-1.34,3.33,1.9s-3.55.54-3.64.52S177.35,10.9,177.35,10.9Z"/><path class="cls-3" d="M393.78,312.67,181.18,189.89c-3-1.7-5.41-6.34-5.41-10.32V15.15c0-4,2.43-5.8,5.41-4.08l212.6,122.75c3,1.7,5.4,6.34,5.4,10.32V308.55C399.18,312.52,396.77,314.37,393.78,312.67Z"/><path class="cls-4" d="M393.41,312.85,180.81,190.1c-3-1.7-5.41-6.34-5.41-10.32V15.32c0-4,2.42-5.79,5.41-4.08L393.41,134c3,1.7,5.4,6.34,5.4,10.32V308.77C398.81,312.74,396.39,314.57,393.41,312.85Z"/><path class="cls-5" d="M395.88,302.84,178.09,177.11,178.21,16c0-1.65,1.16-2.32,2.55-1.49L393.37,137.25a5.74,5.74,0,0,1,2.55,4.48Z"/><path class="cls-6" d="M395.82,302.85,178.09,177.12,178.15,16c0-1.65,1.16-2.32,2.56-1.49l212.6,122.74a5.74,5.74,0,0,1,2.55,4.48Z"/><path class="cls-7" d="M233.06,408.41,20.46,285.66c-3-1.7-2.61-4.72.85-6.71l142.42-82.24c3.4-2,8.65-2.2,11.63-.47L388,319c3,1.7,2.6,4.73-.85,6.72L244.69,407.93C241.24,409.91,236,410.13,233.06,408.41Z"/><path class="cls-2" d="M237.7,405.62,25.08,282.92c-3-1.7-2.61-4.73.85-6.72L168.35,194c3.4-2,8.66-2.21,11.64-.49l212.6,122.75c3,1.7,2.61,4.72-.85,6.71l-142.4,82.19C245.89,407.13,240.68,407.35,237.7,405.62Z"/><polygon class="cls-2" points="23.08 280.1 23.08 276.09 27.59 277.98 23.08 280.1"/><polygon class="cls-2" points="394.61 319.2 394.61 315.28 391.28 316.43 393.49 319.67 394.61 319.2"/><path class="cls-3" d="M237.7,402.25,25.08,279.52c-3-1.7-2.61-4.73.85-6.72l142.42-82.23c3.4-2,8.66-2.2,11.64-.48l212.6,122.75c3,1.7,2.61,4.72-.85,6.71l-142.4,82.21C245.89,403.75,240.68,404,237.7,402.25Z"/><path class="cls-4" d="M237.7,401.73,25.08,279c-3-1.7-2.61-4.73.85-6.71L168.35,190c3.4-2,8.66-2.2,11.64-.48L392.59,312.3c3,1.7,2.61,4.73-.85,6.72l-142.4,82.22C245.89,403.23,240.68,403.44,237.7,401.73Z"/><path class="cls-8" d="M164.41,217.77l-9.89-5.71c-.85-.47-.71-1.29.22-1.82l9.45-5.46a3.48,3.48,0,0,1,3.14-.13l9.91,5.72c.8.46.7,1.28-.23,1.82l-9.45,5.45A3.5,3.5,0,0,1,164.41,217.77Z"/><path class="cls-8" d="M178.43,225.86l-9.91-5.72c-.8-.46-.7-1.27.23-1.82l9.45-5.45a3.5,3.5,0,0,1,3.15-.12l9.9,5.71c.85.47.7,1.28-.23,1.82l-9.45,5.45A3.48,3.48,0,0,1,178.43,225.86Z"/><path class="cls-8" d="M192.6,234.05l-9.9-5.72c-.85-.47-.7-1.29.22-1.82l9.46-5.45a3.45,3.45,0,0,1,3.14-.14l9.9,5.72c.85.46.71,1.28-.23,1.82l-9.44,5.45A3.53,3.53,0,0,1,192.6,234.05Z"/><path class="cls-8" d="M206.45,242l-9.9-5.71c-.81-.47-.71-1.29.23-1.82l9.44-5.46a3.52,3.52,0,0,1,3.16-.13l9.9,5.71c.81.47.71,1.29-.23,1.82l-9.44,5.46A3.52,3.52,0,0,1,206.45,242Z"/><path class="cls-8" d="M220.47,250.13l-9.9-5.71c-.85-.47-.71-1.28.23-1.82l9.44-5.46a3.53,3.53,0,0,1,3.15-.13l9.9,5.72c.81.46.7,1.28-.23,1.82L223.62,250A3.5,3.5,0,0,1,220.47,250.13Z"/><path class="cls-8" d="M234.48,258.27l-9.9-5.72c-.8-.46-.71-1.28.23-1.82l9.44-5.45a3.5,3.5,0,0,1,3.15-.13l9.91,5.71c.8.47.7,1.29-.23,1.82l-9.45,5.46A3.53,3.53,0,0,1,234.48,258.27Z"/><path class="cls-8" d="M248.5,266.32l-9.91-5.72c-.8-.46-.7-1.28.23-1.82l9.45-5.45a3.5,3.5,0,0,1,3.15-.13l9.89,5.71c.81.47.71,1.29-.22,1.82l-9.45,5.45A3.45,3.45,0,0,1,248.5,266.32Z"/><path class="cls-8" d="M262.5,274.42l-9.89-5.72c-.81-.47-.71-1.28.22-1.82l9.45-5.45a3.47,3.47,0,0,1,3.15-.14l9.9,5.72c.85.47.71,1.28-.23,1.82l-9.46,5.44A3.48,3.48,0,0,1,262.5,274.42Z"/><path class="cls-8" d="M276.52,282.49l-9.9-5.71c-.81-.47-.71-1.28.23-1.82l9.44-5.45a3.52,3.52,0,0,1,3.16-.13l9.89,5.72c.81.46.71,1.27-.22,1.82l-9.44,5.44A3.52,3.52,0,0,1,276.52,282.49Z"/><path class="cls-8" d="M290.53,290.57l-9.89-5.71c-.81-.47-.71-1.29.22-1.82l9.43-5.44a3.5,3.5,0,0,1,3.15-.13l9.9,5.71c.81.47.71,1.28-.23,1.82l-9.42,5.46A3.55,3.55,0,0,1,290.53,290.57Z"/><path class="cls-8" d="M304.55,298.68,294.64,293c-.8-.46-.7-1.28.23-1.81l9.45-5.46a3.5,3.5,0,0,1,3.15-.13l9.9,5.71c.81.47.71,1.29-.22,1.82l-9.45,5.46A3.5,3.5,0,0,1,304.55,298.68Z"/><path class="cls-8" d="M318.56,306.77l-9.9-5.71c-.81-.47-.7-1.29.23-1.82l9.45-5.46a3.52,3.52,0,0,1,3.16-.13l9.89,5.72c.85.46.71,1.28-.23,1.81l-9.42,5.46A3.5,3.5,0,0,1,318.56,306.77Z"/><path class="cls-8" d="M332.57,314.86l-9.89-5.72c-.85-.47-.72-1.27.22-1.82l9.44-5.45a3.52,3.52,0,0,1,3.16-.13l9.9,5.72c.81.47.71,1.27-.23,1.82l-9.44,5.45A3.52,3.52,0,0,1,332.57,314.86Z"/><path class="cls-8" d="M353.34,326.85l-16.65-9.62c-.81-.46-.71-1.28.23-1.82L346.4,310a3.47,3.47,0,0,1,3.15-.14l16.61,9.64c.81.47.7,1.28-.22,1.82l-9.45,5.46A3.53,3.53,0,0,1,353.34,326.85Z"/><path class="cls-8" d="M171.62,237.61l-9.9-5.7c-.85-.46-.71-1.28.22-1.81l9.45-5.46a3.5,3.5,0,0,1,3.15-.13l9.9,5.7c.8.47.7,1.29-.22,1.82l-9.46,5.46A3.48,3.48,0,0,1,171.62,237.61Z"/><path class="cls-8" d="M185.65,245.72,175.76,240c-.81-.47-.71-1.29.22-1.82l9.45-5.43a3.53,3.53,0,0,1,3.15-.12l9.91,5.68c.81.46.7,1.28-.23,1.81l-9.45,5.46A3.52,3.52,0,0,1,185.65,245.72Z"/><path class="cls-8" d="M199.69,253.82l-9.9-5.71c-.85-.47-.7-1.29.23-1.82l9.45-5.46a3.5,3.5,0,0,1,3.15-.13l9.89,5.72c.81.46.71,1.28-.22,1.82l-9.45,5.45A3.5,3.5,0,0,1,199.69,253.82Z"/><path class="cls-8" d="M213.73,261.93l-9.9-5.72c-.81-.46-.71-1.28.23-1.82l9.44-5.47a3.47,3.47,0,0,1,3.15-.14l9.89,5.75c.81.46.7,1.27-.23,1.81l-9.44,5.45A3.51,3.51,0,0,1,213.73,261.93Z"/><path class="cls-8" d="M227.65,270l-9.89-5.75c-.81-.47-.71-1.28.22-1.82l9.45-5.45a3.47,3.47,0,0,1,3.15-.14l9.9,5.72c.85.46.71,1.28-.23,1.82l-9.46,5.48A3.51,3.51,0,0,1,227.65,270Z"/><path class="cls-8" d="M241.7,278.07l-9.91-5.71c-.81-.47-.7-1.28.23-1.82l9.45-5.47a3.5,3.5,0,0,1,3.15-.13l9.89,5.71c.81.47.71,1.28-.22,1.82l-9.45,5.46A3.48,3.48,0,0,1,241.7,278.07Z"/><path class="cls-8" d="M255.73,286.17l-9.9-5.71c-.81-.47-.71-1.28.23-1.82l9.44-5.45a3.5,3.5,0,0,1,3.15-.13l9.91,5.72c.8.46.7,1.27-.23,1.82l-9.45,5.45A3.53,3.53,0,0,1,255.73,286.17Z"/><path class="cls-8" d="M269.76,294.28l-9.89-5.71c-.81-.47-.71-1.28.23-1.82l9.44-5.46a3.5,3.5,0,0,1,3.15-.12l9.9,5.71c.81.47.71,1.28-.23,1.82l-9.44,5.45A3.52,3.52,0,0,1,269.76,294.28Z"/><path class="cls-8" d="M283.81,302.38l-9.91-5.71c-.85-.47-.7-1.28.23-1.82l9.45-5.46a3.5,3.5,0,0,1,3.15-.12l9.9,5.71c.8.47.71,1.28-.23,1.82L287,302.26A3.53,3.53,0,0,1,283.81,302.38Z"/><path class="cls-8" d="M297.84,310.49,288,304.77c-.81-.46-.71-1.27.22-1.82l9.45-5.45a3.54,3.54,0,0,1,3.14-.13l9.93,5.72c.81.47.71,1.28-.23,1.82L301,310.36A3.5,3.5,0,0,1,297.84,310.49Z"/><path class="cls-8" d="M311.88,318.62l-9.9-5.71c-.81-.47-.71-1.29.23-1.82l9.44-5.46a3.52,3.52,0,0,1,3.16-.13l9.89,5.71c.81.47.71,1.29-.22,1.82L315,318.49A3.5,3.5,0,0,1,311.88,318.62Z"/><path class="cls-8" d="M325.92,326.7,316,321c-.8-.47-.71-1.27.22-1.82l9.45-5.45a3.5,3.5,0,0,1,3.15-.13l9.9,5.72c.81.47.71,1.27-.22,1.82l-9.45,5.45A3.5,3.5,0,0,1,325.92,326.7Z"/><path class="cls-8" d="M157.58,229.51l-16.65-9.62c-.81-.46-.7-1.27.22-1.81l9.46-5.45a3.45,3.45,0,0,1,3.14-.14l16.69,9.62c.8.46.7,1.28-.23,1.81l-9.48,5.44A3.5,3.5,0,0,1,157.58,229.51Z"/><path class="cls-8" d="M352.66,327.37l-9.89-5.72a3.26,3.26,0,0,0-2.95,0l-10,5.77c-.85.46-.85,1.22,0,1.7l.8.46a.83.83,0,0,1,0,1.56L320,337.23c-.85.47-.85,1.23,0,1.7l6.3,3.63a3.24,3.24,0,0,0,2.94,0l9.87-5.69,2-1.18,1.47-.85,1.48-.85,8.5-4.91C353.47,328.59,353.47,327.83,352.66,327.37Z"/><path class="cls-8" d="M110.13,249.17l-9.89-5.71c-.85-.47-.71-1.29.22-1.82l9.45-5.48a3.53,3.53,0,0,1,3.15-.12l9.9,5.71c.81.47.71,1.28-.23,1.82L113.29,249A3.55,3.55,0,0,1,110.13,249.17Z"/><path class="cls-8" d="M124.11,257.24l-9.9-5.72c-.85-.46-.7-1.28.23-1.81l9.45-5.46a3.48,3.48,0,0,1,3.14-.13l9.91,5.71c.8.47.7,1.29-.23,1.82l-9.45,5.46A3.5,3.5,0,0,1,124.11,257.24Z"/><path class="cls-8" d="M138.08,265.3l-9.89-5.71c-.85-.47-.71-1.28.22-1.82l9.44-5.45a3.52,3.52,0,0,1,3.16-.13l9.88,5.71c.8.47.7,1.28-.23,1.82l-9.45,5.46A3.52,3.52,0,0,1,138.08,265.3Z"/><path class="cls-8" d="M256.82,334.05l-10.27-5.94c-.88-.48-.73-1.32.24-1.89l9.79-5.65a3.66,3.66,0,0,1,3.27-.14l10.25,5.93c.88.49.73,1.33-.24,1.89l-9.78,5.7A3.6,3.6,0,0,1,256.82,334.05Z"/><path class="cls-8" d="M270.68,342.19l-10.27-5.92c-.88-.49-.73-1.33.23-1.89l9.81-5.66a3.6,3.6,0,0,1,3.26-.13L284,334.51c.89.49.74,1.33-.23,1.89l-9.8,5.66A3.63,3.63,0,0,1,270.68,342.19Z"/><path class="cls-8" d="M285,350.15l-9.89-5.72c-.81-.46-.71-1.28.22-1.81l9.45-5.46A3.48,3.48,0,0,1,288,337l9.91,5.71c.85.47.7,1.29-.23,1.82L288.18,350A3.5,3.5,0,0,1,285,350.15Z"/><path class="cls-8" d="M299,358.21l-9.9-5.71c-.81-.47-.7-1.28.22-1.82l9.46-5.45a3.5,3.5,0,0,1,3.15-.13l9.9,5.71c.85.47.71,1.28-.23,1.82l-9.42,5.46A3.5,3.5,0,0,1,299,358.21Z"/><path class="cls-8" d="M155.65,275.45l-13.49-7.79c-.81-.47-.71-1.28.23-1.82l9.44-5.46a3.53,3.53,0,0,1,3.15-.13l13.5,7.8c.85.47.71,1.27-.23,1.82l-9.44,5.45A3.52,3.52,0,0,1,155.65,275.45Z"/><path class="cls-8" d="M243.12,326l-13.5-7.8c-.85-.47-.71-1.28.22-1.82l9.45-5.46a3.53,3.53,0,0,1,3.15-.12l13.49,7.79c.81.47.71,1.28-.22,1.82l-9.45,5.45A3.45,3.45,0,0,1,243.12,326Z"/><path class="cls-8" d="M225.54,315.8l-65.81-38c-.8-.47-.7-1.29.23-1.82l9.45-5.46a3.48,3.48,0,0,1,3.14-.13l65.81,38c.81.47.71,1.28-.23,1.82l-9.44,5.45A3.5,3.5,0,0,1,225.54,315.8Z"/><path class="cls-8" d="M161.84,247.66,152,241.94c-.81-.46-.71-1.28.23-1.81l9.44-5.46a3.5,3.5,0,0,1,3.15-.13l9.92,5.71c.85.47.7,1.29-.23,1.82L165,247.53A3.54,3.54,0,0,1,161.84,247.66Z"/><path class="cls-8" d="M175.84,255.72,166,250c-.81-.46-.71-1.27.22-1.81l9.45-5.45a3.5,3.5,0,0,1,3.15-.14l9.9,5.72c.85.47.71,1.28-.23,1.82L179,255.58A3.49,3.49,0,0,1,175.84,255.72Z"/><path class="cls-8" d="M189.84,263.82l-9.9-5.72c-.85-.46-.71-1.28.23-1.81l9.44-5.46a3.52,3.52,0,0,1,3.16-.13l9.89,5.71c.85.47.72,1.29-.22,1.82L193,263.69A3.52,3.52,0,0,1,189.84,263.82Z"/><path class="cls-8" d="M203.84,271.87l-9.9-5.72c-.85-.46-.71-1.28.23-1.81l9.42-5.43a3.53,3.53,0,0,1,3.15-.13l9.9,5.72c.85.46.7,1.28-.22,1.82L207,271.77A3.5,3.5,0,0,1,203.84,271.87Z"/><path class="cls-8" d="M217.83,280l-9.89-5.71c-.85-.47-.71-1.28.22-1.82l9.45-5.45a3.5,3.5,0,0,1,3.15-.13l9.9,5.71c.85.47.71,1.28-.23,1.82L221,279.86A3.52,3.52,0,0,1,217.83,280Z"/><path class="cls-8" d="M231.84,288.07l-9.9-5.72c-.85-.47-.71-1.28.22-1.82l9.48-5.45a3.47,3.47,0,0,1,3.15-.14l9.91,5.72c.8.47.7,1.28-.23,1.82L235,287.93A3.47,3.47,0,0,1,231.84,288.07Z"/><path class="cls-8" d="M245.84,296.14l-9.91-5.71c-.81-.47-.7-1.28.23-1.82l9.45-5.46a3.53,3.53,0,0,1,3.15-.12l9.89,5.71c.85.47.71,1.28-.22,1.82L249,296A3.48,3.48,0,0,1,245.84,296.14Z"/><path class="cls-8" d="M259.84,304.23l-9.91-5.71c-.81-.47-.7-1.29.23-1.82l9.45-5.46a3.5,3.5,0,0,1,3.15-.13l9.89,5.71c.81.47.71,1.29-.23,1.82L263,304.1A3.48,3.48,0,0,1,259.84,304.23Z"/><path class="cls-8" d="M273.83,312.31l-9.89-5.71c-.81-.47-.7-1.28.22-1.82l9.45-5.46a3.5,3.5,0,0,1,3.15-.12l9.9,5.71c.81.47.71,1.28-.23,1.82L277,312.18A3.49,3.49,0,0,1,273.83,312.31Z"/><path class="cls-8" d="M287.83,320.4l-9.91-5.73c-.8-.46-.7-1.27.23-1.81l9.45-5.45a3.47,3.47,0,0,1,3.15-.14l9.9,5.72c.81.46.71,1.28-.23,1.82L291,320.26A3.53,3.53,0,0,1,287.83,320.4Z"/><path class="cls-8" d="M301.83,328.47l-9.91-5.71c-.8-.47-.7-1.29.23-1.82l9.45-5.46a3.53,3.53,0,0,1,3.15-.13l9.9,5.72c.85.46.7,1.28-.22,1.82L305,328.34A3.48,3.48,0,0,1,301.83,328.47Z"/><path class="cls-8" d="M315.79,336.55l-9.89-5.71c-.81-.47-.71-1.28.23-1.82l9.44-5.45a3.5,3.5,0,0,1,3.15-.13l9.9,5.71c.81.47.71,1.28-.23,1.82l-9.42,5.5A3.5,3.5,0,0,1,315.79,336.55Z"/><path class="cls-8" d="M147.85,239.56l-20.48-11.81c-.85-.47-.7-1.28.23-1.82l9.45-5.46a3.5,3.5,0,0,1,3.15-.12l20.47,11.81c.85.47.71,1.28-.22,1.82L151,239.44A3.5,3.5,0,0,1,147.85,239.56Z"/><path class="cls-8" d="M141.31,251.47l-9.89-5.7c-.81-.47-.71-1.27.22-1.82l9.44-5.45a3.52,3.52,0,0,1,3.16-.13l9.9,5.72c.81.46.71,1.27-.23,1.82l-9.44,5.44A3.52,3.52,0,0,1,141.31,251.47Z"/><path class="cls-8" d="M155.31,259.57l-9.9-5.72c-.81-.46-.7-1.28.23-1.82l9.44-5.45a3.52,3.52,0,0,1,3.16-.13l9.89,5.71c.85.47.71,1.29-.22,1.82l-9.45,5.46A3.5,3.5,0,0,1,155.31,259.57Z"/><path class="cls-8" d="M169.31,267.62l-9.92-5.69c-.85-.47-.71-1.28.23-1.82l9.44-5.45a3.5,3.5,0,0,1,3.15-.13l9.91,5.72c.85.46.7,1.27-.23,1.82l-9.45,5.44A3.49,3.49,0,0,1,169.31,267.62Z"/><path class="cls-8" d="M183.3,275.73,173.4,270c-.85-.46-.7-1.28.23-1.82l9.45-5.45a3.48,3.48,0,0,1,3.14-.13l9.9,5.71c.81.47.71,1.29-.22,1.82l-9.45,5.46A3.53,3.53,0,0,1,183.3,275.73Z"/><path class="cls-8" d="M197.3,283.81l-9.86-5.71c-.81-.47-.71-1.29.23-1.82l9.44-5.46a3.5,3.5,0,0,1,3.15-.13l9.9,5.72c.81.46.71,1.28-.22,1.81l-9.45,5.45A3.49,3.49,0,0,1,197.3,283.81Z"/><path class="cls-8" d="M211.54,291.94,201.27,286c-.83-.48-.73-1.33.23-1.89l9.81-5.66a3.6,3.6,0,0,1,3.26-.13l10.28,5.93c.83.48.73,1.33-.24,1.88l-9.8,5.66A3.66,3.66,0,0,1,211.54,291.94Z"/><path class="cls-8" d="M225.29,300l-9.9-5.71c-.81-.47-.71-1.29.23-1.82l9.44-5.46a3.5,3.5,0,0,1,3.15-.13l9.9,5.71c.81.47.7,1.29-.22,1.82l-9.45,5.46A3.5,3.5,0,0,1,225.29,300Z"/><path class="cls-8" d="M239.29,308.05l-9.89-5.72c-.81-.47-.71-1.27.22-1.82l9.45-5.45a3.48,3.48,0,0,1,3.14-.13l9.91,5.72c.8.46.7,1.27-.23,1.82l-9.45,5.45A3.5,3.5,0,0,1,239.29,308.05Z"/><path class="cls-8" d="M253.28,316.13l-9.9-5.71c-.81-.47-.71-1.29.23-1.82l9.44-5.46a3.52,3.52,0,0,1,3.16-.13l9.89,5.71c.81.47.71,1.29-.22,1.82L256.43,316A3.5,3.5,0,0,1,253.28,316.13Z"/><path class="cls-8" d="M267.27,324.21l-9.89-5.72c-.81-.46-.71-1.27.22-1.82l9.45-5.45a3.5,3.5,0,0,1,3.15-.13l9.89,5.72c.81.47.71,1.27-.23,1.82l-9.44,5.45A3.5,3.5,0,0,1,267.27,324.21Z"/><path class="cls-8" d="M281.27,332.29l-9.9-5.71c-.81-.47-.71-1.29.23-1.82L281,319.3a3.52,3.52,0,0,1,3.16-.13l9.89,5.71c.81.47.71,1.29-.22,1.82l-9.45,5.46A3.5,3.5,0,0,1,281.27,332.29Z"/><path class="cls-8" d="M312.59,350.38l-27.2-15.72c-.81-.47-.72-1.28.22-1.82l9.44-5.46a3.52,3.52,0,0,1,3.16-.12L325.41,343c.81.46.7,1.28-.23,1.82l-9.45,5.45A3.51,3.51,0,0,1,312.59,350.38Z"/><path class="cls-8" d="M127.32,243.41l-13.5-7.8c-.85-.47-.7-1.28.22-1.82l9.46-5.45a3.48,3.48,0,0,1,3.14-.13l13.5,7.79c.81.47.71,1.29-.22,1.82l-9.44,5.46A3.52,3.52,0,0,1,127.32,243.41Z"/><path class="cls-8" d="M367.4,318.73,168.63,204c-.85-.46-.71-1.27.23-1.82l4.72-2.72a3.5,3.5,0,0,1,3.15-.13L375.5,314.05c.81.47.71,1.28-.23,1.82l-4.72,2.75A3.53,3.53,0,0,1,367.4,318.73Z"/><path class="cls-2" d="M244.26,331.78a3,3,0,0,1-1.37,1.43l-54.7,31.57a6.74,6.74,0,0,1-6.06.25l-93.5-54a2.14,2.14,0,0,1-.92-.94c-.34-.85.14-1.8,1.38-2.51L143.79,276a6.74,6.74,0,0,1,6.06-.24l93.5,54A1.64,1.64,0,0,1,244.26,331.78Z"/><path class="cls-9" d="M244.26,331.78a3,3,0,0,1-1.37,1.43l-54.7,31.57a6.74,6.74,0,0,1-6.06.25l-93.5-54a2.14,2.14,0,0,1-.92-.94,3.06,3.06,0,0,1,1.38-1.42l54.7-31.58a6.77,6.77,0,0,1,6.06-.26l93.5,54A2,2,0,0,1,244.26,331.78Z"/><path class="cls-8" d="M382.53,310,183.76,195.27a3.48,3.48,0,0,1-1.42-2.8v-2.34c0-1.07.65-1.57,1.46-1.1L382.57,303.79a3.43,3.43,0,0,1,1.46,2.78v2.34C384,310,383.34,310.49,382.53,310Z"/><path class="cls-10" d="M213.79,183.94l-19.64-11.32c-2.45-1.42-4.45-5.23-4.45-8.5V143.07c0-3.28,2-4.79,4.45-3.4L213.79,151c2.46,1.42,4.45,5.23,4.45,8.5v21C218.21,183.85,216.22,185.36,213.79,183.94Z"/><path class="cls-10" d="M213.71,135.72l-19.6-11.32c-2.46-1.42-4.45-7.22-4.45-10.06V89.75c0-3.28,2-4.78,4.45-3.4l19.6,11.32c2.47,1.42,4.46,5.23,4.46,8.5v24.58C218.17,133.64,216.18,137.13,213.71,135.72Z"/><path class="cls-11" d="M204,119.29a16,16,0,0,1-7.23-12.54c0-4.6,3.24-6.48,7.23-4.18a16,16,0,0,1,7.24,12.54C211.26,119.72,208,121.6,204,119.29Zm0-14.58c-3-1.7-5.38-.31-5.38,3.12a11.93,11.93,0,0,0,5.38,9.35c3,1.7,5.39.32,5.39-3.11A11.92,11.92,0,0,0,204,104.71Z"/><polygon class="cls-11" points="206.01 115.88 202.73 110.67 202.73 106.32 204.58 107.39 204.58 110.77 207.24 114.97 206.01 115.88"/><path class="cls-10" d="M213.69,83.72,194.08,72.4c-2.45-1.42-4.45-7.82-4.45-10.66V39.11c0-2.84,2-4,4.45-2.55l19.61,11.32a9.83,9.83,0,0,1,4.45,7.71V78.23C218.14,81,216.15,85.14,213.69,83.72Z"/><path class="cls-11" d="M203.89,56.59c-1.19-.68-2.14-.12-2.14,1.24a4.69,4.69,0,0,0,2.14,3.7c1.18.68,2.14.13,2.14-1.23A4.77,4.77,0,0,0,203.89,56.59Zm5.7.85-1.7-1a1.36,1.36,0,0,1-.56-.79l-.44-1.8a1.52,1.52,0,0,0-.57-.79l-4.85-2.79c-.24-.14-.48-.08-.56.14l-.44,1.28a.37.37,0,0,1-.48.19l-.08,0-1.7-1c-.78-.45-1.42-.08-1.42.85v7.42a3.13,3.13,0,0,0,1.42,2.46l11.4,6.59c.79.45,1.43.08,1.43-.85V59.89a3.15,3.15,0,0,0-1.45-2.47Zm-5.7,5.77A7.93,7.93,0,0,1,200.32,57c0-2.28,1.6-3.2,3.57-2.06a7.86,7.86,0,0,1,3.56,6.17c0,2.24-1.59,3.17-3.56,2Zm5.2-3.26a1.09,1.09,0,0,1-.5-.85c0-.32.23-.45.5-.29a1.09,1.09,0,0,1,.5.85c0,.3-.22.43-.5.27Z"/><path class="cls-11" d="M210.07,163.36c0,3.83-6,8.81-6,8.81s-6-11.9-6-15.76,2.69-5.39,6-3.47A13.28,13.28,0,0,1,210.07,163.36Z"/><ellipse class="cls-10" cx="204.06" cy="159.63" rx="3.21" ry="5.56" transform="translate(-52.47 123.42) rotate(-30)"/><path class="cls-10" d="M352.46,214.91,233.78,146.39c-2-1.15-3.62-4.25-3.62-6.91V59.72c0-2.66,1.62-3.88,3.62-2.73l118.68,68.52c2,1.15,3.61,4.25,3.61,6.92v79.75C356.07,214.85,354.45,216.07,352.46,214.91Z"/><path class="cls-5" d="M338.74,156.93l-92-53.1c-2.23-1.29-4-4.74-4-7.71v-6c0-3,1.81-4.33,4-3l92,53.1c2.23,1.28,4,4.74,4,7.71v6C342.77,156.86,341,158.22,338.74,156.93Z"/><path class="cls-11" d="M288.72,155.07l-42-24.23c-2.23-1.28-4-4.73-4-7.71v-6c0-3,1.81-4.34,4-3l42,24.22c2.23,1.29,4,4.74,4,7.71v6C292.75,155,291,156.35,288.72,155.07Z"/><path class="cls-12" d="M376.88,232.46s-44.74,9.86-80.91-30.31-65.67-35-65.67-35V192.2l146.58,84.62Z"/><path class="cls-13" d="M376.88,232.46s-44.74,9.86-80.91-30.31-65.67-35-65.67-35"/><path class="cls-1" d="M403.69,249l-71-41c-4.46-2.55-8.07-9.47-8.07-15.42V80.93c0-6,3.61-8.67,8.07-6.1l71,41c4.45,2.55,8.06,9.48,8.06,15.42V243C411.75,248.92,408.14,251.62,403.69,249Z"/><path class="cls-1" d="M325.94,75.14a15.5,15.5,0,0,1,2.25-1.08l1.8,3.56Z"/><path class="cls-14" d="M401.83,250l-71-41c-4.45-2.55-8.06-9.47-8.06-15.42V81.87c0-6,3.61-8.68,8.06-6.11l71,41c4.45,2.55,8.06,9.47,8.06,15.41v111.7C409.89,249.82,406.28,252.55,401.83,250Z"/><polygon class="cls-15" points="343.73 99.05 330.82 91.6 330.82 86.94 343.73 94.39 343.73 99.05"/><polygon class="cls-16" points="401.02 132.13 346.16 100.45 346.16 95.8 401.02 127.47 401.02 132.13"/><polygon class="cls-15" points="343.73 113.96 330.82 106.51 330.82 101.85 343.73 109.31 343.73 113.96"/><polygon class="cls-17" points="382.46 136.32 346.16 115.36 346.16 110.7 382.46 131.66 382.46 136.32"/><polygon class="cls-15" points="343.73 121.41 330.82 113.96 330.82 109.31 343.73 116.75 343.73 121.41"/><polygon class="cls-18" points="391.34 148.9 346.16 122.81 346.16 118.15 391.34 144.24 391.34 148.9"/><polygon class="cls-15" points="343.73 128.86 330.82 121.41 330.82 116.75 343.73 124.21 343.73 128.86"/><polygon class="cls-15" points="377.63 148.43 346.16 130.27 346.16 125.61 377.63 143.77 377.63 148.43"/><polygon class="cls-15" points="343.73 106.51 330.82 99.05 330.82 94.39 343.73 101.85 343.73 106.51"/><polygon class="cls-19" points="373.59 123.75 346.16 107.9 346.16 103.24 373.59 119.08 373.59 123.75"/><polygon class="cls-15" points="343.73 136.32 330.82 128.86 330.82 124.21 343.73 131.66 343.73 136.32"/><polygon class="cls-16" points="362.29 147.03 346.16 137.71 346.16 133.06 362.29 142.37 362.29 147.03"/><polygon class="cls-15" points="343.73 151.22 330.82 143.77 330.82 139.12 343.73 146.57 343.73 151.22"/><polygon class="cls-17" points="396.99 181.97 346.16 152.62 346.16 147.96 396.99 177.31 396.99 181.97"/><polygon class="cls-15" points="343.73 158.68 330.82 151.22 330.82 146.56 343.73 154.02 343.73 158.68"/><polygon class="cls-18" points="361.48 168.93 346.16 160.08 346.16 155.42 361.48 164.27 361.48 168.93"/><polygon class="cls-15" points="343.73 166.13 330.82 158.68 330.82 154.02 343.73 161.47 343.73 166.13"/><polygon class="cls-15" points="391.34 193.61 346.16 167.52 346.16 162.87 391.34 188.95 391.34 193.61"/><polygon class="cls-15" points="343.73 143.77 330.82 136.32 330.82 131.66 343.73 139.12 343.73 143.77"/><polygon class="cls-19" points="388.91 169.86 346.16 145.17 346.16 140.51 388.91 165.2 388.91 169.86"/><polygon class="cls-15" points="343.73 173.59 330.82 166.13 330.82 161.47 343.73 168.93 343.73 173.59"/><polygon class="cls-16" points="351.8 178.24 346.16 174.98 346.16 170.32 351.8 173.59 351.8 178.24"/><polygon class="cls-15" points="343.73 188.49 330.82 181.04 330.82 176.38 343.73 183.84 343.73 188.49"/><polygon class="cls-17" points="356.65 195.94 346.16 189.89 346.16 185.23 356.65 191.28 356.65 195.94"/><polygon class="cls-15" points="343.73 195.94 330.82 188.49 330.82 183.83 343.73 191.28 343.73 195.94"/><polygon class="cls-18" points="373.59 213.18 346.16 197.34 346.16 192.69 373.59 208.52 373.59 213.18"/><polygon class="cls-15" points="343.73 203.4 330.82 195.94 330.82 191.28 343.73 198.74 343.73 203.4"/><polygon class="cls-15" points="389.72 229.95 346.16 204.79 346.16 200.13 389.72 225.29 389.72 229.95"/><polygon class="cls-15" points="343.73 181.04 330.82 173.59 330.82 168.93 343.73 176.38 343.73 181.04"/><polygon class="cls-19" points="401.02 214.12 346.16 182.43 346.16 177.78 401.02 209.45 401.02 214.12"/><path class="cls-2" d="M43.88,164.71l-7.75-4-16.24,9.35c-3.68,2.13-6.68.41-6.68-3.85v-17.7A14.79,14.79,0,0,1,19.89,137L116.63,81.1c3.68-2.12,6.67-.4,6.67,3.85v17.76a14.75,14.75,0,0,1-6.67,11.56l-65,37.52"/><polygon class="cls-2" points="120.88 80.41 124.53 81.89 121.44 85.07 119.25 81.56 120.88 80.41"/><polygon class="cls-2" points="43.88 164.71 47.73 166.26 47.74 162.94 44.33 162.26 43.88 164.71"/><path class="cls-2" d="M19.65,172.41c.14.31-4.18-1.46-4.33-1.7s5.24-3.4,5.24-3.4Z"/><path class="cls-10" d="M55.43,153.33l65.05-37.55a14.76,14.76,0,0,0,6.67-11.56V86.5c0-4.25-3-6-6.67-3.86L23.7,138.51A14.78,14.78,0,0,0,17,150.07V167.8c0,4.25,3,5.95,6.67,3.85L40,162.3l7.78,4Z"/><polygon class="cls-11" points="118.47 98.06 25.71 151.61 25.71 145.45 118.47 91.89 118.47 98.06"/><polygon class="cls-11" points="86.44 127.34 25.71 162.41 25.71 156.24 86.44 121.17 86.44 127.34"/><polygon class="cls-7" points="41.6 420.18 13.39 404.04 55.6 379.89 83.79 396.01 41.6 420.18"/><polygon class="cls-4" points="42.18 387.65 18.82 374.17 42.18 360.68 65.53 374.17 42.18 387.65"/><polygon class="cls-20" points="42.18 414.62 18.82 401.13 18.82 374.17 42.18 387.65 42.18 414.62"/><polygon class="cls-21" points="65.54 401.13 42.18 414.62 42.18 387.65 65.54 374.17 65.54 401.13"/><path class="cls-22" d="M73.57,392.71a7.93,7.93,0,0,0,6-.73c1.45,0,9.32-3.31,10.39-.49.94,2.47-2.47,4.77-4.29,5.21-4,1-6.92,2.94-8.52,3.29a4,4,0,0,1-3.67-.53C72.36,398.27,72.46,394.12,73.57,392.71Z"/><path class="cls-23" d="M77.16,399.23c1.6-.34,4.55-2.32,8.52-3.28,1.52-.37,4.15-2,4.41-4,.36,2.28-2.72,4.3-4.41,4.71-4,1-6.92,2.95-8.52,3.29a4,4,0,0,1-3.67-.53,2,2,0,0,1-.51-.95A4.71,4.71,0,0,0,77.16,399.23Z"/><path class="cls-22" d="M59.39,385.09a7.93,7.93,0,0,0,6-.73c1.45,0,9.24-3.31,10.38-.49.93,2.47-2.47,4.77-4.28,5.21-4,1-6.92,2.94-8.52,3.29a4,4,0,0,1-3.67-.53C58.17,390.72,58.29,386.57,59.39,385.09Z"/><path class="cls-23" d="M63,391.68c1.6-.34,4.54-2.32,8.52-3.29,1.52-.37,4.14-2,4.41-4,.36,2.29-2.72,4.31-4.41,4.72-4,1-6.92,2.94-8.52,3.29a4,4,0,0,1-3.67-.53,2.19,2.19,0,0,1-.52-.94A4.8,4.8,0,0,0,63,391.68Z"/><path class="cls-11" d="M37.29,375.3c6.14,2.64,11.89,3.12,16.66.58l4.88-2.82c.29,6.31.57,12.37.57,12.37s3.75,2.84,6.6.31c0,0,.61-8.85,1.23-17.57l5.13-3a5.8,5.8,0,0,0-.2,1.43c0,1.65,1.19,26.25,1.19,26.25s3.77,2.25,6.69-.27c0,0,2-28.52,2.42-33,.5-5.12-5.18-7.65-8.78-6.34l-5.5,2.05.27-3.17c.51-5.12-5.18-7.65-8.77-6.34-3.28,1.2-25.41,9.5-25.41,9.5a56.45,56.45,0,0,0,.78,6.35l-8.74-.74C25.84,369.08,31.17,372.61,37.29,375.3Zm15.27-14.17,5.85-3.36a6.61,6.61,0,0,0-.18,1.25Z"/><path class="cls-24" d="M21.58,335.92s.71,10.87,2.14,12.44S30,351,30,351l3.71,6.05s-3.4-19.38-4.14-19.81S21.58,335.92,21.58,335.92Z"/><path id="_Контур_" data-name=" Контур " class="cls-25" d="M28.72,323.84a4.07,4.07,0,0,0-5.17,1.52c-1.33,2.26-2.79,10-2.92,11.35a5.47,5.47,0,0,0,4.79,2.21Z"/><path id="_Контур_2" data-name=" Контур 2" class="cls-24" d="M30,324c1.88.09,3.27.56,3.51,0A24.22,24.22,0,0,0,34,321.1c-.22-.55-.4-1.13-.4-1.13-2.36-1.45-3.1-4-3.42-7-.53-5.09,2.22-9.53,7.29-10.05,4.78-.51,8.29,2.85,9.24,7.46.5,2.27,1.51,6.6.15,10.31-.75,2.09-1.73,3.75-2.64,4.07a22.35,22.35,0,0,1-2.83-.24h0s-.25,1.41-.42,2.31-.12,1.39,1.69,2.5-2.72,3.39-5.68,3.17-6.29-2-7.2-4C28.66,326.43,28.74,323.92,30,324Z"/><g id="_Группа_" data-name=" Группа "><g id="_Группа_2" data-name=" Группа 2"><g id="_Группа_3" data-name=" Группа 3"><path id="_Контур_3" data-name=" Контур 3" class="cls-26" d="M77.65,357.25h0a1.52,1.52,0,0,1-.76,1.32l-14.33,8.27a1.55,1.55,0,0,1-1.53,0L41,355.24a1.5,1.5,0,0,1-.76-1.32v-.1Z"/><path id="_Контур_4" data-name=" Контур 4" class="cls-26" d="M76.89,358.57l-14.33,8.27a1.49,1.49,0,0,1-.77.21v-9.8H77.64A1.54,1.54,0,0,1,76.89,358.57Z"/><g id="_Группа_4" data-name=" Группа 4"><path id="_Контур_5" data-name=" Контур 5" class="cls-27" d="M62.33,366.09a1.08,1.08,0,0,1-1.07,0L40.38,354c-.26-.16-.26-.41,0-.55l15.38-8.89,21.89,12.65Z"/></g><g id="_Группа_5" data-name=" Группа 5"><polygon id="_Контур_6" data-name=" Контур 6" class="cls-28" points="48.95 357.25 49.06 357.3 55.76 361.17 59.43 359.05 59.53 358.99 52.73 355.07 48.95 357.25"/><polygon id="_Контур_7" data-name=" Контур 7" class="cls-26" points="49.06 357.3 55.76 361.17 59.43 359.05 52.73 355.19 49.06 357.3"/></g><path class="cls-29" d="M72,357.87l1,.56a.32.32,0,0,0,.3,0l.93-.53c.09,0,.1-.13,0-.17l-1-.57a.32.32,0,0,0-.3,0l-.93.54C71.91,357.75,71.89,357.83,72,357.87Z"/><path class="cls-29" d="M70.61,357.05l1,.56a.32.32,0,0,0,.3,0l.93-.53c.09,0,.09-.13,0-.17l-1-.56a.32.32,0,0,0-.3,0l-.93.53C70.55,357,70.53,357.05,70.61,357.05Z"/><path class="cls-29" d="M69.24,356.3l1,.55a.36.36,0,0,0,.32,0l.91-.52c.09,0,.11-.14,0-.19l-1-.55a.29.29,0,0,0-.31,0l-.92.52C69.17,356.17,69.16,356.25,69.24,356.3Z"/><path class="cls-29" d="M67.88,355.51l1,.55a.34.34,0,0,0,.31,0l.92-.53c.09,0,.11-.13,0-.18l-1-.56a.44.44,0,0,0-.32,0l-.91.53C67.81,355.38,67.8,355.45,67.88,355.51Z"/><path class="cls-29" d="M66.51,354.71l1,.56a.34.34,0,0,0,.31,0l.91-.53c.09,0,.1-.13,0-.17l-1-.57a.39.39,0,0,0-.3,0l-.92.54C66.44,354.6,66.43,354.68,66.51,354.71Z"/><path class="cls-29" d="M65.15,353.92l1,.57a.32.32,0,0,0,.3,0l.93-.54c.09,0,.1-.13,0-.17l-1-.56a.34.34,0,0,0-.31,0l-.91.53C65.08,353.8,65.07,353.88,65.15,353.92Z"/><path class="cls-29" d="M63.79,353.09l1,.56a.39.39,0,0,0,.3,0l.93-.53c.09,0,.09-.14,0-.19l-1-.55a.32.32,0,0,0-.3,0l-.92.53C63.71,353,63.71,353.09,63.79,353.09Z"/><path class="cls-29" d="M62.41,352.35l1,.56a.32.32,0,0,0,.3,0l.92-.53c.1,0,.11-.13,0-.17l-1-.57a.32.32,0,0,0-.3,0l-.93.54C62.35,352.23,62.33,352.31,62.41,352.35Z"/><path class="cls-29" d="M61.05,351.56l1,.55a.32.32,0,0,0,.3,0l.92-.53c.1,0,.1-.13,0-.17l-1-.56a.27.27,0,0,0-.3,0l-.92.52C60.93,351.44,60.93,351.52,61.05,351.56Z"/><path class="cls-29" d="M59.68,350.78l1,.55a.36.36,0,0,0,.32,0l.91-.52c.09,0,.11-.14,0-.19l-.94-.57a.32.32,0,0,0-.3,0l-.93.53C59.61,350.65,59.61,350.73,59.68,350.78Z"/><path class="cls-29" d="M58.29,350l1,.55a.32.32,0,0,0,.3,0l.92-.53c.1,0,.11-.13,0-.18l-.87-.57a.34.34,0,0,0-.31,0l-.92.53A.21.21,0,0,0,58.29,350Z"/><path class="cls-29" d="M57,349.19l1,.56a.32.32,0,0,0,.3,0l.93-.53c.08,0,.09-.13,0-.17l-1-.57a.39.39,0,0,0-.3,0L57,349C56.88,349.13,56.88,349.13,57,349.19Z"/><path class="cls-29" d="M55.65,348.4l1,.57a.34.34,0,0,0,.31,0l.92-.54c.09,0,.11-.13,0-.17l-1-.56a.36.36,0,0,0-.32,0l-.91.53C55.52,348.28,55.5,348.36,55.65,348.4Z"/><path class="cls-29" d="M53.56,347.24l1.63.94a.39.39,0,0,0,.3,0l.93-.53c.09,0,.09-.13,0-.19l-1.62-1a.32.32,0,0,0-.3,0l-.92.54a.12.12,0,0,0-.12.1.11.11,0,0,0,.1.11Z"/><path class="cls-29" d="M68.62,357.46l1,.56a.32.32,0,0,0,.3,0l.92-.53c.08,0,.1-.13,0-.17l-1-.56a.32.32,0,0,0-.3,0l-.93.53C68.55,357.34,68.55,357.42,68.62,357.46Z"/><path class="cls-29" d="M67.26,356.67l1,.57a.42.42,0,0,0,.31,0l.92-.54c.09,0,.11-.14,0-.18l-1-.55a.36.36,0,0,0-.32,0l-.91.53C67.19,356.55,67.18,356.63,67.26,356.67Z"/><path class="cls-29" d="M65.89,355.89l1,.55a.36.36,0,0,0,.32,0l.91-.52c.09,0,.1-.14,0-.19l-1-.55a.32.32,0,0,0-.3,0l-.92.53A.1.1,0,0,0,65.89,355.89Z"/><path class="cls-29" d="M64.52,355.1l1,.55a.32.32,0,0,0,.3,0l.93-.53c.09,0,.09-.13,0-.18l-1-.56a.39.39,0,0,0-.3,0l-.93.53A.11.11,0,0,0,64.52,355.1Z"/><path class="cls-29" d="M63.16,354.31l1,.56a.32.32,0,0,0,.3,0l.93-.54c.09,0,.1-.13,0-.17l-1-.55a.29.29,0,0,0-.31,0l-.92.52C63.1,354.19,63.09,354.27,63.16,354.31Z"/><path class="cls-29" d="M61.79,353.53l1,.55a.34.34,0,0,0,.31,0l.91-.53c.1,0,.11-.13,0-.18l-1-.56a.39.39,0,0,0-.3,0l-.93.53A.11.11,0,0,0,61.79,353.53Z"/><path class="cls-29" d="M60.43,352.73l1,.56a.42.42,0,0,0,.31,0l.92-.53c.1,0,.1-.13,0-.18l-1-.56a.39.39,0,0,0-.3,0l-.93.53A.1.1,0,0,0,60.43,352.73Z"/><path class="cls-29" d="M59.06,351.94l1,.56a.34.34,0,0,0,.31,0l.92-.53c.09,0,.11-.13,0-.17l-1-.57a.36.36,0,0,0-.32,0l-.91.54C59,351.77,59,351.9,59.06,351.94Z"/><path class="cls-29" d="M57.68,351.15l1,.55a.29.29,0,0,0,.31,0l.92-.52c.08,0,.09-.14,0-.18l-1-.55a.34.34,0,0,0-.31,0l-.92.53C57.62,351,57.62,351.11,57.68,351.15Z"/><path class="cls-29" d="M56.32,350.36l1,.56a.32.32,0,0,0,.3,0l.93-.54c.09,0,.1-.13,0-.17l-1-.55a.31.31,0,0,0-.32,0l-.91.52C56.26,350.24,56.24,350.32,56.32,350.36Z"/><path class="cls-29" d="M55,349.58l1,.55a.36.36,0,0,0,.32,0l.91-.53c.09,0,.11-.13,0-.18l-1-.56a.42.42,0,0,0-.31,0l-.92.53C54.88,349.45,54.87,349.52,55,349.58Z"/><path class="cls-29" d="M53.59,348.79l1,.55a.34.34,0,0,0,.31,0l.92-.53c.09,0,.09-.13,0-.18l-1-.56a.42.42,0,0,0-.31,0l-.92.53C53.51,348.65,53.51,348.73,53.59,348.79Z"/><path class="cls-29" d="M70,358.25l1.63.94a.32.32,0,0,0,.3,0l.92-.53c.1,0,.11-.13,0-.18l-1.62-.94a.44.44,0,0,0-.32,0l-.91.54C69.93,358.14,69.91,358.21,70,358.25Z"/><path class="cls-29" d="M53.47,347.28l1,.55c.07,0,.07.12,0,.18l-1,.55a.28.28,0,0,1-.28,0H53.1a.3.3,0,0,0-.26,0l-1,.59a.37.37,0,0,1-.29,0l-.61-.35c-.08,0-.08-.12,0-.17l1-.56.2-.1.15-.1.14-.08.82-.47A.28.28,0,0,1,53.47,347.28Z"/><path class="cls-29" d="M66.68,360.92l1,.56a.34.34,0,0,0,.31,0l.92-.53c.09,0,.09-.13,0-.17l-1-.56a.34.34,0,0,0-.31,0l-.92.53C66.61,360.8,66.6,360.88,66.68,360.92Z"/><path class="cls-29" d="M65.32,360.14l1,.56a.42.42,0,0,0,.31,0l.92-.53c.09,0,.09-.13,0-.19l-1-.55a.34.34,0,0,0-.31,0l-.92.53A.1.1,0,0,0,65.32,360.14Z"/><path class="cls-29" d="M63.94,359.35l1,.55a.27.27,0,0,0,.3,0l.93-.52c.08,0,.09-.14,0-.18l-1-.55a.34.34,0,0,0-.31,0l-.92.54A.09.09,0,0,0,63.94,359.35Z"/><path class="cls-29" d="M52.35,352.65l1,.56a.36.36,0,0,0,.32,0l.91-.53c.09,0,.11-.13,0-.17l-1-.57a.42.42,0,0,0-.31,0l-.92.54C52.28,352.54,52.27,352.61,52.35,352.65Z"/><path class="cls-29" d="M51,351.88l1,.55a.34.34,0,0,0,.31,0l.92-.54c.09,0,.11-.12,0-.17l-1-.56a.36.36,0,0,0-.32,0l-.91.53C50.92,351.77,50.91,351.77,51,351.88Z"/><path class="cls-29" d="M49.63,351.08l1,.56a.34.34,0,0,0,.31,0l.92-.53c.09,0,.11-.13,0-.17l-1-.57a.36.36,0,0,0-.32,0l-.91.54C49.56,351,49.55,351,49.63,351.08Z"/><path class="cls-29" d="M48.27,350.29l1,.57a.42.42,0,0,0,.31,0l.92-.54c.09,0,.09-.14,0-.17l-1-.56a.32.32,0,0,0-.3,0l-.93.53A.1.1,0,0,0,48.27,350.29Z"/><path class="cls-29" d="M62.25,358.37l1.32.77a.44.44,0,0,0,.32,0l.91-.53c.09,0,.11-.13,0-.18l-1.32-.76a.32.32,0,0,0-.3,0l-.93.53C62.17,358.24,62.16,358.37,62.25,358.37Z"/><path class="cls-29" d="M53.71,353.45l1.32.75a.32.32,0,0,0,.3,0l.93-.53c.09,0,.1-.13,0-.18l-1.32-.76a.42.42,0,0,0-.31,0l-.92.53A.11.11,0,0,0,53.71,353.45Z"/><path class="cls-29" d="M55.43,354.41l6.41,3.71a.34.34,0,0,0,.31,0l.92-.53c.09,0,.09-.13,0-.18l-6.4-3.7a.36.36,0,0,0-.32,0l-.91.53C55.36,354.31,55.35,354.41,55.43,354.41Z"/><path class="cls-29" d="M66.93,358l1,.55a.34.34,0,0,0,.31,0l.92-.53c.09,0,.11-.13,0-.18l-1-.56a.44.44,0,0,0-.32,0l-.91.53A.11.11,0,0,0,66.93,358Z"/><path class="cls-29" d="M65.57,357.22l1,.56a.34.34,0,0,0,.31,0l.92-.53c.09,0,.09-.13,0-.17l-1-.56a.34.34,0,0,0-.31,0l-.92.53C65.5,357.05,65.49,357.18,65.57,357.22Z"/><path class="cls-29" d="M64.19,356.44l1,.56a.42.42,0,0,0,.31,0l.92-.53c.08,0,.09-.13,0-.18l-1-.56a.42.42,0,0,0-.31,0l-.92.53A.1.1,0,0,0,64.19,356.44Z"/><path class="cls-29" d="M62.83,355.65l1,.56a.32.32,0,0,0,.3,0l.93-.53c.09,0,.1-.13,0-.19l-1-.55a.32.32,0,0,0-.3,0l-.93.54C62.77,355.53,62.76,355.61,62.83,355.65Z"/><path class="cls-29" d="M61.47,354.86l1,.55a.27.27,0,0,0,.3,0l.93-.54c.09,0,.1-.13,0-.17l-1-.55a.34.34,0,0,0-.31,0l-.92.53C61.41,354.74,61.39,354.82,61.47,354.86Z"/><path class="cls-29" d="M60.11,354.08l1,.56a.39.39,0,0,0,.3,0l.93-.53c.08,0,.09-.13,0-.19l-1-.55a.32.32,0,0,0-.3,0l-.93.53A.1.1,0,0,0,60.11,354.08Z"/><path class="cls-29" d="M58.74,353.29l1,.55a.36.36,0,0,0,.32,0l.91-.53c.1,0,.11-.13,0-.17l-1-.56a.34.34,0,0,0-.31,0l-.92.54C58.67,353.17,58.66,353.25,58.74,353.29Z"/><path class="cls-29" d="M57.38,352.5l.91.59a.34.34,0,0,0,.31,0l.92-.54c.09,0,.11-.13,0-.17l-1-.56a.36.36,0,0,0-.32,0l-.91.53A.11.11,0,0,0,57.38,352.5Z"/><path class="cls-29" d="M56,351.77l1,.55a.34.34,0,0,0,.31,0l.92-.52c.09,0,.09-.14,0-.19l-1-.55a.34.34,0,0,0-.31,0l-.92.52C55.94,351.58,55.94,351.66,56,351.77Z"/><path class="cls-29" d="M54.65,350.92l1,.56a.36.36,0,0,0,.32,0l.91-.53c.09,0,.1-.13,0-.17l-1-.57a.39.39,0,0,0-.3,0l-.92.54C54.58,350.81,54.57,350.88,54.65,350.92Z"/><path class="cls-29" d="M53.29,350.13l1,.57a.32.32,0,0,0,.3,0l.93-.54c.09,0,.1-.13,0-.17l-1-.56a.34.34,0,0,0-.31,0l-.91.53C53.22,350,53.21,350.09,53.29,350.13Z"/><path class="cls-29" d="M51.93,349.35l1,.56a.39.39,0,0,0,.3,0l.93-.53c.09,0,.09-.13,0-.19l-1-.55a.32.32,0,0,0-.3,0l-.92.53A.1.1,0,0,0,51.93,349.35Z"/><path class="cls-29" d="M68.29,358.81l2,1.15a.39.39,0,0,0,.3,0l.91-.53c.09,0,.11-.13,0-.19l-2-1.14a.29.29,0,0,0-.31,0l-.92.52C68.22,358.68,68.21,358.76,68.29,358.81Z"/><path class="cls-29" d="M66.28,359.17l1,.56a.32.32,0,0,0,.3,0l.92-.54c.1,0,.11-.13,0-.17l-1-.55a.27.27,0,0,0-.3,0l-.93.52A.11.11,0,0,0,66.28,359.17Z"/><path class="cls-29" d="M64.89,358.37l1,.56a.39.39,0,0,0,.3,0l.93-.53c.09,0,.1-.13,0-.19l-1-.55a.32.32,0,0,0-.3,0l-.92.53Z"/><path class="cls-29" d="M63.57,357.59l1,.56a.32.32,0,0,0,.3,0l.93-.53c.08,0,.09-.13,0-.17l-1-.57a.39.39,0,0,0-.3,0l-.93.54C63.48,357.47,63.48,357.55,63.57,357.59Z"/><path class="cls-29" d="M62.25,356.8l1,.57a.34.34,0,0,0,.31,0l.92-.54c.09,0,.1-.13,0-.17l-1-.56a.32.32,0,0,0-.3,0l-.93.53C62.12,356.68,62.11,356.76,62.25,356.8Z"/><path class="cls-29" d="M60.83,356l1,.56a.39.39,0,0,0,.3,0l.93-.53c.09,0,.11-.13,0-.19l-1-.55a.36.36,0,0,0-.32,0l-.91.53A.1.1,0,0,0,60.83,356Z"/><path class="cls-29" d="M59.47,355.23l1,.55a.27.27,0,0,0,.3,0l.93-.52c.09,0,.09-.14,0-.18l-1-.55a.34.34,0,0,0-.31,0l-.92.53C59.39,355.11,59.39,355.19,59.47,355.23Z"/><path class="cls-29" d="M58.09,354.41l1,.56a.42.42,0,0,0,.31,0l.92-.53c.09,0,.1-.13,0-.19l-1-.55a.32.32,0,0,0-.3,0l-.93.53C58,354.32,58,354.41,58.09,354.41Z"/><path class="cls-29" d="M56.73,353.66l1,.55a.32.32,0,0,0,.3,0l.93-.53c.09,0,.1-.13,0-.18L58,353a.36.36,0,0,0-.32,0l-.91.54A.09.09,0,0,0,56.73,353.66Z"/><path class="cls-29" d="M55.37,352.87l1,.55a.32.32,0,0,0,.3,0l.93-.54c.09,0,.09-.13,0-.17l-1-.56a.34.34,0,0,0-.31,0l-.92.53C55.31,352.75,55.29,352.83,55.37,352.87Z"/><path class="cls-29" d="M54,352.09l1,.55a.32.32,0,0,0,.3,0l.92-.53c.08,0,.1-.13,0-.18l-1-.56a.39.39,0,0,0-.3,0l-.93.53C53.93,352,53.93,352,54,352.09Z"/><path class="cls-29" d="M52.64,351.29l1,.56a.36.36,0,0,0,.32,0l.91-.53c.09,0,.11-.13,0-.17l-1-.57a.42.42,0,0,0-.31,0l-.92.54C52.57,351.18,52.56,351.25,52.64,351.29Z"/><path class="cls-29" d="M49.59,349.54l2.64,1.53a.32.32,0,0,0,.3,0l.93-.54c.09,0,.1-.13,0-.17l-2.64-1.54a.36.36,0,0,0-.32,0l-.91.53C49.52,349.41,49.51,349.49,49.59,349.54Z"/><path class="cls-29" d="M67.64,360l1.32.76a.34.34,0,0,0,.31,0l.92-.54c.09,0,.11-.13,0-.17l-1.32-.77a.39.39,0,0,0-.3,0l-.93.55C67.54,359.84,67.54,359.92,67.64,360Z"/></g><g id="_Группа_6" data-name=" Группа 6"><g id="_Группа_7" data-name=" Группа 7"><g id="_Группа_8" data-name=" Группа 8"><path id="_Контур_8" data-name=" Контур 8" class="cls-26" d="M77.65,357.25h0L55.76,344.6V327.43l.17-.4.17-.08h0a1.53,1.53,0,0,1,1.52,0l20,11.56a1.53,1.53,0,0,1,.75,1.32V356C78.26,356.77,78.1,357,77.65,357.25Z"/><path id="_Контур_9" data-name=" Контур 9" class="cls-26" d="M75.64,340.56,55.76,328v-.57l.17-.4.17-.08a1.53,1.53,0,0,1,1.52,0l20,11.56a1.35,1.35,0,0,1,.57.61Z"/><path id="_Контур_10" data-name=" Контур 10" class="cls-30" d="M56.26,327l21,12.14a.73.73,0,0,1,.37.64v17.48L55.76,344.6V327.29a.32.32,0,0,1,.32-.34A.3.3,0,0,1,56.26,327Z"/><path id="_Контур_11" data-name=" Контур 11" class="cls-27" d="M56.26,327l21,12.14a.73.73,0,0,1,.37.64v17.48L55.76,344.6V327.29a.32.32,0,0,1,.32-.34A.3.3,0,0,1,56.26,327Z"/><polygon id="_Контур_12" data-name=" Контур 12" class="cls-31" points="77.65 357.25 77.65 356.62 55.76 343.98 55.76 344.6 77.65 357.25"/></g><polygon id="_Контур_13" data-name=" Контур 13" class="cls-32" points="56.32 343.69 56.32 327.91 56.59 328.05 56.59 343.56 56.32 343.69"/><polygon id="_Контур_14" data-name=" Контур 14" class="cls-29" points="56.59 328.05 56.59 343.56 76.95 355.27 76.95 339.81 56.59 328.05"/><polygon id="_Контур_15" data-name=" Контур 15" class="cls-33" points="56.32 343.69 76.95 355.59 76.95 355.27 56.59 343.56 56.32 343.69"/></g></g></g></g><path id="_Контур_16" data-name=" Контур 16" class="cls-27" d="M32.75,324.26c-.53,1.32.81,2.88,4.33,4s3.85-.31,3.85-.31a68.39,68.39,0,0,1,6.86,3.54c2.12,1.47,3.05,5.77,3.34,13,.33,8.38.36,20.79.08,22.94,0,0-4,4-9,3.53s-13.6-4.9-15.66-8.36c0-7.34.91-8.55-.28-12.77-2.72-9.68-4.16-13.64-2.82-20.09,1.08-5.28,2.64-5.95,4.71-5.9A44.69,44.69,0,0,1,32.75,324.26Z"/><path id="_Контур_17" data-name=" Контур 17" class="cls-24" d="M59.47,353.45c-4.16,1.05-5.14-1.57-5.68-3.74-1.32-5.28-2-10-3-13-1.16-3.51-2.37-4.08-4.09-4.76-2-.81-3.72.89-3.06,5.37a90.21,90.21,0,0,0,3.81,15.29,13.53,13.53,0,0,0,3.41,5.95c2.15,1.74,5.39,1.66,10.27.45a55.77,55.77,0,0,0,8.32-3.61c1.06-.49,1.88-.82,4-1.77a13.77,13.77,0,0,0,5.28-4.07c1.06-1.54,1.2-2.27,1-2.64s-.77-.34-1.32.31a11.24,11.24,0,0,1-3,2.76s1.32-1.32,2-2.23A11.47,11.47,0,0,0,79,345.11c.38-.89-.4-2.11-1-1.48S77.1,345,76,346.28a11.1,11.1,0,0,1-1.92,1.83,20.92,20.92,0,0,0,1.78-2.85,4.89,4.89,0,0,0,.65-2.64c0-.46-.7-1-1.32-.13a17.71,17.71,0,0,1-2.38,3.5c-.95,1-1.76,1.55-1.78,1.32s.58-.82.91-2,0-2.36-.64-2.49-.51-.11-1,1a28,28,0,0,0-1.89,3.44,7.24,7.24,0,0,1-1.72,2.94C65.69,351.25,63.43,352.46,59.47,353.45Z"/><path id="_Контур_18" data-name=" Контур 18" class="cls-25" d="M45.09,331.23c2.77-.41,4.74.85,6,5s2.08,7.66,2.08,7.66A7.54,7.54,0,0,1,48.48,347c-3.32.8-4.52-.78-4.52-.78s-.92-4.41-1.49-7.41S41.7,331.74,45.09,331.23Z"/><path class="cls-29" d="M46.51,309.69s4.39-6.67-5.12-8c-6.86-1-11.27,3.43-11.77,8.21-.49,4.57,2.32,9.31,4.35,11.19a8.23,8.23,0,0,0,5.92-.71A33.58,33.58,0,0,0,40,316.6S36.69,309.58,46.51,309.69Z"/><polygon class="cls-21" points="65.54 394.1 65.54 374.06 49.63 383.35 55.76 396.01 65.54 394.1"/><polygon class="cls-4" points="19.11 373.21 25.21 369.67 29.53 372.17 23.2 375.76 19.11 373.21"/></svg>